<svg xmlns="http://www.w3.org/2000/svg" xmlns:xlink="http://www.w3.org/1999/xlink" viewBox="45.87 113.85 50.28 13.53">
  <g stroke-linecap="round" stroke-linejoin="round" stroke-width=".465" paint-order="fill markers stroke">
      <path fill="#fff" d="m52.820223 121.15899-1.513412-4.05341q-.04233-.10583-.179916-.1905-.137583-.0847-.306915-.0847-.148167 0-.306916.0847-.15875.0847-.190499.1905l-3.047991 8.69947h-1.407579l3.27024-9.22863q.08467-.22225.222249-.42334.137583-.21166.338666-.37041.211666-.16933.486832-.26458.275165-.0953.634998-.0953.359832 0 .624414.0953.264583.0952.465665.26458.201083.15875.338666.37041.148166.20109.253999.42334l.317499.63499.317499-.63499q.116417-.22225.253999-.42334.148167-.21166.338666-.37041.201083-.16933.465665-.26458.264583-.0953.624415-.0953.349249 0 .624415.0953.285749.0952.486831.26458.211666.15875.349249.37041.148166.20109.22225.42334l3.270239 9.22863h-1.407579l-3.04799-8.69947q-.03175-.10583-.190499-.1905-.15875-.0847-.306916-.0847-.169333 0-.306916.0847t-.179916.1905zm0 4.64606-2.000243-5.33398-1.756828 5.33398h-1.407579l2.899824-8.43489q.02117-.0635.105833-.10583.08467-.0529.15875-.0529.07408 0 .148166.0529.08467.0423.105833.10583l1.746244 4.81541 1.746245-4.81541q.02117-.0635.09525-.10583.08467-.0529.15875-.0529.07408 0 .158749.0529.08467.0423.105833.10583l2.899824 8.43489h-1.354662l-1.809744-5.33398z" />
      <path fill="#fff" d="M61.890106 125.80505q-.761998 0-1.312329-.17991-.550332-.17992-.920747-.56092-.359833-.39158-.539749-.99483-.169333-.61383-.169333-1.46049v-3.98991q0-.87841.169333-1.48166.179916-.61383.539749-.99483.370415-.381.920747-.55033.550331-.16933 1.312329-.16933h1.354662q.772581 0 1.322913.16933.560914.16933.920747.55033.359832.381.529165.99483.169332.60325.169332 1.48166v3.98991q0 .84666-.169332 1.46049-.169333.60325-.529165.99483-.359833.381-.920747.56092-.550332.17991-1.322913.17991zm1.502828-1.40758q.402166 0 .677331-.10583.275166-.11641.444499-.3175.179916-.20108.253999-.47625.08467-.27516.08467-.59266v-4.58257q0-.3175-.08467-.59266-.07408-.27517-.253999-.47625-.169333-.20109-.455082-.30692-.275166-.11641-.677331-.11641h-1.629828q-.402166 0-.687915.11641-.275165.10583-.455082.30692-.169332.20108-.253999.47625-.07408.27516-.07408.59266v4.58257q0 .3175.07408.59266.08467.27517.253999.47625.179917.20109.455082.3175.275166.10583.677332.10583h.825497zm-1.513412-.38099q-.370415 0-.613831-.0635-.232833-.0741-.370415-.23284-.127-.15875-.179917-.40216-.05292-.254-.05292-.62442v-4.15923q0-.27517.05292-.51858.05292-.24342.1905-.42334.137583-.17991.370415-.27516.243416-.10584.613832-.10584h1.354662q.370416 0 .603248.10584.243416.0952.380999.27516.137583.17992.190499.42334.05292.24341.05292.51858v4.15923q0 .37042-.05292.62442-.05292.24341-.190499.40216-.127.15875-.370416.23284-.232832.0635-.603248.0635zm1.026581-1.40758q.126999 0 .158749-.0741.04233-.0741.04233-.20108v-3.43957q0-.127-.04233-.20108-.03175-.0741-.158749-.0741h-.677332q-.126999 0-.169332.0741-.03175.0741-.03175.20108v3.43957q0 .127.03175.20108.04233.0741.169332.0741zm7.69405 1.78857q.402166 0 .677331-.10583.275166-.11641.444499-.3175.179916-.20108.253999-.47625.08467-.27516.08467-.59266v-4.58257q0-.3175-.08467-.59266-.07408-.27517-.253999-.47625-.169333-.20109-.455082-.30692-.275166-.11641-.677331-.11641h-4.212153v-1.40758h4.07457q.772581 0 1.322912.16933.560915.16933.920747.55033.359833.381.529165.99483.169333.60325.169333 1.48166v3.98991q0 .84666-.169333 1.46049-.169332.60325-.529165.99483-.359832.381-.920747.56092-.550331.17991-1.322912.17991h-4.07457v-6.84739h1.333495v5.43981zm-4.222736-5.77848v-1.40758h4.07457q.370415 0 .603248.10584.243416.0952.380999.27516.137583.17992.190499.42334.05292.24341.05292.51858v4.15923q0 .37042-.05292.62442-.05292.24341-.190499.40216-.127.15875-.370416.23284-.232832.0635-.603248.0635h-2.370659v-5.05882h1.481662v3.37607q0 .27517.264583.27517h.232832q.127 0 .201083-.0741.08467-.0741.08467-.20108v-3.43957q0-.127-.08467-.20108-.07408-.0741-.201083-.0741zm7.154312 0q0-.66674.243416-1.24883.243416-.59266.645581-1.01599.412749-.43392.941914-.67733.539748-.254 1.111246-.254h4.011071v1.40758h-3.841738q-.402166 0-.719665.15875-.317499.15874-.539748.41274-.211666.254-.328082.58209-.116416.31749-.116416.63499v3.98991q0 .3175.116416.64558.116416.3175.328082.5715.222249.254.539748.41275.317499.15874.719665.15874h3.841738v1.40758h-4.011071q-.571498 0-1.111246-.24341-.529165-.254-.941914-.67733-.402165-.43392-.645581-1.016-.243416-.59266-.243416-1.25941zm1.788577 1.82033v-1.60866q0-.27517.08467-.56092.09525-.29633.275166-.52916.179916-.23283.455081-.381.275166-.14817.645582-.14817h3.704155v1.40758h-3.672405q-.0635 0-.137583.0741-.0635.0741-.0635.20108v.14817h3.069157v1.39699zm0 .34925h4.36032v1.40758h-3.069157v.13758q0 .127.0635.20108.07408.0741.137583.0741h3.672405v1.40758h-3.704155q-.370416 0-.645582-.14817-.275165-.14817-.455081-.381-.179917-.23283-.275166-.51858-.08467-.29633-.08467-.5715zm12.308386 5.01648h-4.01107q-.571498 0-1.111247-.24341-.529165-.254-.941913-.67733-.402166-.43392-.645581-1.016-.243416-.59266-.243416-1.25941v-7.18606h1.407578v7.18606q0 .3175.116417.64558.116416.3175.328082.5715.222249.254.539748.41275.317499.15874.719665.15874h3.841737zm-3.513655-3.19615h3.513655v1.40758h-3.704154q-.370416 0-.645582-.14817-.275165-.14817-.455082-.381-.179916-.23283-.275165-.51858-.08467-.29633-.08467-.5715v-6.97439h1.449912v6.91089q0 .127.0635.20108.07408.0635.137583.0635z"/>
      <path fill="#fff" stroke="url(#h)" d="M94.520869 122.61999c0 .44211-.08114.85615-.24341 1.24212-.162279.39298-.377474.72982-.645584 1.01052-.275166.28773-.589137.51229-.941914.6737-.359832.16842-.730247.25263-1.111246.25263h-4.011071v-1.4h3.841738c.26811 0 .507998-.0526.719664-.1579.211666-.10527.391582-.24211.539749-.41054.141111-.16841.250471-.3614.328082-.57895.07761-.21052.116416-.42105.116416-.63158v-3.96845c0-.21053-.0388-.42456-.116416-.64211-.07761-.21053-.186971-.40001-.328082-.56842-.148167-.16842-.328083-.30526-.539749-.41053-.211666-.10527-.451554-.1579-.719664-.1579H83.9v-1.40001h7.678715c.380999 0 .751414.0807 1.111246.2421.352777.16843.666748.39299.941914.6737.26811.28771.483305.62455.645584 1.01052.162273.39299.24341.81054.24341 1.25265zm-1.788574-1.81055v1.60002c0 .18246-.02822.36843-.08467.5579-.0635.19649-.155222.37193-.275166.52631-.119944.1544-.271638.28072-.455082.37896-.183443.0982-.398637.14738-.645581.14738h-3.704155v-1.40002h3.672405c.04233 0 .08819-.0246.137583-.0737.04233-.0491.0635-.1158.0635-.20001v-.14734h-3.069157v-1.3895zm0-.34736h-4.36032v-1.40002h3.069157v-.13684c0-.0842-.02117-.15087-.0635-.2-.04939-.0491-.09525-.0737-.137583-.0737H83.9v-1.40001h7.371799c.246944 0 .462138.0491.645581.14736.183444.0982.335138.22457.455082.37896.119944.15439.211666.32632.275166.51579.05645.19649.08467.38597.08467.56842z" />
  </g>
</svg>