<svg xmlns="http://www.w3.org/2000/svg" viewBox="0 0 74.075 41.225">
  <g fill="#ffdf00" stroke-width="1.065" color="#000" >
    <path d="M86.38 144.975v8.037l-7.789 24.085h7.789v8.037H67.132v-5.83l8.036-26.292h-7.094v-8.037z" transform="translate(-61.248 -144.441)"/>
    <path fill="#000" d="M67.541 144.441v9.104h6.906l-7.847 25.68v6.441h20.312v-9.102h-7.59l7.59-23.468v-8.655h-.531zm1.066 1.067h17.24v7.42l-7.988 24.7h7.989v6.974H67.664v-5.217l8.225-26.906h-7.282z" transform="translate(-61.248 -144.441)"/>
    <path d="M106.546 144.975v8.037l-7.788 24.085h7.788v8.037H87.298v-5.83l8.037-26.292H88.24v-8.037z" transform="translate(-61.248 -144.441)"/>
    <path fill="#000" d="M87.707 144.441v9.104h6.908l-7.85 25.68v6.441h20.313v-9.102h-7.59l7.59-23.468v-8.655h-.531zm1.066 1.067h17.24v7.42l-7.988 24.7h7.989v6.974H87.83v-5.217l8.225-26.906h-7.282z" transform="translate(-61.248 -144.441)"/>
    <path d="M126.712 144.975v8.037l-7.788 24.085h7.788v8.037h-19.248v-5.83l8.037-26.292h-7.094v-8.037z" transform="translate(-61.248 -144.441)"/>
    <path fill="#000" d="M107.875 144.441v9.104h6.906l-7.85 25.68v6.441h20.313v-9.102h-7.59l7.59-23.468v-8.655h-.531zm1.064 1.067h17.24v7.42l-7.988 24.7h7.989v6.974h-18.184v-5.217l8.225-26.906h-7.282z" transform="translate(-61.248 -144.441)"/>
  </g>
  <path fill="#ffdf00" stroke="#000" stroke-linecap="round" stroke-linejoin="round" stroke-width="1.165" d="M.582 16.032h72.91v10.722H.582z" paint-order="stroke fill markers"/>
    <path d="M71.692 169.408v-.93l3.88-4.853q.414-.516.786-.899h-4.227v-.894h5.426v.894l-4.253 5.256-.46.532h4.837v.894zm6.238 0 2.909-7.576h1.08l3.1 7.576h-1.142l-.883-2.294h-3.168l-.832 2.294zm2.185-3.111h2.569l-.791-2.098q-.362-.956-.538-1.571-.144.729-.408 1.447zm11.111.455 1.002.253q-.315 1.235-1.137 1.886-.816.646-2 .646-1.224 0-1.994-.496-.765-.501-1.168-1.447-.398-.946-.398-2.03 0-1.184.45-2.063.454-.883 1.286-1.338.837-.46 1.84-.46 1.137 0 1.912.579.775.579 1.08 1.628l-.987.232q-.264-.827-.765-1.204t-1.26-.377q-.874 0-1.463.418-.584.419-.822 1.127-.238.703-.238 1.452 0 .966.28 1.69.284.718.878 1.075.594.356 1.287.356.842 0 1.426-.485.584-.486.79-1.442zm7.643 0 1.002.253q-.315 1.235-1.137 1.886-.816.646-2 .646-1.224 0-1.994-.496-.765-.501-1.168-1.447-.398-.946-.398-2.03 0-1.184.45-2.063.454-.883 1.286-1.338.837-.46 1.84-.46 1.137 0 1.912.579.775.579 1.08 1.628l-.987.232q-.264-.827-.765-1.204t-1.26-.377q-.874 0-1.463.418-.584.419-.822 1.127-.238.703-.238 1.452 0 .966.28 1.69.284.718.878 1.075.594.356 1.287.356.842 0 1.426-.485.584-.486.79-1.442zm1.405 2.656 2.91-7.576h1.08l3.1 7.576h-1.142l-.884-2.294h-3.167l-.832 2.294zm2.186-3.111h2.568l-.79-2.098q-.362-.956-.538-1.571-.144.729-.408 1.447zm5.72 3.111v-7.576h3.36q1.012 0 1.54.207.527.201.842.718.315.517.315 1.142 0 .806-.522 1.36-.522.552-1.612.702.398.191.604.377.44.403.832 1.008l1.318 2.062h-1.26l-1.003-1.576q-.44-.682-.724-1.044t-.511-.506q-.222-.145-.455-.202-.17-.036-.558-.036h-1.163v3.364zm1.003-4.232h2.155q.687 0 1.075-.14.387-.145.589-.455.202-.315.202-.682 0-.537-.393-.883-.388-.347-1.23-.347h-2.398zm6.796 4.232v-7.576h1.002v7.576zm1.937 0 2.91-7.576h1.08l3.1 7.576h-1.142l-.883-2.294h-3.168l-.832 2.294zm2.186-3.111h2.569l-.791-2.098q-.362-.956-.537-1.571-.145.729-.409 1.447z" aria-label="ZACCARIA" font-family="Microgramma" font-size="10.583" style="-inkscape-font-specification:Arial" transform="translate(-61.248 -144.441)"/>
</svg>