<svg xmlns="http://www.w3.org/2000/svg" viewBox="0 0 83.037 18.036">
    <path fill="#687679" d="M68.626 109.732q-.444-.222-.9-.286-.444-.063-1.153-.063h-.36q-1.947 0-3.301 1.206-1.355 1.207-1.355 2.942 0 1.726 1.355 2.953 1.354 1.228 3.301 1.228.646 0 1.239-.085.603-.074 1.174-.212v-1.238q-.433.159-1.206.254-.762.096-1.132.096-.657 0-.657-.89v-4.042q0-.445.18-.71.19-.264.487-.338.307-.085.603-.085.752 0 1.725.318zm.953-.254v8.107h6.054v-1.058h-2v-2.646h1.777v-1.07h-1.778v-2.275h1.778v-1.058zm6.921 8.107h1.218v-3.704l3.725 3.704h2.476l-.02-8.107H82.68v3.164l-3.344-3.164H76.5zm13.674 0v-7.049h1.238v-1.058h-6.53v1.058h1.239v7.049zm2.096-8.107v6.16q0 .825.698 1.344.9.666 2.815.666 1.916 0 2.815-.656.72-.518.72-1.354v-6.16H97.91v6.16q0 .433-.232.656-.223.211-.55.211-.329 0-.572-.222-.233-.222-.233-.645v-6.16zm15.07 5.852q.688-.412 1.006-1.121.275-.625.275-1.482 0-1.471-.932-2.296-1.1-.974-3.47-.974h-4.054v8.128h4.053v-1.588l1.069 1.588h3.874zm-3.122-4.794q.487 0 .857.223.381.211.381.582v2.73q0 .37-.349.582-.339.201-.889.201zm5.376-1.058 1.948 4.593v3.514h3.884v-4.403l2.106-3.704h-1.323l-1.323 2.117-1.238-2.117zm-61.743 9.707v8.107h6.054v-1.059h-2v-2.646h1.778v-1.068h-1.778v-2.276h1.778v-1.058zm6.922 0v8.107h6.35v-1.059h-2.297v-7.048zm7.101 0v8.107h6.054v-1.059h-2v-2.646h1.778v-1.068h-1.778v-2.276h1.778v-1.058zm13.97.254q-.444-.222-.9-.286-.444-.063-1.153-.063h-.36q-1.947 0-3.302 1.206-1.354 1.207-1.354 2.942 0 1.725 1.354 2.953 1.355 1.228 3.302 1.228.646 0 1.239-.085.603-.074 1.174-.212v-1.238q-.434.159-1.206.254-.762.095-1.133.095-.656 0-.656-.889v-4.042q0-.445.18-.71.19-.264.487-.338.307-.085.603-.085.752 0 1.725.318zm6.244 7.853v-7.049h1.239v-1.058h-6.53v1.058h1.238v7.049zm9.272-2.255q.687-.412 1.005-1.121.275-.625.275-1.482 0-1.471-.931-2.297-1.101-.973-3.472-.973h-4.053v8.128h4.053v-1.588l1.07 1.588h3.873zm-3.123-4.794q.487 0 .858.222.38.212.38.582v2.731q0 .37-.349.582-.338.201-.889.201zm10.043-1.153q-1.925 0-3.301 1.227-1.365 1.217-1.365 2.921 0 1.725 1.365 2.953 1.365 1.228 3.302 1.228 1.947 0 3.312-1.228 1.366-1.228 1.366-2.953 0-1.714-1.366-2.931-1.365-1.217-3.312-1.217zm.043 1.153q.35 0 .445.127.158.201.158.953v3.968q0 .646-.158.826-.106.116-.445.116-.444 0-.55-.211-.106-.223-.106-.73v-4.012q0-.688.18-.9.116-.137.476-.137zm5.091 7.049h1.217v-3.705l3.725 3.705h2.477l-.022-8.107h-1.217v3.164l-3.344-3.164h-2.836zm8.382-8.107v8.107h4.053v-8.107zm12.213.254q-.445-.222-.9-.286-.444-.063-1.153-.063h-.36q-1.947 0-3.302 1.206-1.355 1.207-1.355 2.942 0 1.725 1.355 2.953 1.355 1.228 3.302 1.228.645 0 1.238-.085.603-.074 1.175-.212v-1.238q-.434.159-1.207.254-.762.095-1.132.095-.656 0-.656-.889v-4.042q0-.445.18-.71.19-.264.487-.338.306-.085.603-.085.751 0 1.725.318zm6.075-.106q-.667-.138-1.291-.222-.625-.085-1.207-.085-1.46 0-2.127.466-.614.434-.614 1.29 0 .562.265 1.324l1.217 2.71q.063.147.116.317.053.169.053.328 0 .349-.254.54-.328.253-1.058.253v.868q.635.138 1.196.18.571.053 1.439.053 1.26 0 2.117-.53.952-.581.952-1.565 0-.54-.265-1.112l-1.217-2.36q-.18-.307-.254-.529-.074-.222-.074-.402 0-.35.275-.487.276-.148.71-.148z" transform="translate(-47.851 -109.383)"/>
</svg>