<?xml version="1.0" encoding="UTF-8" ?>
<!DOCTYPE svg PUBLIC "-//W3C//DTD SVG 1.1//EN" "http://www.w3.org/Graphics/SVG/1.1/DTD/svg11.dtd">
<svg width="400pt" height="90pt" viewBox="0 0 400 90" version="1.1" xmlns="http://www.w3.org/2000/svg">
<g id="#000000ff">
<path fill="#000000" stroke="#000000" stroke-width="0.09375" opacity="1.00" d=" M 25.60 0.00 L 69.39 0.00 C 75.47 1.55 81.78 4.15 85.48 9.50 C 90.68 17.01 92.37 27.53 87.77 35.74 C 83.84 43.28 75.33 47.49 67.04 47.77 C 60.70 47.96 54.36 47.66 48.02 47.78 C 47.99 52.84 47.98 57.91 48.01 62.97 C 62.16 63.10 76.32 62.89 90.48 63.05 C 90.44 69.17 89.76 75.75 85.60 80.58 C 81.41 85.95 74.66 88.22 68.35 90.00 L 20.60 90.00 C 15.05 88.38 9.31 85.98 5.78 81.18 C 2.96 77.43 1.38 72.94 0.00 68.52 L 0.00 63.51 C 0.80 50.69 0.25 37.84 0.36 25.00 C 0.38 19.21 1.67 13.09 5.71 8.71 C 10.66 2.99 18.38 0.95 25.60 0.00 M 9.99 9.01 C 5.59 12.61 3.78 18.29 3.41 23.78 C 10.19 23.74 16.98 23.74 23.76 23.76 C 23.73 17.07 23.77 10.37 23.75 3.68 C 18.88 4.50 13.78 5.62 9.99 9.01 M 24.79 3.79 C 24.71 10.46 24.73 17.12 24.81 23.78 C 31.46 23.73 38.11 23.75 44.76 23.76 C 44.75 17.11 44.73 10.46 44.78 3.81 C 38.12 3.73 31.46 3.71 24.79 3.79 M 45.79 3.79 C 45.71 10.45 45.73 17.12 45.81 23.78 C 52.52 23.74 59.23 23.72 65.94 23.81 C 66.04 17.13 66.00 10.45 65.99 3.78 C 59.26 3.73 52.52 3.72 45.79 3.79 M 67.28 3.54 C 67.22 10.29 67.26 17.03 67.26 23.78 C 73.91 23.72 80.57 23.78 87.22 23.74 C 86.39 18.68 85.03 13.41 81.39 9.60 C 77.84 5.55 72.45 4.04 67.28 3.54 M 3.44 24.87 C 3.52 31.36 3.54 37.85 3.42 44.34 C 10.21 44.59 17.01 44.57 23.80 44.38 C 23.72 37.86 23.74 31.34 23.78 24.82 C 17.00 24.72 10.22 24.67 3.44 24.87 M 24.79 24.79 C 24.72 31.34 24.73 37.88 24.78 44.43 C 31.45 44.55 38.13 44.56 44.80 44.38 C 44.72 37.86 44.74 31.34 44.79 24.81 C 38.12 24.73 31.45 24.71 24.79 24.79 M 45.79 24.79 C 45.72 31.38 45.68 37.97 45.87 44.56 C 52.56 44.48 59.24 44.46 65.93 44.58 C 66.04 37.98 66.00 31.38 65.99 24.77 C 59.26 24.74 52.52 24.72 45.79 24.79 M 67.01 24.77 C 67.02 31.42 66.96 38.06 67.05 44.70 C 72.05 43.89 77.30 42.69 81.08 39.08 C 85.28 35.55 86.82 30.06 87.45 24.83 C 80.64 24.68 73.82 24.75 67.01 24.77 M 3.56 45.56 C 3.47 52.14 3.46 58.71 3.56 65.29 C 10.31 65.23 17.05 65.23 23.79 65.28 C 23.73 58.73 23.72 52.17 23.80 45.61 C 17.05 45.44 10.30 45.46 3.56 45.56 M 24.78 45.57 C 24.73 52.15 24.73 58.72 24.78 65.30 C 31.44 65.19 38.11 65.22 44.77 65.40 C 44.73 58.80 44.73 52.21 44.78 45.61 C 38.11 45.45 31.44 45.45 24.78 45.57 M 3.57 65.81 C 4.19 70.88 5.41 76.16 8.96 80.03 C 12.50 84.30 18.04 86.02 23.37 86.53 C 23.59 79.61 23.56 72.68 23.37 65.76 C 16.77 65.77 10.17 65.69 3.57 65.81 M 24.84 65.80 C 24.71 72.60 24.71 79.41 24.79 86.21 C 31.45 86.29 38.12 86.27 44.78 86.19 C 44.73 79.51 44.78 72.83 44.71 66.15 C 38.10 65.55 31.46 65.74 24.84 65.80 M 45.81 66.24 C 45.73 72.90 45.71 79.55 45.79 86.21 C 52.52 86.28 59.26 86.26 65.99 86.23 C 66.00 79.56 66.01 72.89 65.97 66.22 C 59.25 66.27 52.53 66.26 45.81 66.24 M 67.03 66.22 C 67.00 72.94 66.96 79.67 67.06 86.39 C 71.94 85.46 77.07 84.30 80.88 80.87 C 85.26 77.32 86.90 71.66 87.40 66.26 C 80.61 66.23 73.82 66.28 67.03 66.22 Z" />
<path fill="#000000" stroke="#000000" stroke-width="0.09375" opacity="1.00" d=" M 29.97 8.98 C 33.24 9.02 36.52 9.03 39.80 9.02 C 39.74 12.20 39.72 15.38 39.74 18.56 C 36.51 18.49 33.28 18.50 30.05 18.57 C 30.04 15.37 30.02 12.18 29.97 8.98 M 33.27 12.19 C 33.27 12.92 33.28 14.37 33.28 15.09 C 34.41 15.02 35.54 14.95 36.66 14.87 C 36.67 14.22 36.68 12.93 36.69 12.29 C 35.55 12.25 34.41 12.22 33.27 12.19 Z" />
<path fill="#000000" stroke="#000000" stroke-width="0.09375" opacity="1.00" d=" M 50.96 8.98 C 54.24 9.02 57.52 9.03 60.80 9.02 C 60.74 12.20 60.72 15.38 60.73 18.56 C 57.51 18.49 54.28 18.50 51.06 18.57 C 51.04 15.37 51.02 12.18 50.96 8.98 M 54.27 12.20 C 54.27 12.92 54.28 14.37 54.28 15.10 C 55.41 15.02 56.54 14.95 57.67 14.87 C 57.67 14.22 57.68 12.93 57.69 12.29 C 56.55 12.25 55.41 12.22 54.27 12.20 Z" />
<path fill="#000000" stroke="#000000" stroke-width="0.09375" opacity="1.00" d=" M 10.17 18.33 C 11.73 14.69 14.38 11.66 18.09 10.12 C 18.19 12.91 18.24 15.70 18.28 18.49 C 15.58 18.47 12.87 18.43 10.17 18.33 Z" />
<path fill="#000000" stroke="#000000" stroke-width="0.09375" opacity="1.00" d=" M 72.67 10.38 C 76.30 11.94 79.33 14.58 80.84 18.30 C 78.06 18.43 75.28 18.48 72.50 18.50 C 72.52 15.79 72.56 13.09 72.67 10.38 Z" />
<path fill="#000000" stroke="#000000" stroke-width="0.09375" opacity="1.00" d=" M 96.14 21.35 C 111.53 21.54 126.93 21.34 142.33 21.47 C 142.62 22.57 142.92 23.68 143.22 24.78 C 151.81 20.32 161.71 21.50 171.04 21.58 C 177.72 21.58 185.13 24.91 187.37 31.63 C 188.94 37.36 188.16 43.38 188.38 49.25 C 191.82 41.84 194.53 34.14 197.48 26.53 C 198.41 24.81 198.86 22.17 201.16 21.86 C 206.31 20.91 211.59 21.66 216.78 21.82 C 220.51 31.73 223.48 41.94 227.91 51.56 C 228.64 41.64 228.15 31.69 228.25 21.75 C 241.26 21.42 254.29 21.33 267.29 22.03 C 273.96 21.80 280.63 21.35 287.31 21.65 C 287.58 32.12 287.42 42.60 287.37 53.07 C 295.57 53.81 304.11 51.93 312.02 54.88 C 316.27 43.79 320.61 32.73 325.05 21.71 C 330.27 21.65 335.59 20.90 340.76 21.94 C 342.80 22.24 343.15 24.56 343.92 26.10 C 346.81 34.20 349.36 42.44 352.77 50.35 C 353.21 40.82 352.89 31.27 353.04 21.73 C 358.36 21.62 363.71 21.09 369.02 21.68 C 371.21 21.73 372.53 23.66 373.74 25.22 C 376.18 28.62 378.43 32.14 380.98 35.46 C 381.24 30.77 381.32 26.07 381.34 21.37 C 387.56 21.48 393.78 21.40 400.00 21.38 L 400.00 71.99 C 394.04 72.06 388.09 71.99 382.13 71.94 C 378.61 66.20 375.02 60.51 371.37 54.86 C 371.30 60.56 371.24 66.26 371.19 71.96 C 360.53 72.03 349.87 72.07 339.22 71.93 C 338.38 69.05 337.53 66.18 336.67 63.31 C 334.15 63.29 331.63 63.26 329.12 63.23 C 328.21 66.08 327.32 68.94 326.46 71.81 C 307.40 72.19 288.33 72.00 269.27 71.92 C 269.30 66.70 269.25 61.49 269.21 56.27 C 261.87 57.98 254.31 57.85 246.83 57.81 C 246.76 62.51 246.72 67.22 246.70 71.92 C 235.78 72.09 224.85 71.99 213.92 72.01 C 213.03 69.16 212.15 66.31 211.26 63.45 C 208.65 63.39 206.04 63.31 203.44 63.23 C 202.57 66.12 201.72 69.01 200.87 71.90 C 194.96 72.14 189.03 72.20 183.14 71.63 C 174.40 70.56 165.67 72.84 156.92 71.98 C 149.65 71.81 141.53 68.43 138.97 61.08 C 136.83 53.96 137.91 46.39 137.77 39.07 C 135.12 39.04 132.48 39.01 129.83 38.99 C 129.58 49.96 129.77 60.93 129.75 71.91 C 123.18 72.05 116.60 72.07 110.03 71.96 C 109.92 60.99 110.08 50.02 109.97 39.05 C 105.32 39.02 100.67 38.98 96.02 38.95 C 95.94 33.08 95.96 27.22 96.14 21.35 M 99.23 24.80 C 99.27 28.45 99.27 32.10 99.24 35.75 C 103.90 35.73 108.56 35.75 113.22 35.78 C 113.28 46.77 113.25 57.76 113.24 68.76 C 117.63 68.73 122.01 68.73 126.40 68.79 C 126.58 57.81 126.52 46.83 126.44 35.86 C 130.77 35.76 135.09 35.72 139.42 35.76 C 139.46 32.10 139.48 28.43 139.48 24.77 C 126.06 24.75 112.64 24.70 99.23 24.80 M 150.33 25.28 C 146.51 26.28 143.65 29.55 142.37 33.19 C 140.45 38.57 141.08 44.39 140.95 50.00 C 140.97 54.69 140.80 60.07 144.31 63.70 C 148.48 68.31 155.15 68.93 160.99 68.79 C 166.62 68.56 172.65 69.58 177.91 67.05 C 182.69 64.70 185.14 59.22 185.01 54.07 C 185.00 48.03 185.13 41.98 184.94 35.95 C 184.90 32.10 182.54 28.55 179.16 26.80 C 174.59 24.09 169.08 24.82 164.00 24.72 C 159.45 24.87 154.81 24.28 150.33 25.28 M 199.49 30.38 C 194.72 43.23 189.26 55.81 184.62 68.71 C 189.26 68.76 193.90 68.76 198.53 68.70 C 199.32 65.80 200.13 62.89 200.95 59.99 C 205.22 60.01 209.50 60.01 213.78 60.04 C 214.55 62.95 215.36 65.85 216.17 68.75 C 220.81 68.74 225.45 68.76 230.10 68.71 C 224.91 54.26 219.96 39.70 214.42 25.39 C 210.59 24.05 206.20 24.73 202.18 24.94 C 200.88 26.52 200.25 28.51 199.49 30.38 M 231.56 24.77 C 231.49 39.44 231.41 54.12 231.60 68.79 C 235.53 68.73 239.46 68.73 243.40 68.79 C 243.49 64.02 243.55 59.25 243.49 54.49 C 249.99 54.39 256.51 54.80 263.00 54.31 C 266.47 54.06 269.46 51.28 270.00 47.85 C 270.61 43.93 270.23 39.93 270.30 35.98 C 270.24 32.91 270.44 29.31 267.98 27.02 C 265.96 24.83 262.81 24.70 260.04 24.71 C 250.55 24.76 241.05 24.73 231.56 24.77 M 272.56 24.75 C 272.49 39.43 272.41 54.11 272.60 68.78 C 284.21 68.73 295.81 68.72 307.42 68.78 C 307.52 64.66 307.48 60.54 307.35 56.42 C 299.64 56.56 291.93 56.53 284.22 56.40 C 284.28 45.85 284.27 35.31 284.22 24.76 C 280.33 24.76 276.44 24.76 272.56 24.75 M 327.20 24.82 C 321.54 39.49 315.69 54.10 309.97 68.75 C 314.63 68.74 319.28 68.75 323.94 68.74 C 324.77 65.87 325.57 62.98 326.34 60.09 C 330.62 60.00 334.89 60.01 339.16 59.98 C 339.98 62.87 340.79 65.76 341.59 68.66 C 346.22 68.76 350.85 68.77 355.48 68.72 C 350.61 53.95 345.00 39.45 339.90 24.76 C 335.67 24.75 331.43 24.76 327.20 24.82 M 356.24 24.82 C 356.26 39.47 356.26 54.11 356.24 68.76 C 360.15 68.73 364.06 68.73 367.97 68.78 C 368.07 60.36 367.86 51.93 368.12 43.51 C 373.70 51.77 378.64 60.43 384.06 68.79 C 388.29 68.73 392.52 68.73 396.76 68.76 C 396.75 54.10 396.73 39.45 396.77 24.79 C 392.69 24.77 388.62 24.76 384.56 24.75 C 384.48 32.16 384.45 39.58 384.56 47.00 C 379.43 39.82 374.92 32.21 369.56 25.21 C 365.22 24.18 360.66 24.92 356.24 24.82 Z" />
<path fill="#000000" stroke="#000000" stroke-width="0.09375" opacity="1.00" d=" M 8.76 29.76 C 12.00 29.77 15.23 29.77 18.46 29.75 C 18.46 32.99 18.47 36.23 18.48 39.48 C 15.23 39.47 11.99 39.46 8.75 39.46 C 8.77 36.23 8.77 33.00 8.76 29.76 M 11.98 32.98 C 11.99 33.79 11.99 35.40 11.99 36.20 C 12.79 36.20 14.38 36.19 15.18 36.18 C 15.18 35.38 15.20 33.79 15.20 32.99 C 14.40 32.99 12.79 32.99 11.98 32.98 Z" />
<path fill="#000000" stroke="#000000" stroke-width="0.09375" opacity="1.00" d=" M 29.97 29.73 C 33.24 29.78 36.51 29.80 39.78 29.77 C 39.73 33.03 39.72 36.30 39.74 39.56 C 36.51 39.49 33.28 39.50 30.05 39.57 C 30.04 36.29 30.02 33.01 29.97 29.73 M 33.20 33.04 C 33.23 33.81 33.28 35.36 33.30 36.14 C 34.42 36.05 35.54 35.97 36.65 35.88 C 36.68 35.21 36.73 33.87 36.75 33.20 C 35.57 33.15 34.38 33.10 33.20 33.04 Z" />
<path fill="#000000" stroke="#000000" stroke-width="0.09375" opacity="1.00" d=" M 50.97 29.73 C 54.24 29.78 57.51 29.80 60.78 29.77 C 60.73 33.03 60.72 36.30 60.74 39.56 C 57.51 39.49 54.28 39.50 51.05 39.57 C 51.04 36.29 51.02 33.01 50.97 29.73 M 54.20 33.04 C 54.22 33.81 54.27 35.35 54.30 36.12 C 55.41 36.05 56.53 35.97 57.64 35.88 C 57.67 35.21 57.73 33.87 57.75 33.20 C 56.57 33.15 55.38 33.10 54.20 33.04 Z" />
<path fill="#000000" stroke="#000000" stroke-width="0.09375" opacity="1.00" d=" M 72.50 29.97 C 75.21 30.00 77.92 30.04 80.63 30.14 C 78.97 33.73 76.35 36.79 72.67 38.40 C 72.56 35.59 72.53 32.78 72.50 29.97 Z" />
<path fill="#000000" stroke="#000000" stroke-width="0.09375" opacity="1.00" d=" M 242.77 34.79 C 247.76 34.86 252.83 34.28 257.76 35.26 C 261.67 35.69 261.04 41.96 257.62 42.60 C 252.72 43.47 247.70 42.86 242.75 42.98 C 242.76 40.25 242.77 37.52 242.77 34.79 M 245.18 38.40 C 249.01 40.56 253.81 40.41 257.71 38.50 C 253.56 37.88 249.34 37.80 245.18 38.40 Z" />
<path fill="#000000" stroke="#000000" stroke-width="0.09375" opacity="1.00" d=" M 154.78 35.84 C 160.43 35.91 166.15 35.25 171.76 36.11 C 174.22 37.43 173.22 40.71 173.55 42.98 C 173.26 47.39 174.38 52.19 172.40 56.30 C 166.54 56.75 159.96 57.89 154.45 55.54 C 153.55 49.03 153.69 42.32 154.78 35.84 M 157.26 38.85 C 157.25 43.78 157.26 48.71 157.29 53.64 C 161.54 53.57 165.79 53.57 170.04 53.64 C 170.33 48.71 170.37 43.76 170.19 38.82 C 165.88 38.70 161.56 38.72 157.26 38.85 Z" />
<path fill="#000000" stroke="#000000" stroke-width="0.09375" opacity="1.00" d=" M 203.68 50.73 C 204.74 46.36 205.87 42.00 207.41 37.77 C 208.72 42.07 209.90 46.40 211.04 50.75 C 208.59 50.74 206.13 50.74 203.68 50.73 Z" />
<path fill="#000000" stroke="#000000" stroke-width="0.09375" opacity="1.00" d=" M 332.68 37.80 C 334.24 42.06 335.41 46.45 336.66 50.80 C 334.12 50.76 331.58 50.73 329.04 50.70 C 330.25 46.40 331.41 42.09 332.68 37.80 Z" />
<path fill="#000000" stroke="#000000" stroke-width="0.09375" opacity="1.00" d=" M 8.75 50.72 C 12.02 50.79 15.28 50.81 18.55 50.82 C 18.50 53.94 18.50 57.06 18.55 60.18 C 15.28 60.19 12.02 60.21 8.76 60.28 C 8.77 57.09 8.77 53.91 8.75 50.72 M 12.00 53.99 C 12.00 54.74 12.00 56.26 11.99 57.01 C 12.79 57.01 14.39 57.00 15.18 57.00 C 15.18 56.25 15.19 54.75 15.19 54.00 C 14.39 54.00 12.80 53.99 12.00 53.99 Z" />
<path fill="#000000" stroke="#000000" stroke-width="0.09375" opacity="1.00" d=" M 29.99 50.73 C 33.25 50.78 36.51 50.80 39.77 50.78 C 39.73 53.93 39.73 57.07 39.77 60.22 C 36.51 60.20 33.25 60.22 29.99 60.27 C 30.02 57.09 30.02 53.91 29.99 50.73 M 33.23 54.06 C 33.24 54.78 33.24 56.22 33.24 56.94 C 34.40 56.89 35.56 56.84 36.72 56.79 C 36.72 56.14 36.71 54.86 36.71 54.21 C 35.55 54.16 34.39 54.11 33.23 54.06 Z" />
<path fill="#000000" stroke="#000000" stroke-width="0.09375" opacity="1.00" d=" M 30.05 71.43 C 33.28 71.50 36.51 71.51 39.73 71.44 C 39.72 74.62 39.74 77.80 39.80 80.98 C 36.52 80.97 33.24 80.98 29.96 81.02 C 30.02 77.82 30.04 74.63 30.05 71.43 M 33.29 74.91 C 33.28 75.63 33.27 77.08 33.27 77.81 C 34.41 77.78 35.55 77.74 36.69 77.71 C 36.68 77.06 36.67 75.77 36.66 75.13 C 35.54 75.05 34.41 74.98 33.29 74.91 Z" />
<path fill="#000000" stroke="#000000" stroke-width="0.09375" opacity="1.00" d=" M 51.05 71.43 C 54.28 71.50 57.51 71.51 60.74 71.44 C 60.72 74.62 60.74 77.80 60.80 80.98 C 57.52 80.97 54.24 80.98 50.97 81.02 C 51.02 77.82 51.04 74.63 51.05 71.43 M 54.29 74.91 C 54.28 75.63 54.27 77.08 54.27 77.80 C 55.41 77.77 56.55 77.74 57.70 77.71 C 57.69 77.07 57.67 75.78 57.66 75.13 C 56.53 75.06 55.41 74.98 54.29 74.91 Z" />
<path fill="#000000" stroke="#000000" stroke-width="0.09375" opacity="1.00" d=" M 9.78 71.86 C 12.61 71.79 15.44 71.77 18.27 71.74 C 18.24 74.41 18.19 77.08 18.09 79.75 C 14.47 78.15 11.50 75.45 9.78 71.86 Z" />
<path fill="#000000" stroke="#000000" stroke-width="0.09375" opacity="1.00" d=" M 72.50 71.49 C 75.19 71.52 77.89 71.57 80.58 71.68 C 78.99 75.29 76.40 78.37 72.69 79.90 C 72.57 77.10 72.52 74.30 72.50 71.49 Z" />
</g>
<g id="#ffffffff">
<path fill="#ffffff" stroke="#ffffff" stroke-width="0.09375" opacity="1.00" d=" M 9.99 9.01 C 13.78 5.62 18.88 4.50 23.75 3.68 C 23.77 10.37 23.73 17.07 23.76 23.76 C 16.98 23.74 10.19 23.74 3.41 23.78 C 3.78 18.29 5.59 12.61 9.99 9.01 M 10.17 18.33 C 12.87 18.43 15.58 18.47 18.28 18.49 C 18.24 15.70 18.19 12.91 18.09 10.12 C 14.38 11.66 11.73 14.69 10.17 18.33 Z" />
<path fill="#ffffff" stroke="#ffffff" stroke-width="0.09375" opacity="1.00" d=" M 24.79 3.79 C 31.46 3.71 38.12 3.73 44.78 3.81 C 44.73 10.46 44.75 17.11 44.76 23.76 C 38.11 23.75 31.46 23.73 24.81 23.78 C 24.73 17.12 24.71 10.46 24.79 3.79 M 29.97 8.98 C 30.02 12.18 30.04 15.37 30.05 18.57 C 33.28 18.50 36.51 18.49 39.74 18.56 C 39.72 15.38 39.74 12.20 39.80 9.02 C 36.52 9.03 33.24 9.02 29.97 8.98 Z" />
<path fill="#ffffff" stroke="#ffffff" stroke-width="0.09375" opacity="1.00" d=" M 45.79 3.79 C 52.52 3.72 59.26 3.73 65.99 3.78 C 66.00 10.45 66.04 17.13 65.94 23.81 C 59.23 23.72 52.52 23.74 45.81 23.78 C 45.73 17.12 45.71 10.45 45.79 3.79 M 50.96 8.98 C 51.02 12.18 51.04 15.37 51.06 18.57 C 54.28 18.50 57.51 18.49 60.73 18.56 C 60.72 15.38 60.74 12.20 60.80 9.02 C 57.52 9.03 54.24 9.02 50.96 8.98 Z" />
<path fill="#ffffff" stroke="#ffffff" stroke-width="0.09375" opacity="1.00" d=" M 67.28 3.54 C 72.45 4.04 77.84 5.55 81.39 9.60 C 85.03 13.41 86.39 18.68 87.22 23.74 C 80.57 23.78 73.91 23.72 67.26 23.78 C 67.26 17.03 67.22 10.29 67.28 3.54 M 72.67 10.38 C 72.56 13.09 72.52 15.79 72.50 18.50 C 75.28 18.48 78.06 18.43 80.84 18.30 C 79.33 14.58 76.30 11.94 72.67 10.38 Z" />
<path fill="#ffffff" stroke="#ffffff" stroke-width="0.09375" opacity="1.00" d=" M 3.44 24.87 C 10.22 24.67 17.00 24.72 23.78 24.82 C 23.74 31.34 23.72 37.86 23.80 44.38 C 17.01 44.57 10.21 44.59 3.42 44.34 C 3.54 37.85 3.52 31.36 3.44 24.87 M 8.76 29.76 C 8.77 33.00 8.77 36.23 8.75 39.46 C 11.99 39.46 15.23 39.47 18.48 39.48 C 18.47 36.23 18.46 32.99 18.46 29.75 C 15.23 29.77 12.00 29.77 8.76 29.76 Z" />
<path fill="#ffffff" stroke="#ffffff" stroke-width="0.09375" opacity="1.00" d=" M 24.79 24.79 C 31.45 24.71 38.12 24.73 44.79 24.81 C 44.74 31.34 44.72 37.86 44.80 44.38 C 38.13 44.56 31.45 44.55 24.78 44.43 C 24.73 37.88 24.72 31.34 24.79 24.79 M 29.97 29.73 C 30.02 33.01 30.04 36.29 30.05 39.57 C 33.28 39.50 36.51 39.49 39.74 39.56 C 39.72 36.30 39.73 33.03 39.78 29.77 C 36.51 29.80 33.24 29.78 29.97 29.73 Z" />
<path fill="#ffffff" stroke="#ffffff" stroke-width="0.09375" opacity="1.00" d=" M 45.79 24.79 C 52.52 24.72 59.26 24.74 65.99 24.77 C 66.00 31.38 66.04 37.98 65.93 44.58 C 59.24 44.46 52.56 44.48 45.87 44.56 C 45.68 37.97 45.72 31.38 45.79 24.79 M 50.97 29.73 C 51.02 33.01 51.04 36.29 51.05 39.57 C 54.28 39.50 57.51 39.49 60.74 39.56 C 60.72 36.30 60.73 33.03 60.78 29.77 C 57.51 29.80 54.24 29.78 50.97 29.73 Z" />
<path fill="#ffffff" stroke="#ffffff" stroke-width="0.09375" opacity="1.00" d=" M 67.01 24.77 C 73.82 24.75 80.64 24.68 87.45 24.83 C 86.82 30.06 85.28 35.55 81.08 39.08 C 77.30 42.69 72.05 43.89 67.05 44.70 C 66.96 38.06 67.02 31.42 67.01 24.77 M 72.50 29.97 C 72.53 32.78 72.56 35.59 72.67 38.40 C 76.35 36.79 78.97 33.73 80.63 30.14 C 77.92 30.04 75.21 30.00 72.50 29.97 Z" />
<path fill="#ffffff" stroke="#ffffff" stroke-width="0.09375" opacity="1.00" d=" M 99.23 24.80 C 112.64 24.70 126.06 24.75 139.48 24.77 C 139.48 28.43 139.46 32.10 139.42 35.76 C 135.09 35.72 130.77 35.76 126.44 35.86 C 126.52 46.83 126.58 57.81 126.40 68.79 C 122.01 68.73 117.63 68.73 113.24 68.76 C 113.25 57.76 113.28 46.77 113.22 35.78 C 108.56 35.75 103.90 35.73 99.24 35.75 C 99.27 32.10 99.27 28.45 99.23 24.80 Z" />
<path fill="#ffffff" stroke="#ffffff" stroke-width="0.09375" opacity="1.00" d=" M 150.33 25.28 C 154.81 24.28 159.45 24.87 164.00 24.72 C 169.08 24.82 174.59 24.09 179.16 26.80 C 182.54 28.55 184.90 32.10 184.94 35.95 C 185.13 41.98 185.00 48.03 185.01 54.07 C 185.14 59.22 182.69 64.70 177.91 67.05 C 172.65 69.58 166.62 68.56 160.99 68.79 C 155.15 68.93 148.48 68.31 144.31 63.70 C 140.80 60.07 140.97 54.69 140.95 50.00 C 141.08 44.39 140.45 38.57 142.37 33.19 C 143.65 29.55 146.51 26.28 150.33 25.28 M 154.78 35.84 C 153.69 42.32 153.55 49.03 154.45 55.54 C 159.96 57.89 166.54 56.75 172.40 56.30 C 174.38 52.19 173.26 47.39 173.55 42.98 C 173.22 40.71 174.22 37.43 171.76 36.11 C 166.15 35.25 160.43 35.91 154.78 35.84 Z" />
<path fill="#ffffff" stroke="#ffffff" stroke-width="0.09375" opacity="1.00" d=" M 199.49 30.38 C 200.25 28.51 200.88 26.52 202.18 24.94 C 206.20 24.73 210.59 24.05 214.42 25.39 C 219.96 39.70 224.91 54.26 230.10 68.71 C 225.45 68.76 220.81 68.74 216.17 68.75 C 215.36 65.85 214.55 62.95 213.78 60.04 C 209.50 60.01 205.22 60.01 200.95 59.99 C 200.13 62.89 199.32 65.80 198.53 68.70 C 193.90 68.76 189.26 68.76 184.62 68.71 C 189.26 55.81 194.72 43.23 199.49 30.38 M 203.68 50.73 C 206.13 50.74 208.59 50.74 211.04 50.75 C 209.90 46.40 208.72 42.07 207.41 37.77 C 205.87 42.00 204.74 46.36 203.68 50.73 Z" />
<path fill="#ffffff" stroke="#ffffff" stroke-width="0.09375" opacity="1.00" d=" M 231.56 24.77 C 241.05 24.73 250.55 24.76 260.04 24.71 C 262.81 24.70 265.96 24.83 267.98 27.02 C 270.44 29.31 270.24 32.91 270.30 35.98 C 270.23 39.93 270.61 43.93 270.00 47.85 C 269.46 51.28 266.47 54.06 263.00 54.31 C 256.51 54.80 249.99 54.39 243.49 54.49 C 243.55 59.25 243.49 64.02 243.40 68.79 C 239.46 68.73 235.53 68.73 231.60 68.79 C 231.41 54.12 231.49 39.44 231.56 24.77 M 242.77 34.79 C 242.77 37.52 242.76 40.25 242.75 42.98 C 247.70 42.86 252.72 43.47 257.62 42.60 C 261.04 41.96 261.67 35.69 257.76 35.26 C 252.83 34.28 247.76 34.86 242.77 34.79 Z" />
<path fill="#ffffff" stroke="#ffffff" stroke-width="0.09375" opacity="1.00" d=" M 272.56 24.75 C 276.44 24.76 280.33 24.76 284.22 24.76 C 284.27 35.31 284.28 45.85 284.22 56.40 C 291.93 56.53 299.64 56.56 307.35 56.42 C 307.48 60.54 307.52 64.66 307.42 68.78 C 295.81 68.72 284.21 68.73 272.60 68.78 C 272.41 54.11 272.49 39.43 272.56 24.75 Z" />
<path fill="#ffffff" stroke="#ffffff" stroke-width="0.09375" opacity="1.00" d=" M 327.20 24.82 C 331.43 24.76 335.67 24.75 339.90 24.76 C 345.00 39.45 350.61 53.95 355.48 68.72 C 350.85 68.77 346.22 68.76 341.59 68.66 C 340.79 65.76 339.98 62.87 339.16 59.98 C 334.89 60.01 330.62 60.00 326.34 60.09 C 325.57 62.98 324.77 65.87 323.94 68.74 C 319.28 68.75 314.63 68.74 309.97 68.75 C 315.69 54.10 321.54 39.49 327.20 24.82 M 332.68 37.80 C 331.41 42.09 330.25 46.40 329.04 50.70 C 331.58 50.73 334.12 50.76 336.66 50.80 C 335.41 46.45 334.24 42.06 332.68 37.80 Z" />
<path fill="#ffffff" stroke="#ffffff" stroke-width="0.09375" opacity="1.00" d=" M 356.24 24.82 C 360.66 24.92 365.22 24.18 369.56 25.21 C 374.92 32.21 379.43 39.82 384.56 47.00 C 384.45 39.58 384.48 32.16 384.56 24.75 C 388.62 24.76 392.69 24.77 396.77 24.79 C 396.73 39.45 396.75 54.10 396.76 68.76 C 392.52 68.73 388.29 68.73 384.06 68.79 C 378.64 60.43 373.70 51.77 368.12 43.51 C 367.86 51.93 368.07 60.36 367.97 68.78 C 364.06 68.73 360.15 68.73 356.24 68.76 C 356.26 54.11 356.26 39.47 356.24 24.82 Z" />
<path fill="#ffffff" stroke="#ffffff" stroke-width="0.09375" opacity="1.00" d=" M 3.56 45.56 C 10.30 45.46 17.05 45.44 23.80 45.61 C 23.72 52.17 23.73 58.73 23.79 65.28 C 17.05 65.23 10.31 65.23 3.56 65.29 C 3.46 58.71 3.47 52.14 3.56 45.56 M 8.75 50.72 C 8.77 53.91 8.77 57.09 8.76 60.28 C 12.02 60.21 15.28 60.19 18.55 60.18 C 18.50 57.06 18.50 53.94 18.55 50.82 C 15.28 50.81 12.02 50.79 8.75 50.72 Z" />
<path fill="#ffffff" stroke="#ffffff" stroke-width="0.09375" opacity="1.00" d=" M 24.78 45.57 C 31.44 45.45 38.11 45.45 44.78 45.61 C 44.73 52.21 44.73 58.80 44.77 65.40 C 38.11 65.22 31.44 65.19 24.78 65.30 C 24.73 58.72 24.73 52.15 24.78 45.57 M 29.99 50.73 C 30.02 53.91 30.02 57.09 29.99 60.27 C 33.25 60.22 36.51 60.20 39.77 60.22 C 39.73 57.07 39.73 53.93 39.77 50.78 C 36.51 50.80 33.25 50.78 29.99 50.73 Z" />
<path fill="#ffffff" stroke="#ffffff" stroke-width="0.09375" opacity="1.00" d=" M 3.57 65.81 C 10.17 65.69 16.77 65.77 23.37 65.76 C 23.56 72.68 23.59 79.61 23.37 86.53 C 18.04 86.02 12.50 84.30 8.96 80.03 C 5.41 76.16 4.19 70.88 3.57 65.81 M 9.78 71.86 C 11.50 75.45 14.47 78.15 18.09 79.75 C 18.19 77.08 18.24 74.41 18.27 71.74 C 15.44 71.77 12.61 71.79 9.78 71.86 Z" />
<path fill="#ffffff" stroke="#ffffff" stroke-width="0.09375" opacity="1.00" d=" M 24.84 65.80 C 31.46 65.74 38.10 65.55 44.71 66.15 C 44.78 72.83 44.73 79.51 44.78 86.19 C 38.12 86.27 31.45 86.29 24.79 86.21 C 24.71 79.41 24.71 72.60 24.84 65.80 M 30.05 71.43 C 30.04 74.63 30.02 77.82 29.96 81.02 C 33.24 80.98 36.52 80.97 39.80 80.98 C 39.74 77.80 39.72 74.62 39.73 71.44 C 36.51 71.51 33.28 71.50 30.05 71.43 Z" />
<path fill="#ffffff" stroke="#ffffff" stroke-width="0.09375" opacity="1.00" d=" M 45.81 66.24 C 52.53 66.26 59.25 66.27 65.97 66.22 C 66.01 72.89 66.00 79.56 65.99 86.23 C 59.26 86.26 52.52 86.28 45.79 86.21 C 45.71 79.55 45.73 72.90 45.81 66.24 M 51.05 71.43 C 51.04 74.63 51.02 77.82 50.97 81.02 C 54.24 80.98 57.52 80.97 60.80 80.98 C 60.74 77.80 60.72 74.62 60.74 71.44 C 57.51 71.51 54.28 71.50 51.05 71.43 Z" />
<path fill="#ffffff" stroke="#ffffff" stroke-width="0.09375" opacity="1.00" d=" M 67.03 66.22 C 73.82 66.28 80.61 66.23 87.40 66.26 C 86.90 71.66 85.26 77.32 80.88 80.87 C 77.07 84.30 71.94 85.46 67.06 86.39 C 66.96 79.67 67.00 72.94 67.03 66.22 M 72.50 71.49 C 72.52 74.30 72.57 77.10 72.69 79.90 C 76.40 78.37 78.99 75.29 80.58 71.68 C 77.89 71.57 75.19 71.52 72.50 71.49 Z" />
</g>
</svg>
