<svg xmlns="http://www.w3.org/2000/svg" viewBox="0 0 400 90">
  <path fill="#fff" stroke="#fff" stroke-width=".09375" d="M9.99 9.01c3.79-3.39 8.89-4.51 13.76-5.33.02 6.69-.02 13.39.01 20.08-6.78-.02-13.57-.02-20.35.02.37-5.49 2.18-11.17 6.58-14.77m.18 9.32c2.7.1 5.41.14 8.11.16-.04-2.79-.09-5.58-.19-8.37-3.71 1.54-6.36 4.57-7.92 8.21ZM24.79 3.79c6.67-.08 13.33-.06 19.99.02-.05 6.65-.03 13.3-.02 19.95-6.65-.01-13.3-.03-19.95.02-.08-6.66-.1-13.32-.02-19.99m5.18 5.19c.05 3.2.07 6.39.08 9.59 3.23-.07 6.46-.08 9.69-.01-.02-3.18 0-6.36.06-9.54-3.28.01-6.56 0-9.83-.04Zm15.82-5.19c6.73-.07 13.47-.06 20.2-.01.01 6.67.05 13.35-.05 20.03-6.71-.09-13.42-.07-20.13-.03-.08-6.66-.1-13.33-.02-19.99m5.17 5.19c.06 3.2.08 6.39.1 9.59 3.22-.07 6.45-.08 9.67-.01-.01-3.18.01-6.36.07-9.54-3.28.01-6.56 0-9.84-.04Zm16.32-5.44c5.17.5 10.56 2.01 14.11 6.06 3.64 3.81 5 9.08 5.83 14.14-6.65.04-13.31-.02-19.96.04 0-6.75-.04-13.49.02-20.24m5.39 6.84c-.11 2.71-.15 5.41-.17 8.12 2.78-.02 5.56-.07 8.34-.2-1.51-3.72-4.54-6.36-8.17-7.92ZM3.44 24.87c6.78-.2 13.56-.15 20.34-.05-.04 6.52-.06 13.04.02 19.56-6.79.19-13.59.21-20.38-.04.12-6.49.1-12.98.02-19.47m5.32 4.89c.01 3.24.01 6.47-.01 9.7 3.24 0 6.48.01 9.73.02-.01-3.25-.02-6.49-.02-9.73-3.23.02-6.46.02-9.7.01Zm16.03-4.97c6.66-.08 13.33-.06 20 .02-.05 6.53-.07 13.05.01 19.57-6.67.18-13.35.17-20.02.05-.05-6.55-.06-13.09.01-19.64m5.18 4.94c.05 3.28.07 6.56.08 9.84 3.23-.07 6.46-.08 9.69-.01-.02-3.26-.01-6.53.04-9.79-3.27.03-6.54.01-9.81-.04Zm15.82-4.94c6.73-.07 13.47-.05 20.2-.02.01 6.61.05 13.21-.06 19.81-6.69-.12-13.37-.1-20.06-.02-.19-6.59-.15-13.18-.08-19.77m5.18 4.94c.05 3.28.07 6.56.08 9.84 3.23-.07 6.46-.08 9.69-.01-.02-3.26-.01-6.53.04-9.79-3.27.03-6.54.01-9.81-.04Zm16.04-4.96c6.81-.02 13.63-.09 20.44.06-.63 5.23-2.17 10.72-6.37 14.25-3.78 3.61-9.03 4.81-14.03 5.62-.09-6.64-.03-13.28-.04-19.93m5.49 5.2c.03 2.81.06 5.62.17 8.43 3.68-1.61 6.3-4.67 7.96-8.26-2.71-.1-5.42-.14-8.13-.17Zm26.73-5.17c13.41-.1 26.83-.05 40.25-.03 0 3.66-.02 7.33-.06 10.99-4.33-.04-8.65 0-12.98.1.08 10.97.14 21.95-.04 32.93-4.39-.06-8.77-.06-13.16-.03.01-11 .04-21.99-.02-32.98-4.66-.03-9.32-.05-13.98-.03.03-3.65.03-7.3-.01-10.95Zm51.1.48c4.48-1 9.12-.41 13.67-.56 5.08.1 10.59-.63 15.16 2.08 3.38 1.75 5.74 5.3 5.78 9.15.19 6.03.06 12.08.07 18.12.13 5.15-2.32 10.63-7.1 12.98-5.26 2.53-11.29 1.51-16.92 1.74-5.84.14-12.51-.48-16.68-5.09-3.51-3.63-3.34-9.01-3.36-13.7.13-5.61-.5-11.43 1.42-16.81 1.28-3.64 4.14-6.91 7.96-7.91m4.45 10.56c-1.09 6.48-1.23 13.19-.33 19.7 5.51 2.35 12.09 1.21 17.95.76 1.98-4.11.86-8.91 1.15-13.32-.33-2.27.67-5.55-1.79-6.87-5.61-.86-11.33-.2-16.98-.27Zm44.71-5.46c.76-1.87 1.39-3.86 2.69-5.44 4.02-.21 8.41-.89 12.24.45 5.54 14.31 10.49 28.87 15.68 43.32-4.65.05-9.29.03-13.93.04-.81-2.9-1.62-5.8-2.39-8.71-4.28-.03-8.56-.03-12.83-.05-.82 2.9-1.63 5.81-2.42 8.71-4.63.06-9.27.06-13.91.01 4.64-12.9 10.1-25.48 14.87-38.33m4.19 20.35c2.45.01 4.91.01 7.36.02-1.14-4.35-2.32-8.68-3.63-12.98-1.54 4.23-2.67 8.59-3.73 12.96Zm27.88-25.96c9.49-.04 18.99-.01 28.48-.06 2.77-.01 5.92.12 7.94 2.31 2.46 2.29 2.26 5.89 2.32 8.96-.07 3.95.31 7.95-.3 11.87-.54 3.43-3.53 6.21-7 6.46-6.49.49-13.01.08-19.51.18.06 4.76 0 9.53-.09 14.3-3.94-.06-7.87-.06-11.8 0-.19-14.67-.11-29.35-.04-44.02m11.21 10.02c0 2.73-.01 5.46-.02 8.19 4.95-.12 9.97.49 14.87-.38 3.42-.64 4.05-6.91.14-7.34-4.93-.98-10-.4-14.99-.47Zm29.79-10.04c3.88.01 7.77.01 11.66.01.05 10.55.06 21.09 0 31.64 7.71.13 15.42.16 23.13.02.13 4.12.17 8.24.07 12.36-11.61-.06-23.21-.05-34.82 0-.19-14.67-.11-29.35-.04-44.03Zm54.64.07c4.23-.06 8.47-.07 12.7-.06 5.1 14.69 10.71 29.19 15.58 43.96-4.63.05-9.26.04-13.89-.06-.8-2.9-1.61-5.79-2.43-8.68-4.27.03-8.54.02-12.82.11-.77 2.89-1.57 5.78-2.4 8.65-4.66.01-9.31 0-13.97.01 5.72-14.65 11.57-29.26 17.23-43.93m5.48 12.98c-1.27 4.29-2.43 8.6-3.64 12.9 2.54.03 5.08.06 7.62.1-1.25-4.35-2.42-8.74-3.98-13Zm23.56-12.98c4.42.1 8.98-.64 13.32.39 5.36 7 9.87 14.61 15 21.79-.11-7.42-.08-14.84 0-22.25 4.06.01 8.13.02 12.21.04-.04 14.66-.02 29.31-.01 43.97-4.24-.03-8.47-.03-12.7.03-5.42-8.36-10.36-17.02-15.94-25.28-.26 8.42-.05 16.85-.15 25.27-3.91-.05-7.82-.05-11.73-.02.02-14.65.02-29.29 0-43.94ZM3.56 45.56c6.74-.1 13.49-.12 20.24.05-.08 6.56-.07 13.12-.01 19.67-6.74-.05-13.48-.05-20.23.01-.1-6.58-.09-13.15 0-19.73m5.19 5.16c.02 3.19.02 6.37.01 9.56 3.26-.07 6.52-.09 9.79-.1-.05-3.12-.05-6.24 0-9.36-3.27-.01-6.53-.03-9.8-.1Zm16.03-5.15c6.66-.12 13.33-.12 20 .04-.05 6.6-.05 13.19-.01 19.79-6.66-.18-13.33-.21-19.99-.1-.05-6.58-.05-13.15 0-19.73m5.21 5.16c.03 3.18.03 6.36 0 9.54 3.26-.05 6.52-.07 9.78-.05-.04-3.15-.04-6.29 0-9.44-3.26.02-6.52 0-9.78-.05ZM3.57 65.81c6.6-.12 13.2-.04 19.8-.05.19 6.92.22 13.85 0 20.77-5.33-.51-10.87-2.23-14.41-6.5-3.55-3.87-4.77-9.15-5.39-14.22m6.21 6.05c1.72 3.59 4.69 6.29 8.31 7.89.1-2.67.15-5.34.18-8.01-2.83.03-5.66.05-8.49.12Zm15.06-6.06c6.62-.06 13.26-.25 19.87.35.07 6.68.02 13.36.07 20.04-6.66.08-13.33.1-19.99.02-.08-6.8-.08-13.61.05-20.41m5.21 5.63c-.01 3.2-.03 6.39-.09 9.59 3.28-.04 6.56-.05 9.84-.04-.06-3.18-.08-6.36-.07-9.54-3.22.07-6.45.06-9.68-.01Zm15.76-5.19c6.72.02 13.44.03 20.16-.02.04 6.67.03 13.34.02 20.01-6.73.03-13.47.05-20.2-.02-.08-6.66-.06-13.31.02-19.97m5.24 5.19c-.01 3.2-.03 6.39-.08 9.59 3.27-.04 6.55-.05 9.83-.04-.06-3.18-.08-6.36-.06-9.54-3.23.07-6.46.06-9.69-.01Zm15.98-5.21c6.79.06 13.58.01 20.37.04-.5 5.4-2.14 11.06-6.52 14.61-3.81 3.43-8.94 4.59-13.82 5.52-.1-6.72-.06-13.45-.03-20.17m5.47 5.27c.02 2.81.07 5.61.19 8.41 3.71-1.53 6.3-4.61 7.89-8.22-2.69-.11-5.39-.16-8.08-.19Z"/>
</svg>