<svg xmlns="http://www.w3.org/2000/svg" viewBox="0 0 500.898 186.632">

  <path fill="#fff" d="M4.041 70.84v22.185h39.714v84.224h25.61V93.025h39.852V70.84H4.041"/>
  <path fill="none" stroke="#fff" stroke-width="8.082" d="M4.041 70.84v22.185h39.714v84.224h25.61V93.025h39.852V70.84z"/>
  <path fill="#fff" d="M247.261 70.84v22.185h39.851v84.224h25.61V93.025h39.715V70.84H247.26"/>
  <path fill="none" stroke="#fff" stroke-width="8.082" d="M247.261 70.84v22.185h39.851v84.224h25.61V93.025h39.715V70.84H247.26Z"/>
  <path fill="#fff" d="M214.256 177.25h24.924V70.84h-24.924z"/>
  <path fill="none" stroke="#fff" stroke-width="8.082" d="M239.181 70.84h-24.925v106.41h24.924V70.84Zm-24.925 0z"/>
  <path fill="#fff" d="M417.076 67.555c-35.606 0-64.64 26.156-64.64 57.79 0 31.773 29.034 57.246 64.64 57.246 35.744 0 64.777-25.473 64.777-57.245 0-31.635-29.033-57.792-64.777-57.792zm0 94.22c-20.816 0-37.66-16.16-37.66-36.43 0-20.815 16.844-36.975 37.66-36.975 20.953 0 37.798 16.16 37.798 36.976 0 20.269-16.845 36.428-37.798 36.428"/>
  <path fill="none" stroke="#fff" stroke-width="8.082" d="M417.076 67.555c-35.606 0-64.64 26.156-64.64 57.79 0 31.773 29.034 57.246 64.64 57.246 35.744 0 64.777-25.473 64.777-57.245 0-31.635-29.033-57.792-64.777-57.792zm0 94.22c-20.816 0-37.66-16.16-37.66-36.43 0-20.815 16.844-36.975 37.66-36.975 20.953 0 37.798 16.16 37.798 36.976 0 20.269-16.845 36.428-37.798 36.428z"/>
  <path fill="#fff" d="M165.776 92.342c-15.475 20.953-24.924 47.932-24.24 83.538v1.37h70.666"/>
  <g clip-path="url(#a)" transform="matrix(2.28247 0 0 -2.28247 -448.299 582.479)">
    <path fill="none" stroke="#fff" stroke-width="3.541" d="M269.04 214.74c-6.78-9.18-10.92-21-10.62-36.6v-.6h30.96z"/>
  </g>
  <path fill="#fff" d="m160.983 84.262-14.79-27.527L79.499 177.25h35.743c2.74-33.005 20.817-68.611 45.741-92.988"/>
  <path fill="none" stroke="#fff" stroke-width="8.082" d="m160.983 84.262-14.79-27.527L79.499 177.25h35.743c2.74-33.005 20.817-68.611 45.741-92.988z"/>
  <path fill="#fff" d="M225.76 22.36c-10.82 0-18.9 8.766-18.9 19.585 0 10.682 8.08 19.446 18.9 19.446 10.818 0 19.583-8.764 19.583-19.446 0-10.82-8.765-19.584-19.583-19.584"/>
  <path fill="none" stroke="#fff" stroke-width="8.082" d="M225.76 22.36c-10.82 0-18.9 8.766-18.9 19.585 0 10.682 8.08 19.446 18.9 19.446 10.818 0 19.583-8.764 19.583-19.446 0-10.82-8.765-19.584-19.583-19.584z"/>
  <path fill="#fff" stroke="#fff" stroke-width="8.082" d="M196.041 60.707c-12.05 4.793-24.239 13.558-35.058 23.555l4.793 8.08c8.765-12.052 19.584-21.501 31.635-28.896l-1.37-2.74z"/>
  <path fill="#333" d="M4.041 70.84v22.185h39.714v84.224h25.61V93.025h39.852V70.84H4.041m243.22 0v22.184h39.851v84.224h25.61V93.025h39.715V70.84H247.26m-33.004 106.41h24.924V70.84h-24.924Zm202.82-109.695c-35.606 0-64.64 26.156-64.64 57.79 0 31.773 29.034 57.246 64.64 57.246 35.744 0 64.777-25.473 64.777-57.245 0-31.635-29.033-57.792-64.777-57.792zm0 94.22c-20.816 0-37.66-16.16-37.66-36.43 0-20.815 16.844-36.975 37.66-36.975 20.953 0 37.798 16.16 37.798 36.976 0 20.269-16.845 36.428-37.798 36.428"/>
  <path fill="#0860a8" d="M165.776 92.342c-15.475 20.953-24.924 47.932-24.24 83.538v1.37h70.666m-51.219-92.988-14.79-27.527L79.499 177.25h35.743c2.74-33.005 20.817-68.611 45.741-92.988M225.76 22.36c-10.82 0-18.9 8.765-18.9 19.584 0 10.682 8.08 19.446 18.9 19.446 10.818 0 19.583-8.764 19.583-19.446 0-10.82-8.765-19.584-19.583-19.584m-29.719 38.347c-12.05 4.793-24.239 13.558-35.058 23.555l4.793 8.08c8.765-12.052 19.584-21.501 31.635-28.896"/>
  <g aria-label="TYPE X" style="font-size:73.927px;font-family:Gottlieb;stroke-width:1.15511">
    <path d="M266.742 35.263v-47.396h-18.048v-6.353h43.244v6.353H273.89v47.396Z" style="fill:#333;fill-opacity:1;stroke:#fff;stroke-opacity:1" transform="matrix(1.04143 0 0 .96021 .001 18.305)"/>
    <path d="m332.44-18.486-18.158 29.961v23.788h-7.147v-23.03l-18.157-30.719h7.942L310.78 5.23l14.079-23.716zm38.912 16.208q0 3.501-1.264 6.642-1.227 3.104-3.429 5.306-2.78 2.743-6.533 4.151-3.754 1.408-9.494 1.408h-6.064v20.034h-7.147v-53.749h13.5q4.765 0 8.122.794 3.357.795 5.92 2.563 2.996 2.058 4.692 5.234 1.697 3.14 1.697 7.617zm-7.436.18q0-2.78-.975-4.837-.938-2.057-2.888-3.357-1.696-1.119-3.97-1.588-2.238-.47-5.595-.47h-5.92V9.13h4.873q4.332 0 7.003-.686 2.671-.722 4.44-2.527 1.588-1.624 2.31-3.538.722-1.913.722-4.476zm14.258 37.361v-53.749h33.607v6.353h-26.46V2.595h24.655v6.353h-24.654V28.91h26.459v6.353Z" style="fill:#333;fill-opacity:1;stroke:#fff;stroke-opacity:1" transform="matrix(1.04143 0 0 .96021 .001 18.305)"/>
    <path d="M479.932 35.263h-8.194l-13.103-21.514-13.32 21.514h-7.725l17.074-26.892-16.568-26.857h8.158l12.85 21.117 13.031-21.117h7.761L463.075 8.01Z" style="fill:#0860a8;fill-opacity:1;stroke:#fff;stroke-opacity:1" transform="matrix(1.04143 0 0 .96021 .001 18.305)"/>
  </g>
</svg>