<svg xmlns="http://www.w3.org/2000/svg" viewBox="0 0 70.569 22.557">
  <g stroke-width=".265">
      <path fill="red" d="M50.96 130.677v4.329h-.856v8.086l.012 1.302-.111 1.265q-.422 2.22-2.716 2.22-2.89 0-2.89-3.696v-9.177h-.831v-4.329h3.77v4.329h-.57v5.717q0 2.369.731 2.369.831 0 .831-2.456v-5.63h-.545v-4.329zm9.55 0v4.329h-.831v12.6h-2.592l-2.853-13.37v8.844h.967v4.526h-3.423v-4.526h.844v-8.074h-.844v-4.329h3.746l2.542 11.832v-7.503h-.98v-4.329zm4.948 0v4.329h-.893v8.074h.893v4.526h-4.105v-4.526h.843v-8.074h-.843v-4.329zm8.235 0v4.329h-.607l-1.625 12.6h-2.84l-1.761-12.6h-.732v-4.329h3.77v4.329h-.72l1.34 8.793.943-8.793h-.943v-4.329zm7.491 0v6.772h-1.96v-2.443h-1.661v3.038h2.071v1.737h-2.071v3.299h1.662v-2.468h2.12v6.994h-6.97v-4.526h.819v-8.074h-.819v-4.329zm9.6 10.617q.136 1.426.136 2.43 0 4.007-1.91 4.007-1.823 0-1.823-4.168l.012-1.116.013-1.128q0-1.526-1.464-1.526-.05 0-.223.012v3.275h.893v4.526h-4.105v-4.526h.843v-8.074h-.843v-4.329h3.845q2.096 0 2.803.906.706.893.706 3.56 0 3.236-1.972 3.707-.099.025-.285.062 1.687.286 1.774 1.526l.062 1.166.05.93q.037.707.396.707.509 0 .509-1.674v-.273zm-5.259-3.163h.273q1.587 0 1.587-1.463 0-1.675-1.537-1.675-.1 0-.323.013zm11.955-7.454v5.966h-2.256l-.038-.447q-.074-1.153-.644-1.153-.695 0-.695.88 0 1.005 1.203 1.75 1.898 1.19 2.406 2.182.521.98.521 3.448 0 4.576-2.332 4.576-1.252 0-2.009-1.476v1.203h-2.12v-6.436h2.12v.248q0 1.674.88 1.674.82 0 .82-1.178 0-1.216-.93-1.848l-1.241-.856q-1.86-1.277-1.86-4.204 0-4.614 2.27-4.614 1.128 0 1.785 1.476v-1.19zm8.98 12.403v4.526h-4.105v-4.526h.88l-.26-2.295h-1.835l-.273 2.295h.955v4.526h-3.423v-4.526h.781l1.687-12.403h3.125l1.736 12.403zm-3.72-4.031-.683-5.21-.707 5.21zm11.397.731v7.826h-6.995v-4.526h.844v-8.074h-.844v-4.329h4.106v4.329h-.893v8.074h1.661v-3.3z" transform="translate(-43.568 -130.392)"/>
      <path stroke="#fff" d="M56.88 152.817h-2.357v-4.447h2.257v.472h-1.736v1.479h1.606v.468h-1.606v1.556h1.835zm4.44 0h-.64l-2.288-3.544q-.087-.134-.142-.28h-.019q.025.143.025.611v3.213h-.521v-4.447h.676l2.226 3.488q.14.218.18.298h.012q-.03-.192-.03-.654v-3.132h.52zm3.794-3.975h-1.283v3.975h-.521v-3.975h-1.28v-.472h3.084zm3.054 3.975h-2.356v-4.447h2.257v.472h-1.736v1.479h1.606v.468h-1.606v1.556h1.835zm4.044 0h-.62l-.745-1.247q-.102-.174-.198-.294-.096-.124-.199-.202-.099-.077-.217-.112-.114-.037-.26-.037h-.428v1.892h-.52v-4.447h1.326q.292 0 .537.075.248.071.427.22.183.149.286.372.102.22.102.518 0 .232-.071.428-.068.192-.199.344-.127.152-.31.26-.18.106-.406.165v.012q.112.05.192.115.084.062.158.149.075.086.146.198.075.108.164.254zm-2.667-3.975v1.612h.707q.195 0 .36-.059.167-.059.288-.167.12-.112.19-.27.067-.161.067-.36 0-.356-.232-.555-.23-.201-.667-.201zm5.742 0h-1.283v3.975h-.521v-3.975h-1.28v-.472h3.084zm3.663 3.975h-.578l-.47-1.247h-1.886l-.443 1.247h-.58l1.705-4.447h.54zm-1.22-1.715-.697-1.895q-.034-.093-.068-.297h-.013q-.03.189-.071.297l-.691 1.895zm2.394 1.715h-.52v-4.447h.52zm4.753 0h-.638l-2.289-3.544q-.086-.134-.142-.28h-.019q.025.143.025.611v3.213h-.52v-4.447h.675l2.226 3.488q.14.218.18.298h.013q-.031-.192-.031-.654v-3.132h.52zm5.699 0h-.517v-2.983q0-.354.043-.865h-.012q-.075.3-.134.43l-1.52 3.418h-.253l-1.517-3.392q-.065-.15-.133-.456h-.012q.025.266.025.871v2.977h-.503v-4.447h.689l1.364 3.1q.158.357.204.534h.02q.132-.366.213-.545l1.392-3.089h.651zm3.526 0h-2.357v-4.447h2.257v.472h-1.736v1.479h1.606v.468h-1.606v1.556h1.836zm4.44 0h-.639l-2.288-3.544q-.087-.134-.143-.28h-.018q.024.143.024.611v3.213h-.52v-4.447h.675l2.227 3.488q.14.218.18.298h.012q-.031-.192-.031-.654v-3.132h.52zm3.795-3.975h-1.284v3.975h-.52v-3.975h-1.281v-.472h3.085z" transform="translate(-43.568 -130.392)"/>
  </g>
</svg>