<svg xmlns="http://www.w3.org/2000/svg" xml:space="preserve" viewBox="0 0 330 330">
  <path fill="#fff" d="m325.607 304.394-63.479-63.479c38.57-29.035 63.522-64.92 65.247-67.437 3.501-5.11 3.501-11.846 0-16.956-2.925-4.269-72.659-104.544-162.371-104.544-25.872 0-50.075 8.345-71.499 20.313L25.607 4.394c-5.857-5.858-15.355-5.858-21.213 0-5.858 5.858-5.858 15.355 0 21.213l63.478 63.478C29.299 118.12 4.35 154.006 2.625 156.523c-3.5 5.109-3.5 11.845 0 16.955 2.925 4.268 72.65 104.546 162.378 104.546 25.868 0 50.069-8.345 71.493-20.314l67.897 67.898c2.93 2.928 6.768 4.392 10.607 4.392 3.839 0 7.678-1.464 10.606-4.394 5.859-5.857 5.859-15.354.001-21.212zM165.003 81.977c60.26 0 113.408 60.338 131.257 83.022-9.673 12.294-29.705 35.629-55.609 54.439L115.673 94.461c15.406-7.559 32.063-12.484 49.33-12.484zm0 166.046c-60.285 0-113.439-60.364-131.273-83.037 9.651-12.303 29.652-35.658 55.574-54.47l124.99 124.99c-15.41 7.578-32.058 12.517-49.291 12.517z"/>
</svg>