<svg xmlns="http://www.w3.org/2000/svg" viewBox="0 0 55.387608 68.974899">
  <g fill="#fff" transform="translate(-93.996613 -61.009549)">
    <path d="M129.75084 75.61363c.47122-1.004887.8128-2.224616.93556-3.49885.0296-.307975.0497-.656695.0497-1.037431 0-2.183871-.65881-5.418137-3.9325-7.998618-.0119-.0093-.0238-.01826-.0357-.02725-2.97815-2.205831-7.40145-2.679435-10.75663-1.151731-3.13664 1.428486-5.03291 4.353454-5.33876 8.236215-.0466.588168.25638 1.148821.77337 1.432718.51726.283898 1.15253.238125 1.62402-.116416 1.10569-.832115 2.70748-1.379273 3.88858-.419629.64717.525991.88185 1.193535.88185 1.779587 0 .420952-.12118.8001-.29765 1.054629-.73396 1.058334-2.38363 1.502834-3.36921 1.768475 0 0-.71384.209815-.75353.221456-5.50598 1.721115-10.44866 5.222611-13.920788 9.865519-3.599656 4.8133-5.502539 10.543381-5.502539 16.570326 0 7.39642 2.880783 14.35047 8.111597 19.58075 5.23081 5.23081 12.18512 8.11107 19.58234 8.11107 7.39722 0 14.35153-2.88052 19.58234-8.11107 5.23081-5.23055 8.11133-12.18433 8.11133-19.58075-.00053-12.760591-7.97216-23.42912-19.6334-26.678997zm9.40064 44.13859c-4.66434 4.66407-10.86538 7.23265-17.46117 7.23265-6.5958 0-12.79684-2.56858-17.46118-7.23265-4.664076-4.66382-7.232651-10.86433-7.232651-17.45959 0-5.374485 1.696243-10.48306 4.905111-14.773808 3.10383-4.150519 7.52396-7.279481 12.44494-8.810096-.0106.0032.0672-.02196.0564-.01878l.55086-.157956c1.29143-.347928 3.69464-.995363 5.05407-2.955132 1.29328-1.864254 1.21417-4.944533-1.15702-6.872023-1.279-1.039283-2.89745-1.37742-4.5421-1.048543.60166-1.380861 1.59305-2.409561 2.94613-3.02604 2.36458-1.076589 5.60335-.729456 7.71155.822325 2.28626 1.813719 2.77045 4.046273 2.77177 5.602288v.0056c0 2.843741-.77893 4.473575-4.39843 6.701102 0 0 1.35123-.132556 3.46101.225689.0328.0093.0638.0217.0976.02831l.17489.03545c11.37074 2.212975 19.31115 12.181417 19.31115 24.241654-.00027 6.59526-2.56884 12.79577-7.23292 17.45959zm-25.75295-43.889088h.00079s.0196-.0058.0206-.0061c.0119-.0037.023-.0087.0349-.01243-.003.000793-.0564.01826-.0564.01852z"/>
    <path d="m119.75011592 94.52498849-6.87916658 11.64166652c-.27384375.46381458-.27834167 1.03875415-.01137709 1.50653748.26696458.46778333.76411666.75670832 1.30280832.75670832h11.02439361c.8284104 0 1.4999229-.67177707 1.4999229-1.4999229 0-.82814582-.6715125-1.4999229-1.4999229-1.4999229h-8.39549364c1.73566664-2.93740412 5.54169784-9.3784207 5.54169784-9.3784207.14155208-.23944792.20875625-.50217917.20875625-.76173541 0-.51302708-.26326041-1.012825-.73712916-1.29275415-.71331666-.42174583-1.6332729-.18494375-2.05448955.52784374zm.86743992 25.17190784c7.0201895-.04048125 10.95904153-4.08013954 11.12387694-4.25344162.276225-.28971874.41327917-.66039999.41327917-1.03081665 0-.39343541-.15451667-.78660624-.46063958-1.08161665-.59451874-.57255833-1.54252082-.55483125-2.11825414.03704166-.13255625.13599583-3.30967288 3.33269163-9.06197905 3.33269163-.03704167 0-.07858125.00185208-.11562292.00449791-.053975.00423334-5.42951451.35612917-9.14267697-3.35703329-.58578749-.58578749-1.53564165-.58578749-2.12142914 0-.58578749.5857875-.58578749 1.53564165 0 2.12142914 4.66698536 4.66619161 11.09053945 4.25714578 11.4834457 4.22724787z"/>
    <circle cx="130.21333" cy="96.390564" r="2.6926646"/>
    <circle cx="110.00631" cy="96.390564" r="2.6926646"/>
  </g>
</svg>