<svg xmlns="http://www.w3.org/2000/svg" xml:space="preserve" viewBox="0 0 100 100">
  <path fill="#fff" d="M94.425 23.535c-.177 0-1.425.004-2.425.06v-2.38c0-2.882-1.72-5.055-4.305-5.055-.293 0-.475.029-.771.088-.209.041-20.483 4.188-36.399 16.918C47.445 30.702 44 28.56 41 26.707v-2.512c0-4.437-.539-8.968-7.338-11.338l-8.687-3.034c-.906-.327-1.792-.492-2.65-.492-4.078 0-6.511 3.691-6.511 7.26 0 .012.002.022.004.034-1.017-.25-1.603-.37-1.638-.376-.294-.058-.972-.087-1.265-.087C10.332 16.16 8 18.333 8 21.214v2.38c-1-.055-2.247-.06-2.425-.06-3.073 0-5.575 2.5-5.575 5.573v43.871c0 2.715 3 4.981 5 5.473v4.79C5 86.315 7.793 89 10.867 89h31.475c.887 1 2.815 3 5.053 3h6.438c2.236 0 4.165-2 5.052-3h32.681C94.64 89 97 86.315 97 83.242v-5.168c2-.869 3-2.824 3-5.095V29.108c0-3.073-2.501-5.573-5.575-5.573zM91.564 85H60.619C73.805 80 87 78.757 92 78.591v4.65c0 .701.266 1.759-.436 1.759zM9 83.242v-4.604C16 78.9 28.327 80 40.607 85h-29.74C10.167 85 9 83.942 9 83.242zM5 29.108c0-.7.223-1.27.924-1.27.045 0 1.076.004 2.076.073v37.176c0 2.91 2.394 5.588 4.964 6.099 1.326.263 9.451 1.946 18.808 6.257C19.05 74.385 7.982 74.25 6.21 74.25c-.7 0-1.21-.57-1.21-1.271V29.108zm8.061-8.639c.076.015 2.939.587 6.939 1.945v27.95c0 .692.613 1.333 1.209 1.684.598.352 1.459.363 2.063.029l6.883-3.759 7.417 8.824c.379.453.947.701 1.515.701.223 0 .428-.039.646-.118.774-.281 1.267-1.016 1.267-1.839V31.704c2 1.556 5 3.301 8 5.254v45.227C34 71.062 16.488 67.373 14.418 66.963c-.447-.089-1.418-.917-1.418-1.877V21.214c0-.48-.047-.72.061-.745zm9.271-7.227c.404 0 .853.087 1.35.267l8.647 3.042C36.415 17.975 37 19.97 37 24.194v26.309l-4.893-5.931c-.381-.457-.898-.701-1.463-.701-.32 0-.832.08-1.129.243L24 47.052V21.303c0-1.699.205-5.676-3.932-5.676-.148 0-.196.018-.339.05.256-1.169 1.116-2.435 2.603-2.435zM88 65.086c0 .996-.475 1.788-.92 1.877-2.068.41-19.08 4.101-34.08 15.223V36.958c15-12.418 34.719-16.45 34.967-16.497.062.033.033.272.033.753v43.872zm6.809 9.164c-1.773 0-12.861.133-25.582 3.191 9.354-4.311 17.074-5.994 18.4-6.256C90.198 70.676 92 67.997 92 65.086V27.911c1-.068 2.532-.072 2.577-.072.701 0 1.423.569 1.423 1.27V72.98c0 .7-.491 1.27-1.191 1.27z"/>
</svg>