<svg xmlns="http://www.w3.org/2000/svg" xml:space="preserve" viewBox="0 0 380 380">
  <path fill="#fff" d="M352.833 345H27.167C12.187 345 0 332.813 0 317.835V62.167c0-14.979 12.187-27.166 27.167-27.166H169.34c1.972 0 3.947.466 5.713 1.346L190 43.82l14.938-7.469A12.88 12.88 0 0 1 210.66 35h142.173C367.813 35.001 380 47.188 380 62.167v255.668C380 332.813 367.813 345 352.833 345zM27.167 55.001c-3.952 0-7.167 3.215-7.167 7.166v255.668c0 3.951 3.215 7.166 7.167 7.166h325.667c3.952 0 7.167-3.215 7.167-7.166V62.167c0-3.951-3.215-7.166-7.167-7.166H212.361l-16.639 8.319c-3.535 1.768-7.909 1.768-11.444 0l-16.639-8.319H27.167zM325.795 305H57c-9.374 0-17-7.626-17-17V92c0-9.374 7.626-17 17-17h102.897c1.97 0 3.944.465 5.709 1.344L190 88.542l24.38-12.19a12.882 12.882 0 0 1 5.722-1.351h105.692c7.833 0 14.206 6.372 14.206 14.205v201.59c0 7.832-6.373 14.204-14.205 14.204zM60 285h260V95h-98.197l-26.081 13.041c-3.536 1.768-7.909 1.768-11.444 0L158.197 95H60v190z"/>
  <path fill="#fff" d="M125.184 183.271c-1.955 0-3.869-.384-5.688-1.139l-13.57-5.637-13.569 5.637a14.768 14.768 0 0 1-5.688 1.139c-8.17 0-14.816-6.65-14.816-14.825V75.668H140v92.778c0 8.174-6.646 14.825-14.816 14.825zM91.852 95.668v65.018l8.389-3.485a14.891 14.891 0 0 1 11.367-.001l8.392 3.486V95.668H91.852zm86.898 3.43h20v195.903h-20z"/>
</svg>