<svg xmlns="http://www.w3.org/2000/svg" xml:space="preserve" viewBox="0 0 322.1 322.1">
  <path fill="#fff" d="M258.9 48.8H210c-18.9 0-18.9 28.4 0 28.4h34.6v216.9H76.8V77.2H112c18.9 0 18.9-28.4 0-28.4H63.2v.1c-7.9 0-14.2 6.3-14.2 14.2v245.3c0 7.4 6.3 13.7 14.2 13.7h195.7c7.9 0 14.2-6.3 14.2-13.7V63c0-7.9-6.3-14.2-14.2-14.2z"/>
  <path fill="#fff" d="M147.2 221.7 122 197c-2.6-2.6-6.3-4.2-10-4.2-12.6 0-18.9 15.2-10 23.6l48.8 49.4c5.8 5.3 14.7 5.3 19.9 0l48.8-49.4c13.6-13.1-6.3-33.1-19.4-19.4l-25.2 24.7V14.2C175 6.3 168.7 0 160.8 0c-7.9 0-14.2 6.3-13.6 14.2v207.5z"/>
</svg>