<svg xmlns="http://www.w3.org/2000/svg" version="1.0" viewBox="-7.297 -7.297 314.595 257.844">
  <path d="m216.219 66.156-14.438.125c-20.033.177-29.562 8.455-29.562 39.469v13.563h-13.031V142h13.03v98.813h28.532V142h15.469v-22.688H200.75v-16.874c0-9.434 7.507-12.663 15.469-11.813V66.156zM124.125 68.5v59.469c-5.107-7.017-10.555-10.625-18.656-10.625-22.367 0-30.031 32.706-30.031 67.312 0 30.732 8.002 58.427 28.25 58.031 8.453-.164 13.233-2.617 21.687-13.75h.344v11.844h26.937V68.5h-28.531zm-89.344 48.75c-15.003 0-29.825 8.76-34.437 31.594l21.781 2.125c1.013-7.465 3.912-12.031 10.125-12.031 6.099 0 9.25 6.381 9.25 14.468 0 12.217-6.562 15.813-15.781 15.813H20.03v20.656h6.407c8.792 0 16.25 1.733 16.25 16.875 0 9.465-3.513 15.969-11.313 15.969-8.175 0-10.2-6.925-10.719-13.719L0 209.531c2.916 24.226 17.542 33.719 32.375 33.719 17.729 0 36.688-11.549 36.688-36.5 0-18.239-9.742-25.998-23.5-28.063v-.343c11.346-2.753 21.468-11.515 21.468-26.313 0-21.853-15.087-34.781-32.25-34.781zm185.063 2.063 47.812 121.5H298l-47.656-121.5h-30.5zM115.156 137c4.227 0 7.384 2.68 8.969 6.156v69.781c-2.113 6.147-6.148 10.157-10.375 10.157-7.573 0-7.938-17.386-7.938-45.188 0-22.988.89-40.906 9.344-40.906z" style="fill:#ffffff;fill-rule:evenodd"/>
  <path d="m244.325 240.836 35.676-74.42c19.31-40.281 28.854-91.85 9.085-129.591C274.715 9.389 241.268-.793 211.875.048 133.946 2.282 63.586 57.375 9.037 103.227c-1.672 1.405-.763 3.29.675 2.047 50.047-43.29 115.713-91.168 184.553-94.25 26.459-1.185 54.897 8.293 69.114 34.36 15.224 27.908 11.176 70.363-1.975 99.13-5.344 11.687-37.506 75.717-47.928 96.322h30.849z" style="fill:#ffffff;fill-rule:evenodd"/>
  <path d="m-42.082 68.677-6.844 12.697h-.324l-6.839-12.697h-2.293l7.995 14.672h2.598l7.98-14.672zm3.623 0h14.049v1.974h-11.86v4.267h11.452v1.974H-36.27v4.482h11.86v1.975h-14.049zm19.909 7.357q0 4.052.879 4.827.88.77 5.597.77 4.608 0 5.577-.534.942-.534.942-3.262h-7.079V75.86h9.268v1.974q0 3.796-1.545 4.786-1.544 1.005-7.163 1.005-5.707 0-7.189-1.309-1.476-1.304-1.476-6.304 0-4.996 1.476-6.284 1.461-1.267 7.19-1.267 5.639 0 7.183.838 1.524.859 1.524 4.163h-2.189q0-2.126-1.031-2.577-1.026-.429-5.488-.429-4.764 0-5.623.754-.854.749-.854 4.823zm29.4-7.357 7.745 14.672h-2.467l-1.738-3.263H3.923L2.21 83.35H-.256l7.719-14.672Zm2.597 9.462-3.99-7.703h-.555l-3.99 7.703zm15.761-3.006q5.126 0 6.456.602 1.655.749 1.655 3.603 0 2.701-1.995 3.54-1.634.685-6.608.685-5.383 0-6.927-1.178-1.179-.9-1.179-3.927h2.19q0 2.079.92 2.597.922.534 5.017.534 4.01 0 5.215-.387 1.178-.383 1.178-1.864 0-1.503-.88-1.864-.9-.367-5.042-.367-5.058 0-6.796-1.22-1.33-.927-1.33-3.325 0-2.597 1.607-3.367 1.587-.754 6.52-.754 4.91 0 6.455 1.184 1.226.942 1.226 3.686h-2.147q0-1.885-.969-2.377-.963-.498-4.566-.498-3.084 0-3.796.09-2.142.256-2.142 2.036 0 1.498 1.158 2.037 1.157.534 4.78.534z" style="fill:#ffffff;fill-opacity:1" transform="matrix(.76707 -.6303 .59063 .81834 0 0)"/>
</svg>