<svg xmlns="http://www.w3.org/2000/svg" viewBox="0 0 33.242 19.778">
  <g transform="translate(-52.282 -154.844) scale(.26458)">
    <path fill="#fff" d="M197.602 623.473q0 2.906 2.062 4.922 2.016 2.063 4.922 2.063h10.406v13.921h-3.469v-10.265h-13.921v17.203q0 2.906 2.062 4.922 2.016 2.062 4.922 2.062h17.39q2.86 0 4.922-2.062 2.016-2.016 2.016-4.922v-27.844q0-2.86-2.016-4.875-2.062-2.062-4.921-2.062h-10.454v-13.922h3.47v10.219h13.921v-17.204q0-2.859-2.016-4.875-2.062-2.062-4.921-2.062h-17.391q-2.906 0-4.922 2.062-2.062 2.016-2.062 4.875zm44.626-3.408h-2.29v16.03h2.29zm-11.481-4.883c0-1.333.454-2.47 1.361-3.409.888-.961 1.97-1.442 3.25-1.442h11.481c1.259 0 2.342.48 3.25 1.442.887.94 1.33 2.076 1.33 3.409v30.648h-11.48v3.439h2.29v-.784h9.19v5.634c0 1.355-.443 2.502-1.33 3.442-.908.961-1.991 1.442-3.25 1.442h-11.481c-1.28 0-2.362-.48-3.25-1.442-.907-.94-1.361-2.087-1.361-3.442zm36.444-4.851H254l-.29 48.672h13.19zm11.192 0h-9.192v48.672h16.093q1.888 0 3.25-1.442 1.33-1.41 1.33-3.442v-29.203q0-2-1.33-3.408-1.362-1.443-3.25-1.443h-6.901zm2.29 38.938h-2.29v-19.47h2.29zm11.257-58.889h13.922v55.688h3.468V590.38h13.922v62.625q0 2.907-2.015 4.922-2.063 2.063-4.922 2.063h-17.39q-2.907 0-4.923-2.063-2.062-2.015-2.062-4.922z"/>
    <ellipse cx="260.814" cy="595.705" fill="#fff" paint-order="stroke fill markers" rx="10.131" ry="10.469"/>
  </g>
</svg>