<svg xmlns="http://www.w3.org/2000/svg" viewBox="-149.853 1.37 551.813 100.603">
  <g fill="#00569f">
    <path d="M56.145 3.384v26.025h5.574v44.643h-5.574v25.87H82.58v-25.65h-3.052V55.878h9.68V74.31h-3.02v25.61h27.85V74.018h-6.227v-44.61h5.578V3.384H86.203V29.41h3.024v16.053h-9.665V29.409h3.013V3.344Zm62.618.11h26.762V29.41h-4.087v40.445c0 8.026 11.523 7.436 11.523 0V29.409h-3.818V3.494h23.153v25.914h-5.954v58.586c-.005 17.31-42.376 17.5-42.376 0V29.409h-5.203zm219.95 25.915V3.494h25.65l18.92 63.828V29.364h-6.29V3.494h24.967v25.914h-6.388V99.92h-17.847l-20.823-70.96v45.058h7.071V99.92h-26.089V74.05h5.998V29.41ZM238.376 43.682c-1.639-2.38-2.936-5.74-2.936-10.855v-16.21c0-14.497 15.156-19.51 27.152-8.923V3.496h15.946v33.94h-14.824v-3.868c0-7.15-10.777-7.134-11.167-.297-.39 6.837 5.95 9.519 10.387 11.898 4.486 2.38 18.58 7.29 18.58 23.938v17.697c0 15.029-17.8 19.852-28.967 6.988v6.13h-16.36V63.606h15.238v5.647c0 7.31 11.9 7.12 11.9.302l-.05-2.974c-.39-3.57-1.463-5.95-6.29-8.924-4.633-2.868-13.362-8.622-15.97-11.001a17.311 17.311 0 0 1-2.639-2.975M177.68 3.45h33.033c10.045 0 19.33 8.115 19.33 15.995v63.628c0 11.43-11.187 16.814-18.999 16.814h-33.782V74.31h5.573V29.409h-5.203zm23.05 25.958-.048 44.307h5.954c2.901 0 4.828-3.706 4.828-5.598V35.056c0-2.078-2.507-5.647-4.696-5.647z"/>
    <g stroke-miterlimit="10">
      <path d="M286.925 20.884c0-25.127 45.644-24.742 45.644-.116v60.78c0 25.878-45.692 26.073-45.692.599zm16.97 47.56c0 8.198 11.752 8.198 11.752 0V35.25c0-8.3-11.752-8.3-11.752 0z"/>
      <path fill="#000" d="M-127.549 96.824c.097-1.072.595-2.091 1.024-2.954 8.324-16.882 21.622-32.033 26.957-38.582.39-.537.936-.21.882.283-3.477 9.738-9.484 18.798-15.75 27.346-4.136 5.662-4.584 11.884-8.344 16.639-1.439 1.824-4.993-.361-4.77-2.731m141.675-17.74c6.115-4.79 10.158-10.992 16.263-15.966 4.57-3.706 10.557-2.94 15.77-4.847 1.858-.683 1.385-2.994-.512-3.17-5.398-.507-10.709.298-15.507 2.765-8.86 4.56-13.473 13.81-22.144 18.848-.356.21-1.6.53-1.404.21 4.506-7.486 8.178-16.717 4.374-24.607-1.98-4.11-7.237-6.203-11.2-3.794-10.85 6.578-9.554 23.348-.908 31.41-2.12 4.047-10.094 12.214-17.818 10.922a3.233 3.233 0 0 0-1.717.088c-.863.35-1.243 1.546-.683 1.98 10.114 7.802 19.71-4.072 25.377-11.377 0 0 4.901 1.605 10.11-2.462M.553 74.867c-2.492-4.092-4.13-8.554-3.399-13.376.64-4.204 2.96-10.753 8.231-8.451 2.483 1.082 2.75 4.213 2.375 6.73-.843 5.69-2.17 11.503-6.05 15.833-.289.322-.825-.19-1.157-.736m-136.359 11.297s-1.863 2.15-.897 3.575c.965 1.433 1.23 1.687 2.706 2.248 1.483.56 2.521-1.044 2.521-1.044 11.733-12.693 17.648-26.147 31.765-36.666 1.175-.877 4.13-.02 4.145 1.054.147 12.834 2.863 25.162 10.71 36.017 5.217 7.23 13.658 11.372 22.435 10.513 10.421-1.02 19.71-4.915 29.707-8.017 2.828-.877 6.325 1.693 8.373-.434 3.12-3.257-3.643-3.525-4.798-6.314-3.234-7.77-.347-15.956-.79-23.905-.342-6.29-2.468-12.07-6.379-17.418-3.73-5.106-8.953-7.685-13.898-10.938.293-.288.561-.746.883-.78 5.598-.61 11.006.536 16.54.985 11.017.892 28.455 5.242 29.747 5.69 0 0 3.71 2.01 4.33-.648 0 0 .454-2.492-.414-3.58l-1.58-.58c-11.704-2.282-24.168-4.793-35.115-6.314 13.093-3.73 24.44-1.575 37.66-1.01 0 0 3.223 1.873 4.048-.166 0 0 .248 0 .195-2.048-.03-1.428-1.868-2.097-1.868-2.097-13.947-2.696-27.254-.594-40.908-1.22 9.23-3.427 26.425-5.675 26.425-5.675.995-.127 1.336.059 1.336.059.61.307 1.497.127 2.453-.824.405-.405.385-2.385-.102-3.37-.308-.61-1.454-1.365-2.965-.61.107-.053-1.054.074-1.054.074-11.088.36-20.07 2.633-30.657 6.066-2.317-1.97-5.306-2.97-7.408-5.232 2.736-2.843 5.828-5.355 9.987-6.257a2.487 2.487 0 0 0 1.644-1.63c.565-2.193-1.55-4.802-3.697-3.695C-45.928 4.689-51.37 6.8-55.642 10.94c-6.48-9.387-16.653-8.822-26.396-1.975-2.813 1.975-1.502-5.983-2.18-6.842-.672-.858-6.095-1.17-6.466.073-.594 1.98.171 6.564-.624 6.91-2.145.966-3.915 2.994-3.823 3.34.254 1 .078 1.634-.8 1.727-11.04 1.224-17.69 9.523-14.204 19.866-2.38 1.327-4.618-.292-6.993-.785-.644-.131-1.307.264-1.663.824-.94 1.458-.727 3.492.863 4.218 2.463 1.127 6.87-.604 7.261 1.93.25 1.586-2.033 3.595-2.804 5.643-.77 2.02 2.331 4.194 1.244 5.257-8.368 8.266-18.306 13.674-27.162 21.66-3.199 2.888-6.203 4.136-9.7 6.648-1.257.902-.809 2.906.23 3.789.931.79 2.41.93 3.292.33 11.713-7.928 19.72-17.354 31.535-25.063.366-.24.82.248.751.32-8.402 9.88-14.434 18.463-22.592 27.42m36.514-44.062c-.112 1.322-6.593 4.886-7.807 4.867-1.224-.024 1.668-5.023 2.94-6.32 0 0 4.94.683 4.867 1.453m51.364-21.987c.365 1-3.716 1.297-5.989 2.838-.882.595-1.984.229-1.926-.332.068-.736.868-4.34 1.107-4.516.507-.38 6.032-.097 6.808 2.01m-46.15 29.029c-.332.62-1.454-.161-1.522-.81-.405-4.17 2.73-4.442 3.287-4.296.302.088-.693 3.092-1.766 5.106m34.36-17.443c1.35-2.131 2.94-1.75 2.94-1.75s.205 0 .146.224c0 0-.429.975-.38 2.199 0 0-1.575-.537-2.477-.415-.308.044-.23-.258-.23-.258"/>
    </g>
  </g>
  <path fill="#fff" d="M-96.838 18.895c5.404-1.443 8.954 0 10.046 5.12 1.088 5.12-.575 11.075-6.446 12.757-6.11 1.74-10.392-.317-12.094-4.793-2.619-6.866 1.956-11.338 8.495-13.084m19.237 7.027c2.434 2.443 5.428 3.009 8.402 2.277 7.778-1.911 12.533-12.464 5.53-17.896-5.276-4.101-11.772-.834-15.775 3.828-3.043 3.545-1.424 8.529 1.843 11.79m-5.5 14.84c4.842.468 10.48-1.287 13.044-5.7.215-.381-.166-.571-.37-.488-4.672 1.926-8.749 3.506-13.06 5.798.293.14.078.36.386.39"/>
  <path d="M-94.12 31.734a5.632 5.632 0 0 0 5.626-5.636 5.628 5.628 0 0 0-5.627-5.623c-3.106 0-5.632 2.52-5.632 5.623a5.636 5.636 0 0 0 5.632 5.637m24.928-9.811c3.101 0 5.632-2.522 5.632-5.628a5.638 5.638 0 0 0-5.632-5.632 5.627 5.627 0 0 0-5.627 5.632 5.626 5.626 0 0 0 5.627 5.627"/>
  <path fill="#fff" d="M-87.323 14.5s-1.17-.091-2.4-.091c0 0 .766-1.331 1.63-1.79l2.354.512a9.354 9.354 0 0 0-1.584 1.37m5.978 18.91s1.99-.56 3.935-1.784c0 0-2.5-.721-3.37-1.79 0 0 .05 1.99-.565 3.575"/>
  <path fill="#fff400" d="M-37.764 61.944c-3.965 6.388-8.583 12.098-15.273 16.107-9.124 5.48-19.17 6.193-29.195 6.997 3.813 10.763 17.413 11.465 26.986 8.178 14.322-4.906 20.315-26.162 17.482-31.282m-16.185-23.387c-2.765-.917-6.505-2.653-8.193-.63-5.715 6.837-14.897 6.486-22.056 9.305-4.213 1.663-4.803 8.27-4.847 12.976-.005.8.761 1.868 1.605 2.019 7.066 1.204 13.45-1.483 19.515-4.374 7.007-3.336 11.83-9.524 14.722-16.473.331-.8.912-2.267-.746-2.823"/>
</svg>