<svg xmlns="http://www.w3.org/2000/svg" viewBox="-149.853 1.37 551.813 100.603">
  <path d="M56.145 3.384v26.025h5.574v44.643h-5.574v25.87H82.58v-25.65h-3.052V55.878h9.68V74.31h-3.02v25.61h27.85V74.018h-6.227v-44.61h5.578V3.384H86.203V29.41h3.024v16.053h-9.665V29.409h3.013V3.344Zm62.618.11h26.762V29.41h-4.087v40.445c0 8.026 11.523 7.436 11.523 0V29.409h-3.818V3.494h23.153v25.914h-5.954v58.586c-.005 17.31-42.376 17.5-42.376 0V29.409h-5.203zm219.95 25.915V3.494h25.65l18.92 63.828V29.364h-6.29V3.494h24.967v25.914h-6.388V99.92h-17.847l-20.823-70.96v45.058h7.071V99.92h-26.089V74.05h5.998V29.41zM238.376 43.682c-1.639-2.38-2.936-5.74-2.936-10.855v-16.21c0-14.497 15.156-19.51 27.152-8.923V3.496h15.946v33.94h-14.824v-3.868c0-7.15-10.777-7.134-11.167-.297-.39 6.837 5.95 9.519 10.387 11.898 4.486 2.38 18.58 7.29 18.58 23.938v17.697c0 15.029-17.8 19.852-28.967 6.988v6.13h-16.36V63.606h15.238v5.647c0 7.31 11.9 7.12 11.9.302l-.05-2.974c-.39-3.57-1.463-5.95-6.29-8.924-4.633-2.868-13.362-8.622-15.97-11.001a17.311 17.311 0 0 1-2.639-2.975M177.68 3.45h33.033c10.045 0 19.33 8.115 19.33 15.995v63.628c0 11.43-11.187 16.814-18.999 16.814h-33.782V74.31h5.573V29.409h-5.203zm23.05 25.958-.048 44.307h5.954c2.901 0 4.828-3.706 4.828-5.598V35.056c0-2.078-2.507-5.647-4.696-5.647z" style="fill:#fff;fill-opacity:1"/>
  <path d="M286.925 20.884c0-25.127 45.644-24.742 45.644-.116v60.78c0 25.878-45.692 26.073-45.692.599zm16.97 47.56c0 8.198 11.752 8.198 11.752 0V35.25c0-8.3-11.752-8.3-11.752 0z" style="fill:#fff;stroke-miterlimit:10;fill-opacity:1"/>
  <path d="M62.29.002c-1.487-.03-2.935.203-3.12.824-.594 1.98.17 6.564-.625 6.91-2.145.966-3.914 2.994-3.822 3.34.254 1 .077 1.636-.801 1.729-11.04 1.224-17.69 9.522-14.203 19.865-2.38 1.327-4.62-.292-6.994-.785-.644-.131-1.306.264-1.663.824-.94 1.458-.726 3.493.864 4.219 2.463 1.127 6.869-.606 7.26 1.93.249 1.584-2.032 3.594-2.803 5.642-.77 2.02 2.331 4.195 1.244 5.258-8.368 8.266-18.306 13.673-27.162 21.66-3.2 2.887-6.204 4.134-9.701 6.646-1.257.902-.809 2.907.23 3.79.931.79 2.41.932 3.293.332C16 74.256 24.007 64.83 35.822 57.12c.366-.24.82.247.75.32-8.402 9.88-14.434 18.462-22.592 27.42l.069-.068s-1.865 2.151-.899 3.576c.965 1.433 1.23 1.687 2.707 2.248 1.483.56 2.522-1.045 2.522-1.045C30.112 76.88 36.026 63.425 50.143 52.906c1.175-.877 4.131-.02 4.146 1.055.147 12.834 2.863 25.163 10.709 36.018 5.218 7.23 13.659 11.37 22.436 10.511 10.42-1.019 19.71-4.913 29.707-8.015 2.828-.877 6.325 1.691 8.373-.436 3.12-3.257-3.644-3.523-4.8-6.312-3.233-7.77-.345-15.958-.788-23.907-.342-6.29-2.468-12.069-6.38-17.418-3.73-5.106-8.953-7.684-13.898-10.937.293-.288.561-.745.883-.78 5.598-.61 11.007.536 16.541.985 11.017.892 28.454 5.241 29.746 5.69 0 0 3.71 2.009 4.33-.65 0 0 .454-2.49-.414-3.577l-1.58-.58c-11.704-2.282-24.168-4.794-35.115-6.315 13.093-3.73 24.44-1.574 37.66-1.01 0 0 3.224 1.873 4.049-.166 0 0 .246 0 .193-2.048-.03-1.428-1.867-2.098-1.867-2.098-13.947-2.696-27.254-.594-40.908-1.219 9.23-3.428 26.426-5.676 26.426-5.676.995-.127 1.336.06 1.336.06.61.306 1.497.128 2.453-.823.405-.405.385-2.386-.102-3.371-.308-.61-1.456-1.365-2.966-.61.107-.053-1.053.075-1.053.075-11.088.36-20.071 2.631-30.658 6.064-2.317-1.97-5.305-2.968-7.407-5.23 2.736-2.843 5.828-5.356 9.987-6.258a2.487 2.487 0 0 0 1.644-1.63c.565-2.193-1.551-4.801-3.697-3.694C103.926 3.32 98.483 5.43 94.21 9.57 87.73.183 77.557.75 67.814 7.596c-2.813 1.975-1.501-5.983-2.18-6.842C65.3.324 63.776.032 62.29.002zm18.704 7.062c1.774.025 3.543.588 5.192 1.87 7.003 5.432 2.248 15.983-5.53 17.894-2.974.732-5.968.168-8.402-2.275-3.267-3.262-4.887-8.246-1.844-11.791 2.752-3.205 6.682-5.752 10.584-5.698zM61.76 11.248l2.355.514a9.354 9.354 0 0 0-1.584 1.369s-1.17-.092-2.4-.092c0 0 .765-1.332 1.629-1.791zm34.459 5.412c1.804.018 5.056.572 5.638 2.152.365 1-3.715 1.297-5.988 2.838-.882.595-1.984.23-1.926-.332.068-.736.869-4.34 1.108-4.515.127-.095.566-.149 1.168-.143zm-39.508.336c3.33.037 5.53 1.809 6.35 5.649 1.088 5.12-.575 11.075-6.446 12.757-6.11 1.74-10.392-.317-12.094-4.793-2.619-6.866 1.956-11.338 8.495-13.084 1.35-.36 2.585-.541 3.695-.529zm12.363 11.47c.87 1.07 3.37 1.792 3.37 1.792a16.863 16.863 0 0 1-3.936 1.783c.615-1.585.566-3.574.566-3.574zm23.664.155c.17.003.27.027.27.027s.205 0 .146.223c0 0-.43.975-.38 2.2 0 0-1.575-.537-2.477-.415-.308.044-.23-.258-.23-.258 1.012-1.598 2.16-1.784 2.671-1.777zm-13.136 4.57c.183.037.356.215.195.5-2.565 4.413-8.201 6.168-13.043 5.7-.308-.03-.094-.25-.387-.391 4.311-2.292 8.389-3.87 13.06-5.797a.308.308 0 0 1 .175-.012zm10.2 2.43c1.84-.083 4.201.936 6.102 1.566 1.658.556 1.077 2.023.746 2.823-2.892 6.949-7.715 13.136-14.722 16.472-6.066 2.891-12.448 5.58-19.514 4.375-.844-.15-1.61-1.22-1.605-2.02.044-4.705.634-11.313 4.847-12.976 7.16-2.819 16.34-2.467 22.055-9.304.527-.633 1.256-.898 2.092-.936zm-44.175 3.725s4.94.683 4.867 1.453c-.112 1.322-6.593 4.886-7.806 4.867-1.224-.024 1.667-5.023 2.939-6.32zm11.846 3.388c.302.088-.693 3.094-1.766 5.108h.002c-.332.62-1.455-.162-1.523-.81-.405-4.17 2.73-4.444 3.287-4.298zm95.289 3.418a6.992 6.992 0 0 0-3.145 1.002c-10.85 6.578-9.552 23.348-.906 31.41-2.121 4.047-10.094 12.214-17.818 10.922a3.233 3.233 0 0 0-1.717.088c-.863.351-1.244 1.547-.684 1.98 10.114 7.803 19.71-4.071 25.377-11.376 0 0 4.902 1.604 10.11-2.463 6.115-4.79 10.158-10.993 16.263-15.967 4.57-3.706 10.557-2.939 15.77-4.846 1.858-.683 1.385-2.994-.512-3.17-5.398-.507-10.71.297-15.508 2.764-8.86 4.56-13.473 13.812-22.144 18.85-.356.21-1.599.53-1.403.209 4.506-7.486 8.177-16.718 4.373-24.608-1.485-3.082-4.813-5.03-8.056-4.795zm.636 5.047c.57.033 1.183.183 1.842.47 2.483 1.083 2.75 4.214 2.375 6.731-.843 5.69-2.172 11.502-6.053 15.832-.288.322-.822-.19-1.154-.736-2.492-4.092-4.131-8.553-3.4-13.375.559-3.678 2.406-9.153 6.39-8.922zM50.824 53.65a.411.411 0 0 0-.228.016.673.673 0 0 0-.31.252c-5.336 6.549-18.634 21.7-26.958 38.582-.429.863-.926 1.881-1.023 2.953l-.002.002c-.223 2.37 3.332 4.555 4.771 2.73 3.76-4.754 4.208-10.976 8.344-16.638 6.266-8.548 12.273-17.608 15.75-27.346.03-.277-.129-.502-.344-.55zm61.266 6.924c2.833 5.12-3.16 26.375-17.483 31.281-9.573 3.287-23.173 2.586-26.986-8.177 10.025-.804 20.071-1.516 29.195-6.996 6.69-4.01 11.309-9.72 15.274-16.108z" style="stroke-miterlimit:10;fill:#fff;fill-opacity:1" transform="translate(-149.853 1.37)"/>
  <path d="M-94.12 31.734a5.632 5.632 0 0 0 5.626-5.636 5.628 5.628 0 0 0-5.627-5.623c-3.106 0-5.632 2.52-5.632 5.623a5.636 5.636 0 0 0 5.632 5.637m24.928-9.811c3.101 0 5.632-2.522 5.632-5.628a5.638 5.638 0 0 0-5.632-5.632 5.627 5.627 0 0 0-5.627 5.632 5.626 5.626 0 0 0 5.627 5.627" style="fill:#fff;fill-opacity:1"/>
</svg>