<svg xmlns="http://www.w3.org/2000/svg" style="isolation:isolate" viewBox="0 0 568.929 116.145">
  <path fill="#FF0000" d="M358.58 26.897v-2.481h17.185v21.973h-12.201v4.326h-4.197v4.851h-4.837v21.108h4.18v4.457h4.592v4.72h12.463v22.244H358.71v-2.737h-5.248v-2.565h-4.197v-3.59h-3.805v-4.761H341v-4.689h-4.196v-5.64h-4.07V48.142h4.07v-5.424h4.065v-4.905h4.724v-4.689h3.672V29.74h3.805v-2.843h5.51Zm46.619-.409v-2.177h18.365v2.177h5.248v2.754h3.938v3.937h4.197v4.199h4.33v4.852h4.461v65.811h-20.27V51.019h-4.394v-4.064h-10.625v3.802h-4.723v4.593h-4.857v21.253h4.591v4.721h4.2v3.804h11.281v22.913h-15.742v-1.79h-5.51v-2.755h-3.543v-3.804h-4.197v-4.46h-4.069v-5.117h-4.066v-5.641h-4.461V48.265h3.805v-5.547h4.593v-4.817h4.198v-4.854h3.935v-3.543h4.067v-3.023l5.248.007Zm-376.157 0v-2.177h18.366v2.177h5.248v2.754h3.937v3.937h4.198v4.199h4.33v4.853h4.461v65.81h-20.27V51.02h-4.395v-4.065H34.292v3.802H29.57v4.594h-4.858v21.251h4.592v4.722h4.199v3.805h11.282v22.912H29.042v-1.789h-5.509v-2.756H19.99v-3.804h-4.198v-4.459h-4.067v-5.118H7.658v-5.64H3.197v-36.21h3.804v-5.547h4.595v-4.817h4.196v-4.854h3.936v-3.543h4.066v-3.023l5.248.007Zm462.327 19.589V24.31h-15.946v2.285l-5.035.013v2.685h-4.361v3.693h-4.365v4.699h-3.86v4.7h-4.197v5.874h-4.363v35.918h4.531v5.707h4.029v5.202H462v4.868h4.195v3.693h4.193v2.516h5.709v1.879h19.131v-1.71h5.205v-3.022h3.525v-4.195h3.862v-4.868h4.697v-4.7h4.197V7.138H495.06v74.185h-3.691v3.862h-11.414v-3.862h-3.858v-5.035h-4.533V55.31h4.867v-4.365h4.197v-4.868h10.741Zm33.959 1.628v-5.282h3.656v-4.604h4.334v-4.742h3.795v-3.793h4.334V26.17h4.875v-1.86h19.773v22.176h-13.814v3.386h-4.469v2.574h-4.066v2.98h22.349v20.722h-22.213v3.251h4.201v2.572h3.926v3.252h14.086v22.819h-19.773v-1.828h-4.608v-2.842h-4.199v-3.793h-3.924v-4.2h-4.607v-5.416h-3.656v-5.96h-4.877V47.69l4.877.015ZM136.836 55.95V42.491h-4.154v-4.982h-4.275v-4.58h-3.86v-3.548h-4.067v-2.797h-5.02v-2.273H94.691v2.273h-5.539v2.797h-3.721v3.548h-3.894v4.58h-4.5v4.72h-3.723v21.937h4.154v4.283h4.241v3.933h29.165v4.37h4.327v4.283H110.7v4.457H99.537v-4.631h-3.981V76.49H73.314v13.372h4.154v4.545h4.327v4.546h4.329v3.583h3.806v2.796h5.193v2.71h20.597v-2.71h4.674v-2.796h4.153v-3.583h4.154v-4.458h4.068V89.95h4.067V68.974h-5.019v-4.109h-4.241v-4.894H99.45v-4.37h-4.24v-4.283h4.24v-4.632h11.164v4.982h4.154v4.282h22.068Zm46.635 30.15v-4.625h-4.232v-4.36h-3.886V46.836h12.868v-7.765h-5.009v-4.799h-4.665v-3.664h-3.194V16.909h-22.112v13.699h-2.851v3.664h-4.318v4.799h-5.441v7.765h12.61v37.257h4.319v5.234h3.627v5.062h4.232v5.147h3.715v3.839h3.713v2.793h5.614V108h15.634V86.1h-10.624Zm59.544-14.084h4.711v-4.718h3.933v-5.33h2.36V42.309h-2.885V37.94h-3.67v-4.631h-4.283v-3.67h-4.72v-2.795h-4.544V24.31h-14.071v2.534h-3.932v2.795h-4.37v3.67h-4.719v4.631h-4.195v4.281h-4.719v65.794h21.499V46.677h14.507v11.709h-4.457v3.145h-6.73v15.64l13.109 30.844h22.199l-15.023-35.999Zm82.374-23.845v-5.594h-4.326v-4.724h-4.409v-4.719h-3.893V29.74h-3.977v-2.81h-5.02v-2.62h-20.84v2.622H278v2.622h-4.324v3.583h-3.544v4.719h-4.584v4.724h-3.977v5.594h-4.238v36.009h4.238v5.592h3.977v4.726h4.584v4.719h3.544v3.583H278v2.623h4.929v2.621h20.84v-2.621h5.016v-2.623h3.977V99.22h3.896v-4.719h4.409v-4.726h4.326v-5.658h3.89V48.171h-3.894Zm-22.223 28.231v4.724h-4.324v4.37h-11.063v-4.37H283.8v-4.724h-4.669V55.949h4.669v-4.726h3.979V46.86h11.063v4.369h4.324v4.726h4.324v20.447h-4.324Z"/>
</svg>