<svg xmlns="http://www.w3.org/2000/svg" viewBox="0 0 350 116">
  <g fill="#f91b20">
    <path d="M304.1822 66.8648h45.2206v11.1094h-15.16v33.8202h-14.8986V77.9742h-15.162V66.8648zM256.276 96.9312l14.1992-.8222c.3066 2.1346.9374 3.7636 1.8848 4.8808 1.539 1.8124 3.7402 2.7168 6.6054 2.7168 2.1348 0 3.7792-.4648 4.9336-1.3946 1.1562-.9276 1.7364-2.0058 1.7364-3.2304 0-1.164-.5528-2.205-1.6602-3.125-1.1056-.92-3.6582-1.7872-7.6504-2.6036-6.541-1.3632-11.207-3.1816-13.9922-5.4432-2.8106-2.2658-4.2168-5.1504-4.2168-8.6582 0-2.3028.7188-4.4766 2.1582-6.5294 1.4374-2.0488 3.6016-3.6622 6.4882-4.836 2.8848-1.1678 6.8398-1.7558 11.8692-1.7558 6.168 0 10.873 1.0664 14.1094 3.1954 3.2362 2.1346 5.164 5.5194 5.7792 10.1718l-14.0214.7656c-.379-2.0234-1.168-3.498-2.3712-4.4218-1.203-.92-2.8632-1.379-4.9842-1.379-1.7442 0-3.0586.3418-3.9396 1.0274-.8848.6836-1.3262 1.5156-1.3262 2.496 0 .715.3672 1.3576 1.1056 1.9298.7128.5918 2.3866 1.1426 5.0194 1.6542 6.5196 1.3068 11.1896 2.6232 14.0098 3.961 2.8204 1.3378 4.8732 2.998 6.1564 4.9786 1.287 1.9804 1.9276 4.1972 1.9276 6.6464 0 2.8808-.8574 5.5292-2.5684 7.959-1.7148 2.4316-4.1074 4.2734-7.1836 5.5292-3.076 1.256-6.953 1.8848-11.6328 1.8848-8.2148 0-13.9004-1.4706-17.0664-4.4004-3.16-2.9414-4.9512-6.668-5.369-11.1972zm-20.0528 7.4296h-16.8594l-2.4296 7.4336H201.733l18.0586-44.9296h16.3398l18.0956 44.9296h-15.5878l-2.416-7.4336m-3.1544-9.7206-5.2616-16.1386-5.2716 16.1386h10.5332zm-75.121-27.7754h39.9628v9.5586h-25.0644v7.1874h23.2246v9.1504h-23.2246v8.8224h25.7656v10.2108h-40.664V66.8648zm170.8886-25.3106h-16.8612l-2.4316 7.4336h-15.1974L312.4048 4.06h16.338l18.0976 44.9278h-15.588l-2.416-7.4336m-3.1582-9.7206-5.2616-16.1388-5.2696 16.1388h10.5312zM251.7974 4.06h45.2208v11.1094H281.858v33.8184h-14.8984V15.1694h-15.1622V4.06zm-14.7188 37.4942h-16.8612l-2.4298 7.4336h-15.1992L220.647 4.06h16.3398l18.0958 44.9278h-15.588l-2.416-7.4336m-3.1562-9.7206-5.2636-16.1388-5.2676 16.1388h10.5312zM158.2104 4.06h22.0792c4.3516 0 7.8692.5508 10.5488 1.6544 2.6798 1.1036 4.8946 2.6894 6.6406 4.752 1.752 2.0644 3.0196 4.4628 3.8066 7.205.7872 2.7364 1.1818 5.6368 1.1818 8.6992 0 4.7988-.586 8.5254-1.756 11.17-1.1698 2.6464-2.7948 4.8672-4.871 6.6524-2.0782 1.787-4.3126 2.9764-6.6934 3.5702-3.2598.8164-6.211 1.2246-8.8574 1.2246h-22.0792V4.06m14.8986 10.211v24.5058h3.618c3.086 0 5.2794-.3222 6.584-.9648 1.3028-.6386 2.3262-1.7616 3.0626-3.3652.7382-1.5976 1.1074-4.1952 1.1074-7.7852 0-4.7538-.8262-8.0058-2.4746-9.7558-1.6544-1.7558-4.3946-2.6348-8.2168-2.6348h-3.6806zM9.9478.2476c-.169 0-.332.02-.501.0206H.5972V16.179l6.8642-.014c23.1036 0 41.834 18.7304 41.834 41.834 0 23.044-18.6356 41.7314-41.6572 41.8272l-7.041.008v15.9184h9.5938v-.01c31.7812-.1328 57.5068-25.9318 57.5068-57.7442 0-31.8936-25.8564-57.75-57.75-57.75z"/>
    <path d="M42.3872 57.9986c0-19.8526-16.0946-35.9472-35.9472-35.9472-.1064 0-5.8214.012-5.8214.012v71.8828l5.9728-.006c19.7832-.084 35.7958-16.1406 35.7958-35.9424zm49.6466 2.4834c1.2772 18.6386 16.7256 33.3788 35.6708 33.459l5.9726.006V60.4822H92.0338zm41.6434-5V22.064s-5.7148-.012-5.8212-.012c-19.003 0-34.5234 14.7568-35.8204 33.4306h41.6416z"/>
    <path d="M124.3482.2476c.169 0 .332.02.501.0206h8.8496V16.179l-6.8642-.014c-23.1036 0-41.834 18.7304-41.834 41.834 0 23.044 18.6356 41.7314 41.6572 41.8272l7.041.008v15.9184h-9.5938v-.01c-31.7812-.1328-57.5068-25.9318-57.5068-57.7442 0-31.8936 25.8564-57.75 57.75-57.75z"/>
  </g>
</svg>