<svg xmlns="http://www.w3.org/2000/svg" xmlns:xlink="http://www.w3.org/1999/xlink" viewBox="0 0 161.85547 25.454905">
  <defs>
    <linearGradient id="a">
      <stop offset="0" stop-color="#fff"/>
      <stop offset="1" stop-color="#f040ba" stop-opacity="0"/>
    </linearGradient>
    <linearGradient xlink:href="#a" id="b" x1="101.37968" x2="101.89253" y1="92.169952" y2="33.913639" gradientTransform="matrix(1 0 0 1.5895 -22.227325 -78.104423)" gradientUnits="userSpaceOnUse"/>
  </defs>
  <path fill="url(#b)" stroke="#696d19" stroke-width=".333575" d="M14.39082 25.288118H4.9081315q-1.936049 0-3.338696-2.229517Q.16678751 20.829082.16678751 17.751719V7.7031865q0-3.0773616 1.40264799-5.3068803Q2.9720825.16678751 4.9081315.16678751H14.39082q.750713 0 1.16558.75364086.414868.75363923.414868 1.75849213 0 1.0362552-.395112 1.7270915-.434623.7850415-1.185336.7850415H4.9081315q-.612424 0-1.106314.7850416-.474134.7536408-.474134 1.7270914V17.751719q0 .973452.474134 1.758494.49389.753639 1.106314.753639H14.39082q.750713 0 1.16558.753641.414868.722239.414868 1.758492 0 1.004855-.414868 1.758494-.414867.753639-1.16558.753639zm13.157233-5.024266q.612423 0 1.086558-.753639.49389-.785042.49389-1.758494V7.7031865q0-.9734506-.49389-1.7270914-.474135-.7850416-1.086558-.7850416h-6.321792q-.671691 0-1.12607.7536409-.454378.7222385-.454378 1.7584921V17.751719q0 1.036255.454378 1.789896.454379.722237 1.12607.722237zm0 5.024266h-6.321792q-1.97556 0-3.358452-2.198116-1.382892-2.198117-1.382892-5.338283V7.7031865q0-3.1401662 1.382892-5.3382826Q19.250701.16678751 21.226261.16678751h6.321792q1.936048 0 3.338696 2.22951869 1.402648 2.2295187 1.402648 5.3068803V17.751719q0 3.077363-1.402648 5.306882-1.402648 2.229517-3.338696 2.229517zm9.087588-22.6091975V17.751719q0 .973452.474134 1.758494.49389.753639 1.106314.753639h6.321792q.750712 0 1.16558.753641.414868.722239.414868 1.758492 0 1.004855-.414868 1.758494t-1.16558.753639h-6.321792q-1.936049 0-3.338697-2.229517-1.402647-2.229519-1.402647-5.306882V2.6789205q0-1.1932619.49389-1.88409974.434623-.62803325 1.086558-.62803325.632179 0 1.106313.65943555.474135.65943554.474135 1.85269744zm13.137489 0V17.751719q0 .973452.474134 1.758494.49389.753639 1.106314.753639h6.321792q.750713 0 1.16558.753641.414868.722239.414868 1.758492 0 1.004855-.414868 1.758494-.414867.753639-1.16558.753639h-6.321792q-1.936049 0-3.338696-2.229517-1.402648-2.229519-1.402648-5.306882V2.6789205q0-1.1932619.49389-1.88409974.434623-.62803325 1.086558-.62803325.632179 0 1.106314.65943555.474134.65943554.474134 1.85269744ZM67.651967 10.21532h3.200407q.63218 0 1.086558-.7536397.454379-.7536393.454379-1.7584938 0-1.0362536-.474134-1.7584921-.454379-.7536409-1.106314-.7536409h-6.321792q-.612423 0-1.106313.7850416-.474135.7536408-.474135 1.7270914V17.751719q0 .973452.474135 1.758494.49389.753639 1.106313.753639h9.482688q.750713 0 1.165581.753641.414867.722239.414867 1.758492 0 1.004855-.414867 1.758494-.414868.753639-1.165581.753639h-9.482688q-1.936049 0-3.338696-2.229517-1.402648-2.229519-1.402648-5.306882V7.7031865q0-3.0773616 1.402648-5.3068803Q62.555022.16678751 64.491071.16678751h6.321792q1.955805 0 3.338697 2.22951869 1.402647 2.1981164 1.402647 5.3068803 0 3.1087665-1.382892 5.3382835-1.363136 2.198116-3.318941 2.198116h-3.200407q-.750713 0-1.185336-.785041-.395112-.690837-.395112-1.727092 0-1.004853.414868-1.758492.414867-.753641 1.16558-.753641zm23.311618 15.072798h-9.48268q-1.93605 0-3.3387-2.229517-1.402648-2.229519-1.402648-5.306882V7.7031865q0-3.0773616 1.402648-5.3068803 1.40265-2.22951869 3.3387-2.22951869h9.48268q.75072 0 1.16558.75364086.41487.75363923.41487 1.75849213 0 1.0362552-.39511 1.7270915-.43462.7850415-1.18534.7850415h-9.48268q-.61243 0-1.10632.7850416-.47413.7536408-.47413 1.7270914V17.751719q0 .973452.47413 1.758494.49389.753639 1.10632.753639h9.48268q.75072 0 1.16558.753641.41487.722239.41487 1.758492 0 1.004855-.41487 1.758494-.41486.753639-1.16558.753639zM101.63163 10.21532h-4.741345v7.536399q0 1.036255.45438 1.789896.47413.722237 1.12607.722237h6.321795q.75071 0 1.16558.753641.41487.722239.41487 1.758492 0 1.004855-.41487 1.758494t-1.16558.753639h-6.321795q-1.97556 0-3.35846-2.198116-1.38289-2.229517-1.38289-5.338283V2.6789205q0-1.1932619.49389-1.88409974.43463-.62803325 1.08656-.62803325.63218 0 1.10631.65943555.47414.65943554.47414 1.85269744v2.512133h4.741345q.75071 0 1.16558.7536409.41487.7536393.41487 1.7584921 0 1.0362552-.39511 1.7270915-.43463.785042-1.18534.785042zm5.9267 12.560665V2.6789205q0-1.1932619.47413-1.85269744.47413-.65943555 1.10631-.65943555t1.10632.65943555q.47413.65943554.47413 1.85269744V22.775985q0 1.193264-.47413 1.852699-.47414.659434-1.10632.659434t-1.10631-.659434q-.47413-.659435-.47413-1.852699zm15.40935-2.512133q.61242 0 1.08655-.753639.49389-.785042.49389-1.758494V7.7031865q0-.9734506-.49389-1.7270914-.47413-.7850416-1.08655-.7850416h-6.3218q-.67169 0-1.12607.7536409-.45437.7222385-.45437 1.7584921V17.751719q0 1.036255.45437 1.789896.45438.722237 1.12607.722237zm0 5.024266h-6.3218q-1.97556 0-3.35845-2.198116-1.38289-2.198117-1.38289-5.338283V7.7031865q0-3.1401662 1.38289-5.3382826 1.38289-2.19811639 3.35845-2.19811639h6.3218q1.93604 0 3.33869 2.22951869 1.40265 2.2295187 1.40265 5.3068803V17.751719q0 3.077363-1.40265 5.306882-1.40265 2.229517-3.33869 2.229517zm18.57028-2.512133V7.7031865q0-.9734506-.49389-1.7270914-.47413-.7850416-1.08656-.7850416h-6.32179q-.65193 0-1.12607.7536409-.45438.7222385-.45438 1.7584921V22.775985q0 1.193264-.47413 1.852699-.45438.659434-1.10631.659434-.63218 0-1.10632-.659434-.47413-.659435-.47413-1.852699V7.7031865q0-3.1087639 1.38289-5.3068803 1.40265-2.22951869 3.35845-2.22951869h6.32179q1.93605 0 3.3387 2.22951869 1.40265 2.2295187 1.40265 5.3068803V22.775985q0 1.193264-.47414 1.852699-.47413.659434-1.10631.659434-.65193 0-1.08656-.628033-.49389-.690836-.49389-1.8841zm18.57027-17.5849315h-9.48269q-.61242 0-1.10631.7850416-.47413.7536408-.47413 1.7270914 0 .9734522.47413 1.7584938.49389.7536397 1.10631.7536397h6.3218q1.99531 0 3.35845 2.198116 1.38289 2.166716 1.38289 5.338283 0 3.108766-1.40265 5.338283-1.38289 2.198116-3.33869 2.198116h-9.48269q-.75071 0-1.16558-.753639-.41487-.753639-.41487-1.758494 0-1.036253.41487-1.758492.41487-.753641 1.16558-.753641h9.48269q.65193 0 1.10631-.722237.47413-.753641.47413-1.789896 0-1.099058-.45437-1.789894-.43463-.722239-1.12607-.722239h-6.3218q-1.93604 0-3.33869-2.229517-1.40265-2.229519-1.40265-5.3068825 0-3.0773616 1.40265-5.3068803Q148.6895.16678751 150.62554.16678751h9.48269q.75072 0 1.16558.75364086.41487.75363923.41487 1.75849213 0 1.0362552-.39511 1.7270915-.43462.7850415-1.18534.7850415z"/>
</svg>