<svg xmlns="http://www.w3.org/2000/svg" version="1.0" viewBox="0 0 800 310">
  <g stroke="#000" stroke-linecap="round" stroke-width="8.34773">
    <path d="M20.02064662 22.34935918h92.23026822v84.4829308H20.02064662zm0 84.66703166h92.23026822v193.31464947H20.02064662z"/>
    <path d="M112.18928354 107.00153188V300.3036848h92.34677751V199.34830939h100.9553754v-92.34677751h-193.3021529z"/>
    <path d="M305.46205245 107.00153188V300.3036848h191.9978199v-58.6949857h-125.2159695v-.60036884h125.2159695V107.00153188h-191.9978199zm66.7818504 59.73845212h56.86891948v.23148258h-56.86891948v-.23148258zm125.40270825-59.73845212V300.3036848h100.7238928v-99.6510424h.2314826v99.6510424h99.4195598v-99.6510424h.23148259v99.6510424h92.3467775V107.00153188H497.6466111z"/>
    <path fill="#09c" d="M11.67290988 14.00154662h92.23026822v84.4829308H11.67290988z"/>
    <path fill="#0f0" d="M11.67290988 98.66857828h92.23026822v193.31464947H11.67290988z"/>
    <path fill="#fff" d="M103.84163028 98.6538028v193.3021529h92.3467775V191.0005803H297.1437832V98.6538028H103.84163029z"/>
    <path fill="#fff" d="M297.11439918 98.6538028v193.3021529h191.9978199V233.26097h-125.2159695v-.60036884h125.2159695V98.6538028h-191.9978199zm66.7818504 59.73845211h56.86891948v.2314826h-56.86891948v-.2314826zM489.29895783 98.6538028v193.3021529h100.72389282v-99.6510424h.2314826v99.6510424h99.4195598v-99.6510424h.23148259v99.6510424h92.3467775V98.6538028h-292.9531953z"/>
  </g>
</svg>