<svg xmlns="http://www.w3.org/2000/svg" xmlns:xlink="http://www.w3.org/1999/xlink" xml:space="preserve" viewBox=".25 0 253.14752 109.20615">
  <defs>
    <path id="b" fill="#999" d="M-97.531229 462.27982v17.33254h.44938c1.42382 0 65.29578 1.19519 65.29578 28.3863v234.20521c0 15.72617-29.12165 28.3863-65.29578 28.3863h-.44938v17.33003h195.89486v-17.33003h-.44937c-36.17413 0-65.29578-12.66013-65.29578-28.3863V507.99866c0-27.19111 63.87198-28.3863 65.29578-28.3863h.44937v-17.33254h-195.89486z" overflow="visible" style="isolation:auto;mix-blend-mode:normal;solid-color:#000;solid-opacity:1"/>
  </defs>
  <defs>
    <linearGradient id="a">
      <stop offset="0" stop-color="#009ee0"/>
      <stop offset=".51050597" stop-color="#0078bd"/>
      <stop offset="1" stop-color="#003f86"/>
    </linearGradient>
    <linearGradient xlink:href="#a" id="c" x1="254.86465" x2="254.86465" y1="462.59793" y2="790.39484" gradientTransform="translate(-253.11758 -3.555022)" gradientUnits="userSpaceOnUse"/>
    <linearGradient xlink:href="#a" id="d" x1="254.86465" x2="254.86465" y1="462.59793" y2="790.39484" gradientTransform="translate(-253.11758 -3.555022)" gradientUnits="userSpaceOnUse"/>
    <linearGradient xlink:href="#a" id="e" x1="254.86465" x2="254.86465" y1="462.59793" y2="790.39484" gradientTransform="translate(-253.11758 -3.555022)" gradientUnits="userSpaceOnUse"/>
    <linearGradient xlink:href="#a" id="f" x1="254.86465" x2="254.86465" y1="462.59793" y2="790.39484" gradientTransform="translate(-253.11758 -3.555022)" gradientUnits="userSpaceOnUse"/>
  </defs>
  <g fill-rule="evenodd" color="#000">
    <use xlink:href="#b" overflow="visible" style="isolation:auto;mix-blend-mode:normal;solid-color:#000;solid-opacity:1" transform="translate(126.68511113 -153.3097605) scale(.33318)"/>
    <path fill="url(#c)" d="M-97.531229 460.14682v17.33254h.44938c1.42382 0 65.29578 1.19519 65.29578 28.3863v234.20521c0 15.72617-29.12165 28.3863-65.29578 28.3863h-.44938v17.33003h195.89486v-17.33003h-.44937c-36.17413 0-65.29578-12.66013-65.29578-28.3863V505.86566c0-27.19111 63.87198-28.3863 65.29578-28.3863h.44937v-17.33254h-195.89486z" overflow="visible" style="isolation:auto;mix-blend-mode:normal;solid-color:#000;solid-opacity:1" transform="translate(126.68511113 -153.3097605) scale(.33318)"/>
    <use xlink:href="#b" overflow="visible" style="isolation:auto;mix-blend-mode:normal;solid-color:#000;solid-opacity:1" transform="translate(191.95252791 -153.3097605) scale(.33318)"/>
    <path fill="url(#d)" d="M-97.531229 460.14682v17.33254h.44938c1.42382 0 65.29578 1.19519 65.29578 28.3863v234.20521c0 15.72617-29.12165 28.3863-65.29578 28.3863h-.44938v17.33003h195.89486v-17.33003h-.44937c-36.17413 0-65.29578-12.66013-65.29578-28.3863V505.86566c0-27.19111 63.87198-28.3863 65.29578-28.3863h.44937v-17.33254h-195.89486z" overflow="visible" style="isolation:auto;mix-blend-mode:normal;solid-color:#000;solid-opacity:1" transform="translate(191.95252791 -153.3097605) scale(.33318)"/>
    <g transform="translate(61.41769102 -153.30975384) scale(.33318)">
      <use xlink:href="#b" overflow="visible" style="isolation:auto;mix-blend-mode:normal;solid-color:#000;solid-opacity:1"/>
      <path fill="url(#e)" d="M-97.531229 460.14682v17.33254h.44938c1.42382 0 65.29578 1.19519 65.29578 28.3863v234.20521c0 15.72617-29.12165 28.3863-65.29578 28.3863h-.44938v17.33003h195.89486v-17.33003h-.44937c-36.17413 0-65.29578-12.66013-65.29578-28.3863V505.86566c0-27.19111 63.87198-28.3863 65.29578-28.3863h.44937v-17.33254h-195.89486z" overflow="visible" style="isolation:auto;mix-blend-mode:normal;solid-color:#000;solid-opacity:1"/>
    </g>
    <g transform="translate(126.68512113 -153.30975384) scale(.33318)">
      <use xlink:href="#b" overflow="visible" style="isolation:auto;mix-blend-mode:normal;solid-color:#000;solid-opacity:1"/>
      <path fill="url(#f)" d="M-97.531229 460.14682v17.33254h.44938c1.42382 0 65.29578 1.19519 65.29578 28.3863v234.20521c0 15.72617-29.12165 28.3863-65.29578 28.3863h-.44938v17.33003h195.89486v-17.33003h-.44937c-36.17413 0-65.29578-12.66013-65.29578-28.3863V505.86566c0-27.19111 63.87198-28.3863 65.29578-28.3863h.44937v-17.33254h-195.89486z" overflow="visible" style="isolation:auto;mix-blend-mode:normal;solid-color:#000;solid-opacity:1"/>
    </g>
  </g>
  <g transform="translate(333.26015953 77.16681972) scale(.33318)">
    <rect width="643.28125" height="61.67963" x="-941.24268" y="-23.599487" fill="#0c4da1" fill-rule="evenodd" color="#000" overflow="visible" rx="28.617928" ry="28.617928" style="isolation:auto;mix-blend-mode:normal;solid-color:#000;solid-opacity:1"/>
    <path fill="#fff" d="M298.40912 705.64587q0 1.84067-.64424 3.60772-.64424 1.74864-1.84067 2.94508-1.6382 1.61979-3.66295 2.44809-2.00633.82831-5.00663.82831h-4.39921v8.92727h-7.06819V696.9947h11.63306q2.61376 0 4.39921.46016 1.80386.44177 3.18437 1.3437 1.65661 1.08599 2.52172 2.77942.88353 1.69342.88353 4.06789zm-7.30748.16566q0-1.15963-.62583-1.98793-.62583-.84671-1.45413-1.17803-1.10441-.44177-2.15359-.47858-1.04919-.0552-2.79783-.0552h-1.21484v8.20941h2.02474q1.80386 0 2.96349-.22088 1.17803-.22088 1.96952-.88353.68105-.58901.97555-1.39891.31292-.8283.31292-2.00633zm39.09557 18.59081h-19.76884V696.9947h7.06819v22.10649h12.70065v5.30115zm37.55241 0h-7.30748l-2.34027-5.54043h-13.90292l-2.47358 5.54043h-7.12341l12.50594-27.40764h8.13578zm-11.75952-10.56547-4.90634-9.8292-4.86191 9.8292zm46.36347-16.84217-10.54968 16.80535v10.60229h-7.06819v-10.27097l-10.80422-17.13667h8.02534l6.46022 10.60228 6.16888-10.60228zm50.22337 18.2963c0 2.69965-1.14735 4.89619-3.44206 6.58961-2.28243 1.68115-5.38704 2.52173-9.31381 2.52173-2.27017 0-4.25196-.19634-5.94538-.58902-1.68115-.40495-3.25799-.9142-4.73053-1.52776l2.27038-5.29517c.88841.50772 2.4065 1.06705 3.3989 1.41135 1.81613.62583 3.55863.93874 5.22751.93874.42949 0 .99397-.0368 1.69342-.11044.69946-.0736 1.27007-.19634 1.71183-.36813.53993-.22089.98169-.49699 1.32528-.82831.35587-.33132.5338-.82217.5338-1.47254 0-.60129-.25769-1.11667-.77308-1.54616-.50312-.44177-1.24553-.77922-2.22722-1.01237-1.03078-.24543-2.12291-.47244-3.2764-.68105-1.14122-.22089-2.21495-.49699-3.22118-.82831-2.30698-.74854-3.96972-1.76091-4.98823-3.03711-1.00623-1.28847-1.50935-2.88372-1.50935-4.78575 0-2.55241 1.14122-4.63237 3.42365-6.23989 2.29471-1.61979 5.23979-2.42969 8.83524-2.42969 1.80386 0 3.58318.17793 5.33796.5338 1.76705.34359 3.29481.77921 4.58328 1.30687l-2.97936 4.89983c-.57247-.28959-1.18687-.55463-1.84321-.79512-1.59525-.60129-3.22732-.90193-4.89619-.90193-.58902 0-1.17804.043-1.76705.12885-.57675.0736-1.13509.22088-1.67502.44176-.47857.18407-.88966.4663-1.23325.84671-.34359.36813-.51539.79149-.51539 1.27006 0 .724.2761 1.28234.82831 1.67502.5522.38041 1.59525.73013 3.12914 1.04918 1.00624.20861 1.96953.41109 2.88986.60742.93261.19634 1.93271.46631 3.0003.8099 2.09837.68719 3.64453 1.62593 4.6385 2.81623 1.00623 1.17803 1.50935 2.71193 1.50935 4.60169zm99.94286-12.99516h-8.55913v22.1065h-7.06819v-22.1065h-8.55914v-5.30114h24.18646v5.30114zm30.04946 22.1065H561.4883V696.9947h21.08096v5.30114h-14.04958v4.73054h13.12924v5.30114h-13.12924v6.77368h14.04958zm47.14053 0h-7.40845l-.62845-13.21-7.65102 13.20424h-4.87779l-7.65102-13.20424-.62845 13.21h-7.04031l1.00552-27.40764h6.88967l10.05676 18.94033 10.03835-18.94033h6.88967zm-140.6308-27.40764-10.54968 16.80535v10.60229h-7.06819v-10.27097L460.6569 696.9947h8.02534l6.46022 10.60228 6.16888-10.60228zm30.11313 18.2963c0 2.69965-1.14735 4.89619-3.44206 6.58961-2.28243 1.68115-5.38704 2.52173-9.31381 2.52173-2.27017 0-4.25196-.19634-5.94538-.58902-1.68115-.40495-3.25799-.9142-4.73053-1.52776l2.27038-5.29517c.88841.50772 2.4065 1.06705 3.3989 1.41135 1.81613.62583 3.55863.93874 5.22751.93874.42949 0 .99397-.0368 1.69342-.11044.69946-.0736 1.27007-.19634 1.71183-.36813.53993-.22089.98169-.49699 1.32528-.82831.35587-.33132.5338-.82217.5338-1.47254 0-.60129-.25769-1.11667-.77308-1.54616-.50312-.44177-1.24553-.77922-2.22722-1.01237-1.03078-.24543-2.12291-.47244-3.2764-.68105-1.14122-.22089-2.21495-.49699-3.22118-.82831-2.30698-.74854-3.96972-1.76091-4.98823-3.03711-1.00623-1.28847-1.50935-2.88372-1.50935-4.78575 0-2.55241 1.14122-4.63237 3.42365-6.23989 2.29471-1.61979 5.23979-2.42969 8.83524-2.42969 1.80386 0 3.58318.17793 5.33796.5338 1.76705.34359 3.29481.77921 4.58328 1.30687l-2.97936 4.89983c-.57247-.28959-1.18687-.55463-1.84321-.79512-1.59525-.60129-3.22732-.90193-4.89619-.90193-.58902 0-1.17804.043-1.76705.12885-.57675.0736-1.13509.22088-1.67502.44176-.47857.18407-.88966.4663-1.23325.84671-.34359.36813-.51539.79149-.51539 1.27006 0 .724.2761 1.28234.82831 1.67502.5522.38041 1.59525.73013 3.12914 1.04918 1.00624.20861 1.96953.41109 2.88986.60742.93261.19634 1.93271.46631 3.0003.8099 2.09837.68719 3.64453 1.62593 4.6385 2.81623 1.00623 1.17803 1.50935 2.71193 1.50935 4.60169z" transform="translate(-1072.3506 -702.96121)" word-spacing="0"/>
  </g>
  <g fill-rule="evenodd" clip-rule="evenodd">
    <path fill="#0c4da1" d="M45.00438745 30.6991378 33.03581829 43.34086522l-7.90490118-5.41939342s2.60083987-2.48197942.22830868-4.28962112c-1.85000832-1.40986983-7.03992029 1.5805058-6.81513994 7.45181548.26361532 6.7727733 4.44849264 10.60930539 9.0711629 10.60930539 4.29314945 0 5.42056954-3.46111298 5.42056954-3.46111298h9.61840073v7.98022222l13.52200775-35.67386048H71.6435711l12.4192993 32.0632782s.90264641 1.68996068 1.80528615 2.14186694c0 0 .05182216-21.0326654.05182216-21.62344264 0-.58842502-.07763995-1.2392272-.44602904-1.66171738-.60607667-.69786993-1.63817518-.987373-1.63817518-.987373v-9.93261212h21.67405203c11.2424526 0 14.12573554 3.04803836 17.38560704 8.9193447 4.50027481-6.05960062 10.69639753-10.049127 19.53100898-10.049127 9.08881787 0 15.52030594 3.3504953 19.19325539 8.91817525 5.12989035-6.13257277 13.38666843-8.9746652 20.94204826-8.9746652 9.28534492 0 17.03961401 4.50027148 21.0526726 11.45899018V20.53822032h20.88320609l2.20070912 5.58532828 1.63935795-5.58532828h21.56224826v9.706659s-1.243925.34128524-1.5875658.90146695c-.33422858.55312172-.27538307 2.3183968-.27538307 2.3183968l3.00802727 19.18735818c.12591711.62373832.34834524 1.27571328.88616753 1.75351063.62373166.55782616 1.46635312.4530857 1.46635312.4530857v11.0600422H231.7234939v-8.35445854h-12.4169571v8.37681797h-20.37715544V60.4958147s-7.4471077 6.55034518-17.04550122 6.55034518c-12.28396 0-20.49131811-9.02997571-20.49131811-9.02997571v7.90137617h-14.44701359c-12.85944113 0-23.89829336-7.0363853-26.98164834-19.86876256-1.46164534 1.39809873-7.90725006 5.99957901-15.63681084 7.73308577-.6013689.13533932-.90146696.36010968-.90146696 1.01209464 0 1.18861448 2.53964548 1.6122841 2.53964548 1.6122841v9.51012527H26.7185262C12.0408484 65.91905297.24998485 55.871965.24998485 43.11608488c0-12.7570529 9.19237756-23.5958464 24.43141154-23.5958464 14.56469792 0 20.3230277 11.17889931 20.3230277 11.17889931z"/>
    <path fill="#ffca08" d="m39.3013715 30.89685428-6.37617423 6.6856845s-.33893302.17064262-.62019999.17064262c-.28362252 0-.6802216-.28362252-.6802216-.28362252l-.78848707-.67433439s-.22713257-.0553005-.22713257-.28362252c0-.22241813.6213761-.79083928.6213761-1.86294887 0-1.07329236-.22478035-5.53237332-7.11053022-5.53237332-6.88574988 0-9.93379156 6.43500973-9.93379156 11.74143326 0 5.30642019 3.27164259 15.01425196 13.99980843 15.01425196 6.23848602 0 7.5600876-3.50230683 7.5600876-3.50230683h2.1442225v9.1464806H26.15124785c-13.99745954 0-21.7882077-10.95293952-21.7882077-18.85431237 0-12.11567958 10.53516345-18.83902294 20.09471868-18.83902294 9.25710495.00099953 14.84361267 7.07405082 14.84361267 7.07405082zm19.75813822-6.06784339h9.65134515l11.74144325 30.7063733c.3365808.84380424.90146696 1.63935796 1.46517034 2.31251957.56254394.67785939 1.91826938 1.13212453 1.91826938 1.13212453v2.64909038H69.67234677v-2.70910533s.9002842.1165049 1.35337989-.67551383c.45073348-.79084928.45073348-1.4110426.11415267-2.20070912-.33893302-.79202206-2.71499254-7.05521639-2.71499254-7.05521639H56.85644838s-2.36899952 6.32085706-2.59731154 6.88457377c-.22595313.56371338-.22595313 1.46870534 0 2.03123594.37541578.93913581 1.69466514 1.07682736 1.69466514 1.07682736v2.64909037H44.60661225v-2.64909037s1.03209851-.35541524 1.80646559-1.13213453c.84615312-.84615646 1.12742342-1.75114842 1.12742342-1.75114842L59.05950972 24.8290109zm-.2847953 18.40005389h7.45298825l-3.83770819-10.7234614-3.61528006 10.7234614zm29.57659433-18.40005389h18.06348308c6.6609662 0 13.31958683 2.36782008 13.31958683 10.04441257 0 7.67660249-4.85450727 10.38806337-9.02997571 12.30750218-4.82155619 2.21483578-11.17536433 3.95186753-11.17536433 3.95186753v5.86777136s.05648995.39659575.62020333 1.06975736c.56605893.67786606 1.18626226.84851201 1.18626226.84851201v2.70910533H88.23950829v-2.64908039s.78966984-.1718254 1.35691488-.73553877c.56253394-.56488616.6778594-1.24275554.6778594-1.24275554V30.47201188s.05182215-1.12977897-.39659576-1.579333c-.45073348-.45544793-1.52519529-1.07328904-1.52519529-1.07328904V24.8290109H88.351492zm11.28953033 5.5300211v15.69093857s10.61047817-4.40141157 10.61047817-10.61047817c0-7.67659583-10.61047817-5.0804604-10.61047817-5.0804604zm59.21204415.60254501-6.37852978 6.6856845s-.33893635.16946985-.62137943.16946985c-.28008753 0-.67551383-.28244308-.67551383-.28244308l-.79201873-.67904883s-.22477036-.0529183-.22477036-.2777353c0-.22712591.61902389-.79554373.61902389-1.86294887 0-1.07446181-.22242813-5.5335561-7.1105369-5.5335561-6.88809876 0-9.93496433 6.43267084-9.93496433 11.7402638 0 5.3028852 3.27399148 15.01425197 14.00098454 15.01425197 6.23848602 0 7.56126038-3.50112739 7.56126038-3.50112739h2.14658138v9.14412839H145.6992246c-13.9962801 0-21.78820804-10.94941453-21.78820804-18.85196682 0-12.11449014 10.53399434-18.84019571 20.09472235-18.84019571 9.25828106 0 14.84714433 7.07522359 14.84714433 7.07522359zm22.86149041 31.72670738c-12.19451896 0-20.9585238-8.9040486-20.9585238-19.73931046 0-10.84231851 8.99113741-19.23915035 20.9585238-19.23915035 11.9626886 0 20.95382269 8.39683184 20.95382269 19.23915035 0 10.83408241-8.76518095 19.73931046-20.95382269 19.73931046zm-10.84113907-19.5721995c0 10.83761408 5.53237332 13.5467294 10.84113907 13.5467294 5.30171575 0 10.9494212-3.38697471 10.9494212-13.5467294 0-10.15856525-6.32203984-13.5467194-10.9494212-13.5467194-4.62972692 0-10.84113907 2.7067531-10.84113907 13.5467194zm37.25319348-18.26353513h13.43610172l4.85450727 14.99071643 5.19108475-15.0142553h14.05277338v2.19952968s-.93442804.39542298-1.34984822.90382918c-.50840287.6213761-.50840287 1.07210959-.39660575 1.97828099.11298323.90028752 3.72473496 25.39878033 3.83888763 26.30259951.11415268.90382252.22478035 1.41104595.45073348 2.03242205.22360091.61549888 1.2992455 1.12624731 1.2992455 1.12624731v2.27720627h-13.49259167V59.2036292s1.18508948-.1682904 1.582868-.73552878c.39542298-.56488615.5625306-.90381918.45073348-1.80528614-.11298322-.90264974-3.3281292-21.44927502-3.3281292-21.44927502l-5.87130969 18.17527354h-7.11170633l-5.81599585-17.04902623-2.933889 20.0958918s-.11415268 1.20626947.33893302 1.86413165c.62019666.90381918 1.7523312.90381918 1.7523312.90381918v2.42548947h-11.68847831v-2.59260043s.93089304-.14357876 1.60757965-.93559749c.67668661-.78731428.79083929-1.80646891.79083929-1.80646891l4.26373003-26.500306s.25537588-.98973522-.02818667-1.43928926c-.29774251-.47545179-1.89237496-.8744031-1.89237496-.8744031v-2.62790373h-.00099952z"/>
  </g>
</svg>