<svg xmlns="http://www.w3.org/2000/svg" viewBox="0 0 24.5 9.938">
  <g fill="#ffffff">
    <path d="M44.759 122.657v1.398h.015v6.678c0 .455-.423.455-.423.455s-.413 0-.413-.455v-1.471h-1.407v1.482c0 1.852 1.81 1.852 1.81 1.852s1.81 0 1.83-1.863v-8.075zm3.772.001s-1.809 0-1.83 1.863v8.075h1.406v-2.223h.836v2.223h1.409c-.011-2.54 0-5.536-.01-8.086-.021-1.863-1.81-1.852-1.81-1.852zm-.01 1.397s.422 0 .422.466v4.297h-.836v-4.297c0-.465.414-.466.414-.466z" transform="translate(-42.53 -122.657)"/>
    <path d="M48.52 124.055s.424 0 .424.466v4.296h-.836v-4.296c0-.466.413-.466.413-.466zm.011-1.397s-1.81 0-1.83 1.863v8.075h1.407v-2.223h.836v2.223h1.408c-.01-2.54 0-5.535-.01-8.086-.022-1.863-1.81-1.852-1.81-1.852zm2.349 0v9.938h3.642v-1.408h-2.234v-8.53zm5.98 0s-1.81-.01-1.81 1.852v6.234c0 1.862 1.81 1.852 1.81 1.852h1.831v-1.408h-1.82s-.413 0-.413-.455v-.36h2.233v-1.556h-2.233v-4.296c0-.466.413-.455.413-.455l1.82-.011v-1.397zm4.191 0s-1.81 0-1.83 1.863v6.212c.02 1.863 1.83 1.863 1.83 1.863s1.82 0 1.81-1.852v-1.482h-1.407l.01 1.471c0 .455-.423.455-.423.455s-.413 0-.413-.455v-6.212c0-.466.413-.466.413-.466s.423 0 .423.466v1.735h1.397v-1.746c0-1.852-1.81-1.852-1.81-1.852zm4.159 1.397s.424 0 .424.455v6.223c0 .455-.423.455-.423.455s-.413 0-.413-.455v-6.223c0-.455.413-.455.413-.455zm.011-1.397s-1.81 0-1.83 1.863v6.212c.02 1.863 1.83 1.863 1.83 1.863s1.81 0 1.81-1.852v-6.234c0-1.852-1.81-1.852-1.81-1.852z" transform="translate(-42.53 -122.657)"/>
    <path d="M54.616 128.817h1.842v1.555h-1.842Zm-8.351.001h1.842v1.555h-1.842z" transform="translate(-42.53 -122.657)"/>
  </g>
</svg>