<svg xmlns="http://www.w3.org/2000/svg" viewBox="0 0 81.737175 17.754601">
  <defs>
    <path id="a" d="M93.205605 505.20139h680.80615v166.14912H93.205605z"/>
  </defs>
  <g fill="#fff" transform="translate(-28.11491 -136.41849) scale(.26458)">
    <path d="M198.03708 529.42146q-5.568 2.016-11.04 7.584-5.472 5.472-10.272 12.768-4.8 7.2-8.544 14.112-3.744 6.912-7.008 13.824.96-4.8 2.784-10.944 1.92-6.24 4.032-12.288 2.208-6.144 4.224-11.712 2.112-5.568 4.896-12.768 2.784-7.2 3.744-9.984 1.056-2.784 1.056-3.456 0-.096.096-.288.096-.288.096-.48t-.288-.192q-.384 0-1.536 1.248-1.056 1.152-2.4 2.88-1.344 1.728-2.592 3.36-1.152 1.536-2.016 2.88-7.008 9.6-13.152 17.088-6.048 7.488-11.904 13.632-5.76 6.048-11.712 11.232-5.952 5.088-12.768 9.888l3.936-4.128q7.584-8.064 12-12.96 4.416-4.992 7.776-9.888 3.456-4.896 5.28-9.792 1.824-4.896 1.824-9.984 0-7.488-4.512-11.424-4.416-4.032-11.712-4.032-5.184 0-10.848 2.88-5.664 2.784-10.56 7.584-4.8 4.8-7.776 10.656-2.88 5.76-2.88 11.424 0 4.704 2.4 7.296 2.4 2.592 6.528 2.592 4.512 0 7.968-1.92 3.552-2.016 5.952-5.28 2.496-3.36 3.648-7.392 1.248-4.128 1.248-8.352 0-3.744-.672-6.624-.576-2.88-1.92-4.512.288 1.152.384 2.208.096.96.096 2.976 0 2.784-1.536 7.584-1.44 4.8-3.936 9.6-2.496 4.704-5.664 7.872-3.072 3.168-6.144 3.168-3.648 0-5.664-2.592-2.016-2.592-2.016-6.048 0-5.184 2.784-10.848 2.784-5.76 7.488-10.56 4.704-4.896 10.176-7.776 5.568-2.976 10.752-2.976 2.112 0 3.648.864 1.536.768 2.496 2.016t1.344 2.4q.48 1.152.48 1.824 0 3.744-1.056 8.928-1.056 5.088-3.744 11.712t-7.584 14.592q-4.896 7.872-12.096 16.416l-1.152 1.44q-2.016 2.304-2.88 3.552-.768 1.152-.768 2.112 1.536 0 3.744-1.344t6.24-4.224q10.272-7.584 22.464-20.256 12.192-12.672 25.44-30.624-.384.576-2.88 4.8-6.432 10.656-9.408 15.84-2.976 5.088-4.704 8.832-1.728 3.648-2.4 6.624-.672 2.976-.672 6.72 0 2.112.384 4.512.48 2.4 1.152 4.512.768 2.112 1.728 3.456 1.056 1.248 2.208 1.248.768-1.632 2.784-5.856 2.112-4.224 4.608-9.12 2.592-4.896 5.376-9.792 2.784-4.896 4.704-7.488 6.048-8.16 10.56-12.96 4.608-4.8 9.888-7.872zm9.40796-.672q-2.112 0-3.84 1.824-1.728 1.728-1.728 4.128 0 1.92 1.248 3.072 1.248 1.152 2.88 1.152 2.016 0 3.552-1.728t1.536-4.32q0-2.112-1.056-3.072-1.056-1.056-2.592-1.056zm-17.664 28.608q-3.744 5.664-5.664 10.56-1.92 4.896-1.92 7.68 0 2.976 1.44 4.992 1.536 1.92 4.224 1.92 1.728 0 3.936-1.44 2.208-1.536 4.416-3.744 2.304-2.304 4.032-4.512 1.824-2.304 2.784-3.84v-1.728q-.864 1.536-2.688 3.84-1.824 2.304-4.032 4.608t-4.128 3.84q-1.92 1.44-3.264 1.44-1.056 0-1.056-.864 0-1.152 1.92-5.28 2.016-4.128 4.992-9.6 2.976-5.568 5.568-9.888 2.688-4.32 3.744-5.664-2.496.384-5.376.576-2.784.096-5.568.096-3.072 3.264-6.72 8.16-3.648 4.8-6.144 8.736v1.728q.576-.768 1.536-2.208 2.976-4.224 4.992-6.816 2.112-2.592 2.976-2.592z"/>
    <path d="M214.35699 554.76546q-.096.096-.192.384-1.152 2.112-2.592 4.704-1.344 2.496-2.592 5.28-1.152 2.784-2.016 5.664-.864 2.784-.864 4.992 0 3.072 1.344 4.896 1.344 1.824 4.8 1.824 5.28 0 14.688-13.536v-1.728q-4.512 6.432-8.64 10.368-4.128 3.84-5.952 3.84-.768 0-.768-1.344 0-1.728 3.456-8.928 3.456-7.296 8.64-16.992 5.28-9.792 10.656-19.488 5.472-9.696 9.504-16.512-1.536.288-4.608.576-3.072.192-4.8.192-.192.288-1.824 3.264-1.536 2.88-4.128 7.392-2.592 4.416-5.088 8.64-2.4 4.224-4.512 7.776-.96 1.248-3.36 4.32t-4.896 6.336q-2.4 3.168-4.416 5.952-1.92 2.688-3.168 4.608v1.728q1.152-1.824 2.784-4.128 1.632-2.4 3.264-4.608 1.728-2.208 3.072-3.648 1.44-1.536 2.208-1.824z"/>
    <path d="M238.26104 554.76546q-.096.096-.192.384-1.152 2.112-2.592 4.704-1.344 2.496-2.592 5.28-1.152 2.784-2.016 5.664-.864 2.784-.864 4.992 0 3.072 1.344 4.896 1.344 1.824 4.8 1.824 5.28 0 14.688-13.536v-1.728q-4.512 6.432-8.64 10.368-4.128 3.84-5.952 3.84-.768 0-.768-1.344 0-1.728 3.456-8.928 3.456-7.296 8.64-16.992 5.28-9.792 10.656-19.488 5.472-9.696 9.504-16.512-1.536.288-4.608.576-3.072.192-4.8.192-.192.288-1.824 3.264-1.536 2.88-4.128 7.392-2.592 4.416-5.088 8.64-2.4 4.224-4.512 7.776-.96 1.248-3.36 4.32t-4.896 6.336q-2.4 3.168-4.416 5.952-1.92 2.688-3.168 4.608v1.728q1.152-1.824 2.784-4.128 1.632-2.4 3.264-4.608 1.728-2.208 3.072-3.648 1.44-1.536 2.208-1.824z"/>
    <path d="M278.0051 528.74946q-2.112 0-3.84 1.824-1.728 1.728-1.728 4.128 0 1.92 1.248 3.072 1.248 1.152 2.88 1.152 2.016 0 3.552-1.728t1.536-4.32q0-2.112-1.056-3.072-1.056-1.056-2.592-1.056zm-17.664 28.608q-3.744 5.664-5.664 10.56-1.92 4.896-1.92 7.68 0 2.976 1.44 4.992 1.536 1.92 4.224 1.92 1.728 0 3.936-1.44 2.208-1.536 4.416-3.744 2.304-2.304 4.032-4.512 1.824-2.304 2.784-3.84v-1.728q-.864 1.536-2.688 3.84-1.824 2.304-4.032 4.608t-4.128 3.84q-1.92 1.44-3.264 1.44-1.056 0-1.056-.864 0-1.152 1.92-5.28 2.016-4.128 4.992-9.6 2.976-5.568 5.568-9.888 2.688-4.32 3.744-5.664-2.496.384-5.376.576-2.784.096-5.568.096-3.072 3.264-6.72 8.16-3.648 4.8-6.144 8.736v1.728q.576-.768 1.536-2.208 2.976-4.224 4.992-6.816 2.112-2.592 2.976-2.592z"/>
    <path d="M283.38105 581.35746q-.96 0-1.824-.48-.864-.576-.864-1.632 0-2.208 2.016-6.912 2.112-4.704 5.184-9.696 3.168-5.088 6.24-8.448 3.072-3.456 4.992-3.456 1.632 0 2.496 1.44.96 1.344.96 2.976 0 2.112-2.112 6.528-2.112 4.32-5.28 8.928-3.072 4.608-6.336 7.68-3.264 3.072-5.472 3.072zm20.64-25.824q-.576-6.432-6.816-6.432-3.36 0-6.72 1.728-3.264 1.632-6.336 4.32-2.976 2.688-5.568 5.76-2.496 2.976-4.992 6.336v1.728q1.44-1.92 2.496-2.4-.768 3.072-.768 7.584 0 3.552 2.016 5.952 2.112 2.4 5.856 2.4 1.728 0 3.456-.96t3.36-2.496q1.728-1.632 3.072-3.36 1.44-1.728 2.976-3.84-.48 1.824-.48 3.936 0 3.168 1.536 4.992 1.536 1.728 3.648 1.728 3.648 0 6.816-3.072 3.168-3.168 8.448-10.464v-1.728q-4.512 6.72-8.256 10.464-3.744 3.648-6.144 3.648-.672 0-.672-1.44 0-1.152 1.44-4.512 1.536-3.36 3.84-7.776 2.4-4.416 5.088-9.12 2.784-4.8 5.088-8.736-1.728.096-4.416.288-2.592.096-5.088.288-1.536 2.688-2.88 5.184z"/>
    <path d="M355.477 570.31746q1.824-3.744 2.784-7.968 1.056-4.224 1.056-6.72 0-.768-.192-1.824t-.672-2.016q-1.152-2.496-3.552-2.496-2.496 0-5.184 1.824-2.592 1.728-5.184 4.608t-4.8 5.856q-2.112 2.976-4.8 7.008-1.344 2.016-1.632 2.4 3.264-5.184 4.416-9.408 1.152-4.224 1.152-6.912 0-2.496-1.248-3.936t-3.264-1.44q-1.92 0-4.512 1.92-2.496 1.824-5.28 4.8-2.688 2.976-4.992 6.048-2.208 2.976-3.552 5.184v1.728q1.536-2.4 3.648-5.376 2.208-2.976 4.512-5.664 2.4-2.784 4.416-4.512 2.112-1.728 3.264-1.728.96 0 1.152.48.288.384.288 1.152 0 1.344-1.92 5.28-1.824 3.936-4.512 8.832-2.592 4.8-5.28 9.216-2.592 4.416-3.744 6.048l1.92-.192q4.032-.576 5.952-.768 2.016-.192 2.976-.192 2.4-4.704 5.76-9.888 3.456-5.28 7.008-9.792 3.648-4.608 6.528-7.392 2.88-2.784 4.032-2.784 1.728 0 1.728 1.44 0 1.152-1.536 4.896-1.536 3.744-3.648 8.256-2.112 4.512-4.416 9.12-2.304 4.512-3.744 7.296 1.92-.288 5.472-.576 3.552-.384 4.992-.384 2.496-5.568 5.952-11.04 3.456-5.568 7.008-10.08 3.552-4.512 6.432-7.2 2.976-2.688 4.512-2.688.96 0 .96.96 0 1.248-.864 2.784-.768 1.44-2.592 4.224-3.072 4.512-4.8 8.256-1.728 3.744-1.728 8.256 0 4.32 1.632 5.856 1.632 1.44 4.032 1.44 1.44 0 3.36-1.152 1.92-1.248 3.936-3.168 2.112-2.016 4.032-4.416 2.016-2.4 3.648-4.8v-1.728q-1.728 2.592-3.84 5.088-2.016 2.496-4.128 4.608-2.016 2.112-3.84 3.36-1.824 1.248-2.976 1.248-.768 0-1.056-.384-.192-.384-.192-1.056 0-.864.672-2.208.768-1.344 2.4-4.032 3.168-4.992 4.992-8.928 1.824-3.936 1.824-7.776 0-3.552-1.344-5.664-1.344-2.112-3.456-2.112-1.824 0-4.32 1.728-2.496 1.728-5.28 4.8-2.688 2.976-5.376 6.72-2.688 3.744-4.992 7.68z"/>
    <path d="M402.32498 548.33346q0 1.632.576 5.376.384 2.88.384 3.744 0 2.496-.864 6.432-.768 3.84-2.304 7.776-1.44 3.84-3.456 6.432-1.92 2.496-4.128 2.496-1.056 0-2.016-.864t-.96-1.824q0-.768.672-1.248.768-.576 1.632-.768 1.056-.288 1.632-.96.576-.768.576-2.304 0-1.824-1.056-2.688-.96-.864-2.4-.864-2.016 0-2.976 1.344t-.96 3.456q0 4.032 2.88 6.336 2.88 2.304 6.72 2.304 5.664 0 9.984-3.456 4.32-3.552 8.928-10.08v-1.728q-1.728 2.4-3.36 4.512-1.632 2.112-2.592 2.976.48-.96.672-3.072.192-2.208.192-3.84 0-3.456-.96-6.144t-2.688-6.144q-1.344-2.592-2.016-4.224-.576-1.632-.576-3.264 0-1.248.48-2.592.48-1.44 1.728-2.4.096-.096.192-.096.96-.768.96-1.248 0-.576-1.056-.576-1.152 0-2.208 1.728-.96 1.632-1.248 3.072l-3.456 4.32q-2.112 2.688-3.84 4.896-1.632 2.112-3.552 4.608-1.824 2.4-3.264 4.32-1.44 1.92-2.208 3.168v1.728q1.344-1.92 4.512-6.048 3.264-4.224 7.008-8.928 3.552-4.512 4.416-5.664z"/>
  </g>
</svg>