<svg xmlns="http://www.w3.org/2000/svg" viewBox="0 0 277.51 116.201">
   <path fill="#ffffff" d="M227.171 116.201h-31.697c-1.125 0-2.21-.042-3.294-.208a18.467 18.467 0 0 1-2.878-.584 6.514 6.514 0 0 1-2.752-1.418c-.5-.46-.75-.96-.75-1.46v-5.505a2.89 2.89 0 0 1 1-1.46c.542-.417 1.293-.792 2.169-1.043a19.74 19.74 0 0 1 3.044-.583 34.28 34.28 0 0 1 3.712-.209h31.446v1.668h-31.446c-1.334 0-2.502.042-3.545.167a21.302 21.302 0 0 0-2.92.583c-1.25.376-1.5.835-1.75 1.46l-.043 1.293h39.663l.041 1.71H187.51v1.794c0 .459.334.917 2.001 1.376.835.21 1.753.375 2.795.501 1.042.166 2.086.208 3.128.208h31.738zm-65.478 0h-.083zm19.102-10.718h-19.977V116.2h-1.752v-10.718H139.13v-1.752h41.665zm-99.636 5.547H69.607v5.171h-1.752v-5.171h-14.93c-2.253 0-5.046-.293-5.046-3.63v-3.67h1.834v3.504c0 2.21 2.127 2.002 3.503 2.002h31.405c1.418 0 3.545.209 3.545-2.002v-3.503h1.751v3.67c0 3.336-2.794 3.629-5.046 3.629zm-37.785-5.506H10.009c-1.668 0-3.17.293-4.254.751-.834.334-1.334.71-1.334 1.043 0 .334.5.708 1.334 1.042 1.085.418 2.586.71 4.254.71h26.025c1.25 0 2.46.124 3.461.374.542.125 1.001.292 1.46.46.459.208.876.417 1.21.625.792.584 1.25 1.293 1.25 2.085v.042c0 1.126-.959 2.085-2.46 2.71-1.293.501-3.044.835-4.921.835H3.128v-1.794h32.906c1.668 0 3.17-.292 4.254-.708.792-.376 1.334-.751 1.334-1.043v-.042c0-.166-.208-.375-.5-.584-.25-.167-.542-.291-.834-.459-.376-.124-.751-.25-1.21-.375a13.338 13.338 0 0 0-3.044-.333H10.009c-1.877 0-3.628-.292-4.921-.835-1.501-.625-2.46-1.584-2.46-2.71 0-1.168.959-2.127 2.46-2.753 1.293-.5 3.044-.834 4.921-.834h33.365zm91.544 0h-33.323c-1.668 0-3.17.293-4.254.751-.834.334-1.334.71-1.334 1.043 0 .334.5.708 1.334 1.042 1.085.418 2.586.71 4.254.71h26.024c1.252 0 2.462.124 3.42.374.542.125 1.002.292 1.46.46.46.208.876.417 1.21.625h-.042c.834.584 1.293 1.293 1.293 2.085v.042c0 1.126-.96 2.085-2.461 2.71-1.292.501-3.002.835-4.88.835H94.714v-1.794h32.905c1.67 0 3.129-.292 4.171-.708.834-.376 1.377-.751 1.377-1.043v-.042c0-.166-.209-.375-.5-.584-.25-.167-.543-.291-.835-.459-.375-.124-.75-.25-1.168-.375a13.341 13.341 0 0 0-3.045-.333h-26.024c-1.876 0-3.628-.292-4.92-.835-1.502-.625-2.461-1.584-2.461-2.71 0-1.168.917-2.127 2.46-2.753 1.293-.5 3.045-.834 4.921-.834h33.323zm139.047-1.793c.46 0 .918.333.918.876V116.2h-1.71v-10.05l-18.935 9.55-.25.084c-1.043.417-1.334.334-2.086 0l-.25-.125-18.767-9.55V116.2h-1.794v-11.636c0-.542.459-.834.876-.834a.96.96 0 0 1 .585.167l19.517 10.051c.75.334.876.5 1.794.042l17.266-8.8 2.46-1.335a.787.787 0 0 1 .376-.125m-86.039-56.386v14.889h-1.168c-1.376-4.087-3.461-7.174-6.255-9.258-2.753-2.128-4.421-3.212-7.716-3.212-3.128 0-5.755.917-7.84 2.669-2.128 1.794-3.587 4.254-4.463 7.423-.876 3.17-1.293 6.423-1.293 9.76 0 4.045.46 7.59 1.418 10.635.96 3.086 2.502 4.712 4.63 6.13 2.126 1.418 3.836 2.127 6.756 2.127 1.042 0 2.085-.083 3.127-.291 1.085-.25 1.919-.543 3.044-.96v-10.76c0-1.668-.124-2.753-.333-3.253-.25-.459-.709-.917-1.418-1.293-.71-.417-1.585-.625-2.627-.625h-1.085V70.2h20.52v1.126c-1.543.125-2.628.334-3.254.667-.625.292-1.084.834-1.417 1.585-.167.417-.251 1.376-.292 2.919l-.084 10.426c-2.67 1.168-5.13 2.17-8.049 2.795-2.92.584-5.964 1.084-9.092 1.084-4.003 0-6.548-.292-9.175-1.376-2.669-1.084-4.963-2.085-7.007-3.838-2.002-1.792-3.586-3.794-4.754-6.005-1.418-2.877-2.169-6.047-2.169-9.634 0-6.339 2.253-11.677 6.715-16.056 4.42-4.38 10.051-6.548 16.807-6.548 3.087 0 5.84.792 8.717 1.877 2.044.792 3.253 1.167 3.628 1.167.584 0 1.085-.208 1.585-.625.5-.417.96-1.21 1.376-2.42zm-75.654 2.71h-.084V47.72c6.882-.166 12.554 1.793 16.891 5.798 4.421 4.128 6.631 9.258 6.631 15.43 0 5.297-1.667 9.926-4.962 13.972-4.38 5.297-10.552 7.965-18.56 7.965v-3.21c2.21 0 4.13-.585 5.59-1.585 1.876-1.251 3.085-3.295 4.128-6.09 1.043-2.752 1.752-6.297 1.752-10.76 0-5.338-.543-9.3-1.627-11.928-1.042-2.669-2.419-4.504-4.045-5.63-1.669-1.084-3.587-1.627-5.714-1.627m-.084 0c-3.962.042-6.923 1.92-8.966 5.673-1.71 3.044-2.544 7.506-2.544 13.262 0 6.881 1.21 12.053 3.795 15.306 1.835 2.294 4.462 3.378 7.715 3.378v3.211h-.041c-8.008 0-14.222-2.543-18.6-7.631-3.463-4.005-5.214-8.759-5.214-14.264 0-6.172 2.252-11.344 6.756-15.43 4.504-4.13 10.051-6.09 16.64-5.84h.46zm-46.043.71v16.64h.918c2.877 0 4.003-.834 5.296-2.544 1.293-1.668 2.127-4.13 2.461-7.423h1.293v22.104H74.82c-.25-2.42-.834-4.38-1.668-5.922-.876-1.544-1.877-2.586-3.003-3.087-1.126-.542-1.835-.792-4.004-.792v12.386c0 2.336.125 3.754.334 4.254.208.543.584.96 1.168 1.293.583.334 1.5.5 2.836.5h2.71c4.213 0 5.422-.917 7.966-2.752 2.544-1.793 4.296-3.878 5.422-7.632h1.251l-1.96 12.72H48.796v-1.167h1.543c1.293 0 2.377-.209 3.17-.626.583-.292 1.042-.792 1.334-1.501.25-.5.375-1.794.375-3.92V55.518c0-1.876-.041-3.045-.166-3.503-.209-.71-.626-1.293-1.252-1.669-.834-.584-2.001-.875-3.461-.875h-1.543v-1.168H86.83v12.47h-1.25c-.668-3.045-1.544-5.214-2.753-6.547-1.168-1.335-2.795-2.294-4.963-2.92-1.252-.375-3.587-.542-7.049-.542zm-49.296-2.46 23.397 26.19V56.353c0-2.544-.375-4.254-1.21-5.13-1.125-1.209-2.46-1.793-5.13-1.751v-1.168h14.139v1.168c-2.002.209-2.336.542-3.003.875-.709.376-1.251.96-1.626 1.794-.376.792-.584 2.21-.584 4.212v35.116h-1.168L9.55 56.353V83.17c0 2.418.625 4.046 1.876 4.92 1.252.836 2.67 1.253 4.296 1.253h1.126v1.167H0v-1.167c2.627 0 4.42-.5 5.463-1.418 1.001-.918 1.544-2.503 1.544-4.755V53.392l-1.043-1.126c-1.001-1.126-1.877-1.835-2.628-2.21-.792-.334-.083-.542-1.5-.584v-1.168zm237.181 1.75h-.083V47.72c6.881-.166 12.553 1.793 16.89 5.798 4.462 4.128 6.673 9.258 6.673 15.43 0 5.297-1.668 9.926-4.963 13.972-4.421 5.297-10.594 7.965-18.6 7.965v-3.21c2.21 0 4.129-.585 5.588-1.585 1.877-1.251 3.086-3.295 4.128-6.09 1.043-2.752 1.753-6.297 1.753-10.76 0-5.338-.543-9.3-1.627-11.928-1.043-2.669-2.42-4.504-4.045-5.63-1.668-1.084-3.588-1.627-5.714-1.627m-.083 0c-3.963.042-6.924 1.92-8.967 5.673-1.71 3.044-2.544 7.506-2.544 13.262 0 6.881 1.21 12.053 3.795 15.306 1.835 2.294 4.462 3.378 7.716 3.378v3.211h-.043c-8.007 0-14.221-2.543-18.6-7.631-3.462-4.005-5.214-8.759-5.214-14.264 0-6.172 2.252-11.344 6.757-15.43 4.504-4.13 10.05-6.09 16.64-5.84h.46z"/>
   <path fill="#ffffff" d="M207.903 50.765v16.64h.918c2.878 0 4.004-.834 5.297-2.544 1.292-1.668 2.126-4.13 2.46-7.423h1.293v22.104h-1.293c-.25-2.42-.834-4.38-1.668-5.922-.876-1.544-1.877-2.586-3.003-3.087-1.126-.542-1.835-.792-4.004-.792v12.386c0 2.336.125 3.754.334 4.254.209.543.584.96 1.168 1.293.584.334 1.501.5 2.836.5h2.71c4.213 0 5.422-.917 7.966-2.752 2.545-1.793 4.296-3.878 5.422-7.632h1.251l-1.96 12.72h-37.076v-1.167h1.543c1.292 0 2.377-.209 3.17-.626.583-.292 1.042-.792 1.334-1.501.25-.5.375-1.794.375-3.92V55.518c0-1.876-.041-3.045-.166-3.503-.209-.71-.626-1.293-1.251-1.669-.835-.584-2.002-.875-3.462-.875h-1.543v-1.168h38.036v12.47h-1.252c-.668-3.045-1.543-5.214-2.752-6.547-1.168-1.335-2.795-2.294-4.963-2.92-1.252-.375-3.587-.542-7.048-.542zm-66.354 14.263h.251c2.377 0 4.296 1.876 4.296 4.13 0 2.251-1.92 4.086-4.296 4.086h-.25c-2.378 0-4.296-1.835-4.296-4.087 0-2.253 1.918-4.129 4.295-4.129"/>
   <path fill="#ffffff" d="M43.07 13.277c0 7.337 5.176 13.276 11.584 13.276h32.163c.74 0 1.479.7 1.479 1.63 0 .933-.617 1.631-1.48 1.631H42.948v11.763h49.046c6.407 0 11.583-6.056 11.583-13.393 0-7.337-5.176-13.393-11.583-13.393h-32.04c-.74 0-1.479-.699-1.479-1.63 0-.932.616-1.631 1.479-1.631h43.5V0H54.656c-6.408 0-11.583 5.94-11.583 13.277ZM107.029 0v41.345h15.404V15.373l29.329 25.972h16.02V0h-15.404v25.855L123.047 0Zm79.73 18.168V0h-15.65v41.345h15.65V23.06l24.893 18.285h20.087L203.395 20.73 231.738 0H211.65z" class="st0"/>
</svg>