<svg xmlns="http://www.w3.org/2000/svg" xml:space="preserve" viewBox="0 0 400.00001 85.000001">
  <path fill="#ffffff" d="M17.857 27.143c0 15 10 27.143 22.381 27.143h62.143c1.4286 0 2.8571 1.4286 2.8571 3.3333 0 1.9048-1.1905 3.3333-2.8571 3.3333H17.619v24.048h94.762c12.381 0 22.381-12.381 22.381-27.381s-10-27.381-22.381-27.381H50.476c-1.4286 0-2.8571-1.4286-2.8571-3.3333 0-1.9048 1.1905-3.3333 2.8571-3.3333h84.048V0H40.242C27.861 0 17.861 12.143 17.861 27.143zM141.43139 0v84.5255h29.7625V31.4292l56.6678 53.0963h30.953V0h-29.7625v52.8582L172.38439 0zm154.0507 37.1436V0h-30.2387v84.5255h30.2387V47.1438l48.0962 37.3817h38.8103l-54.763-42.1437L382.38859 0h-38.8103z" class="st0"/>
</svg>