<svg xmlns="http://www.w3.org/2000/svg" xml:space="preserve" viewBox="0 0 300 80">
  <path fill="#ffffff" d="M281.393 5.698H295.5v70.148h-14.107zM30.176 48.119l9.507-26.055 9.695 26.055H30.176M49.58 11.914l-.005-.02c-1.483-3.916-5.267-6.704-9.714-6.704-4.443 0-8.241 2.788-9.709 6.723l-.01.005L5 75.847h15.085l5.784-15.869h28.016l6.071 15.869h15.488L49.58 11.914m75.629-1.771v7.411h-21.916v58.293H89.184V17.554H67.268v-7.411c0-2.456 1.989-4.444 4.453-4.444h49.036c2.463-.001 4.452 1.988 4.452 4.444m124.203 40.858c-.422-.542-.679-1.194-.679-1.918 0-.655.223-1.247.565-1.757.538-.635 1.501-.996 2.142-1.301 7.555-3.443 12.922-10.681 12.922-19.062 0-11.241-9.44-20.451-21.146-21.162-1.458-.144-4.75-.129-4.75-.129H221.95h.009c-5.728 0-10.388 4.649-10.388 10.378l.021.017v59.75h14.106V20.332h-.009c0-1.74 1.413-3.158 3.151-3.158h9.515c.864 0 3.448.05 3.961.122v.006c4.207.345 7.627 3.341 8.618 7.304.054.163.092.323.122.487v.036c.054.242.081.473.111.709.051.368.059.743.059 1.125 0 3.65-2.011 6.843-4.991 8.499-.603.358-1.229.671-1.888.939-.468.212-1.011.408-1.578.599-3.807 1.342-5.438 2.136-7.026 3.663-1.781 1.863-2.908 4.38-2.938 7.163-.028 2.614.882 5.004 2.431 6.854l17.92 21.146h16.78l-20.524-24.825M147.056 75.598s5.76-8.034 7.051-28.767c.741-11.902.618-41.578.618-41.578h6.427s.019 29.333.841 41.438c1.418 20.822 7.619 28.906 7.619 28.906h-22.556m-6.133-35.825c5.02-10.804 5.096-26.591 5.096-34.519h5.405c-.021 2.244.402 24.521-3.099 37.576-4.115 15.349-15.061 31.149-31.232 32.776l-.005-17.486c4.216-.041 18.343-6.526 23.835-18.347m57.786 18.347-.006 17.486c-16.172-1.627-27.116-17.428-31.231-32.776-3.502-13.055-3.081-35.332-3.102-37.576h5.41c0 7.928.074 23.715 5.098 34.519 5.488 11.821 19.613 18.306 23.831 18.347"/>
</svg>