<svg xmlns="http://www.w3.org/2000/svg" viewBox="-107.768 -50.797 933.99 304.785">
  <g font-family="Folio" font-size="356.629" font-stretch="condensed" font-weight="700" letter-spacing="0" style="line-height:125%" word-spacing="0">
    <path stroke="#ffffff" fill="transparent" d="M241.616 199.357h39.981V39.433h29.575v-35.6h-99.13v35.6h29.574z" style="-inkscape-font-specification:'Folio Bold Condensed'"/>
    <path fill="#ffffff" d="M429.27 199.357v-35.6h-42.172V3.834h-39.981v195.523zM571.258 3.834h-39.98V151.16c0 13.692-3.287 16.43-11.502 16.43s-11.501-2.738-11.501-16.43V3.834h-39.981v153.351c0 36.695 16.43 46.005 51.482 46.005s51.482-9.31 51.482-46.005zM717.359 62.71V47.375C717.359 12.597 700.928 0 666.972 0c-38.338 0-51.483 14.787-51.483 49.84 0 65.173 62.71 61.066 62.984 101.594 0 11.502-3.286 16.157-11.501 16.157-7.942 0-11.502-4.93-11.502-16.157v-13.692h-39.98v18.348c0 36.147 14.787 47.1 51.208 47.1 39.16 0 51.756-12.596 51.756-53.399 0-63.805-62.984-63.805-62.984-98.035 0-11.501 3.286-16.157 11.502-16.157 7.941 0 11.501 4.93 11.501 16.157V62.71z" style="-inkscape-font-specification:'Folio Bold Condensed'"/>
  </g>
  <path fill="#ffffff" fill-rule="evenodd" stroke="#125fad" stroke-width="1.455" d="M1.342 198.11H47.64l86.353-133.02v133.02h39.317V4.46h-45.93z"/>
</svg>