<svg xmlns="http://www.w3.org/2000/svg" viewBox="0 0 211.77157 62.520435">
  <defs>
    <linearGradient id="b" x1="0" x2="1" y1="0" y2="0" gradientTransform="rotate(-90 -64.778055 -285.111565) scale(177.22168)" gradientUnits="userSpaceOnUse" spreadMethod="pad">
      <stop offset="0" stop-color="#fff"/>
      <stop offset=".5" stop-color="#fff"/>
      <stop offset="1" stop-color="#fff"/>
    </linearGradient>
    <linearGradient id="d" x1="0" x2="1" y1="0" y2="0" gradientTransform="matrix(-.14835 106.23462 -106.23462 -.14835 270.9917 -507.11768)" gradientUnits="userSpaceOnUse" spreadMethod="pad">
      <stop offset="0" stop-color="#fff"/>
      <stop offset=".51123" stop-color="#fff"/>
      <stop offset="1" stop-color="#fff"/>
    </linearGradient>
    <linearGradient id="f" x1="0" x2="1" y1="0" y2="0" gradientTransform="rotate(-90 -46.358395 -352.191405) scale(91.23962)" gradientUnits="userSpaceOnUse" spreadMethod="pad">
      <stop offset="0" stop-color="#fff"/>
      <stop offset=".5" stop-color="#fff"/>
      <stop offset="1" stop-color="#fff"/>
    </linearGradient>
    <linearGradient id="h" x1="0" x2="1" y1="0" y2="0" gradientTransform="rotate(90 421.632815 -85.216795) scale(104.76566)" gradientUnits="userSpaceOnUse" spreadMethod="pad">
      <stop offset="0" stop-color="#fff"/>
      <stop offset=".51123" stop-color="#fff"/>
      <stop offset="1" stop-color="#fff"/>
    </linearGradient>
    <linearGradient id="j" x1="0" x2="1" y1="0" y2="0" gradientTransform="rotate(-90 -19.183595 -392.850585) scale(77.85007)" gradientUnits="userSpaceOnUse" spreadMethod="pad">
      <stop offset="0" stop-color="#fff"/>
      <stop offset=".5" stop-color="#fff"/>
      <stop offset="1" stop-color="#fff"/>
    </linearGradient>
    <clipPath id="a" clipPathUnits="userSpaceOnUse">
      <path d="M187.66699-350.22363 230.5-527.11182l22.50049 90.55518-21.3335 86.66699z"/>
    </clipPath>
    <clipPath id="c" clipPathUnits="userSpaceOnUse">
      <path d="M230.5-527.11182H274l37.33398 146.89014H267.3335Z"/>
    </clipPath>
    <clipPath id="e" clipPathUnits="userSpaceOnUse">
      <path d="m300.33203-509.66699 22.00195 85.4458-11 43.99951-22.00146-86.99951z"/>
    </clipPath>
    <clipPath id="g" clipPathUnits="userSpaceOnUse">
      <path d="m300.33203-509.66699 28.73535 111.66601H372.5l-29.23047-111.66601z"/>
    </clipPath>
    <clipPath id="i" clipPathUnits="userSpaceOnUse">
      <path d="m397-492.22314-24.5 94.22216-22.16602-84.55517 3.33301-9.66699z"/>
    </clipPath>
  </defs>
  <g clip-path="url(#a)" transform="translate(-66.20516 185.95451) scale(.35278)">
    <path fill="url(#b)" d="M187.66699-350.22363 230.5-527.11182l22.50049 90.55518-21.3335 86.66699z"/>
  </g>
  <g clip-path="url(#c)" transform="translate(-66.20516 185.95451) scale(.35278)">
    <path fill="url(#d)" d="M230.5-527.11182H274l37.33398 146.89014H267.3335Z"/>
  </g>
  <g clip-path="url(#e)" transform="translate(-66.20516 185.95451) scale(.35278)">
    <path fill="url(#f)" d="m300.33203-509.66699 22.00195 85.4458-11 43.99951-22.00146-86.99951z"/>
  </g>
  <g clip-path="url(#g)" transform="translate(-66.20516 185.95451) scale(.35278)">
    <path fill="url(#h)" d="m300.33203-509.66699 28.73535 111.66601H372.5l-29.23047-111.66601z"/>
  </g>
  <g clip-path="url(#i)" transform="translate(-66.20516 185.95451) scale(.35278)">
    <path fill="url(#j)" d="m397-492.22314-24.5 94.22216-22.16602-84.55517 3.33301-9.66699z"/>
  </g>
  <path fill="#fff" d="M95.82832996 39.67209415c-.464139-1.09767785-.52731374-1.67259038 1.87259924-15.27155806-4.03917097.05471673-4.40629566 0-4.40629566 0l.80114507-3.57758673h11.74999083l-.66755807 3.57758673h-3.6051506s.00317935.02576993-2.67041508 15.94432908c-2.3398665-.01345494-2.69662426.22018253-3.07431573-.67277102zm14.82430655-15.4910884-2.13625555 12.96482167h2.13625555l2.13644857-12.96482167zm6.0723476-2.5288456c.39880913.9908083.20028627 1.53867828-2.73418255 18.69270502-9.08269943.09592247-8.8824143-.01345494-9.3498814-.89294794-.5292679-.9959548-.20028627-1.6526341 2.67374319-18.62896787 9.22978617.00205562 9.01287646-.15837579 9.41032076.8292108zm-.19715803 18.69270502c-.23079776-.31417272.30062528-1.3513314 3.20457805-19.5219158 14.73765576-.08046799 13.93651068-.32319127 14.43722579.91290235.28634888.70689422.2472293 1.1247204-2.55364796 18.60901345-4.80686707-.06759236-4.1058657 0-4.1058657 0l2.40343298-16.8231101h-1.36855491l-2.67061153 16.8231101h-4.1391171l2.80400664-16.8231101h-1.33530804l-2.80400664 16.8231101zm17.14108873-.72685051c-.15021499-.90646828 0-.74615834 2.88772108-18.7950653 4.1723651-.16287945 4.00533025 0 4.00533025 0s-.13652223 1.15883613-3.33797203 19.5219158c-2.85407792-.06759235-3.41346899.12941032-3.5550793-.7268505zm5.8251217.7268505.63410681-3.67287381h6.35908482s.08332155-.73457589.88446777-5.6789541c-5.74140727-.02769474-5.8947505.44100603-6.34226494-.7693382-.20341452-.55108609.06376859-.99466912 1.40200275-9.40074969 8.94285593.0553708 10.5482732 0 10.5482732 0l-.53396651 3.137872-6.0085847.08241147s-.07002508-.19314185-.80114394 3.65355664c6.00858356-.02769474 5.75627184.05148381 6.05865598.54916315.45064382.74165655.30042883 1.15368775-1.51896633 12.09891629-11.28291546.0972119-10.68166491 0-10.68166491 0zm15.65556684-19.5219158c-3.30472175 18.48733413-3.22413784 18.25942622-2.85407793 19.04228477.35050126.74165654.90128765.4281304 14.97138988.49573024 2.8040055-17.8673569 3.13768575-19.538015 3.13768575-19.538015h-4.1391171l-2.8708978 17.09221625h-1.46889391l2.8708978-17.09221626h-4.00572313l-2.87050492 16.98212874h-1.46889846l2.87090121-16.98212874zm26.9384857 0c1.53578961 18.29612643 1.58586203 18.49312349 1.93636215 19.06996643.30042997.49443894.31685697.46675541 8.02787325.46675541 2.85407793-18.54141175.15021499-.99337781 2.98747418-19.53672184h-4.13911938l-2.45350539 16.79028006h-.88446323l-1.20171762-16.79028006s-1.01825463-.08046798-4.27290396 0zm25.23605298 0s-.45063815.00205562-10.1476984 0c-2.9209668 18.7905635-2.9209668 18.6978534-2.67061606 19.20709837.2503621.50924311.60086221.32962347 10.14770974.31481744.21710387-2.29256947.26717856-3.44625722.26717856-3.44625722h-6.15880081l.81796609-5.68603289 5.39089806-.08241147.48389637-3.4333816h-5.34083473l.60086222-3.73596624h6.20886415zm-31.64520907 3.19967686-1.18685191 7.39596445h2.76919167l-.36067062-7.39596445zm6.27537264 16.33833815h-4.1391171l-.36732113-4.86326364h-3.23822234l-.86725048 4.86326364h-4.07300716s.00038834-.58328449 3.27147034-19.538015c6.6931534-.08112205 6.94351208-.07596432 7.2940122.91290235.30042884.74165654.3528483 1.84512936 2.11943567 18.62511265zM87.28585343 24.02262622l-1.18685157 7.39596445h2.76919224l-.3606713-7.39596445Zm6.2753739 16.33833815h-4.1391179l-.3673208-4.86326364h-3.23822222l-.86725502 4.86326364H80.8763045s.00039256-.58328449 3.2714738-19.538015c6.6931542-.08112205 6.94351186-.07596432 7.29401255.91290235.30042963.74165654.35284795 1.84512936 2.11943646 18.62511265z"/>
</svg>