<svg xmlns="http://www.w3.org/2000/svg" version="1.0" viewBox="0 0 210.41565 110.67734">
  <path fill="#fff" d="M277.89989 479.56175v1.5281c-.00008 2.4205-.79621 4.74571-2.3884 6.97564-1.33765 1.91112-3.24876 3.63073-5.73332 5.15883-1.91117 1.21121-3.91803 2.15121-6.02057 2.82-2.10267.66879-3.91802 1.00319-5.44607 1.00318-2.73937.00001-4.84198-.35043-6.30782-1.0513-1.46595-.70087-2.46962-1.57671-3.01102-2.62753-.54149-1.05081-.81222-2.11767-.81217-3.20057-.00005-1.40173.49377-2.628 1.48145-3.67883.98758-1.05081 2.15019-1.48095 3.48782-1.29044 1.147.12639 2.02333.58812 2.62899 1.38521.60555.79712.97153 1.80031 1.09796 3.00956-.00006 1.40175-.22266 2.45354-.66782 3.15537 3.88631-.70183 7.16708-2.26299 9.8423-4.68348 2.67509-2.42046 4.01267-5.25504 4.01274-8.50374v-.5745c-.00007-1.91109-.7962-3.91746-2.3884-6.01912-1.7848-2.29407-3.56856-4.61928-5.35129-6.97563-.00006-2.29407 2.45249-4.49194 7.35766-6.59362 7.51799-3.25058 12.07315-5.44845 13.66549-6.59361 4.90503-3.44111 7.35758-7.93308 7.35767-13.47593-.00009-7.77073-5.38346-11.65612-16.15012-11.6562-5.09571.00008-10.1442.98722-15.14548 2.96144-5.0014 1.97436-10.14612 5.09619-15.43418 9.3655-4.26747 3.43927-8.37595 7.45249-12.32548 12.03968-3.94958 4.58728-7.35769 9.30138-10.22432 14.14229-2.86668 4.84098-4.87354 9.30088-6.02058 13.3797-.70185 2.67517-1.05277 5.06357-1.05276 7.16519-.00001 2.48464.25467 4.65043.76406 6.49738 1.27535 4.14105 3.9194 6.21158 7.93216 6.21158 1.91109 0 3.71089-.52541 5.39941-1.57623 1.68848-1.05081 3.32886-2.59593 4.92115-4.63535 2.61292-3.43921 5.16171-7.99339 7.64638-13.66257l5.92287-13.66549 1.72058-3.5374c3.3128-6.17849 5.70217-10.38272 7.16811-12.61272 3.56748-5.41442 6.81616-8.94987 9.74607-10.60635 1.5922-.89231 3.2005-1.62526 4.82491-2.19885 1.62428-.57346 3.04205-.86022 4.25333-.86029 1.14698.00007 1.75259.31891 1.81682.95653.06214.50943-1.24434 1.56025-3.91942 3.15245-1.84702 1.14711-3.56663 2.70827-5.15883 4.68348-2.80354 3.50342-6.59464 10.54321-11.37332 21.11939l-2.00637 4.39476-4.10898 9.17449c-1.33763 2.80155-2.19792 4.61641-2.58087 5.44461-1.52815 2.9318-3.24776 5.67112-5.15882 8.21796-1.21125 1.72058-2.54883 3.24966-4.01274 4.58724-2.29414 2.10358-4.6038 3.64869-6.92898 4.63535-2.32524.98666-4.69809 1.47999-7.11854 1.47999-3.50533 0-6.73895-.9711-9.70086-2.91332-2.96193-1.94221-5.17584-4.53863-6.64173-7.78926-1.0829-2.35631-1.62435-4.84095-1.62434-7.45391-.00001-.57156.06415-1.3677.19247-2.38839l.66782-3.82027c.50936-2.29409 1.1626-4.58771 1.95971-6.88087.7971-2.2931 1.73709-4.52256 2.82-6.68838 5.98799-12.29676 15.41617-22.48997 28.28458-30.57966 12.16843-7.64436 24.01807-11.46657 35.54893-11.46665 7.89903.00008 14.04645 1.43341 18.44228 4.29999 4.39564 2.86673 6.59351 7.1988 6.59361 12.99621-.0001 7.13511-3.47236 12.61375-10.4168 16.43591-7.51814 2.48468-15.03521 4.96931-22.55126 7.45391l.18956.76405c2.99393 1.78283 5.41489 3.67789 7.26289 5.6852 1.84784 2.00737 2.7718 4.66746 2.77188 7.98029zM339.345 460.0667c2.61087-4.45985 5.06342-9.11027 7.35767-13.95128 2.61085-5.54273 3.91635-9.2376 3.9165-11.08461-.00015-.76593-.25483-1.14893-.76405-1.149-1.14526.00007-3.26293 1.76828-6.35302 5.30464-3.09038 3.53648-5.55946 7.02478-7.40724 10.46491-1.84806 3.44024-3.15405 5.98854-3.91797 7.64492-1.33771 2.86573-2.51587 5.76446-3.53448 8.69622-1.27549 3.69393-2.19896 7.64348-2.77042 11.84867 3.94845-4.14103 7.19714-8.09059 9.74606-11.84867l3.72695-5.9258zm22.83705 2.3884c1.46574-2.80343 2.80429-5.54275 4.01566-8.21796 1.52794-3.43916 2.292-5.76437 2.29216-6.97563-.00016-.95648-.35011-1.43474-1.04984-1.43479-1.02085.00005-2.77351 1.59329-5.25798 4.77971-2.16595 2.80352-4.29966 5.98902-6.40114 9.55651l-2.86666 5.82956c-.89252 1.97335-1.59339 3.8203-2.10261 5.54085-.50951 1.7206-.98778 3.91847-1.43478 6.59361 2.35811-1.91109 4.42912-3.85427 6.21304-5.82956 1.78361-1.97523 3.34428-4.07687 4.68202-6.3049l1.91013-3.5374zm29.05155 17.10665-6.68984 13.66257-9.8423 20.25909c-1.01891 2.10357-1.91031 3.56946-2.67419 4.39769-.9567 1.08288-1.94433 1.62432-2.9629 1.62434-.44732-.00002-.89351-.12736-1.33855-.38203-1.27359-.76601-1.9103-1.78572-1.91014-3.05913-.00016-1.01875.34979-2.19691 1.04985-3.53448l10.32056-19.30548 1.72058-3.15246c-1.21139 1.21122-2.6452 2.26204-4.30145 3.15246-2.29233 1.21121-4.2987 1.81682-6.01911 1.81681-1.7849.00001-3.18664-.6056-4.20522-1.81681-.76421-.89042-1.40092-2.19592-1.91013-3.91651-1.02084 1.27343-2.3905 2.57893-4.10898 3.91651-1.40189 1.02068-2.81967 1.83334-4.25333 2.43797-1.43397.60464-2.81966.90695-4.1571.90695-2.61114 0-4.80901-1.11497-6.59361-3.34492-.57366-.69989-1.14719-1.59129-1.72058-2.67419-.38119.44522-.82689.93855-1.33709 1.47999-.51048.54145-1.02034.9716-1.52957 1.29043-1.78293 1.33759-3.74166 2.4686-5.87621 3.39304-2.13482.92445-4.06148 1.38668-5.77999 1.38667-1.7207.00001-3.21819-.43014-4.49246-1.29043-1.27451-.86029-2.389-2.05546-3.34346-3.58551l-.95653-1.62435-1.81682 1.62435c-3.75816 3.31284-7.48511 4.96927-11.18085 4.96926-1.71874.00001-3.21525-.44569-4.48954-1.33709-1.2745-.89139-2.35788-2.10212-3.25015-3.63217l-.86029-1.71767-1.72058 1.71767c-1.5282 1.40174-2.99312 2.40541-4.39477 3.01101-1.40182.60561-2.96201.90841-4.68056.90841-2.99603 0-5.03545-1.30647-6.11826-3.91942-.76414-1.65642-1.14616-3.63071-1.14609-5.92288-.00007-2.10357.63761-4.68346 1.91306-7.73969 1.14503-2.48461 2.53024-4.85794 4.15563-7.12 1.62524-2.26199 3.55189-4.41174 5.77998-6.44925 2.73923-2.4846 5.62193-4.45986 8.64811-5.9258 3.02598-1.46585 6.16433-2.1988 9.41507-2.19884 3.94847.00004 5.92276 1.59328 5.92287 4.77971.12821 1.2093-.38116 2.32428-1.5281 3.34493-.6378.57161-1.37075.88948-2.19885.9536-1.083.00004-1.92676-.09523-2.53129-.28579-.60474-.19049-1.09856-.46121-1.48145-.81217-.3831-.35088-.63827-.8447-.76551-1.48145-.12745-.63667-.30242-.98711-.52492-1.0513-.22271-.06412-.49344-.0962-.81218-.09624-1.52821.00004-3.47139.92449-5.82955 2.77335-2.03758 1.59229-3.96423 3.56707-5.77999 5.92433-1.81593 2.35732-3.28134 4.8575-4.39622 7.50056-1.11506 2.6431-1.67255 5.11169-1.67246 7.40579-.00009 1.01875.14329 1.91063.43014 2.67564.28668.76504 1.00359 1.14755 2.15073 1.14754 1.40164.00001 3.15333-1.17912 5.25505-3.53739 1.65633-1.84694 3.47217-4.36268 5.44753-7.54722.95449-1.53003 1.94163-3.20298 2.96144-5.01885 1.01961-1.81581 1.81623-3.26518 2.38986-4.34811.31874-.44518 1.4969-.66778 3.53448-.66782 1.27526.00004 2.32656.11134 3.15391.33391.82713.22264 1.17756.55752 1.0513 1.00465l-3.82318 8.69622c-.89248 2.03749-1.46601 3.40715-1.72058 4.10897-.44532 1.08291-.92261 2.45257-1.43188 4.10898-.12842.50938-.19257.85933-.19247 1.04985-.0001.63769.27062 1.09991.81217 1.38667.54135.28677 1.25825.43015 2.15073.43014.95642.00001 2.4539-.74849 4.49246-2.2455 2.03834-1.49699 3.31225-2.59641 3.82173-3.29826-.00012-.95457-.00012-1.862 0-2.72231-.00012-.86027.06404-1.79979.19247-2.81854-.00011-2.22993.25457-4.38017.76406-6.45072.50925-2.0705 1.24122-4.44334 2.19592-7.11853.50925-1.27534 1.03515-2.56577 1.57769-3.87131.5423-1.30546 1.13137-2.65908 1.76724-4.06086 3.63156-7.64438 7.96411-14.36533 12.99766-20.16286 5.54071-6.37094 10.22321-9.55644 14.04752-9.55651 1.8468.00007 3.16834.52548 3.96462 1.57623.79598 1.05088 1.19405 2.53184 1.1942 4.44288-.00015 3.24875-1.05097 7.42189-3.15245 12.51941-1.5302 3.69395-3.53755 7.6435-6.02203 11.84867-.70004 1.21125-1.38439 2.34226-2.05303 3.39304-.66894 1.05086-1.51367 2.34129-2.53421 3.87131-1.65656 2.4205-3.36062 4.6976-5.11217 6.83128-1.75182 2.13374-3.80582 4.37973-6.162 6.73797l-5.16174 4.77679c-.00013 1.59228.50973 3.04165 1.52956 4.34811 1.01959 1.30649 2.48499 1.95972 4.39623 1.95971 1.27329.00001 2.89763-.63767 4.87303-1.91305 1.59213-1.01873 2.92971-2.10162 4.01274-3.24869l.67074-5.92287c.69975-4.52403 2.1326-9.04711 4.29853-13.56925l2.00637-3.91943c2.9958-5.6069 6.78691-10.79926 11.37333-15.57708 4.5861-4.77771 8.08947-7.16659 10.51011-7.16665 1.59404.00006 2.72554.44625 3.3945 1.33855.66862.89243 1.00302 2.23001 1.00319 4.01275-.00017 2.73937-.78075 6.06825-2.34174 9.98665-1.56133 3.91849-3.45688 7.69356-5.68666 11.32521-1.59243 2.48272-3.21677 4.80793-4.87303 6.97563-2.10179 2.67519-4.10816 4.87306-6.01912 6.59362-1.5302 1.39981-3.25078 2.70531-5.16174 3.9165-.0643.2547-.09638.63673-.09623 1.14608-.00015 1.21123.33425 2.23094 1.00318 3.05914.66865.82822 1.86333 1.24232 3.58406 1.24231 1.5299.00001 3.12313-.73245 4.77971-2.19738 1.65627-1.46491 3.34379-3.85379 5.06259-7.16665l.5745-1.149c1.08273-2.22993 2.26089-4.4589 3.53448-6.68693 1.02051-1.78471 2.16756-3.69581 3.44116-5.73332l3.9165-6.40406c.12814-.19049.62244-.3815 1.48291-.57304.86011-.19146 1.67228-.28721 2.43651-.28725 1.21104.00004 2.16659.11183 2.86667.33537.69971.22362.92232.6212.66781 1.19274-.06239.19251-.285.63869-.66781 1.33855-.70008 1.27541-1.52829 2.7413-2.48464 4.39769-1.21139 2.03751-2.4537 4.23537-3.72695 6.59361-1.52828 2.80155-2.70644 5.12676-3.53448 6.97564-1.33775 2.8657-2.00654 5.03149-2.00637 6.49737-.00017 1.20928.5092 1.81391 1.52811 1.8139 1.52794.00001 2.99286-.57303 4.39477-1.71912 1.40156-1.14607 3.18532-3.34345 5.35129-6.59215 1.52987-2.29409 2.93161-4.57215 4.20522-6.83421 1.27323-2.26199 2.48347-4.50701 3.63071-6.73504l2.67711-5.54377c.25449-.38296.76386-.62209 1.5281-.7174.76387-.09522 1.59208-.14285 2.48464-.14289 1.27323.00004 2.29245.11134 3.05767.33391.76483.22264 1.02.55753.76552 1.00464l-2.48464 5.06551-6.68985 13.56925z" font-family="Bitstream Vera Sans" font-size="1376.05322266" font-weight="400" style="text-align:start;line-height:125%" transform="translate(-198.83313 -416.61096)"/>
</svg>