<svg xmlns="http://www.w3.org/2000/svg" viewBox="0 0 91.802 23.959">
  <g fill="#2e9429">
    <path d="M211.616 416.453h-17.728l1.088-3.866q.771-2.706.272-3.447-.453-.74-2.04-.74-1.723 0-2.902.998-1.178.999-1.722 3.028-.726 2.61-.136 3.93.589 1.322 4.533 3.19 11.2 5.38 13.557 8.827 2.312 3.447.181 11.115-1.587 5.573-4.17 8.215-2.585 2.641-8.343 4.446-5.758 1.771-12.74 1.771-7.663 0-12.514-2.061-4.806-2.062-5.622-5.252-.771-3.189.906-9.052l.952-3.415h17.728l-1.768 6.346q-.862 2.932-.363 3.77.544.837 2.449.837 1.904 0 3.128-1.063 1.224-1.063 1.814-3.157 1.314-4.607-.046-6.024-1.45-1.418-7.617-4.736-6.166-3.35-8.07-4.865-1.86-1.514-2.63-4.188-.77-2.674.408-6.83 1.678-5.992 4.58-8.762 2.946-2.77 8.206-4.317 5.26-1.579 12.06-1.579 7.436 0 12.151 1.708 4.76 1.707 5.713 4.317.997 2.577-.726 8.794zm12.014-15.785h31.83l-2.948 10.437h-12.74l-2.766 9.89h11.924l-2.81 9.923h-11.925l-3.22 11.47h14.01l-2.946 10.437H208.94zm81.204 0-14.69 52.157h-16.73l-3.265-23.71-6.665 23.71h-15.96l14.69-52.157h15.96l4.08 23.485 6.62-23.485zm46.11 0-2.947 10.437h-11.335l-11.743 41.72h-19.088l11.743-41.72h-11.29l2.948-10.437zm4.352 0h31.829l-2.947 10.437h-12.74l-2.767 9.89h11.925l-2.811 9.923H365.86l-3.219 11.47h14.01l-2.947 10.437h-33.098Z" transform="translate(-27.608 -97.568) scale(.26458)"/>
    <path d="M104.577 395.377h346.738v.955H104.577z" paint-order="stroke fill markers" style="mix-blend-mode:difference" transform="translate(-27.608 -97.568) scale(.26458)"/>
    <path d="M104.577 404.333h346.738v.955H104.577zm-.231 9.253h346.738v.955H104.346zm0 8.955h346.738v.955H104.346zm0 8.955h346.738v.955H104.346zm0 8.956h346.738v.955H104.346zm0 8.955h346.738v.955H104.346zm0 8.955h346.738v.955H104.346z" paint-order="stroke fill markers" style="mix-blend-mode:difference" transform="translate(-27.608 -97.568) scale(.26458)"/>
    <path d="M194.248 386.02v.474c0 .75-.304 1.472-.91 2.164-.51.593-1.237 1.127-2.183 1.601a10.99 10.99 0 0 1-2.293.875c-.8.208-1.492.312-2.074.312-1.043 0-1.844-.11-2.402-.327-.558-.217-.94-.489-1.147-.815a1.84 1.84 0 0 1-.309-.993c0-.435.188-.816.564-1.142a1.65 1.65 0 0 1 1.328-.4c.437.039.771.182 1.002.43.23.247.37.558.418.934 0 .435-.085.76-.255.979 1.48-.218 2.73-.703 3.748-1.454 1.02-.75 1.529-1.63 1.529-2.638v-.179c0-.593-.304-1.215-.91-1.867a214.3 214.3 0 0 1-2.038-2.165c0-.712.934-1.394 2.802-2.046 2.863-1.009 4.598-1.69 5.204-2.046 1.868-1.068 2.802-2.462 2.802-4.182 0-2.411-2.05-3.617-6.15-3.617-1.94 0-3.863.306-5.768.919-1.904.613-3.864 1.581-5.877 2.906a33.936 33.936 0 0 0-4.694 3.736c-1.504 1.424-2.802 2.887-3.894 4.389-1.091 1.502-1.856 2.886-2.292 4.152-.268.83-.401 1.57-.401 2.223 0 .771.097 1.443.29 2.016.486 1.285 1.493 1.928 3.021 1.928.728 0 1.414-.163 2.057-.49.643-.325 1.267-.805 1.874-1.438.995-1.067 1.965-2.48 2.911-4.24l2.256-4.24.655-1.098c1.262-1.917 2.172-3.221 2.73-3.913 1.358-1.68 2.596-2.778 3.711-3.292a13.22 13.22 0 0 1 1.838-.682c.618-.178 1.158-.267 1.62-.267.436 0 .667.099.691.297.024.158-.474.484-1.492.978a7.577 7.577 0 0 0-1.965 1.453c-1.067 1.088-2.511 3.272-4.33 6.554l-.765 1.364-1.565 2.847c-.51.869-.837 1.432-.983 1.69a18.359 18.359 0 0 1-1.964 2.55 9.56 9.56 0 0 1-1.528 1.423c-.874.652-1.753 1.132-2.639 1.438a8.24 8.24 0 0 1-2.71.46c-1.336 0-2.567-.302-3.695-.905-1.128-.602-1.97-1.408-2.53-2.417a4.64 4.64 0 0 1-.618-2.313c0-.177.025-.424.074-.74l.254-1.186c.194-.712.443-1.424.746-2.136.304-.711.662-1.403 1.074-2.075 2.28-3.816 5.87-6.979 10.771-9.49 4.634-2.371 9.147-3.557 13.538-3.557 3.008 0 5.349.444 7.023 1.334 1.674.89 2.51 2.234 2.51 4.033 0 2.214-1.322 3.914-3.966 5.1l-8.588 2.313.072.237c1.14.553 2.062 1.141 2.766 1.764.704.623 1.056 1.449 1.056 2.477zm23.399-6.05a53.595 53.595 0 0 0 2.802-4.33c.994-1.72 1.491-2.866 1.491-3.439 0-.237-.097-.356-.29-.356-.437 0-1.243.548-2.42 1.646-1.177 1.097-2.117 2.18-2.82 3.247-.705 1.068-1.202 1.858-1.493 2.372-.51.89-.958 1.79-1.346 2.699a16.231 16.231 0 0 0-1.055 3.677c1.504-1.285 2.74-2.51 3.712-3.677zm8.696.741c.559-.87 1.068-1.72 1.53-2.55.582-1.067.873-1.789.873-2.164 0-.297-.134-.446-.4-.446-.389 0-1.056.495-2.003 1.483a28.98 28.98 0 0 0-2.437 2.966l-1.092 1.809c-.34.612-.607 1.185-.8 1.72-.195.533-.377 1.215-.547 2.045a19.889 19.889 0 0 0 2.366-1.809 13.127 13.127 0 0 0 1.783-1.956zm11.064 5.309-2.548 4.24-3.748 6.286c-.388.653-.727 1.107-1.018 1.364-.365.336-.74.504-1.129.504a1.2 1.2 0 0 1-.51-.118c-.484-.238-.727-.554-.727-.95 0-.315.133-.681.4-1.096l3.93-5.99.655-.979a7.064 7.064 0 0 1-1.638.978c-.873.376-1.637.564-2.292.564-.68 0-1.213-.188-1.601-.564-.291-.276-.534-.681-.728-1.215-.388.395-.91.8-1.564 1.215a8.745 8.745 0 0 1-1.62.757 4.862 4.862 0 0 1-1.583.281c-.995 0-1.831-.346-2.511-1.038a5.046 5.046 0 0 1-.655-.83 14.55 14.55 0 0 1-.51.46 2.945 2.945 0 0 1-.582.4c-.679.415-1.425.766-2.238 1.053-.813.287-1.546.43-2.2.43-.656 0-1.226-.133-1.712-.4a4.07 4.07 0 0 1-1.273-1.113l-.364-.504-.692.504c-1.431 1.028-2.85 1.542-4.258 1.542-.654 0-1.224-.138-1.71-.415a3.865 3.865 0 0 1-1.237-1.127l-.328-.533-.655.533c-.582.435-1.14.747-1.674.935a5.34 5.34 0 0 1-1.782.281c-1.141 0-1.918-.405-2.33-1.216-.29-.514-.436-1.126-.436-1.838 0-.652.242-1.453.728-2.401a13.07 13.07 0 0 1 1.583-2.21 14.347 14.347 0 0 1 2.2-2.001 14.463 14.463 0 0 1 3.294-1.839 9.68 9.68 0 0 1 3.585-.682c1.504 0 2.256.494 2.256 1.483.049.375-.145.721-.582 1.038a1.555 1.555 0 0 1-.837.296c-.413 0-.734-.03-.964-.089a1.6 1.6 0 0 1-.564-.252.785.785 0 0 1-.292-.46c-.048-.197-.115-.306-.2-.326a1.374 1.374 0 0 0-.31-.03c-.581 0-1.321.287-2.22.86a11.638 11.638 0 0 0-2.2 1.84 10.25 10.25 0 0 0-1.674 2.327c-.425.82-.637 1.586-.637 2.298 0 .316.054.593.164.83.109.237.382.356.819.356.533 0 1.2-.366 2-1.098.632-.573 1.323-1.353 2.075-2.341.364-.475.74-.994 1.128-1.558a59.32 59.32 0 0 0 .91-1.35c.122-.137.57-.206 1.346-.206.486 0 .886.034 1.201.103.315.07.449.173.4.312l-1.455 2.699c-.34.632-.559 1.057-.656 1.275-.17.336-.351.76-.545 1.275a1.353 1.353 0 0 0-.073.325c0 .198.103.342.31.43.205.09.478.134.818.134.364 0 .935-.232 1.71-.697.777-.464 1.262-.805 1.456-1.023v-.845c0-.267.025-.558.074-.874 0-.692.096-1.36.29-2.002a20.07 20.07 0 0 1 .837-2.21c.194-.395.394-.795.6-1.2.207-.406.431-.826.674-1.26 1.383-2.373 3.032-4.458 4.95-6.257 2.11-1.977 3.892-2.966 5.349-2.966.703 0 1.206.163 1.51.49.303.325.454.785.454 1.378 0 1.008-.4 2.303-1.2 3.885-.583 1.146-1.347 2.372-2.293 3.677a29.58 29.58 0 0 1-.782 1.053c-.255.326-.577.726-.965 1.2a31.372 31.372 0 0 1-1.947 2.12 32.5 32.5 0 0 1-2.347 2.092l-1.965 1.482c0 .494.194.944.582 1.35.388.404.946.607 1.674.607.485 0 1.104-.198 1.856-.593a7.98 7.98 0 0 0 1.528-1.009l.256-1.837c.266-1.404.812-2.808 1.636-4.211l.765-1.216c1.14-1.74 2.584-3.351 4.33-4.834 1.747-1.483 3.081-2.224 4.003-2.224.607 0 1.038.139 1.293.415.254.277.382.692.382 1.246 0 .85-.298 1.883-.892 3.099a21.61 21.61 0 0 1-2.166 3.514 33.025 33.025 0 0 1-1.855 2.164c-.8.83-1.565 1.513-2.292 2.047a14.19 14.19 0 0 1-1.966 1.215 1.281 1.281 0 0 0-.037.356c0 .375.128.692.382.949.255.257.71.385 1.365.385.583 0 1.19-.227 1.82-.682.631-.454 1.274-1.195 1.928-2.223l.219-.357c.412-.692.861-1.384 1.346-2.075.389-.554.825-1.147 1.31-1.78l1.492-1.986c.049-.06.237-.119.565-.178.327-.06.636-.09.927-.09.462 0 .826.035 1.092.105.267.07.351.193.254.37-.023.06-.108.198-.254.415-.266.396-.582.85-.946 1.365a55.25 55.25 0 0 0-1.42 2.046 30.39 30.39 0 0 0-1.345 2.165c-.51.889-.764 1.56-.764 2.016 0 .375.194.563.582.563.581 0 1.14-.178 1.673-.534.534-.355 1.213-1.037 2.038-2.045a32.746 32.746 0 0 0 1.601-2.121 61.65 61.65 0 0 0 1.383-2.09l1.02-1.72c.096-.12.29-.193.581-.223s.607-.044.947-.044c.484 0 .873.034 1.164.103.291.07.388.173.292.312l-.947 1.572z" transform="translate(-27.608 -97.568) scale(.26458)"/>
  </g>
</svg>