<svg xmlns="http://www.w3.org/2000/svg" xml:space="preserve" viewBox=".25 0 254.14755 48.694216">
  <path fill="none" stroke="#fff" d="M45.504402 11.84719 33.535833 24.488917l-7.904901-5.419393s2.60084-2.48198.228309-4.289621c-1.850009-1.40987-7.03992 1.580505-6.81514 7.451815.263615 6.772773 4.448492 10.609306 9.071163 10.609306 4.293149 0 5.420569-3.461113 5.420569-3.461113h9.618401v7.980222L56.676242 1.686272h15.467344l12.419299 32.063279s.902647 1.68996 1.805287 2.141866c0 0 .05182-21.032665.05182-21.623442 0-.588425-.07764-1.239227-.446029-1.661718-.606077-.69787-1.638176-.987373-1.638176-.987373V1.686272h21.674063c11.24245 0 14.12573 3.048039 17.3856 8.919345C127.89573 4.546016 134.09185.55649 142.92646.55649c9.08882 0 15.52031 3.350495 19.19326 8.918175C167.24961 3.342092 175.50639.5 183.06177.5c9.28534 0 17.03961 4.500272 21.05267 11.45899V1.686272h20.8832l2.20071 5.585329 1.63936-5.585329h21.56225v9.706659s-1.24392.341286-1.58757.901467c-.33422.553122-.27538 2.318397-.27538 2.318397l3.00803 19.187358c.12592.623739.34834 1.275714.88617 1.753511.62373.557826 1.46635.453086 1.46635.453086v11.060042h-21.67405v-8.354459h-12.41695v8.376818H199.4294v-5.445284s-7.44711 6.550345-17.0455 6.550345c-12.28396 0-20.49132-9.029976-20.49132-9.029976v7.901376h-14.44701c-12.85944 0-23.89829-7.036385-26.98165-19.868762-1.46165 1.398099-7.90725 5.999579-15.63681 7.733086-.60137.135339-.90147.360109-.90147 1.012094 0 1.188615 2.53965 1.612284 2.53965 1.612284v9.510126H27.218541C12.540863 47.067105.75 37.020017.75 24.264137.75 11.507084 9.9423776.66829 25.181411.66829c14.564698 0 20.323028 11.1789 20.323028 11.1789z" clip-rule="evenodd"/>
  <path fill="#fff" fill-rule="evenodd" d="m39.801387 12.044906-6.376175 6.685685s-.338933.170642-.6202.170642c-.283622 0-.680221-.283622-.680221-.283622l-.788487-.674335s-.227133-.0553-.227133-.283622c0-.222418.621376-.790839.621376-1.862949 0-1.073292-.22478-5.532373-7.11053-5.532373s-9.933792 6.43501-9.933792 11.741433c0 5.30642 3.271643 15.014252 13.999809 15.014252 6.238486 0 7.560087-3.502307 7.560087-3.502307h2.144223v9.146481H26.651263c-13.99746 0-21.7882078-10.95294-21.7882078-18.854313 0-12.115679 10.5351638-18.839023 20.0947188-18.839023 9.257105.001 14.843613 7.074051 14.843613 7.074051zm19.758138-6.067843h9.651345l11.741443 30.706373c.336581.843804.901467 1.639358 1.46517 2.31252.562544.677859 1.91827 1.132124 1.91827 1.132124v2.649091H70.172362v-2.709106s.900284.116505 1.35338-.675513c.450733-.79085.450733-1.411043.114152-2.20071-.338933-.792022-2.714992-7.055216-2.714992-7.055216H57.356463s-2.368999 6.320857-2.597311 6.884574c-.225953.563713-.225953 1.468705 0 2.031236.375416.939136 1.694665 1.076827 1.694665 1.076827v2.64909h-11.34719v-2.64909s1.032099-.355415 1.806466-1.132134c.846153-.846157 1.127423-1.751149 1.127423-1.751149zm-.284796 18.400054h7.452989l-3.837709-10.723462ZM88.851324 5.977063h18.063486c6.66097 0 13.31959 2.36782 13.31959 10.044412 0 7.676603-4.85451 10.388064-9.02998 12.307503-4.82155 2.214835-11.17537 3.951867-11.17537 3.951867v5.867772s.0565.396595.62021 1.069757c.56606.677866 1.18626.848512 1.18626.848512v2.709105H88.739523v-2.64908s.78967-.171826 1.356915-.735539c.562534-.564886.67786-1.242755.67786-1.242755V11.620064s.05182-1.129779-.396596-1.579333c-.450734-.455448-1.525195-1.073289-1.525195-1.073289V5.977063h-.001zm11.289526 5.530021v15.690939s10.61049-4.401412 10.61049-10.610479c0-7.676595-10.61049-5.08046-10.61049-5.08046zm59.21205.602545-6.37853 6.685684s-.33893.16947-.62138.16947c-.28008 0-.67551-.282443-.67551-.282443l-.79202-.679049s-.22477-.05292-.22477-.277735c0-.227126.61902-.795544.61902-1.862949 0-1.074462-.22242-5.533556-7.11053-5.533556-6.8881 0-9.93497 6.432671-9.93497 11.740264 0 5.302885 3.274 15.014252 14.00099 15.014252 6.23848 0 7.56126-3.501127 7.56126-3.501127h2.14658v9.144128h-11.7438c-13.99628 0-21.7882-10.949415-21.7882-18.851967 0-12.11449 10.53399-18.840196 20.09472-18.840196 9.25828 0 14.84714 7.075224 14.84714 7.075224zm22.86149 31.726707c-12.19452 0-20.95852-8.904048-20.95852-19.73931 0-10.842319 8.99114-19.23915 20.95852-19.23915 11.96269 0 20.95383 8.396831 20.95383 19.23915 0 10.834082-8.76518 19.73931-20.95383 19.73931zm-10.84114-19.572199c0 10.837614 5.53238 13.546729 10.84114 13.546729 5.30172 0 10.94942-3.386974 10.94942-13.546729 0-10.158565-6.32204-13.54672-10.94942-13.54672-4.62972 0-10.84114 2.706754-10.84114 13.54672zm37.2532-18.263535h13.4361l4.85451 14.990716 5.19108-15.014255h14.05278v2.19953s-.93443.395423-1.34985.903829c-.50841.621376-.50841 1.072109-.39661 1.978281.11298.900287 3.72474 25.39878 3.83889 26.302599.11415.903823.22478 1.411046.45073 2.032422.2236.615499 1.29925 1.126248 1.29925 1.126248v2.277206h-13.49259v-2.445497s1.18509-.16829 1.58286-.735529c.39543-.564886.56253-.903819.45074-1.805286-.11299-.902649-3.32813-21.449275-3.32813-21.449275l-5.87131 18.175274h-7.11171l-5.81599-17.049026-2.93389 20.095891s-.11416 1.20627.33893 1.864132c.6202.903819 1.75233.903819 1.75233.903819v2.42549h-11.68848V40.18457s.9309-.143579 1.60758-.935597c.67669-.787315.79084-1.806469.79084-1.806469l4.26373-26.500306s.25538-.989735-.0282-1.439289c-.29775-.475452-1.89238-.874404-1.89238-.874404V6.000602h-.001z" clip-rule="evenodd"/>
</svg>