<svg xmlns="http://www.w3.org/2000/svg" viewBox="0 0 5228.5625 1339.9762">
  <path fill="#0c4da2" d="M3747.875 0c-166.6776 0-315.3087 71.98864-411.9375 184.40625-28.5276-36.63982-63.401-75.12648-101.5-102.21875C3154.4745 22.492897 3050.799 4.327203 2940 1.34375c-187.5745-5.050763-337.5982 96.28387-406.6875 210.21875-58.3612-116.43853-110.7186-177.242223-313.7813-187.343753h-492.0803l.1116 205.093753s23.4011 7.47335 31.3125 16.15625c6.6004 7.24407 11 27.25 11 27.25l-1.1562 456.5s-12.8696-9.33294-18-15.3125c-9.5491-11.12871-23.0938-37.4375-23.0938-37.4375L1475.5 23.999997l-319.6875.21875L878.0312 750.40625v-155.4375H678.125c-15.7424 43.40396-59.9402 72.71875-113.25 72.71875-28.0932 0-58.13-6.62565-82.4688-21.25-31.7176-19.0581-55.4185-41.69206-74.9375-81.90625C392.112 527.31766 380.3597 481.75162 379 441.4375c4.6791-79.72921 28.9019-108.14789 73.25-141.03125 9.8313-7.28971 37.2996-13.1189 45.2187-13.15625 17.4221-.0822 31.9427 10.48615 39.8125 26.0625 11.4471 22.65651-5.3079 50.1006-21.875 69.625l161.625 111.34375 249.625-261.1875C839.5703 94.29627 680.4361 1.375 498.5625 1.375 223.2091 1.375 0 214.36403 0 477.09375s216.0662 461.41517 498.5625 482.84377l35.7187 1.4375h380v-.1875H1799v-.062l332.625-.4688v-.5312h52.0312V764.688s-27.8733-5.81326-39.3437-13.625c-12.0454-8.20329-13.1875-21.125-13.1875-21.125-.2158-4.98391.7879-8.80271 3.4062-12.0625 2.5668-3.19557 8.5725-5.36854 10.8438-5.84375 34.3492-7.18693 69.3766-17.0151 104.4375-29.625 93.5498-33.64584 172.271-81.51341 228.1563-134.40625 37.3957 220.94624 231.5684 382.17352 466.3124 409.09372 15.3291 1.758 28.5364 3.0874 42.875 3.5938 3.8075.1344 11.4376-.1563 11.4376-.1563h332l-1.0102-163.37655c86.3414 95.84593 254.5574 187.71953 424.3523 187.71953 138.7352 0 263.1783-60.74718 350.89-135.86527l-.7142 112.99109h419.2321l2.1429-172.86609 109.2945 1.42857v-1.90625l146.6563 1.28125v171.43752h447.125V734.21925s-19.0914-1.22398-26.5625-6.4375c-10.1018-7.04923-20.5625-30.71875-20.5625-30.71875l-62.8437-417.34375s1.8846-27.91969 10-38.34375c6.6769-8.57661 28.5624-15.71875 28.5624-15.71875V24.219247h-445.7187v5.71875L4680 135.65675l-45.2188-106.406253v-5.03125h-2.125l-1.2187-2.84375-.094 2.84375h-430.0938V235.65675l-29.375-40C4091.1912 78.02733 3949.5658 0 3788.2812 0c-6.576 0-13.1167.118185-19.625.375-6.8966-.248953-13.819-.375-20.7812-.375ZM872.5 791.71875l-.031 2.0625h-1.875c.6407-.68471 1.27-1.37525 1.9062-2.0625z"/>
  <path fill="#ffcb08" d="M498.2292 90.75864C271.2469 92.18721 85.863 257.52474 85.863 473.80997s204.6469 402.07109 452.3662 396.47808l240.7127.6783V681.45911h-45.4634c-14.2837 35.73115-80.9968 70.68064-129.3669 70.68064-25.4902 0-89.6606-3.46506-113.3988-11.7792-41.9106-14.67892-101.712-35.75045-153.7082-123.14142-13.9338-30.6351-53.1686-105.28898-44.4023-214.19078 4.2456-65.63495 45.9366-147.56776 120.7486-184.67165 32.6212-16.17886 65.4607-18.83348 123.1208-13.60101 41.3957 3.75653 82.5276 32.86328 96.8886 67.79717 11.107 27.01833 7.9153 59.94169-5.16 78.69532-.9328 1.33796-.9528 2.52293-.7595 3.80017.1471.97218 1.408 2.592 1.408 2.592l22.7845 17.79932s6.4866 4.50696 14.0636 4.30516c4.4004-.11719 12.2667-4.89104 12.2667-4.89104l130.1212-136.55317C727.6396 129.75359 584.6792 90.75864 498.2292 90.75864ZM3750 87.09375c-240.6384 0-435.7188 181.00042-435.7188 404.28125S3509.3616 895.65625 3750 895.65625s435.7188-181.00042 435.7188-404.28125S3990.6384 87.09375 3750 87.09375zm2.8438 125.6875c123.8694 0 190.2581 88.64355 217.1696 194.30357 7.7034 30.245 4.5802 130.80895-.01 164.29464-13.9939 102.11219-97.4584 201.62179-218.567 198.55804-118.0174-2.98555-196.9617-57.93034-221.4242-205.70089-7.1559-43.22671-7.2805-95.15491-1.4508-138.58036 16.9036-125.91479 100.4117-212.875 224.2813-212.875zM1215.625 112.1875S1024.2857 629.93304 990 724.21875c-34.28571 94.28572-72.84375 91.4375-72.84375 91.4375L920 872.78125l231.25-.0625.1875-54.875s-14.838-.76195-25.7187-10.75c-21.1033-19.37177-7.75-58.34375-7.75-58.34375l53.4687-136.78125 237.4687.5s46.2886 115.5722 57.625 153.71875c14.7908 49.76976-31.4062 50.65625-31.4062 50.65625V872.625l292.4375-.15625-.1875-55.15625s-17.4155-2.65648-35.9375-18.8125c-21.0102-18.32633-35.3125-56.125-35.3125-56.125l-239.5-629.65625zm68.6562 159.1875 79.2813 220.71875-153.5625.6875zm536.7188-160-1.125 63.46875s18.5873 5.32601 36.375 25.0625c9.4309 10.4641 3.5938 143.28125 3.5938 143.28125l-.3126 425.15625s6.0586 16.7572-14.2812 33.59375c-7.6779 6.35547-14.4784 13.09219-26.3438 14.125L1817.5 872.625l271.0312.65625.6563-57.53125s-9.5873-3.78169-24.625-17.34375c-8.488-7.65511-13.7169-18.67175-13.5937-29.65625.2278-38.40715 1.1259-75.31081.9374-112.8125 94.9385-22.86724 176.8968-61.6423 208.8438-73.40625 120.0869-47.918 213.2691-123.99838 207.8125-259.71875-1.0305-96.15561-49.8021-174.97063-154.2813-192.78125-47.6269-13.76116-69.4926-16.16571-88.2812-17.21875Zm309.9688 107.79219c29.2343-.56143 63.6671 6.13685 90.1758 19.48827 33.0369 21.93314 53.1366 44.65398 53.1366 92.71954 1.3623 22.59657-5.1304 42.02538-16 61.78125-11.318 18.89081-45.5547 55.15612-67.1726 75.90229-63.2001 45.18182-85.8164 58.42722-136.0234 81.53802l-.804-322.09656c26.7572-5.04664 50.758-9.16086 76.6876-9.33281zm835.7858-127.90347c-226.9823 1.42857-412.3662 166.7661-412.3662 383.05133s204.6469 402.07109 452.3662 396.47808l240.7127.6783V681.96419h-45.4634c-14.2837 35.73115-80.9968 70.68064-129.3669 70.68064-25.4902 0-89.6606-3.46506-113.3988-11.7792-41.9106-14.67892-101.712-35.75045-153.7082-123.14142-13.9338-30.6351-53.1686-105.28898-44.4023-214.19078 4.2456-65.63495 45.9366-147.56776 120.7486-184.67165 32.6212-16.17886 65.4607-18.83348 123.1208-13.60101 41.3957 3.75653 82.5276 32.86328 96.8886 67.79717 11.107 27.01833 7.9153 59.94169-5.16 78.69532-.9328 1.33796-.9528 2.52293-.7595 3.80017.1471.97218 1.408 2.592 1.408 2.592l22.7845 17.79932s6.4866 4.50696 14.0636 4.30516c4.4004-.11719 12.2667-4.89104 12.2667-4.89104l130.1212-136.55317c-80.4452-108.54703-223.4056-147.54198-309.8556-147.54198ZM4294.625 112.875l.25 54.53125s23.8448 6.41919 33.3125 13.90625c10.8238 8.55957 8.0937 23.75 8.0937 23.75s-86.497 537.5233-88.375 547.5c-2.0203 10.73288-4.8812 35.80842-19.9687 49.75-15.0022 13.86285-32.3125 16.65625-32.3125 16.65625l-.25 53.78125h242.1875V822.5s-19.7118-1.52427-32.8437-14.65625c-13.132-13.13198-9.3438-49.21875-9.3438-49.21875l59.5938-406.09375 121.2187 349.5 147.6563 2.03125 119.9374-376.375 66.9376 432.9375s8.0739 32.54659-9.3438 49.25c-13.404 12.85426-32.8125 14.65625-32.8125 14.65625v50.25h280.5625L5148.875 821s-6.2803 2.15034-22.2188-10.625c-9.3731-7.51301-13.8859-41.01712-15.9062-51.75-1.8779-9.9767-77.4688-550.84375-77.4688-550.84375s-1.3149-22.33329 10.9376-33.75C5053.0496 165.80268 5071.125 158 5071.125 158l-.4375-44.53125-291.2813-.34375-106.5937 307.03125L4571.1562 113.125Z"/>
  <path fill="#ffcb08" d="M1954.2668 1055.9887H1778.139v59.0506h17.0666c2.048-22.8693 13.9947-27.648 34.816-27.648h65.5359l-130.0478 182.9545v29.3547h195.2425v-67.9253h-17.0667c-5.12 31.0613-22.1866 36.5226-51.5413 36.5226h-68.2666l130.3892-185.0025zm221.3593 171.3492v32.0853c0 14.6773 0 24.9173-15.0186 27.6479v12.6294h64.1706v-12.6294c-15.0187-2.7306-15.0187-12.9706-15.0187-27.6479V1096.266c0-14.6773 0-24.9173 15.0187-27.648v-12.6293h-64.1706v12.6293c15.0186 2.7307 15.0186 12.9707 15.0186 27.648v68.2666l-106.8372-108.5439h-69.6319v12.6293c15.0186 2.7307 15.0186 12.9707 15.0186 27.648v163.1572c0 14.6773 0 24.9173-15.0186 27.6479v12.6294h64.1706v-12.6294c-15.0187-2.7306-15.0187-12.9706-15.0187-27.6479V1103.434Zm186.6859 14.6773c27.9893 43.3493 55.6373 62.8053 109.9093 62.8053 49.1519 0 105.4719-23.2107 105.4719-79.872 0-98.6452-156.3306-61.7812-156.3306-113.6639 0-24.9173 30.0373-29.0133 49.4933-29.0133 18.7733 0 53.248 6.4854 53.248 30.72 0 4.096-1.024 6.8267-3.072 10.24l11.6053 7.8507 38.912-34.1333c-24.576-32.0853-61.0986-46.08-100.6933-46.08-44.0319 0-95.9145 18.0907-95.9145 70.3146 0 92.1599 153.5998 46.7626 153.5998 111.2746 0 29.0133-33.792 40.9599-58.0266 40.9599-21.1627 0-55.296-10.5813-55.296-37.2053 0-6.8266 3.4134-12.9706 7.8507-17.7493l-10.5813-10.24zm244.7356 57.6853h197.6318v-51.5413h-17.0667c-3.072 17.7493-12.288 22.1866-29.0133 22.1866h-90.1119v-92.8425h59.7333c12.9706 0 24.2346 1.7066 25.9413 17.0666h17.0666v-63.4879h-17.0666c-1.7067 15.3599-12.9707 17.0666-25.9413 17.0666h-59.7333v-62.8053h81.9199c18.0907-.3413 23.552.3414 27.9893 19.7974h17.0667v-49.152h-188.4158v12.6293c15.0186 2.7307 15.0186 12.9707 15.0186 27.648v163.1572c0 14.6773 0 24.9173-15.0186 27.6479zm284.93-134.4852v-79.872h40.6186c26.2826.6827 53.5893 9.5574 53.5893 40.96 0 29.696-25.6 38.912-51.5413 38.912zm85.6746 22.5279c32.4266-6.4853 54.9546-32.4266 54.9546-65.8772 0-44.7147-38.5707-65.8773-79.5306-65.8773h-122.5386v12.6293c15.0187 2.7307 15.0187 12.9707 15.0187 27.648v163.1572c0 14.6773 0 24.9173-15.0187 27.6479v12.6294h76.4586v-12.6294c-15.0186-2.7306-15.0186-12.9706-15.0186-27.6479v-64.8533h36.5226l62.4639 105.1306h60.0747v-12.6294c-10.9227-1.7066-15.36-7.1679-21.1627-16.0426zm159.061-91.4772c0-14.6773 0-24.9173 15.0187-27.648v-12.6293h-76.4586v12.6293c15.0186 2.7307 15.0186 12.9707 15.0186 27.648v163.1572c0 14.6773 0 24.9173-15.0186 27.6479v12.6294h76.4586v-12.6294c-15.0187-2.7306-15.0187-12.9706-15.0187-27.6479zm53.3173 203.4345h197.6318v-51.5413h-17.0666c-3.072 17.7493-12.288 22.1866-29.0133 22.1866h-90.1119v-92.8425h59.7332c12.9707 0 24.2347 1.7066 25.9413 17.0666h17.0667v-63.4879h-17.0667c-1.7066 15.3599-12.9706 17.0666-25.9413 17.0666h-59.7332v-62.8053h81.9199c18.0906-.3413 23.552.3414 27.9893 19.7974h17.0666v-49.152h-188.4158v12.6293c15.0187 2.7307 15.0187 12.9707 15.0187 27.648v163.1572c0 14.6773 0 24.9173-15.0187 27.6479zm219.477-57.6853c27.9893 43.3493 55.6373 62.8053 109.9092 62.8053 49.152 0 105.4719-23.2107 105.4719-79.872 0-98.6452-156.3305-61.7812-156.3305-113.6639 0-24.9173 30.0373-29.0133 49.4933-29.0133 18.7733 0 53.248 6.4854 53.248 30.72 0 4.096-1.024 6.8267-3.072 10.24l11.6053 7.8507 38.912-34.1333c-24.576-32.0853-61.0987-46.08-100.6933-46.08-44.0319 0-95.9146 18.0907-95.9146 70.3146 0 92.1599 153.5999 46.7626 153.5999 111.2746 0 29.0133-33.792 40.9599-58.0266 40.9599-21.1627 0-55.296-10.5813-55.296-37.2053 0-6.8266 3.4134-12.9706 7.8507-17.7493l-10.5813-10.24z" aria-label="ZN SERIES" font-family="'ITC Korinna'" font-size="341.333" paint-order="stroke fill markers" style="-inkscape-font-specification:'ITC Korinna'"/>
</svg>