<svg xmlns="http://www.w3.org/2000/svg" viewBox="0 0 5592 1024">
  <path fill="#0c4da2" d="M3767.875 34.0625c-166.6776 0-315.3087 71.988637-411.9375 184.406247-28.5276-36.63982-63.401-75.12648-101.5-102.21875-79.963-59.6946-183.6385-77.860294-294.4375-80.843747-187.5745-5.050763-337.5982 96.283867-406.6875 210.218747-58.3612-116.43853-110.7186-177.24222-313.7813-187.34375h-492.0803l.1116 205.09375s23.4011 7.47335 31.3125 16.15625c6.6004 7.24407 11 27.25 11 27.25l-1.1562 456.5s-12.8696-9.33294-18-15.3125c-9.5491-11.12871-23.0938-37.4375-23.0938-37.4375L1495.5 58.062497l-319.6875.21875-277.7813 726.1875v-155.4375H698.125c-15.7424 43.40396-59.9402 72.71875-113.25 72.71875-28.0932 0-58.13-6.62565-82.4688-21.25-31.7176-19.0581-55.4185-41.69206-74.9375-81.90625-15.3567-37.21359-27.109-82.77963-28.4687-123.09375 4.6791-79.72921 28.9019-108.14789 73.25-141.03125 9.8313-7.28971 37.2996-13.1189 45.2187-13.15625 17.4221-.0822 31.9427 10.48615 39.8125 26.0625 11.4471 22.65651-5.3079 50.1006-21.875 69.625l161.625 111.34375 249.625-261.1875C859.5703 128.358767 700.4361 35.4375 518.5625 35.4375 243.2091 35.4375 20 248.426527 20 511.156247c0 262.72972 216.0662 461.41517 498.5625 482.84377l35.7187 1.4375h380v-.1875H1819v-.062l332.625-.4688v-.5312h52.0312v-195.43752s-27.8733-5.81326-39.3437-13.625c-12.0454-8.20329-13.1875-21.125-13.1875-21.125-.2158-4.98391.7879-8.80271 3.4062-12.0625 2.5668-3.19557 8.5725-5.36854 10.8438-5.84375 34.3492-7.18693 69.3766-17.0151 104.4375-29.625 93.5498-33.64584 172.271-81.51341 228.1563-134.40625 37.3957 220.94624 231.5684 382.17352 466.3124 409.09372 15.3291 1.758 28.5364 3.0874 42.875 3.5938 3.8075.1344 11.4376-.1563 11.4376-.1563h332l-1.0102-163.37655c86.3414 95.84593 254.5574 187.71955 424.3523 187.71955 138.7352 0 263.1783-60.7472 350.89-135.86529l-.7142 112.99109h419.2321l2.1429-172.86609 109.2945 1.42857v-1.90625l146.6563 1.28125v171.43752h447.125v-227.15627s-19.0914-1.22398-26.5625-6.4375c-10.1018-7.04923-20.5625-30.71875-20.5625-30.71875l-62.8437-417.34375s1.8846-27.91969 10-38.34375c6.6769-8.57661 28.5624-15.71875 28.5624-15.71875v-201.4375h-445.7187v5.71875L4700 169.719247l-45.2188-106.40625v-5.03125h-2.125l-1.2187-2.84375-.094 2.84375h-430.0938v211.4375l-29.375-40C4111.1912 112.089827 3969.5658 34.0625 3808.2812 34.0625c-6.576 0-13.1167.118185-19.625.375-6.8966-.248953-13.819-.375-20.7812-.375zM892.5 825.781247l-.031 2.0625h-1.875c.6407-.68471 1.27-1.37525 1.9062-2.0625z"/>
  <path fill="#ffcb08" d="M518.2292 124.821137c-226.9823 1.42857-412.3662 166.7661-412.3662 383.05133s204.6469 402.07109 452.3662 396.47808l240.7127.6783v-189.50724h-45.4634c-14.2837 35.73115-80.9968 70.68064-129.3669 70.68064-25.4902 0-89.6606-3.46506-113.3988-11.7792-41.9106-14.67892-101.712-35.75045-153.7082-123.14142-13.9338-30.6351-53.1686-105.28898-44.4023-214.19078 4.2456-65.63495 45.9366-147.56776 120.7486-184.67165 32.6212-16.17886 65.4607-18.83348 123.1208-13.60101 41.3957 3.75653 82.5276 32.86328 96.8886 67.79717 11.107 27.01833 7.9153 59.94169-5.16 78.69532-.9328 1.33796-.9528 2.52293-.7595 3.80017.1471.97218 1.408 2.592 1.408 2.592l22.7845 17.79932s6.4866 4.50696 14.0636 4.30516c4.4004-.11719 12.2667-4.89104 12.2667-4.89104l130.1212-136.55317c-80.4452-108.54703-223.4056-147.54198-309.8556-147.54198zM3770 121.15625c-240.6384 0-435.7188 181.00042-435.7188 404.28125S3529.3616 929.71875 3770 929.71875s435.7188-181.00042 435.7188-404.28125S4010.6384 121.15625 3770 121.15625zm2.8438 125.6875c123.8694 0 190.2581 88.64355 217.1696 194.30357 7.7034 30.245 4.5802 130.80895-.01 164.29464C3976.0095 707.55415 3892.545 807.06375 3771.4364 804c-118.0174-2.98555-196.9617-57.93034-221.4242-205.70089-7.1559-43.22671-7.2805-95.15491-1.4508-138.58036 16.9036-125.91479 100.4117-212.875 224.2813-212.875zM1235.625 146.25S1044.2857 663.99554 1010 758.28125c-34.28571 94.28572-72.84375 91.4375-72.84375 91.4375L940 906.84375l231.25-.0625.1875-54.875s-14.838-.76195-25.7187-10.75c-21.1033-19.37177-7.75-58.34375-7.75-58.34375l53.4687-136.78125 237.4687.5s46.2886 115.5722 57.625 153.71875c14.7908 49.76976-31.4062 50.65625-31.4062 50.65625v55.78125l292.4375-.15625-.1875-55.15625s-17.4155-2.65648-35.9375-18.8125c-21.0102-18.32633-35.3125-56.125-35.3125-56.125l-239.5-629.65625-201-.53125zm68.6562 159.1875 79.2813 220.71875-153.5625.6875 74.2812-221.40625zm536.7188-160-1.125 63.46875s18.5873 5.32601 36.375 25.0625c9.4309 10.4641 3.5938 143.28125 3.5938 143.28125l-.3126 425.15625s6.0586 16.7572-14.2812 33.59375c-7.6779 6.35547-14.4784 13.09219-26.3438 14.125l-1.4062 56.5625 271.0312.65625.6563-57.53125s-9.5873-3.78169-24.625-17.34375c-8.488-7.65511-13.7169-18.67175-13.5937-29.65625.2278-38.40715 1.1259-75.31081.9374-112.8125 94.9385-22.86724 176.8968-61.6423 208.8438-73.40625 120.0869-47.918 213.2691-123.99838 207.8125-259.71875-1.0305-96.15561-49.8021-174.97063-154.2813-192.78125-47.6269-13.76116-69.4926-16.16571-88.2812-17.21875l-405-1.4375zm309.9688 107.79219c29.2343-.56143 63.6671 6.13685 90.1758 19.48827 33.0369 21.93314 53.1366 44.65398 53.1366 92.71954 1.3623 22.59657-5.1304 42.02538-16 61.78125-11.318 18.89081-45.5547 55.15612-67.1726 75.90229-63.2001 45.18182-85.8164 58.42722-136.0234 81.53802l-.804-322.09656c26.7572-5.04664 50.758-9.16086 76.6876-9.33281zm835.78578-127.903473c-226.9823 1.42857-412.3662 166.7661-412.3662 383.05133s204.6469 402.07109 452.3662 396.47808l240.7127.6783v-189.50724h-45.4634c-14.2837 35.73115-80.9968 70.68064-129.3669 70.68064-25.4902 0-89.6606-3.46506-113.3988-11.7792-41.9106-14.67892-101.712-35.75045-153.7082-123.14142-13.9338-30.6351-53.1686-105.28898-44.4023-214.19078 4.2456-65.63495 45.9366-147.56776 120.7486-184.67165 32.6212-16.17886 65.4607-18.83348 123.1208-13.60101 41.3957 3.75653 82.5276 32.86328 96.8886 67.79717 11.107 27.01833 7.9153 59.94169-5.16 78.69532-.9328 1.33796-.9528 2.52293-.7595 3.80017.1471.97218 1.408 2.592 1.408 2.592l22.7845 17.79932s6.4866 4.50696 14.0636 4.30516c4.4004-.11719 12.2667-4.89104 12.2667-4.89104l130.1212-136.55317c-80.4452-108.54703-223.4056-147.54198-309.8556-147.54198zM4314.625 146.9375l.25 54.53125s23.8448 6.41919 33.3125 13.90625c10.8238 8.55957 8.0937 23.75 8.0937 23.75s-86.497 537.5233-88.375 547.5c-2.0203 10.73288-4.8812 35.80842-19.9687 49.75-15.0022 13.86285-32.3125 16.65625-32.3125 16.65625l-.25 53.78125h242.1875v-50.25s-19.7118-1.52427-32.8437-14.65625c-13.132-13.13198-9.3438-49.21875-9.3438-49.21875l59.5938-406.09375 121.2187 349.5 147.6563 2.03125 119.9374-376.375 66.9376 432.9375s8.0739 32.54659-9.3438 49.25c-13.404 12.85426-32.8125 14.65625-32.8125 14.65625v50.25h280.5625l-.25-53.78125s-6.2803 2.15034-22.2188-10.625c-9.3731-7.51301-13.8859-41.01712-15.9062-51.75-1.8779-9.9767-77.4688-550.84375-77.4688-550.84375s-1.3149-22.33329 10.9376-33.75c8.8308-8.22857 26.9062-16.03125 26.9062-16.03125l-.4375-44.53125-291.2813-.34375-106.5937 307.03125-101.6563-307.03125-276.5312-.25z"/>
</svg>