<svg width="270.085" height="143.766" viewBox="0 0 71.46 38.038" xml:space="preserve" xmlns="http://www.w3.org/2000/svg">
	<path style="fill:#fff;stroke-width:.264583" d="M72.308 142.81c-2.19-1.374-4.118-3.039-4.079-3.522.012-.153 1.458-1.587 3.214-3.188 1.755-1.6 6.208-5.738 9.897-9.194l6.705-6.284h4.832l4.831.002 2.447 2.27 2.448 2.27v1.808h-5.186l-.579-1.19-.578-1.191h-6.862l-.51 1.124c-.28.619-1.238 2.627-2.129 4.462-.89 1.835-1.619 3.474-1.619 3.642v.305l7.872-.07 7.871-.07.082-.993.082-.992 4.548.01 4.548.011 3.933 3.765 3.932 3.765-1.154 1.057c-.635.58-2.063 1.62-3.175 2.31l-2.02 1.253-18.617-.016-18.617-.016zm43.927-2.615.766-.8-.783-.757c-.43-.416-2.132-2.02-3.78-3.566l-2.998-2.808h-3.948c-2.17 0-3.947.064-3.947.143 0 .078.24.614.534 1.19l.535 1.048H83.333l1.444-2.712a368.907 368.907 0 0 0 2.949-5.688l1.505-2.977h7.166l.499.926.499.926h4.269l-1.972-1.984-1.97-1.985-4.77.001-4.769.001-9.584 9.022-9.584 9.022.686.899.685.9h45.082zm-45.802-.56-.186-.3 3.147-3.067a2830.36 2830.36 0 0 0 8.991-8.827l5.844-5.76h9.322l1.534 1.445 1.533 1.446-1.398.01-1.397.01-.547-.926-.546-.926-3.877.006-3.876.006-3.44 6.095c-1.892 3.352-3.479 6.207-3.528 6.344l-.088.25h11.003c6.05 0 11.002-.057 11.002-.127 0-.069-.238-.515-.528-.992-.29-.476-.529-.955-.53-1.065 0-.109 1.398-.195 3.108-.192l3.11.006 3.4 3.235c1.87 1.78 3.308 3.324 3.196 3.433-.111.11-10.296.199-22.633.199H70.62Z" transform="translate(-58.798 -120.622)" />
	<g aria-label="CINEMATRONICS INCORPORATED" >
		<path style="fill:#fff;" d="M74.195 126.771q0-.652-.379-1.15-.379-.502-1.163-.528-.727.013-1.12.63-.391.612-.396 1.66-.008.961.344 1.627.357.665 1.207.692.406-.014.64-.141.237-.133.308-.22.136-.124.304-.433.172-.312.185-.81h.938q-.013.722-.224 1.172-.212.45-.437.656-.198.225-.678.432-.48.207-1.34.225-.925-.018-1.463-.265-.537-.25-.832-.572-.318-.296-.604-.873t-.304-1.463q.004-1.277.798-2.212.797-.938 2.348-.982.621.009 1.027.18.41.172.727.415l.172-.485h.81v2.445zM78.31 125.688v3.445q-.03.34.115.432.146.088.807.075v.77h-3.547v-.77h.506q.225-.004.322-.084.097-.084.092-.198v-3.904q0-.119-.105-.194-.106-.075-.291-.08h-.524v-.783h3.547v.784q-.609-.018-.776.062-.167.079-.145.445zM79.593 124.396h2.886l2.322 4.23v-3.146q0-.119-.101-.207-.097-.088-.278-.092h-.524v-.784h2.732v.784h-.406q-.216 0-.322.088-.1.088-.1.238v4.904h-1.834l-2.48-4.49v3.384q-.005.145.092.238.097.092.375.097h.427v.77h-2.79v-.77h.45q.251-.004.344-.093.097-.092.092-.198v-3.833q0-.15-.092-.238-.093-.093-.295-.097h-.498zM86.938 124.396h5.966v2.292h-.789q-.075-.498-.145-.75-.066-.25-.278-.458-.158-.154-.4-.224-.243-.075-.53-.075h-1.25v1.731q.435 0 .594-.044.163-.048.225-.127.088-.075.132-.243.048-.172.048-.55h.75v2.744h-.75q0-.282-.044-.51-.04-.23-.136-.331-.084-.093-.251-.123-.163-.031-.569-.027v1.939h1.062q.837.009 1.154-.392.318-.406.388-1.305h.789v2.468h-5.966v-.771q.493 0 .63-.018.141-.022.172-.075.035-.035.062-.092.03-.057.03-.097v-3.895q.005-.106-.092-.19-.097-.088-.317-.092h-.485zM96.83 124.405l1.062 3.737 1.092-3.737h3.133v.785q-.564-.014-.722.066-.155.075-.137.379v3.573q-.018.286.137.366.158.075.722.066v.77h-3.141v-.77q.471 0 .603-.062.137-.066.12-.211v-4.023l-1.508 5.067h-1.22l-1.459-5.111v3.868q-.017.282.106.384.124.097.626.088v.77H93.67v-.77q.502.004.678-.049.18-.053.168-.224v-3.887q-.005-.136-.11-.211-.102-.08-.27-.08h-.466v-.784zM106.44 124.396q.414 1.283.696 2.212.286.93.471 1.538t.313.943q.128.335.225.432.053.066.185.092.137.027.52.027v.77h-3.322v-.77q.484.009.643-.027.163-.035.15-.198-.01-.132-.11-.432-.102-.304-.159-.498h-1.74q-.08.23-.172.52-.093.291-.102.419-.009.163.163.194.172.03.622.022v.77H102.2v-.77q.344 0 .49-.035.144-.04.184-.093.084-.097.207-.445.128-.348.33-.965l.503-1.542q.304-.925.74-2.163zm-1.869 3.305h1.23l-.608-1.925zM108.93 124.396h5.864v2.327h-.802q-.01-.639-.137-.899t-.242-.344q-.11-.123-.308-.198-.199-.08-.613-.084v3.755q-.03.484.12.599.153.114.845.097v.762h-3.582v-.754q.6.004.784-.061.19-.066.172-.273v-4.125q-.595-.017-.939.304-.343.322-.352 1.22h-.81zM119.385 124.396q1.066.027 1.498.472.436.445.419 1.018-.022.652-.436.965-.41.313-.965.405.647.106.872.41.225.304.212 1.088-.01.516.03.732.045.211.22.207.199.004.265-.207.066-.216.053-.732h.604q-.004.762-.115 1.067-.11.304-.255.423-.106.123-.327.224-.22.102-.7.115-.419-.01-.687-.11-.27-.097-.397-.23-.282-.29-.335-.722-.048-.436-.035-1.11 0-.234-.04-.37-.04-.142-.097-.199-.092-.088-.26-.128-.163-.044-.326-.044h-.855v1.635q-.004.145.093.238.097.092.374.097h.415v.77h-3.455v-.77h.467q.251-.01.34-.102.092-.092.088-.189v-3.869q.004-.11-.089-.202-.088-.093-.308-.097h-.498v-.785zm-1.657.785v1.705h.846q.564-.004.776-.22.216-.216.207-.617.009-.38-.203-.617-.207-.242-.727-.251zM125.902 124.216q1.661.022 2.511.894.85.873.855 2.31.013 1.312-.797 2.215-.811.904-2.6.948-1.754-.044-2.564-.96-.807-.917-.798-2.23-.013-1.278.793-2.203.807-.93 2.6-.974zm-1.445 3.194q-.014 1.133.308 1.745.326.613 1.12.621.383-.009.598-.123.22-.119.34-.247.26-.255.374-.736.12-.48.12-1.295-.01-1.035-.173-1.44-.163-.41-.343-.547-.088-.101-.304-.22-.216-.124-.613-.133-.361.01-.586.128-.22.115-.3.207-.18.141-.356.564-.172.423-.185 1.476zM129.735 124.396h2.886l2.322 4.23v-3.146q0-.119-.101-.207-.097-.088-.278-.092h-.524v-.784h2.732v.784h-.405q-.216 0-.322.088-.101.088-.101.238v4.904h-1.833l-2.481-4.49v3.384q-.004.145.092.238.097.092.375.097h.427v.77h-2.789v-.77h.45q.25-.004.343-.093.097-.092.093-.198v-3.833q0-.15-.093-.238-.092-.093-.295-.097h-.498zM139.733 125.688v3.445q-.03.34.114.432.146.088.807.075v.77h-3.547v-.77h.507q.224-.004.321-.084.097-.084.093-.198v-3.904q0-.119-.106-.194-.106-.075-.29-.08h-.525v-.783h3.547v.784q-.608-.018-.776.062-.167.079-.145.445zM146.166 126.771q0-.652-.379-1.15-.379-.502-1.163-.528-.727.013-1.12.63-.392.612-.396 1.66-.009.961.344 1.627.357.665 1.207.692.405-.014.639-.141.238-.133.308-.22.137-.124.304-.433.172-.312.185-.81h.939q-.013.722-.225 1.172-.211.45-.436.656-.198.225-.679.432-.48.207-1.339.225-.925-.018-1.463-.265-.537-.25-.833-.572-.317-.296-.603-.873-.287-.577-.304-1.463.004-1.277.797-2.212.798-.938 2.349-.982.621.009 1.026.18.41.172.727.415l.172-.485h.81v2.445zM152.114 126.533q-.04-.524-.45-.96-.405-.436-1.356-.463-.516.013-.74.23-.22.215-.216.484 0 .097.04.194.039.097.096.154.225.19.815.295.59.106 1.27.291.682.185 1.171.626.49.44.516 1.317.004.763-.63 1.309-.63.542-1.926.573-.445-.004-1.013-.141-.564-.137-.881-.388l-.243.436h-.722v-2.348h.81q.049.595.516 1.08.467.48 1.353.506.572-.009.837-.212.269-.207.264-.506 0-.124-.048-.243-.044-.123-.124-.202-.25-.216-.841-.33-.59-.12-1.247-.3-.652-.181-1.124-.578-.467-.396-.484-1.185.013-.934.665-1.419.656-.489 1.806-.493.719.009 1.142.167.427.159.652.34l.172-.423h.749v2.19z" transform="matrix(.84992 0 0 1.17659 -58.798 -120.622)" />
		<path style="fill:#fff;" d="M14.74 34.593v2.425q-.017.239.06.304.078.062.428.053v.542h-1.882v-.542h.269q.12-.004.17-.06.052-.058.05-.139V34.43q0-.084-.056-.136-.056-.053-.155-.056h-.278v-.552h1.882v.552q-.322-.013-.411.043-.089.056-.077.313zM15.42 33.685h1.532l1.232 2.976v-2.213q0-.084-.054-.146-.051-.062-.147-.065h-.278v-.552h1.45v.552h-.216q-.114 0-.17.062-.054.062-.054.167v3.451h-.973l-1.316-3.16v2.382q-.003.102.049.167.051.065.198.069h.227v.542h-1.48v-.542h.239q.133-.004.182-.065.051-.066.05-.14v-2.698q0-.105-.05-.167-.05-.065-.157-.068h-.264ZM22.051 35.356q0-.459-.2-.81-.202-.353-.618-.371-.386.009-.594.443-.208.431-.21 1.169-.005.676.182 1.144.19.468.64.487.216-.01.34-.1.126-.092.163-.154.073-.087.162-.304.09-.22.098-.57h.498q-.007.508-.12.824-.112.316-.23.462-.106.158-.361.304t-.71.158q-.492-.012-.777-.186-.285-.177-.442-.403-.168-.208-.32-.614t-.162-1.03q.003-.899.424-1.556.423-.66 1.246-.691.33.005.545.127.217.12.385.291l.092-.34h.43v1.72zM24.7 33.558q.882.015 1.333.63.451.613.454 1.624.007.924-.423 1.56-.43.635-1.38.666-.93-.03-1.36-.676-.429-.645-.424-1.569-.007-.899.42-1.55.429-.654 1.38-.685zm-.767 2.248q-.007.796.164 1.227.173.431.594.438.203-.006.318-.087.117-.084.18-.174.138-.18.199-.518.063-.338.063-.911-.005-.729-.091-1.014-.087-.288-.183-.385-.046-.07-.16-.155-.116-.086-.326-.093-.192.006-.31.09-.118.08-.16.146-.096.1-.19.397-.09.298-.098 1.039zM28.98 33.685q.565.018.794.332.232.313.222.716-.011.459-.231.679-.217.22-.512.285.344.074.463.288.12.214.112.766-.004.363.016.515.024.149.117.146.106.003.14-.146.036-.152.029-.515h.32q-.003.537-.06.75-.06.215-.136.298-.056.087-.173.158-.117.072-.372.081-.222-.006-.365-.077-.143-.069-.21-.162-.15-.204-.178-.508-.026-.307-.019-.782 0-.164-.02-.26-.022-.1-.052-.14-.05-.062-.138-.09-.087-.03-.173-.03H28.1v1.15q-.002.102.05.167.05.065.198.068h.22v.543h-1.833v-.543h.248q.133-.005.18-.07.049-.066.046-.134v-2.722q.003-.078-.046-.143-.047-.065-.164-.068h-.264v-.552zm-.88.552v1.2h.45q.298-.004.41-.155.115-.152.11-.434.005-.267-.107-.435-.11-.17-.386-.176zM32.648 33.685q.606.006.881.325.276.317.272.875.004.536-.27.859-.27.319-.883.328h-.718v1.067q-.004.09.042.161.047.071.21.074h.274v.543h-1.891v-.543h.247q.13-.003.178-.068.052-.065.05-.136v-2.716q0-.093-.054-.152-.052-.062-.152-.065h-.27v-.552zm-.718.552v1.283h.386q.309-.003.432-.176.124-.177.12-.496-.003-.314-.143-.462-.14-.15-.397-.15zM35.924 33.558q.881.015 1.333.63.45.613.453 1.624.007.924-.423 1.56-.43.635-1.38.666-.93-.03-1.36-.676-.428-.645-.424-1.569-.007-.899.421-1.55.428-.654 1.38-.685zm-.767 2.248q-.007.796.164 1.227.173.431.593.438.204-.006.318-.087.117-.084.18-.174.138-.18.2-.518t.062-.911q-.004-.729-.09-1.014-.087-.288-.183-.385-.047-.07-.162-.155-.114-.086-.325-.093-.191.006-.31.09-.117.08-.16.146-.095.1-.189.397-.091.298-.098 1.039zM40.203 33.685q.566.018.795.332.231.313.222.716-.012.459-.232.679-.217.22-.512.285.344.074.463.288.12.214.112.766-.004.363.017.515.023.149.117.146.105.003.14-.146.035-.152.028-.515h.32q-.002.537-.06.75-.059.215-.136.298-.056.087-.173.158-.117.072-.372.081-.222-.006-.365-.077-.142-.069-.21-.162-.15-.204-.178-.508-.025-.307-.018-.782 0-.164-.021-.26-.021-.1-.052-.14-.049-.062-.138-.09-.086-.03-.173-.03h-.453v1.15q-.003.102.049.167.051.065.198.068h.22v.543h-1.833v-.543h.248q.133-.005.18-.07.05-.066.047-.134v-2.722q.002-.078-.047-.143-.047-.065-.164-.068h-.264v-.552zm-.88.552v1.2h.45q.299-.004.411-.155.115-.152.11-.434.004-.267-.108-.435-.11-.17-.385-.176zM43.9 33.685q.22.902.369 1.556l.25 1.082q.098.428.166.664.068.236.12.304.027.046.097.065.073.019.276.019v.542h-1.763v-.542q.258.005.342-.02.086-.024.08-.139-.005-.093-.06-.304-.053-.213-.083-.35h-.924q-.042.161-.091.366-.05.205-.054.295-.004.114.087.136.09.022.33.015v.543H41.65v-.543q.182 0 .26-.024.077-.028.098-.065.044-.069.11-.313.067-.245.175-.68l.267-1.085q.16-.65.392-1.522zm-.992 2.325h.652l-.322-1.355zM45.22 33.685h3.113v1.637h-.426q-.004-.45-.072-.633-.068-.183-.13-.241-.058-.087-.163-.14-.105-.056-.325-.059v2.642q-.016.34.063.421.082.081.45.069v.536h-1.902v-.53q.318.003.417-.044.1-.046.09-.192V34.25q-.315-.012-.497.214-.183.226-.187.859h-.43zM48.524 33.685h3.166v1.612h-.418q-.04-.35-.077-.527-.036-.177-.148-.322-.084-.109-.213-.159-.128-.052-.28-.052h-.664v1.218q.231 0 .315-.03.087-.035.12-.09.046-.053.07-.171.026-.121.026-.388h.397v1.932h-.397q0-.199-.024-.36-.02-.161-.072-.232-.045-.065-.134-.087-.086-.022-.301-.019v1.364h.563q.445.006.613-.276.168-.285.206-.917h.418v1.736h-3.166v-.543q.262 0 .335-.012.075-.016.09-.053.02-.025.034-.065.016-.04.016-.068v-2.74q.003-.075-.05-.134-.05-.062-.167-.065h-.258zM53.949 33.685q.842.006 1.279.555.44.546.442 1.56-.01 1.078-.468 1.6-.458.517-1.246.517h-1.864v-.542h.239q.13-.004.185-.066.053-.062.051-.145v-2.716q.003-.069-.044-.137-.045-.068-.157-.074h-.274v-.552zm-.491.552v3.138h.376q.157 0 .302-.072.147-.071.246-.201.128-.168.189-.469.063-.3.063-.809-.004-.63-.084-.924-.077-.294-.178-.409-.11-.136-.243-.195-.13-.06-.245-.06z" />
	</g>    
</svg>
