<svg viewBox="0 0 46.797 16.74" xml:space="preserve" xmlns="http://www.w3.org/2000/svg">
  <path style="fill:#fff;" d="M78.57 146.995c-1.812-.926-2.434-1.786-2.576-3.56-.093-1.153-.002-1.564.513-2.32 1.157-1.703 3.127-2.648 5.526-2.651 1.484-.002 3.472.647 4.096 1.337.607.67.704.655 1.697-.272.474-.443 1.265-.854 1.814-.943 1.148-.186 1.554-.372 3.487-1.598.8-.508 1.931-1.063 2.513-1.234.582-.172 1.214-.525 1.404-.786.667-.915 1.903-.411 1.903.775 0 .81-1.114 1.37-1.723.864-.352-.292-.585-.226-1.504.424-.599.424-1.333 1.1-1.632 1.502l-.543.733.701.701.702.701.787-.842c2.01-2.153 5.676-2.13 7.68.046l.632.686.518-.658c1.489-1.893 4.857-2.41 7.182-1.104 1.526.857 1.488.85 1.487.262 0-.425.293-.452 3.52-.331 2.79.105 3.67.231 4.246.61 1.114.731 1.758 1.99 1.759 3.438.002 2.107-1.116 3.619-3.042 4.115-.647.167-5.746.276-13.136.283-10.266.009-12.1-.046-12.225-.37-.118-.308-.375-.252-1.365.301-1.712.957-3.65.802-5.163-.413l-1.065-.856-.795.67c-1.712 1.44-5.102 1.665-7.399.49zm13.974-1.038c.844-.527 1.639-1.917 1.639-2.864 0-1.025-.947-2.614-1.391-2.335-.327.205-.841.188-2.005-.066-.407-.089-.568-.267-.47-.52.189-.495-.191-.49-1.164.013-.819.423-1.231 1.02-1.605 2.325-.252.878.37 2.667 1.153 3.313 1.02.842 2.62.898 3.843.134zm-2.54-1.991c-.438-.439-.397-1.403.076-1.797.226-.187.677-.255 1.059-.16.627.158.805.552.67 1.48-.112.768-1.22 1.06-1.804.477zm-6.2 2.024c1.134-.473 2.179-1.378 2.179-1.885 0-.268-.62-.351-2.618-.351-2.621 0-3.039-.15-2.745-.992.082-.235.878-.33 2.74-.33 2.96 0 3.284-.264 1.758-1.428-2.444-1.863-6.464-1.152-7.5 1.327-1.082 2.59 2.987 4.996 6.187 3.66zm13.556-1.575c.111-1.11.225-1.336.713-1.405.528-.075.588.046.662 1.323.078 1.367.102 1.405.874 1.405.77 0 .796-.04.874-1.389.073-1.275.132-1.389.727-1.389.61 0 .648.087.648 1.474 0 1.377.039 1.468.595 1.389.519-.074.606-.264.675-1.47.123-2.134-.652-3.648-2.226-4.343-1.046-.463-1.391-.504-2.204-.26-.53.158-1.315.655-1.744 1.103-.672.701-.804 1.084-.937 2.718-.18 2.194-.132 2.359.64 2.249.476-.068.593-.302.703-1.405zm9.525 1.059c0-.595 4.107-.579 4.335.017.11.285.427.388 1.02.33l.863-.083-.047-1.656c-.058-2.106-.73-3.255-2.363-4.046-2.035-.985-3.965-.406-5.33 1.599-.463.68-.595 1.248-.595 2.555v1.68h1.059c.764 0 1.058-.11 1.058-.396zm0-2.335c0-1.272 1.833-2.163 3.295-1.602.428.164 1.203 1.414 1.203 1.94 0 .171-.855.277-2.25.277-2.177 0-2.248-.02-2.248-.615zm13.757 1.634c1.159-1.159 1.12-2.6-.105-3.824-.89-.89-.921-.9-3.307-.9h-2.408v2.735c0 1.504.05 2.783.11 2.844.06.06 1.19.072 2.511.026 2.267-.08 2.449-.13 3.199-.88zm-4.232-1.959v-.94l1.362.08c1.437.085 2.04.561 1.731 1.367-.126.329-.519.433-1.63.433h-1.463zm-23.718-2.83c.222-.868 1.667-2.516 2.875-3.279 1.322-.834 1.153-1.05-.357-.454-2.378.937-4.2 2.628-4.2 3.896 0 .72 1.494.574 1.682-.163zm5.483-4.697c.134 0 .243-.127.243-.283 0-.41-1.126-.182-1.272.26-.086.261.013.32.332.198.25-.096.564-.175.697-.175z" transform="translate(-75.962 -134.497)"/>
</svg>
