<svg xmlns="http://www.w3.org/2000/svg" viewBox="0 0 350 116">
  <g fill="#f91b20">
    <path d="M9.9478.2476c-.169 0-.332.02-.501.0206H.5972V16.179l6.8642-.014c23.1036 0 41.834 18.7304 41.834 41.834 0 23.044-18.6356 41.7314-41.6572 41.8272l-7.041.008v15.9184h9.5938v-.01c31.7812-.1328 57.5068-25.9318 57.5068-57.7442 0-31.8936-25.8564-57.75-57.75-57.75z"/>
    <path d="M42.3872 57.9986c0-19.8526-16.0946-35.9472-35.9472-35.9472-.1064 0-5.8214.012-5.8214.012v71.8828l5.9728-.006c19.7832-.084 35.7958-16.1406 35.7958-35.9424zm49.6466 2.4834c1.2772 18.6386 16.7256 33.3788 35.6708 33.459l5.9726.006V60.4822H92.0338zm41.6434-5V22.064s-5.7148-.012-5.8212-.012c-19.003 0-34.5234 14.7568-35.8204 33.4306h41.6416z"/>
    <path d="M124.3482.2476c.169 0 .332.02.501.0206h8.8496V16.179l-6.8642-.014c-23.1036 0-41.834 18.7304-41.834 41.834 0 23.044 18.6356 41.7314 41.6572 41.8272l7.041.008v15.9184h-9.5938v-.01c-31.7812-.1328-57.5068-25.9318-57.5068-57.7442 0-31.8936 25.8564-57.75 57.75-57.75z"/>
  </g>
  <path fill="red" d="M314.88543 41.590881h6.15234c3.97135 0 6.65364.18229 8.04687.54688 1.40625.36458 2.47396.96354 3.20313 1.79687.72917.83333 1.1849 1.76432 1.36719 2.79297.18229 1.01563.27343 3.02084.27343 6.01563v11.07422c0 2.83854-.13672 4.73958-.41015 5.70312-.26042.95052-.72266 1.69922-1.38672 2.24609-.66406.53386-1.48437.91147-2.46094 1.13282-.97656.20833-2.44791.3125-4.41406.3125h-10.37109zm8.98244 5.41016v20.80078c1.1849 0 1.15428-.23437 1.42771-.70312.27344-.48177.41016-1.77735.41016-3.88672v-12.28516c0-1.43229-.0456-2.35026-.13672-2.75391-.0912-.40364-.29948-.69661-.625-.8789-.32552-.19531-.17771-.29297-1.07615-.29297zm13.12693-5.41016h13.71094v7.04672h-5.48828l-.0001 1.39639h5.51624l.0001 13.13095h-5.51624v1.56312h6.03515v8.48392H336.9948Zm35.82031 15.2267h-8.22265v-6.94545c0-1.60156-.0911-2.59765-.27344-2.98828-.16927-.40365-.24323-.60547-.84218-.60547-.67709 0-1.10678.24089-1.28907.72266-.18229.48177-.27343 1.52344-.27343 3.125v14.6875c0 1.53646.0911 2.53906.27343 3.00781.18229.46875.59245.70313 1.23047.70313.61198 0 .69896-.23438.88125-.70313.19531-.46875.29297-1.56901.29297-3.30078v-5.4025h8.22265v2.66813c0 3.26823-.23437 5.58593-.70312 6.95312-.45573 1.36719-1.47787 2.5651-3.06641 3.59375-1.57552 1.02865-3.52213 1.54297-5.83984 1.54297-2.40885 0-4.39453-.4362-5.95703-1.30859-1.5625-.8724-2.59766-2.07683-3.10547-3.61329-.50781-1.54947-.76172-3.87369-.76172-6.97265v-9.23828c0-2.27865.0781-3.98438.23437-5.11719.15625-1.14583.61849-2.24609 1.38672-3.30078.78125-1.05469 1.85547-1.88151 3.22266-2.48047 1.38021-.61198 2.96224-.91797 4.74609-.91797 2.42188 0 4.42058.46875 5.9961 1.40625s2.61068 2.10938 3.10547 3.51563c.49479 1.39323.74218 3.5677.74218 6.52343zm21.73828 3.28893q0 4.76562-.23437 6.75781-.21484 1.97266-1.40625 3.61328-1.17188 1.64063-3.18359 2.51953-2.01172.87891-4.6875.87891-2.53907 0-4.57032-.82031-2.01172-.83985-3.24218-2.5-1.23047-1.66016-1.46485-3.61328-.23437-1.95313-.23437-6.83594v-5.41016q0-4.76562.21484-6.73828.23438-1.99219 1.40625-3.63281 1.19141-1.64063 3.20313-2.51953 2.01171-.87891 4.6875-.87891 2.53906 0 4.55078.83984 2.03125.82032 3.26172 2.48047 1.23046 1.66016 1.46484 3.61328.23437 1.95313.23437 6.83594zm-8.22265-10.39063q0-2.20703-.25391-2.8125-.23437-.625-.99609-.625-.64453 0-.9961.50782-.33203.48828-.33203 2.92968v14.76563q0 2.7539.21485 3.39844.23437.64453 1.05468.64453.83985 0 1.07422-.74219.23438-.74219.23438-3.53516z" aria-label="DECO" font-family="Impact" font-size="40" style="line-height:1.25;-inkscape-font-specification:Impact;white-space:pre;shape-inside:url(#a)" transform="matrix(1.31643 0 0 1.39145 -218.46357 -55.970573)"/>
  <g fill="#008ccf" aria-label="CASSETTE SYSTEM" color="#000" font-family="Sitka Small" font-size="40" style="-inkscape-font-specification:'Sitka Small'">
    <path d="M164.09092 72.909091V75.6q-.8.654545-1.85454 1.363636-1.05455.690909-2.29091 1.272728-1.21818.581818-2.61818.945454-1.38182.381818-2.85455.381818-2.94545 0-5.38182-.909091-2.41818-.90909-4.14545-2.654545-1.72728-1.745455-2.67273-4.290909-.94545-2.563636-.94545-5.854546 0-3.163636.98181-5.70909.98182-2.563637 2.74546-4.363637 1.76363-1.8 4.18182-2.763636 2.43636-.981818 5.30909-.981818 1.03636 0 2.27272.145454 1.23637.127273 2.47273.345455 1.23637.2 2.36364.436363 1.12727.218182 1.94545.4v6.909091h-2.47272l-.56364-3.890909q-.0364-.254545-.32727-.454545-.29091-.218182-.50909-.327273-.61819-.290909-1.23637-.509091-.6-.218182-1.25454-.363636-.63637-.145455-1.32728-.2-.69091-.07273-1.47272-.07273-1.94546 0-3.56364.654546-1.6.636364-2.74545 1.945454-1.14546 1.309091-1.78182 3.29091-.63637 1.98182-.63637 4.654547 0 5.690909 2.52728 8.618182 2.54545 2.909091 7.34545 2.909091 1.30909 0 2.41818-.4 1.12728-.418182 2.05455-.981818.92727-.581819 1.65454-1.2.74546-.618182 1.27273-1.036364z" style="-inkscape-font-specification:'Sitka Small';-inkscape-stroke:none"/>
    <path fill="#fff" d="M154.54492 51.537109c-1.97211 0-3.80866.337569-5.49609 1.017578-1.6717.666544-3.12769 1.627839-4.35156 2.876954-1.22635 1.251627-2.17914 2.769188-2.85547 4.535156-.67913 1.761418-1.01368 3.728562-1.01368 5.888672 0 2.241819.32028 4.253089.97461 6.027343h.002c.65191 1.755166 1.58024 3.251158 2.78515 4.46875 1.20305 1.215709 2.65015 2.142133 4.32422 2.771485h.002c1.68607.629131 3.54156.941406 5.55664.941406 1.0223 0 2.01769-.133162 2.98046-.398437l.008-.002c.95814-.249373 1.85745-.573689 2.69726-.974609l.002-.002c.84272-.39671 1.62618-.830721 2.34961-1.304688l.004-.002.002-.002c.71356-.479808 1.3444-.944068 1.89258-1.392578l.1836-.148437v-3.429688h-1.78321l-.13672.109375c-.35561.282038-.78233.629236-1.28125 1.042969l-.004.002-.002.002c-.46228.392932-.99198.778789-1.58985 1.154297-.00047.000289-.001-.000289-.002 0-.002.001-.002.0029-.004.0039-.5856.355418-1.23827.665953-1.95898.933594-.68034.245366-1.42625.371094-2.24805.371094-3.09899 0-5.37435-.916105-6.96875-2.738282-1.57906-1.830193-2.4043-4.570405-2.4043-8.289062 0-1.742133.20904-3.243037.61329-4.501953.40733-1.268578.97012-2.300125 1.68164-3.113281.7141-.816116 1.55739-1.414675 2.55273-1.810547l.002-.002h.002c1.01421-.410245 2.1341-.617188 3.375-.617188.5057 0 .98079.02388 1.42187.07031h.012c.43785.03457.8567.09822 1.25586.189453h.002c.41626.0925.8147.208009 1.19336.345703l.002.002h.002c.39512.139456.79046.303459 1.1875.490234.00056.000263.001-.000262.002 0 .10523.05345.24787.144884.42188.275391l.01.0059.008.0059c.12034.08274.11479.110173.11524.113281l.62695 4.320312h3.4043v-7.810525l-.39178-.087891c-.54935-.12208-1.20023-.254984-1.95117-.400391l-.008-.002c-.75553-.158286-1.54682-.303756-2.37305-.4375-.8333-.147053-1.66633-.263597-2.5-.349609-.84034-.09886-1.61773-.148438-2.33203-.148438zm0 1c.66752 0 1.40671.04555 2.21485.140625l.004.002h.004c.81218.08361 1.62301.196455 2.43554.339844h.004l.004.002c.81724.132201 1.59849.275787 2.34179.431641h.004l.002.002c.59635.115423 1.0772.216793 1.54102.316406v6.001953h-1.53906l-.50196-3.46289c-.0481-.336285-.27157-.610996-.53906-.794922-.20242-.15073-.38878-.27349-.56836-.363281l-.006-.002-.006-.002c-.42531-.200142-.85013-.376405-1.27734-.527343l-.004-.002c-.42013-.152573-.85747-.279742-1.3125-.38086l.002.002c-.44933-.102703-.91508-.172777-1.39844-.210937-.47688-.04977-.98108-.07422-1.51367-.07422-1.35305 0-2.60665.228924-3.75.691406-1.13691.452642-2.12105 1.149493-2.9336 2.078125-.81576.932297-1.44167 2.094905-1.88281 3.46875-.44425 1.383508-.66016 2.985142-.66016 4.806641 0 3.867951.85885 6.872483 2.64844 8.945312h.002v.002c1.79953 2.056607 4.42165 3.080078 7.72266 3.080078.92365 0 1.78944-.141721 2.58789-.429688h.002l.002-.002c.77828-.288716 1.4925-.629477 2.14062-1.023437l.002-.002.004-.002c.63375-.397646 1.20252-.809916 1.70703-1.238281l.006-.0039c.44051-.365247.80354-.659803 1.12696-.917969h.43164v1.9375c-.48245.385749-1.01138.783949-1.63477 1.203125-.68038.445362-1.42202.856685-2.22461 1.234375l-.002.002c-.78146.373234-1.62461.677127-2.5293.91211l-.004.002h-.004c-.87726.2424-1.78209.365234-2.7207.365234-1.91219 0-3.64462-.295917-5.20704-.878906-1.54906-.582734-2.86546-1.426153-3.96484-2.53711-1.09812-1.109678-1.94991-2.474511-2.55859-4.113281-.60627-1.643923-.91407-3.533631-.91407-5.679687 0-2.057365.31776-3.89722.94727-5.529297v-.002c.63276-1.652211 1.51155-3.044989 2.63672-4.19336 1.12702-1.150259 2.45826-2.030171 4.00976-2.648437h.002c1.56104-.62908 3.2629-.945313 5.12109-.945313z" style="-inkscape-font-specification:'Sitka Small';-inkscape-stroke:none"/>
    <path d="m166.41816 77.490909 1.94545-.945454q.3091-.145455.54546-.418182.23636-.272728.34545-.563637l7.45455-18.945454 2.10909-4.4h2.47273l9.27272 23.436363q.1091.272728.3091.563637.21818.290909.4909.4l2.03637.872727V79h-9.87273v-1.509091l3.03636-1.2-2.50909-6.381818h-9.87272l-2.36364 6.272727 3.09091 1.309091V79h-8.49091zm16.65455-10.472727-3-7.327273-.65455-2.454545h-.4l-3.83636 9.781818z" style="-inkscape-font-specification:'Sitka Small';-inkscape-stroke:none"/>
    <path fill="#fff" d="M178.50391 51.71875 176.25 56.417969l-7.46289 18.966797v.0039c-.0491.130877-.13098.268011-.25586.412109-.11574.133545-.2393.226355-.38086.292969h-.002l-2.23047 1.083984V79.5h9.49023v-2.339844l-2.95312-1.251953 2.07226-5.5h9.18555l2.20313 5.601563-2.88868 1.140625V79.5h10.87305v-2.337891l-2.3457-1.005859-.006-.002c-.081-.03238-.16998-.09875-.27149-.232422-.11025-.162269-.19335-.314971-.24804-.451172l-.002-.002-9.39648-23.75zm.6289 1h1.81836l9.14844 23.121094c.0891.222722.21071.443036.36133.662109l.006.0078.006.0078c.18745.249938.42365.451882.70507.564453l1.72266.738281V78.5h-8.87305v-.669922l3.1836-1.257812-2.81641-7.164063h-10.55859l-2.6543 7.046875 3.22656 1.367188V78.5h-7.49023v-.695313l1.6582-.80664c.27058-.127326.51153-.312878.71094-.542969.19026-.219539.33917-.459796.43555-.716797l7.44531-18.919922zm-.45508 4.017578-4.22851 10.78125h9.36914l-.2832-.689453-2.98829-7.296875-.74414-2.794922zm.48829 1.494141.43164 1.621093 2.72851 6.666016h-6.41211z" style="-inkscape-font-specification:'Sitka Small';-inkscape-stroke:none"/>
    <path d="M196.25454 70.854545h2.50909l.54546 3.8q.0364.272728.32727.527273.29091.236364.49091.381818.47272.309091 1.01818.618182.54545.290909 1.16364.527273.61818.236364 1.30909.381818.70909.145455 1.49091.145455 1.4909 0 2.67272-.309091 1.2-.309091 2.01818-.890909.81819-.6 1.25455-1.436364.43636-.836364.43636-1.872727 0-1.6-.98181-2.654546-.96364-1.054545-2.61819-1.745454-.81818-.327273-1.61818-.618182-.8-.290909-1.58182-.563636-.78181-.29091-1.54545-.563637-.76364-.272727-1.49091-.581818-2.25455-.945455-3.56364-2.636364-1.29091-1.690909-1.29091-4.072727 0-1.581818.7091-2.909091.70909-1.345454 1.92727-2.309091 1.23636-.981818 2.89091-1.527272Q203.99999 52 205.90909 52q1.16363 0 2.23636.109091 1.09091.109091 2.07273.290909 1 .163636 1.92727.381818.92727.2 1.78182.381818v6.909091h-2.49091l-.54546-3.618182q-.0364-.254545-.32727-.50909-.29091-.254546-.50909-.4-.29091-.2-.67273-.4-.36363-.2-.83636-.363637-.47273-.163636-1.05455-.254545-.58181-.109091-1.29091-.109091-1.36363 0-2.43636.290909-1.05454.290909-1.78182.8-.72727.490909-1.10909 1.163636-.38182.672728-.38182 1.436364 0 .690909.18182 1.345454.18182.654546.61818 1.254546.43637.581818 1.18182 1.090909.74546.509091 1.87273.927273.74545.272727 1.47273.545454.72727.254546 1.45454.527273.74546.272727 1.50909.581818.78182.290909 1.63637.654546.92727.4 1.81818.963636.90909.563636 1.61818 1.381818.70909.8 1.14545 1.890909.43637 1.090909.43637 2.545455 0 1.509091-.6 2.927273-.58182 1.4-1.85455 2.490909-1.25454 1.090909-3.25454 1.745454-1.98182.654546-4.76364.654546-.98182 0-2.05454-.163637-1.07273-.145454-2.18182-.381818-1.10909-.236364-2.23637-.527273-1.12727-.309091-2.23636-.6z" style="-inkscape-font-specification:'Sitka Small';-inkscape-stroke:none"/>
    <path fill="#fff" d="M205.9082 51.5c-1.32035 0-2.56788.189294-3.73633.570312h-.002c-1.1517.37968-2.16943.916097-3.04297 1.609375-.86316.682801-1.55387 1.509952-2.05859 2.466797-.51164.957663-.76758 2.015274-.76758 3.144532 0 1.678207.46326 3.159678 1.39258 4.376953h.002v.002c.92985 1.201048 2.1952 2.132988 3.76367 2.791015.49411.209995.99949.406767 1.51758.591797.50696.181057 1.01986.367353 1.53906.560547l.006.002.004.002c.51909.181077 1.04484.369289 1.57617.5625.52573.191174 1.05757.394211 1.59571.609375 1.05141.439051 1.86038.98312 2.44335 1.621094v.002l.002.002c.5686.610728.84765 1.348107.84765 2.3125 0 .620734-.12717 1.160092-.3789 1.642579-.25389.486624-.61639.902569-1.10547 1.261718-.0008.00059-.001.0014-.002.002-.48467.343546-1.09704.617207-1.84766.810547-.73809.193038-1.5875.292969-2.54688.292969-.48952 0-.95191-.04531-1.38867-.134766h-.002c-.43588-.09186-.845-.211987-1.23047-.359375-.38979-.149035-.75484-.314925-1.0957-.496093l-.004-.002c-.002-.0013-.005-.0026-.008-.0039-.34864-.197857-.67428-.395609-.97461-.591797-.002-.0012-.004-.0027-.006-.0039-.11619-.08514-.26206-.199201-.43555-.339844l-.002-.002c-.13147-.116058-.15438-.186207-.1582-.214843v-.002l-.60742-4.230468h-3.44336v7.99414l.37304.09766c.73757.19346 1.48266.392075 2.23242.597656l.004.002h.002c.75821.195666 1.5113.374109 2.25782.533203.7484.159497 1.4853.288121 2.21093.386719.73763.11252 1.44659.169922 2.12891.169922 1.89302 0 3.5329-.221838 4.91992-.679688 1.38045-.451783 2.52601-1.061946 3.42383-1.841797.89941-.770919 1.57037-1.666652 1.99023-2.675781.4248-1.004065.63868-2.048769.63868-3.121094 0-1.019697-.15133-1.932048-.47071-2.730468-.30924-.773108-.72025-1.454389-1.23242-2.033204l-.004-.002c-.50289-.579613-1.07906-1.073711-1.72461-1.474609-.61502-.389088-1.24359-.72257-1.88672-1l-.002-.002h-.002c-.57206-.243431-1.11864-.462312-1.64453-.658203l-.0117-.0039c-.50879-.205793-1.01044-.400014-1.50781-.582031l-.004-.002c-.48304-.181108-.96804-.3562-1.45117-.525391l-.0117-.0039c-.48185-.180657-.96919-.362341-1.46289-.542969h-.002c-.7223-.268082-1.31138-.562212-1.76367-.871093-.46036-.314388-.80973-.642678-1.06055-.976563-.00048-.000639-.001-.0013-.002-.002-.25705-.354795-.43356-.715099-.53711-1.087891-.10907-.392649-.16407-.794192-.16407-1.210937 0-.425756.10195-.8116.31641-1.189453.21305-.375371.52439-.705375.95508-.996094l.004-.002.002-.0039c.42807-.299646.9685-.544725 1.62695-.726563.6635-.179931 1.43116-.273437 2.30469-.273437.44709 0 .84751.03562 1.19922.101562h.008l.008.002c.36308.05673.68647.13471.96875.232422.2931.101457.54511.213088.75781.330078l.004.002.006.002c.2401.125765.44719.249582.62109.36914l.002.002.004.002c.11879.07919.27419.201344.45703.361329.13954.122108.16096.195062.16211.203125v.002l.60938 4.044922h3.42187v-7.8125l-.39648-.08594c-.56609-.120444-1.15737-.246458-1.77148-.378906l-.01-.002c-.62401-.146588-1.27108-.274854-1.94141-.384766l-.01-.002c-.66675-.123178-1.3671-.22128-2.10352-.294922-.73317-.074742-1.49565-.111502-2.28703-.111502Zm0 1c.76013 0 1.49045.03654 2.1875.107422.71469.07147 1.3917.166721 2.03125.285156h.01c.65602.107349 1.28823.232341 1.89453.375l.004.002.004.002c.48176.103908.93628.20031 1.38867.296875v6.003907h-1.56054l-.48242-3.191407c-.0481-.33003-.2446-.595827-.49219-.8125-.20302-.17764-.38404-.321328-.55469-.435547l-.004-.002c-.21314-.146304-.45309-.287561-.7207-.427734-.26994-.147722-.57064-.279036-.9043-.394531-.34689-.12008-.72558-.210946-1.13671-.275391h-.004c-.42006-.07768-.87641-.115234-1.36914-.115234-.94464 0-1.7996.100647-2.56641.308593h-.002c-.7467.205987-1.39434.494206-1.93555.873047-.53558.362921-.9631.806928-1.25781 1.326172-.29463.519117-.44727 1.09117-.44727 1.683594 0 .504466.0678.99844.20118 1.478516.13827.497789.37296.972786.69531 1.416015l.002.002.002.0039c.33092.441209.76809.839327 1.30079 1.203125.54125.36963 1.20062.693122 1.98046.982421v.002h.002c.49573.181367.98518.361631 1.46875.542968l.006.002.004.002c.48135.168471.96389.342902 1.44532.523437l.002.002h.002c.49147.179805.98815.372153 1.49219.576172l.008.002.006.002c.51267.190758 1.05057.407062 1.61328.646485.59323.255903 1.17518.563355 1.74805.925781l.002.002.002.002c.56345.349342 1.06322.774724 1.5039 1.283203l.002.002.002.002c.43166.487007.78281 1.066402 1.05469 1.746093.26245.656124.40039 1.43968.40039 2.359375 0 .939795-.18535 1.84558-.56055 2.732422v.002c-.35596.856524-.92192 1.621695-1.71875 2.304688h-.002v.002c-.77445.673434-1.79737 1.22605-3.08203 1.646484h-.002v.002c-1.25506.414516-2.79209.628907-4.60742.628907-.62677 0-1.28585-.05254-1.97852-.158203h-.004l-.004-.002c-.70215-.09521-1.41683-.219915-2.14453-.375-.73227-.156057-1.47197-.329271-2.2168-.521484-.62533-.171437-1.2443-.336919-1.86132-.5v-6.224609h1.57617l.48437 3.365234c.0447.334707.23946.616721.49219.837891l.008.0059.006.0059c.19851.161286.36941.29352.51367.398438l.01.0059.01.0078c.32497.212489.67298.424005 1.04492.634765l.006.002.006.0039c.38322.204388.79048.38824 1.2207.552734.4382.167549.90015.302273 1.38476.404297h.002c.50816.104239 1.03957.15625 1.59179.15625 1.02849 0 1.96116-.107088 2.79883-.326172.84564-.218098 1.57684-.536712 2.18164-.966797l.002-.002.004-.002c.60062-.440449 1.07484-.979695 1.40235-1.607422.33008-.632664.49218-1.344386.49218-2.105469 0-1.166966-.37333-2.195449-1.11132-2.990234l-.002-.002c-.70168-.767226-1.63925-1.387369-2.79297-1.869141h-.004l-.004-.002c-.55019-.220079-1.09433-.42919-1.63281-.625-.532-.193452-1.05798-.379051-1.57813-.560547l-.01-.0039c-.5198-.193369-1.03305-.381083-1.54102-.5625-.50009-.178605-.98925-.370139-1.46484-.572266h-.002c-1.43683-.602538-2.54605-1.429346-3.36133-2.482421-.79011-1.036542-1.18555-2.269773-1.18555-3.765625 0-.979831.21461-1.861796.64844-2.673829l.002-.002c.44062-.836048 1.03458-1.548927 1.79492-2.15039h.002c.77383-.614513 1.68204-1.096126 2.73437-1.44336 1.06012-.346824 2.19895-.522054 3.42406-.522054Z" style="-inkscape-font-specification:'Sitka Small';-inkscape-stroke:none"/>
    <path d="M220.29087 70.854545h2.50909l.54546 3.8q.0364.272728.32727.527273.29091.236364.49091.381818.47273.309091 1.01818.618182.54545.290909 1.16364.527273.61818.236364 1.30909.381818.70909.145455 1.49091.145455 1.49091 0 2.67272-.309091 1.2-.309091 2.01819-.890909.81818-.6 1.25454-1.436364.43636-.836364.43636-1.872727 0-1.6-.98181-2.654546-.96364-1.054545-2.61819-1.745454-.81818-.327273-1.61818-.618182-.8-.290909-1.58182-.563636-.78181-.29091-1.54545-.563637-.76364-.272727-1.49091-.581818-2.25454-.945455-3.56364-2.636364-1.2909-1.690909-1.2909-4.072727 0-1.581818.70909-2.909091.70909-1.345454 1.92727-2.309091 1.23636-.981818 2.89091-1.527272Q228.03633 52 229.94542 52q1.16363 0 2.23636.109091 1.09091.109091 2.07273.290909 1 .163636 1.92727.381818.92727.2 1.78182.381818v6.909091h-2.49091l-.54546-3.618182q-.0364-.254545-.32727-.50909-.29091-.254546-.50909-.4-.29091-.2-.67273-.4-.36363-.2-.83636-.363637-.47273-.163636-1.05455-.254545-.58181-.109091-1.2909-.109091-1.36364 0-2.43637.290909-1.05454.290909-1.78182.8-.72727.490909-1.10909 1.163636-.38182.672728-.38182 1.436364 0 .690909.18182 1.345454.18182.654546.61818 1.254546.43637.581818 1.18182 1.090909.74546.509091 1.87273.927273.74545.272727 1.47273.545454.72727.254546 1.45454.527273.74546.272727 1.50909.581818.78182.290909 1.63637.654546.92727.4 1.81818.963636.90909.563636 1.61818 1.381818.70909.8 1.14546 1.890909.43636 1.090909.43636 2.545455 0 1.509091-.6 2.927273-.58182 1.4-1.85455 2.490909-1.25454 1.090909-3.25454 1.745454-1.98182.654546-4.76364.654546-.98182 0-2.05454-.163637-1.07273-.145454-2.18182-.381818-1.10909-.236364-2.23637-.527273-1.12727-.309091-2.23636-.6z" style="-inkscape-font-specification:'Sitka Small';-inkscape-stroke:none"/>
    <path fill="#fff" d="M229.94531 51.5c-1.32034 0-2.56787.189295-3.73633.570312h-.002c-1.15258.379971-2.17093.917277-3.04492 1.611329-.86334.683199-1.554 1.509355-2.05859 2.466796-.51103.957219-.76758 2.013984-.76758 3.142579 0 1.678207.46522 3.159678 1.39453 4.376953l.002.002c.92985 1.201046 2.1952 2.132988 3.76367 2.791015.49411.209995.99949.406767 1.51758.591797.50696.181057 1.01986.367353 1.53906.560547l.006.002.004.002c.51909.181077 1.04484.369289 1.57617.5625.52573.191174 1.05757.394211 1.5957.609375 1.05142.439051 1.85843.98312 2.44141 1.621094l.002.002.002.002c.5686.610728.84765 1.348107.84765 2.3125 0 .620734-.12717 1.160092-.3789 1.642579-.25389.486626-.6164.902569-1.10547 1.261718-.0008.00059-.001.0014-.002.002-.48468.343547-1.09705.617207-1.84766.810547h-.002c-.73808.193037-1.58749.292969-2.54688.292969-.48952 0-.94996-.04531-1.38672-.134766h-.002c-.43589-.09186-.84695-.211987-1.23242-.359375-.39403-.150657-.76143-.318463-1.10547-.501953-.35136-.199368-.67815-.398031-.98047-.595703-.11633-.08521-.26162-.198842-.43555-.339844l-.002-.002c-.13147-.116058-.15438-.186207-.1582-.214843l-.002-.002-.60742-4.230468h-3.4414v7.99414l.37304.09766c.73757.19346 1.48071.392075 2.23047.597656l.004.002h.004c.75821.195666 1.5113.374109 2.25782.533203.74776.15936 1.48395.288153 2.20898.386719.73763.11252 1.44854.169922 2.13086.169922 1.89376 0 3.53256-.221476 4.91992-.679688 1.38106-.451983 2.52583-1.06145 3.42383-1.841797l.002-.002c.89861-.770762 1.56879-1.665095 1.98828-2.673828v-.002c.42429-1.003512.63868-2.04746.63868-3.119141 0-1.019696-.15329-1.932049-.47266-2.730468-.30925-.773106-.7183-1.45439-1.23047-2.033204l-.004-.002c-.5041-.581019-1.08105-1.077091-1.72851-1.478515l.002.0039c-.61501-.389088-1.24359-.72257-1.88672-1v-.002h-.002c-.57605-.245126-1.12898-.465188-1.6582-.66211l.0137.0039c-.51276-.207548-1.02031-.402531-1.52149-.585938l-.004-.002c-.48361-.181322-.96748-.356015-1.45117-.525391l-.01-.0039c-.48297-.181081-.97193-.361917-1.4668-.542969h.004c-.72318-.268275-1.31293-.561937-1.76562-.871093-.4586-.313187-.80797-.640094-1.0586-.972657-.25947-.35677-.43686-.718812-.54101-1.09375-.10907-.392649-.16407-.794192-.16407-1.210937 0-.425756.10195-.8116.31641-1.189453.21305-.375371.52438-.705375.95508-.996094l.002-.002.004-.0039c.42807-.299646.96849-.544725 1.62695-.726563.6635-.179931 1.43115-.273437 2.30469-.273437.44708 0 .84751.03562 1.19922.101562h.008l.006.002c.36308.05673.68647.13471.96875.232422.2931.101457.54706.213088.75976.330078l.004.002.004.002c.24009.125765.44719.249582.62109.36914l.004.002.004.002c.11879.07919.27419.201344.45703.361329.13954.122108.15901.195062.16016.203125v.002l.61133 4.044922h3.41992v-7.8125l-.39453-.08594c-.56609-.120444-1.15737-.246458-1.77149-.378906l-.01-.002c-.62402-.146588-1.27108-.274854-1.94141-.384766l-.01-.002c-.66675-.123178-1.3671-.22128-2.10352-.294922-.73363-.074709-1.49611-.111469-2.28749-.111469Zm0 1c.76013 0 1.4885.03654 2.18555.107422h.002c.71469.07147 1.3917.166721 2.03125.285156h.01c.65602.107349 1.28628.232341 1.89258.375l.006.002.004.002c.48111.103769.93489.20043 1.38672.296875v6.003907h-1.56055l-.48047-3.189454v-.002c-.0478-.330519-.24433-.595597-.49218-.8125-.20302-.17764-.38404-.321328-.55469-.435547l-.004-.002c-.21093-.144783-.44863-.285071-.71289-.423828l-.004-.002c-.27123-.148862-.57248-.28027-.90821-.396484-.3469-.12008-.72753-.210946-1.13867-.275391h-.004c-.42005-.07768-.87447-.115234-1.36719-.115234-.94465 0-1.7996.100647-2.56641.308593h-.002c-.74517.205564-1.39306.493404-1.9336.871094-.53671.363223-.96461.808096-1.25976 1.328125-.29464.519117-.44727 1.09117-.44727 1.683594 0 .504466.0659.99844.19922 1.478516.13828.497789.37492.972786.69727 1.416015l.002.002.002.0039c.33092.441209.76613.839327 1.29883 1.203125.54125.36963 1.20062.693122 1.98047.982421l.002.002h.002c.49573.181367.98518.361631 1.46875.542968l.004.002.006.002c.48135.168471.96194.342902 1.44336.523437l.002.002h.002c.49147.179805.9901.372153 1.49414.576172l.006.002.008.002c.51266.190758 1.04862.407063 1.61133.646485.59323.255903 1.17713.563355 1.75.925781l.002.002.002.002c.56345.349342 1.06322.774724 1.5039 1.283203l.002.002.002.002c.43166.487008.7828 1.0664 1.05469 1.746093.26244.656125.40039 1.439679.40039 2.359375 0 .939795-.18535 1.84558-.56055 2.732422v.002h-.002c-.35596.856524-.91997 1.621695-1.7168 2.304688h-.002l-.002.002c-.77444.673434-1.79737 1.22605-3.08203 1.646484v.002c-1.25506.414516-2.79209.628907-4.60742.628907-.62677 0-1.28585-.05254-1.97852-.158203h-.004l-.006-.002c-.70216-.09521-1.41683-.219915-2.14453-.375-.73227-.156057-1.47002-.329271-2.21485-.521484-.62533-.171437-1.2443-.336919-1.86132-.5v-6.224609h1.57617l.48242 3.365234c.0447.334707.24141.616721.49414.837891l.006.0059.008.0059c.19851.161286.36746.29352.51172.398438l.01.0059.0117.0078c.32499.212487.673.424006 1.04493.634765l.006.002.006.0039c.38322.204388.78853.38824 1.21875.552734.4382.167549.90015.302273 1.38476.404297h.004c.50816.104239 1.03762.15625 1.58984.15625 1.02849 0 1.96311-.107088 2.80078-.326172.84564-.218098 1.57683-.536713 2.18164-.966797l.002-.002.004-.002c.60061-.440449 1.07289-.979696 1.40039-1.607422.33009-.632664.49414-1.344386.49414-2.105469 0-1.167341-.37481-2.195345-1.11328-2.990234-.70187-.768084-1.64027-1.388933-2.79492-1.871094h-.002l-.004-.002c-.55019-.220079-1.09433-.42919-1.63281-.625-.532-.193452-1.05798-.379051-1.57813-.560547l-.01-.0039c-.51981-.193371-1.035-.381082-1.54297-.5625-.5001-.178605-.9873-.370139-1.46289-.572266h-.002c-1.43682-.602538-2.54604-1.429345-3.36133-2.482421-.7901-1.036542-1.1875-2.269771-1.1875-3.765625 0-.979832.21656-1.861795.65039-2.673829v-.002h.002c.44062-.836048 1.03458-1.548927 1.79492-2.15039.77449-.615038 1.68285-1.098012 2.73633-1.445313v.002c1.06034-.346824 2.19917-.522054 3.42427-.522054Z" style="-inkscape-font-specification:'Sitka Small';-inkscape-stroke:none"/>
    <path d="m244.1272 77.490909 2.94546-1.018182q.27272-.09091.45454-.272727.18182-.2.18182-.6V55.963636q0-.363636-.2-.545454-.18182-.181818-.43636-.272727l-2.94546-1.054546v-1.472727h20.83637v6.654545h-2.49091l-.54546-3.490909q-.0545-.345454-.27272-.509091-.21819-.181818-.5091-.181818h-9.45454v8.963636h5.52727q.38182 0 .54546-.163636.16363-.163636.23636-.527273l.54545-2.836363h2v9.527272h-2l-.54545-2.818181q-.0727-.363637-.23636-.527273-.16364-.181818-.54546-.181818h-5.52727v10h10.81818q.25455 0 .47273-.181818.23636-.181819.29091-.527273l.56363-3.890909h2.47273V79H244.1272Z" style="-inkscape-font-specification:'Sitka Small';-inkscape-stroke:none"/>
    <path fill="#fff" d="M243.62695 52.119141v2.324218l3.27735 1.173828c.10577.03778.18377.08612.25195.154297l.008.0078.008.0098c.0106.0096.0371.02307.0371.173829v19.636718c0 .183828-.0373.239941-.0488.253907-.0607.05783-.13373.107073-.2461.144531l-.002.002-3.28516 1.134766V79.5h23.18164v-8.072266h-3.40429l-.62696 4.31836c-.021.125278-.0499.164921-.0996.203125l-.008.0059-.008.0059c-.072.05999-.10169.06641-.15234.06641h-10.31836v-9h5.02734c.17518 0 .19409.03814.17383.01563l.008.0098.01.0098c.004.0043.0624.08565.0996.271484l.62304 3.220703h2.91211V60.027344h-2.91211l-.62304 3.238281c-.0372.185856-.0953.267151-.0996.271484.0284-.0284-.008.01758-.19141.01758h-5.02734v-7.96289h8.95312c.0898 0 .12795.0132.18945.06445l.01.0098.0117.0059c.0263.01976.0559.04666.0781.1875l.61133 3.914062h3.41797v-7.654296zm1 1h19.83594v5.654296h-1.5625l-.47852-3.068359v-.002c-.0498-.315374-.20302-.619578-.46093-.818359-.228-.18541-.5231-.292969-.81641-.292969h-9.95312v9.96289h6.02734c.32597 0 .65185-.06397.89844-.310546.21384-.213848.31324-.484211.37304-.783204v-.002l.46875-2.43164h1.08594v8.527343h-1.08789l-.4668-2.414062v-.002c-.0586-.292994-.16014-.555827-.36523-.767578-.23814-.25823-.57592-.34375-.90625-.34375h-6.02734v11h11.31836c.28453 0 .56363-.115135.78125-.292969.25998-.203354.42346-.513974.4746-.837891l.002-.0039.50195-3.464844h1.53906V78.5h-21.18164v-.652344l2.60352-.90039c.24506-.08169.47025-.214399.65039-.394532l.008-.0078.008-.0078c.23282-.256098.3125-.595075.3125-.9375V55.962891c0-.331996-.10868-.67541-.36132-.908204-.17181-.167825-.37967-.299515-.60743-.380859l-2.61328-.935547z" style="-inkscape-font-specification:'Sitka Small';-inkscape-stroke:none"/>
    <path d="m275.99992 77.490909 3.09091-1.018182q.30909-.109091.47273-.290909.18182-.181818.18182-.581818V55.054545h-6.05455q-.29091 0-.52727.181819-.21818.163636-.25455.509091l-.54545 3.890909h-2.47273v-7.018182h23.70909v7.018182h-2.49091l-.54545-3.890909q-.0546-.363637-.29091-.527273-.21818-.163637-.47273-.163637h-6.05454V75.6q0 .4.2.6.2.181818.45454.272727l3.09091 1.018182V79h-11.49091z" style="-inkscape-font-specification:'Sitka Small';-inkscape-stroke:none"/>
    <path fill="#fff" d="M269.39062 52.119141v8.017578h3.40821l.60742-4.330078v-.0098c.0142-.134943.0356-.144398.0566-.160156l.004-.002.002-.002c.079-.06077.13288-.07812.22266-.07813h5.55468v20.044922c0 .190909-.0436.23694-.0351.228516l-.01.0098-.01.0098c-.0373.04146-.11816.09977-.26563.152344-.001.000458-.00066.0015-.002.002L275.5 77.128906V79.5h12.49023v-2.371094l-3.42187-1.126953c-.10331-.0369-.18973-.09073-.27149-.162109-.0161-.01669-.0508-.06137-.0508-.240235V55.554687h5.55469c.0626 0 .10109.01136.17188.06445l.008.0039.008.0059c.0298.02067.0578.04284.0801.191406l.60547 4.316407h3.42578v-8.017578zm1 1h22.70899v6.017578h-1.55664l-.48438-3.462891v-.002c-.05-.333349-.21737-.659343-.49804-.857422-.21844-.160599-.48712-.259765-.75977-.259766h-6.55469v21.044922c0 .35.0945.701941.34571.953125l.008.0098.01.0078c.18077.164331.39299.290881.62305.373047l.006.002 2.75195.908204V78.5H276.5v-.648438l2.75195-.90625.006-.002c.25701-.09071.48497-.225781.66406-.419922.24348-.249953.32422-.585669.32422-.923828V54.554687h-6.55468c-.29748 0-.59417.104208-.83008.285157-.26758.202641-.41509.529319-.44922.853515l-.48242 3.44336h-1.53907z" style="-inkscape-font-specification:'Sitka Small';-inkscape-stroke:none"/>
    <path d="m302.59996 77.490909 3.09091-1.018182q.30909-.109091.47273-.290909.18181-.181818.18181-.581818V55.054545h-6.05454q-.29091 0-.52727.181819-.21819.163636-.25455.509091l-.54545 3.890909h-2.47273v-7.018182h23.70909v7.018182h-2.49091l-.54545-3.890909q-.0545-.363637-.29091-.527273-.21818-.163637-.47273-.163637h-6.05455V75.6q0 .4.2.6.2.181818.45455.272727l3.09091 1.018182V79h-11.49091z" style="-inkscape-font-specification:'Sitka Small';-inkscape-stroke:none"/>
    <path fill="#fff" d="M295.99023 52.119141v8.017578h3.40821l.60742-4.330078v-.0098c.0142-.134935.0376-.144397.0586-.160156l.002-.002.002-.002c.079-.06077.13288-.07812.22266-.07813h5.55468v20.044922c0 .190913-.0436.236943-.0352.228516l-.01.0098-.01.0098c-.0373.04146-.11622.09977-.26368.152344-.001.000461-.00065.0015-.002.002l-3.42578 1.126953V79.5h12.49219v-2.371094l-3.42383-1.126953c-.10331-.0369-.18973-.09073-.27149-.162109-.0161-.01669-.0508-.06137-.0508-.240235V55.554687h5.55469c.0626 0 .10109.01136.17188.06445l.008.0039.008.0059c.0292.02025.058.04728.0801.1875l.60547 4.320313h3.42578v-8.017578zm1 1h22.70899v6.017578h-1.55469l-.48633-3.462891v-.002c-.0499-.333092-.21388-.659295-.49414-.857422-.21895-.161939-.48977-.259765-.76367-.259766h-6.55469v21.044922c0 .35.0945.701941.34571.953125l.01.0098.008.0078c.18077.164334.39298.290882.62305.373047l.006.002 2.75391.908204V78.5h-10.49219v-.648438l2.75195-.90625.006-.002c.25701-.09071.48497-.225781.66406-.419922.24347-.249956.32422-.585673.32422-.923828V54.554687h-6.55468c-.29748 0-.59417.104208-.83008.285157-.2676.202639-.4151.529312-.44922.853515l-.48242 3.44336h-1.53907z" style="-inkscape-font-specification:'Sitka Small';-inkscape-stroke:none"/>
    <path d="m324.01818 77.490909 2.94545-1.018182q.27273-.090909.45455-.272727.18182-.2.18182-.6V55.963636q0-.363636-.2-.545454-.18182-.181818-.43637-.272727l-2.94545-1.054546v-1.472727h20.83636v6.654545h-2.49091l-.54545-3.490909q-.0546-.345454-.27273-.509091-.21818-.181818-.50909-.181818h-9.45455v8.963636h5.52728q.38182 0 .54545-.163636.16364-.163636.23637-.527273l.54545-2.836363h2v9.527272h-2l-.54545-2.818181q-.0727-.363637-.23637-.527273-.16363-.181818-.54545-.181818h-5.52728v10H342.4q.25454 0 .47272-.181818.23637-.181819.29091-.527273l.56364-3.890909H346.2V79h-22.18182z" style="-inkscape-font-specification:'Sitka Small';-inkscape-stroke:none"/>
    <path fill="#fff" d="M323.51758 52.119141v2.324218l3.27734 1.173828c.10578.03778.18378.08612.25195.154297l.008.0078.01.0098c.0106.0096.0352.02307.0352.173829v19.636718c0 .183828-.0374.239941-.0488.253907-.0607.05783-.13372.107073-.24609.144531l-.002.002-3.28515 1.134766V79.5h23.18164v-8.072266h-3.4043l-.62695 4.31836c-.021.12527-.0499.16492-.0996.203125l-.008.0059-.008.0059c-.072.05999-.1017.06641-.15234.06641h-10.31836v-9h5.02734c.17519 0 .19411.03815.17383.01563l.008.0098.01.0098c.004.0043.0625.08565.0996.271484l.62305 3.220703h2.91211V60.027344h-2.91211l-.62305 3.238281c-.0372.185852-.0953.267149-.0996.271484.0284-.02841-.008.01758-.19141.01758h-5.02734v-7.96289h8.95508c.0898 0 .12601.01321.1875.06445l.01.0078.0117.0078c.0263.01975.0559.04659.0781.1875l.61133 3.914062h3.41992v-7.654296zm1 1h19.83789v5.654296h-1.56445l-.47852-3.068359v-.002c-.0498-.315299-.20312-.619575-.46094-.818359-.22798-.185404-.52115-.292969-.81445-.292969h-9.95508v9.96289h6.02734c.32598 0 .65186-.06395.89844-.310546.21385-.213846.31325-.484206.37305-.783204v-.002l.46875-2.43164h1.08594v8.527343h-1.08594l-.46875-2.414062v-.002c-.0586-.292998-.16013-.555829-.36524-.767578-.23813-.258242-.57592-.34375-.90625-.34375h-6.02734v11h11.31836c.28453 0 .56364-.115137.78125-.292969.26-.203354.42542-.513963.47656-.837891v-.0039l.50196-3.464844h1.53906V78.5h-21.18164v-.652344l2.60351-.90039c.24507-.08169.47026-.214395.65039-.394532l.008-.0078.01-.0078c.23282-.256098.31055-.595075.31055-.9375V55.962891c0-.331996-.10868-.67541-.36133-.908204-.17141-.167441-.37831-.299489-.60547-.380859h-.002l-2.61328-.935547z" style="-inkscape-font-specification:'Sitka Small';-inkscape-stroke:none"/>
    <path d="M163.75455 102.85455h2.50909l.54545 3.8q.0364.27272.32728.52727.2909.23636.4909.38182.47273.30909 1.01819.61818.54545.29091 1.16363.52727.61818.23637 1.30909.38182.70909.14545 1.49091.14545 1.49091 0 2.67273-.30909 1.2-.30909 2.01818-.89091.81818-.6 1.25455-1.43636.43636-.83636.43636-1.87273 0-1.6-.98182-2.65454-.96363-1.05455-2.61818-1.74546-.81818-.32727-1.61818-.618179-.8-.290909-1.58182-.563636-.78182-.290909-1.54545-.563636-.76364-.272728-1.49091-.581819-2.25455-.945454-3.56364-2.636363Q164.3 93.672728 164.3 91.29091q0-1.581819.70909-2.909091.70909-1.345455 1.92728-2.309091 1.23636-.981818 2.8909-1.527273Q171.5 84 173.40909 84q1.16364 0 2.23637.109091 1.09091.109091 2.07272.290909 1 .163637 1.92728.381819.92727.2 1.78181.381818v6.909091h-2.4909l-.54546-3.618182q-.0364-.254546-.32727-.509091-.29091-.254545-.50909-.4-.29091-.2-.67273-.4-.36364-.2-.83636-.363636-.47273-.163637-1.05455-.254546-.58182-.109091-1.29091-.109091-1.36363 0-2.43636.290909-1.05455.290909-1.78182.8-.72727.490909-1.10909 1.163637-.38182.672727-.38182 1.436363 0 .690909.18182 1.345455.18182.654545.61818 1.254545.43636.581819 1.18182 1.090909.74545.509091 1.87273.927273.74545.272727 1.47272.545455.72728.254545 1.45455.527272.74545.272728 1.50909.581819.78182.290909 1.63636.654545.92728.4 1.81819.963636.90909.563637 1.61818 1.381819.70909.800001 1.14545 1.890911.43637 1.09091.43637 2.54545 0 1.50909-.6 2.92728-.58182 1.4-1.85455 2.4909-1.25455 1.09091-3.25455 1.74546-1.98181.65454-4.76363.65454-.98182 0-2.05455-.16363-1.07272-.14546-2.18182-.38182-1.10909-.23636-2.23636-.52727-1.12727-.30909-2.23636-.6z" style="-inkscape-font-specification:'Sitka Small';-inkscape-stroke:none"/>
    <path fill="#fff" d="M173.4082 83.5c-1.32034 0-2.56787.189295-3.73633.570312h-.002c-1.15169.379681-2.16943.916097-3.04297 1.609375-.86316.6828-1.55387 1.509951-2.05859 2.466797-.51163.957662-.76758 2.015274-.76758 3.144532 0 1.678207.46326 3.159678 1.39258 4.376953h.002v.002c.92985 1.201048 2.1952 2.132988 3.76367 2.791015.49411.209995.99949.406766 1.51758.591797.50696.181057 1.01986.367353 1.53906.560547l.006.002.004.002c.51909.181077 1.04484.369289 1.57617.562503.52629.19138 1.05894.39395 1.59766.60937 1.05141.43905 1.85843.98312 2.4414 1.6211v.002l.002.002c.56861.61073.84765 1.34811.84765 2.3125 0 .62074-.12717 1.1601-.3789 1.64258-.2539.48663-.6164.90257-1.10547 1.26172-.0008.00059-.001.001-.002.002-.48467.34355-1.09705.61721-1.84766.81055-.73808.19304-1.58749.29297-2.54688.29297-.48952 0-.95191-.0453-1.38867-.13477h-.002c-.43588-.0919-.845-.21198-1.23047-.35937-.38978-.14903-.75484-.31493-1.0957-.4961l-.004-.002c-.002-.001-.005-.003-.008-.004-.34864-.19785-.67428-.3956-.97461-.59179-.002-.001-.004-.003-.006-.004-.11619-.0851-.26206-.1992-.43555-.33984l-.002-.002c-.13147-.11606-.15438-.18622-.1582-.21484v-.002l-.60742-4.23047h-3.44336v7.99414l.37304.0977c.73757.19346 1.48266.39207 2.23242.59765l.004.002h.002c.75821.19566 1.5113.37411 2.25782.5332.74841.15949 1.48531.28812 2.21093.38672.73764.11251 1.44659.16992 2.12891.16992 1.89302 0 3.53291-.22184 4.91992-.67969 1.38045-.45179 2.526-1.06195 3.42383-1.8418.89941-.77091 1.57037-1.66665 1.99023-2.67578.4248-1.00407.63868-2.04877.63868-3.12109 0-1.01969-.15133-1.93205-.47071-2.73047-.30924-.77311-.72025-1.454387-1.23242-2.033203l-.004-.002c-.50289-.579613-1.07906-1.073711-1.72461-1.474609-.61502-.389089-1.24358-.72257-1.88672-1l-.002-.002h-.002c-.57206-.243431-1.11864-.462312-1.64453-.658203l-.0117-.0039c-.50879-.205792-1.01045-.400014-1.50781-.582031l-.004-.002c-.48304-.181109-.96804-.3562-1.45117-.525391l-.0117-.0039c-.48184-.180658-.96919-.362341-1.46289-.542969h-.002c-.7223-.268082-1.31139-.562214-1.76367-.871093-.46036-.314387-.80974-.642681-1.06055-.976563-.00048-.000639-.001-.0013-.002-.002-.25705-.354795-.43356-.7151-.53711-1.087891-.10907-.39265-.16407-.794192-.16407-1.210937 0-.425756.10195-.811601.31641-1.189453.21305-.375371.52439-.705375.95508-.996094l.004-.002.002-.0039c.42806-.299644.96849-.544725 1.62695-.726563.6635-.179931 1.43116-.273437 2.30469-.273437.44708 0 .8475.03562 1.19922.101562h.008l.008.002c.36308.05673.68647.13471.96875.232422.2931.101457.5451.213085.75781.330078l.004.002.006.002c.2401.125765.44719.249582.62109.36914l.002.002.004.002c.11879.07919.27419.201344.45703.361329.13954.122108.16096.195061.16211.203125v.002l.60938 4.044922h3.42187v-7.8125l-.39648-.08594c-.56609-.120445-1.15737-.246458-1.77148-.378906l-.01-.002c-.62402-.146587-1.27108-.274853-1.94141-.384766l-.01-.002c-.66674-.123178-1.3671-.22128-2.10352-.294922-.73317-.074588-1.49564-.111348-2.28703-.111348Zm0 1c.76014 0 1.49045.03654 2.1875.107422.71469.07147 1.39171.166722 2.03125.285156h.01c.65602.10735 1.28822.232341 1.89453.375l.004.002.006.002c.48161.103877.93445.200337 1.38671.296875v6.003907h-1.56054l-.48242-3.191407c-.0481-.33003-.2446-.595827-.49219-.8125-.20302-.177639-.38404-.321328-.55469-.435547l-.004-.002c-.21314-.146304-.45309-.287561-.7207-.427734-.26994-.147719-.57065-.279037-.9043-.394531-.3469-.120081-.72558-.210946-1.13671-.275391h-.004c-.42006-.07768-.87642-.115234-1.36914-.115234-.94464 0-1.7996.100647-2.56641.308593h-.002c-.74671.205987-1.39434.494203-1.93555.873047-.53558.362921-.9631.806927-1.25781 1.326172-.29464.519116-.44727 1.09117-.44727 1.683594 0 .504466.0678.998439.20118 1.478516.13827.497789.37296.972786.69531 1.416015l.002.002.002.0039c.33091.441214.76808.839327 1.30079 1.203125.54124.369632 1.20061.693122 1.98046.982421v.002h.002c.49573.181367.98518.361631 1.46875.542968l.006.002.004.002c.48135.16847.96389.342902 1.44532.523437l.002.002h.002c.49147.179806.98814.372152 1.49219.576172l.008.002.006.002c.51267.190758 1.05058.407063 1.61328.646485.59324.255903 1.17518.563356 1.74805.925781l.002.002.002.002c.56345.349342 1.06322.774724 1.5039 1.283203l.002.002.002.002c.43166.487009.78281 1.066399 1.05469 1.746089.26245.65613.40039 1.43969.40039 2.35938 0 .93979-.18535 1.84557-.56055 2.73242v.002c-.35596.85653-.92192 1.62171-1.71875 2.30469h-.002v.002c-.77446.67343-1.79737 1.22604-3.08203 1.64648h-.002v.002c-1.25505.41451-2.79209.62891-4.60742.62891-.62677 0-1.28584-.0525-1.97852-.1582h-.004l-.004-.002c-.70215-.0952-1.41682-.21992-2.14453-.375-.73227-.15605-1.47198-.32927-2.2168-.52148-.62533-.17144-1.2443-.33692-1.86132-.5v-6.22461h1.57617l.48437 3.36523c.0447.33471.23945.61672.49219.83789l.008.006.006.006c.1985.16128.36941.29352.51367.39844l.01.006.01.008c.32498.21249.67298.42401 1.04492.63477l.006.002.006.004c.38322.20439.79048.38824 1.2207.55273.4382.16756.90015.30228 1.38476.4043h.002c.50816.10423 1.03958.15625 1.59179.15625 1.0285 0 1.96116-.10709 2.79883-.32617.84564-.2181 1.57684-.53671 2.18164-.9668l.002-.002.004-.002c.60061-.44045 1.07483-.9797 1.40235-1.60742.33008-.63266.49218-1.34438.49218-2.10547 0-1.16697-.37332-2.19545-1.11132-2.99023l-.002-.002c-.70168-.76724-1.63924-1.38737-2.79297-1.869146h-.004l-.004-.002c-.55019-.220077-1.09433-.42919-1.63281-.625-.532-.193452-1.05798-.379051-1.57813-.560547l-.01-.0039c-.51981-.193368-1.03306-.381084-1.54102-.5625-.50009-.178605-.98925-.370139-1.46484-.572266h-.002c-1.43683-.602538-2.54605-1.429347-3.36133-2.482421-.79011-1.036542-1.18555-2.269773-1.18555-3.765625 0-.979833.21461-1.861796.64844-2.673829l.002-.002c.44062-.836048 1.03458-1.548928 1.79492-2.15039h.002c.77383-.614514 1.68204-1.096126 2.73437-1.44336 1.06009-.34743 2.19892-.52266 3.42402-.52266Z" style="-inkscape-font-specification:'Sitka Small';-inkscape-stroke:none"/>
    <path d="m192.68179 109.49091 3.07273-1.01818q.30909-.0909.4909-.27273.18182-.2.18182-.6v-6.27273l-7.54545-13.418179q-.14546-.254545-.36364-.509091-.2-.272727-.49091-.4l-2.10909-.90909v-1.472728h9.83637v1.472728l-2.94546 1.218181 5.18182 8.854546.94545 2.236363h.38182l6.09091-10.981818-2.96364-1.327272v-1.472728h8.54546v1.472728l-2.05455.981818q-.25454.127272-.49091.4-.23636.254545-.38181.509091l-7.63637 13.254541V107.6q0 .4.16364.6.18182.18182.45454.27273l3.1091 1.01818V111h-11.47273z" style="-inkscape-font-specification:'Sitka Small';-inkscape-stroke:none"/>
    <path fill="#fff" d="M185.41797 84.119141v2.300781l2.41211 1.039062h-.004c.11234.04915.20216.117827.28906.236328l.0117.01563.0117.01367c.12759.148857.22943.293108.3086.431641l7.48046 13.30273v6.14063c0 .18384-.0393.23994-.0508.25391-.0512.048-.12675.0984-.26367.13867l-.008.004-3.42383 1.13282v2.37109h12.47266v-2.37109l-3.45118-1.13086h-.002c-.10397-.0349-.16824-.0824-.22656-.13477-.01-.0158-.0469-.0789-.0469-.26367v-6.23047l7.57032-13.138671c.0747-.130736.17863-.271696.31445-.417969l.006-.0059.006-.0059c.12461-.143781.23865-.232605.33594-.28125l2.33007-1.113281v-2.287109h-9.54492v2.294921l2.76367 1.238282-5.54687 9.998047-.72266-1.710938-4.9082-8.386719 2.72266-1.126953v-2.30664zm1 1h8.83594v.636718l-3.16602 1.310547 5.45508 9.322266 1.0625 2.511719h1.00781l6.49805-11.716797-3.16602-1.416016v-.648437h7.54492v.65625l-1.77343.847656-.004.002c-.24129.120649-.45252.298724-.64258.517578-.00063.000729-.001.0012-.002.002-.17456.189456-.32264.385419-.43945.589844l-7.70118 13.369145v6.49609c0 .33485.0628.6582.27539.91797l.0156.0176.0195.0176c.18014.18014.40338.31285.64844.39454h.002l2.76563.90625V110.5h-10.47266v-.64844l2.71484-.89843.002-.002c.26614-.0786.50988-.20712.70117-.39844l.008-.008.008-.008c.23282-.2561.3125-.59508.3125-.9375v-6.40234l-7.61132-13.535161v-.002c-.11011-.192686-.24555-.379365-.40039-.5625-.17918-.241983-.41451-.437203-.6875-.55664h-.002l-1.80859-.779297z" style="-inkscape-font-specification:'Sitka Small';-inkscape-stroke:none"/>
    <path d="M213.93636 102.85455h2.50909l.54545 3.8q.0364.27272.32727.52727.29091.23636.49091.38182.47273.30909 1.01819.61818.54545.29091 1.16363.52727.61818.23637 1.30909.38182.70909.14545 1.49091.14545 1.49091 0 2.67273-.30909 1.2-.30909 2.01818-.89091.81818-.6 1.25455-1.43636.43636-.83636.43636-1.87273 0-1.6-.98182-2.65454-.96363-1.05455-2.61818-1.74546-.81818-.32727-1.61818-.618179-.8-.290909-1.58182-.563636-.78182-.290909-1.54545-.563636-.76364-.272728-1.49091-.581819-2.25455-.945454-3.56364-2.636363-1.29091-1.690909-1.29091-4.072727 0-1.581819.70909-2.909091.70909-1.345455 1.92727-2.309091 1.23637-.981818 2.89091-1.527273Q221.68181 84 223.5909 84q1.16364 0 2.23637.109091 1.0909.109091 2.07272.290909 1 .163637 1.92728.381819.92727.2 1.78181.381818v6.909091h-2.49091l-.54545-3.618182q-.0364-.254546-.32727-.509091-.29091-.254545-.50909-.4-.29091-.2-.67273-.4-.36364-.2-.83636-.363636-.47273-.163637-1.05455-.254546-.58182-.109091-1.29091-.109091-1.36364 0-2.43636.290909-1.05455.290909-1.78182.8-.72727.490909-1.10909 1.163637-.38182.672727-.38182 1.436363 0 .690909.18182 1.345455.18182.654545.61818 1.254545.43636.581819 1.18182 1.090909.74545.509091 1.87273.927273.74545.272727 1.47272.545455.72728.254545 1.45455.527272.74545.272728 1.50909.581819.78182.290909 1.63636.654545.92728.4 1.81818.963636.9091.563637 1.61819 1.381819.70909.800001 1.14545 1.890911.43636 1.09091.43636 2.54545 0 1.50909-.6 2.92728-.58181 1.4-1.85454 2.4909-1.25455 1.09091-3.25455 1.74546-1.98181.65454-4.76363.65454-.98182 0-2.05455-.16363-1.07273-.14546-2.18182-.38182-1.10909-.23636-2.23636-.52727-1.12727-.30909-2.23636-.6z" style="-inkscape-font-specification:'Sitka Small';-inkscape-stroke:none"/>
    <path fill="#fff" d="M223.5918 83.5c-1.32035 0-2.56983.189295-3.73828.570312h-.002c-1.15169.379681-2.16942.916098-3.04297 1.609375-.86316.6828-1.55387 1.509952-2.05859 2.466797-.51163.957662-.76758 2.015274-.76758 3.144532 0 1.678207.46326 3.159678 1.39258 4.376953h.002v.002c.92985 1.201048 2.1952 2.132988 3.76367 2.791015.49411.209995.99949.406766 1.51758.591797.50696.181057 1.02181.367353 1.54102.560547l.004.002.006.002c.51909.181077 1.04289.369289 1.57422.562503.52629.19138 1.05894.39395 1.59766.60937 1.05141.43905 1.85843.98312 2.44141 1.6211l.002.002v.002c.56861.61073.84765 1.34811.84765 2.3125 0 .62074-.12717 1.1601-.3789 1.64258-.2539.48663-.6164.90257-1.10547 1.26172-.0008.00059-.001.001-.002.002-.48467.34355-1.09509.61721-1.84571.81055h-.002c-.73808.19304-1.58749.29297-2.54687.29297-.48953 0-.95192-.0453-1.38868-.13477h-.002c-.43588-.0919-.845-.21198-1.23047-.35937-.38978-.14903-.75484-.31493-1.0957-.4961l-.004-.002c-.002-.001-.005-.003-.008-.004-.34864-.19785-.67428-.3956-.97461-.59179-.002-.001-.004-.003-.006-.004-.11619-.0851-.26205-.1992-.43555-.33984l-.002-.002c-.13147-.11606-.15438-.18621-.1582-.21484v-.002l-.60742-4.23047h-3.44336v7.99414l.37304.0977c.73757.19346 1.48266.39207 2.23243.59765l.004.002h.002c.75821.19566 1.5113.37411 2.25782.5332.7484.15949 1.4853.28812 2.21093.38672.73764.11251 1.44659.16992 2.12891.16992 1.89302 0 3.53291-.22184 4.91992-.67969 1.38045-.45179 2.526-1.06195 3.42383-1.8418.89941-.77091 1.57037-1.66665 1.99024-2.67578.42479-1.00407.64062-2.04877.64062-3.12109 0-1.01969-.15329-1.93205-.47266-2.73047-.30924-.77311-.72025-1.454387-1.23242-2.033203l-.004-.002c-.50289-.579613-1.07905-1.073711-1.72461-1.474609-.61501-.389089-1.24358-.72257-1.88672-1l-.002-.002h-.002c-.57206-.243431-1.11864-.462312-1.64453-.658203l-.0117-.0039c-.50879-.205792-1.01045-.400014-1.50781-.582031l-.004-.002c-.48361-.181322-.96747-.356015-1.45117-.525391l-.01-.0039c-.4824-.18087-.97057-.362129-1.46485-.542969h-.002c-.7223-.268082-1.31139-.562214-1.76367-.871093-.46036-.314387-.80974-.642681-1.06055-.976563-.00048-.000639-.001-.0013-.002-.002-.25705-.354795-.43356-.7151-.53711-1.087891-.10907-.39265-.16406-.794192-.16407-1.210937 0-.425756.10391-.811601.31836-1.189453.21305-.375371.52244-.705375.95313-.996094l.004-.002.004-.0039c.42806-.299643.96654-.544725 1.625-.726563.66349-.179931 1.43115-.273437 2.30469-.273437.44708 0 .8475.03562 1.19922.101562h.008l.008.002c.36308.05673.68647.13471.96875.232422.2931.101457.5451.213085.75782.330078l.004.002.006.002c.2401.125765.44719.249582.62109.36914l.002.002.004.002c.11879.07919.2742.201344.45704.361329.13953.122108.16095.195061.1621.203125v.002l.60938 4.044922h3.42187v-7.8125l-.39648-.08594c-.56668-.120571-1.15667-.246306-1.77148-.378906l-.008-.002c-.62458-.146765-1.27238-.274747-1.94336-.384766l-.01-.002c-.66675-.123178-1.36711-.22128-2.10352-.294922-.73301-.074588-1.49353-.111348-2.28491-.111348Zm0 1c.76013 0 1.4885.03654 2.18554.107422.71468.07147 1.3917.166721 2.03125.285156h.01c.65602.10735 1.28822.232341 1.89453.375l.004.002.006.002c.4811.103769.93489.20043 1.38671.296875v6.003907h-1.56054l-.48242-3.191407c-.0481-.33003-.2446-.595827-.49219-.8125-.20302-.177639-.38404-.321328-.55469-.435547l-.004-.002c-.21314-.146304-.45309-.287561-.7207-.427734-.26994-.147719-.57065-.279037-.9043-.394531-.34689-.120081-.72558-.210946-1.13671-.275391h-.004c-.42006-.07768-.87642-.115234-1.36914-.115234-.94465 0-1.79961.100646-2.56641.308593h-.002c-.74517.205564-1.39111.493403-1.93164.871094-.53672.363224-.96657.808095-1.26172 1.328125-.29463.519116-.44727 1.09117-.44727 1.683594 0 .504466.0678.998439.20118 1.478516.13827.497789.37296.972786.69531 1.416015l.002.002.002.0039c.3309.441214.76807.839327 1.30078 1.203125.54124.369632 1.20061.693122 1.98047.982421v.002h.002c.49573.181367.98519.361631 1.46875.542968l.006.002.004.002c.48135.16847.96389.342902 1.44532.523437l.002.002h.002c.49147.179806.98814.372152 1.49219.576172l.008.002.006.002c.51267.190758 1.05058.407063 1.61328.646485.59324.255902 1.17519.563356 1.74805.925781l.002.002.002.002c.56346.349342 1.06322.774725 1.5039 1.283203l.002.002.002.002c.43166.487009.78281 1.066399 1.05469 1.746089.26244.65613.40234 1.43969.40234 2.35938 0 .93979-.18534 1.84557-.56055 2.73242l-.002.002c-.35595.85653-.92192 1.62171-1.71875 2.30469h-.002v.002c-.77446.67343-1.79737 1.22604-3.08203 1.64648h-.002v.002c-1.25505.41451-2.79209.62891-4.60742.62891-.62677 0-1.28584-.0525-1.97851-.1582h-.004l-.004-.002c-.70215-.0952-1.41683-.21992-2.14453-.375-.73227-.15605-1.47197-.32927-2.2168-.52148-.62533-.17144-1.2443-.33692-1.86132-.5v-6.22461h1.57617l.48437 3.36523c.0447.33471.23946.61672.49219.83789l.008.006.006.006c.19851.16128.36942.29352.51367.39844l.01.006.01.008c.32498.21249.67299.42401 1.04492.63477l.006.002.006.004c.38322.20439.79049.38824 1.2207.55273.43821.16756.90015.30228 1.38477.4043h.002c.50816.10423 1.03958.15625 1.5918.15625 1.02849 0 1.96115-.10709 2.79882-.32617.84564-.2181 1.57684-.53671 2.18164-.9668l.004-.002.002-.002c.60061-.44045 1.07483-.9797 1.40235-1.60742.33008-.63266.49218-1.34438.49218-2.10547 0-1.16697-.37332-2.19545-1.11132-2.99023l-.002-.002c-.70168-.76724-1.63924-1.38737-2.79297-1.869146h-.004l-.004-.002c-.55019-.220077-1.09433-.42919-1.63281-.625-.532-.193452-1.05798-.379051-1.57813-.560547l-.01-.0039c-.51981-.193368-1.03306-.381084-1.54102-.5625-.50009-.178605-.98925-.370139-1.46484-.572266h-.002c-1.43683-.602538-2.54605-1.429347-3.36133-2.482421-.79011-1.036542-1.18555-2.269773-1.18555-3.765625 0-.979833.21657-1.861796.65039-2.673829v-.002c.44062-.836049 1.03459-1.548928 1.79492-2.15039h.002c.77383-.614514 1.68204-1.096126 2.73437-1.44336 1.06017-.34743 2.20095-.52266 3.42606-.52266Z" style="-inkscape-font-specification:'Sitka Small';-inkscape-stroke:none"/>
    <path d="m242.7727 109.49091 3.09091-1.01818q.30909-.10909.47272-.29091.18182-.18182.18182-.58182V87.054546h-6.05454q-.29091 0-.52728.181818-.21818.163636-.25454.509091l-.54546 3.890909h-2.47272v-7.018182h23.70909v7.018182h-2.49091l-.54546-3.890909q-.0545-.363636-.29091-.527273-.21818-.163636-.47272-.163636h-6.05455V107.6q0 .4.2.6.2.18182.45455.27273l3.09091 1.01818V111H242.7727Z" style="-inkscape-font-specification:'Sitka Small';-inkscape-stroke:none"/>
    <path fill="#fff" d="M236.16406 84.119141v8.017578h3.40625l.60742-4.330078.002-.0098c.0142-.134939.0356-.144401.0566-.160156l.002-.002.002-.002c.079-.06077.13289-.07812.22266-.07813h5.55469v20.044923c0 .19091-.0436.23694-.0352.22852l-.01.01-.008.01c-.0373.0414-.11815.0998-.26562.15234-.001.00046-.00066.001-.002.002l-3.42383 1.12696v2.37109h12.49023v-2.37109l-3.42187-1.12696c-.10332-.0369-.18973-.0907-.27149-.16211-.0161-.0167-.0527-.0614-.0527-.24023V87.554687h5.55469c.0625 0 .10304.01136.17382.06445l.008.0039.008.0059c.0299.02068.0578.04291.0801.191406l.60547 4.316407h3.42578v-8.017578zm1 1h22.70899v6.017578h-1.55664l-.48438-3.462891-.002-.002c-.05-.33342-.21533-.659354-.4961-.857422-.21843-.160606-.48906-.259765-.76171-.259766h-6.55469v21.044923c0 .35.0965.70194.34765.95312l.008.01.008.008c.18077.16434.39298.29088.62305.37305l.006.002 2.7539.90821V110.5H243.2739v-.64844l2.75195-.90625.004-.002c.25701-.0907.48496-.22577.66406-.41992.24347-.24996.32422-.58567.32422-.92383V86.554687h-6.55469c-.29664 0-.59253.103209-.82812.283204-.26729.201644-.41418.528224-.44922.851562l-.48438 3.447266h-1.53711z" style="-inkscape-font-specification:'Sitka Small';-inkscape-stroke:none"/>
    <path d="m264.19092 109.49091 2.94545-1.01818q.27273-.0909.45455-.27273.18181-.2.18181-.6V87.963637q0-.363637-.2-.545455-.18181-.181818-.43636-.272727l-2.94545-1.054545v-1.472728h20.83636v6.654546h-2.49091l-.54545-3.490909q-.0546-.345455-.27273-.509091-.21818-.181818-.50909-.181818h-9.45455v8.963636h5.52727q.38182 0 .54546-.163636.16364-.163637.23636-.527273l.54546-2.836364h2v9.527277h-2l-.54546-2.818186q-.0727-.363636-.23636-.527273-.16364-.181818-.54546-.181818h-5.52727v9.999997h10.81818q.25455 0 .47273-.18181.23636-.18182.29091-.52728l.56364-3.89091h2.47272V111h-22.18181z" style="-inkscape-font-specification:'Sitka Small';-inkscape-stroke:none"/>
    <path fill="#fff" d="M263.69141 84.119141v2.324218l3.27734 1.173828c.10578.03778.18183.08612.25.154297l.01.0078.008.0098c.0106.0096.0371.02307.0371.173829v19.636719c0 .1852-.0396.24255-.0508.25586-.0604.0571-.13283.10548-.24414.14258l-.002.002-3.28515 1.13477v2.36523h23.18164v-8.07227h-3.40625l-.625 4.3125c-.0211.13376-.0506.16975-.10157.20899l-.008.006-.008.006c-.072.06-.10168.0664-.15234.0664h-10.31836v-8.999996h5.02734c.17518 0 .19409.03814.17383.01563l.01.0098.01.0098c.004.0043.0605.0871.0977.269531l.625 3.222659h2.9121V92.027344h-2.91406l-.62304 3.242187c-.0372.179983-.0934.26331-.0977.267578.0284-.0284-.0102.01758-.19336.01758h-5.02734v-7.96289h8.95507c.0898 0 .12796.01321.18946.06445l.01.0078.01.0078c.0263.01975.0558.04659.0781.1875l.61328 3.914062h3.41797v-7.654296zm1 1h19.83593v5.654296h-1.5625l-.48047-3.068359v-.002c-.0499-.315871-.20225-.621568-.46093-.820313-.22773-.184408-.52199-.291015-.81446-.291015h-9.95507v9.96289h6.02734c.32597 0 .65381-.06397.90039-.310546.21385-.21385.31325-.484204.37305-.783204v-.002l.46679-2.43164h1.08789v8.527346h-1.08789l-.46679-2.414065v-.002c-.0586-.292994-.16014-.555828-.36524-.767578-.23813-.258243-.57787-.34375-.9082-.34375h-6.02734v10.999996h11.31836c.28453 0 .56363-.11514.78125-.29296.25999-.20336.42541-.51397.47656-.8379v-.004l.50195-3.46485h1.54102V110.5h-21.18164v-.6543l2.60351-.89843.004-.002c.24344-.0818.46737-.21345.64648-.39258l.008-.008.008-.008c.23281-.2561.3125-.59508.3125-.9375V87.962891c0-.331998-.11064-.67541-.36328-.908204-.1718-.16782-.37772-.29952-.60547-.380859l-2.61328-.935547z" style="-inkscape-font-specification:'Sitka Small';-inkscape-stroke:none"/>
    <path d="m291.24544 109.49091 2.94545-1.16364q.25455-.0909.43636-.25454.2-.18182.2-.58182V87.963637q0-.363637-.18181-.545455-.18182-.181818-.45455-.272727l-2.94545-1.054545v-1.472728h9.92727l6.18182 17.527278.78181 3h.38182l7-20.527278h9.8v1.472728l-2.90909 1.054545q-.25454.09091-.47273.272727-.21818.181818-.21818.545455V107.6q0 .4.18182.58182.2.18182.50909.29091l2.90909 1.01818V111h-11.10909v-1.50909l2.89091-1.01818q.29091-.0909.49091-.27273.2-.2.2-.6V86.672728h-.43636l-.81819 2.672727L310.24544 107l-1.67273 4h-2.2l-7.63637-21.654545-.78181-2.672727h-.38182v20.818182q0 .4.18182.56364.18181.16363.45454.27272l2.89091 1.16364V111h-9.85454z" style="-inkscape-font-specification:'Sitka Small';-inkscape-stroke:none"/>
    <path fill="#fff" d="M290.74609 84.119141v2.324218l3.28125 1.173828.006.002c.11858.03952.19553.09006.25782.152343.003.0034.0371.03231.0371.191407v19.527339c.00001.18334-.0388.21445-.0371.2129-.0689.0615-.15286.11137-.26758.15234l-.008.004-3.26953 1.29101v2.34961h10.85352v-2.34766l-3.20508-1.28906c-.13735-.0549-.23482-.1168-.30469-.17969.0294.0264-.0176-.002-.0176-.19336V88.855469l.1875.642578L306.01946 111.5h2.88672l1.80664-4.32031 6.29883-17.677737.2793-.912109v19.009766c0 .17747-.0345.2212-.0508.23828-.0731.0638-.1607.1181-.28906.1582l-.01.002-3.23243 1.13867V111.5h12.10938v-2.36328l-3.24219-1.13477-.002-.002c-.14672-.0521-.24808-.11323-.32227-.17773.006.005-.0332-.0368-.0332-.22266V87.962891c0-.142426.0176-.143894.0371-.160157.10348-.08623.20939-.145231.32226-.185547v-.002l3.24024-1.173828v-2.322265h-10.6582l-6.79493 19.921879-.53125-2.04297-6.30664-17.878909zm1 1h9.07227l6.05859 17.171879.87305 3.35351h1.125l7-20.525389h8.94336v.621093l-2.58008.935547c-.22555.08091-.43435.201813-.62109.357422-.27139.226161-.39844.587264-.39844.929688v19.636719c0 .34242.0773.6847.32812.93555l.008.008.01.01c.19137.17398.42138.30015.67774.39063l.002.002 2.57422.90039V110.5h-10.10938v-.6543l2.54102-.89648c.00056-.00018.001.00017.002 0 .25275-.0792.48428-.2048.67578-.37891l.008-.008.01-.01c.25119-.25118.34571-.60312.34571-.95312V86.171875h-1.30665l-.92187 3.015625-6.2832 17.63281-1.53907 3.67969h-1.51367l-7.51367-21.308594-.88281-3.019531h-1.25781v21.318355c0 .34243.0759.69094.34765.93555.17214.15492.37592.2748.60156.36524l2.57813 1.03711V110.5h-8.85352v-.66992l2.61328-1.03125c.22369-.0799.42834-.1976.60157-.35352l.002-.002c.26837-.24398.36523-.60313.36523-.95313V87.962891c.00001-.325754-.091-.659372-.33007-.898438-.18014-.180137-.40338-.310891-.64844-.392578l.01.002-2.61328-.935547z" style="-inkscape-font-specification:'Sitka Small';-inkscape-stroke:none"/>
  </g>
</svg>