<svg viewBox="0 0 108.441 71.68" xml:space="preserve" xmlns="http://www.w3.org/2000/svg">
  <path style="fill:#e8c279;" d="M27.593 211.845c-.363-.112-1.435-.592-2.38-1.067-6.56-3.295-10.444-6.926-11.708-10.945-.553-1.759-.596-2.38-.596-8.642 0-7.16.04-7.434 1.376-9.59.402-.65.812-.993 1.184-.993.614 0 4.468 2.07 5.59 3.003l.685.569-1.027 1.674c-1.306 2.127-1.382 2.78-1.277 10.921l.084 6.51.926 1.814c.946 1.854 3.056 3.9 4.894 4.744 3.668 1.687 4.766 1.822 8.457 1.046 1.606-.338 8.635-2.154 15.62-4.035l12.7-3.42.071-6.915c.039-3.803-.011-6.915-.111-6.915s-5.737 1.488-12.527 3.307c-7.215 1.933-12.844 3.307-13.545 3.307-1.445 0-2.37-.639-3.156-2.179-.732-1.434-.506-2.943.672-4.485 1.204-1.577 2.313-2.023 10.34-4.156 3.784-1.005 19.807-5.292 35.608-9.527 15.801-4.234 29.047-7.698 29.435-7.698h.706v4.63c0 3.24.09 4.63.296 4.63.163 0 2.604-.617 5.424-1.372l5.128-1.371v-11.858c0-8.594-.082-11.857-.297-11.857-.163 0-4.52 1.131-9.68 2.515-5.16 1.383-9.491 2.448-9.624 2.366-.134-.083-.243-2.286-.243-4.897 0-2.61-.07-4.747-.155-4.747-.085 0-2.348.595-5.03 1.323-2.681.728-4.983 1.323-5.116 1.323-.216 0-4.466-2.358-6.09-3.379-.625-.393-.453-.46 4.63-1.822 2.903-.778 5.517-1.432 5.808-1.454.291-.022 1.928.759 3.638 1.735l3.11 1.775v2.366c0 1.72.09 2.365.33 2.362.182-.002 3.404-.817 7.16-1.81l6.83-1.804 2.753 1.61 2.752 1.612.01 12.49.008 12.492-1.124.3c-.619.165-3.09.834-5.49 1.485-2.401.652-4.544 1.194-4.763 1.205-.404.02-5.847-3.003-6.67-3.704-.325-.278-.473-.884-.529-2.163l-.077-1.777-32.676 8.766c-17.972 4.82-33.117 8.98-33.657 9.241-1.263.613-2.326 1.68-2.326 2.337 0 .46.123.497 1.124.333.619-.102 5.725-1.42 11.347-2.928l10.223-2.744 3.073 1.776 3.072 1.775v14.943l-1.389.4c-.764.219-7.635 2.068-15.27 4.108-12.297 3.286-14.108 3.707-15.875 3.687-1.096-.013-2.291-.114-2.655-.226zm.397-2.334c-3.846-1.343-6.142-3.802-7.145-7.652-.575-2.208-.564-12.725.016-14.426.569-1.67 2.029-3.303 3.292-3.681l1.027-.308-1.558-1.007c-1.901-1.228-2.812-2.543-3.2-4.618-.363-1.94-.148-12.676.289-14.409.496-1.97 1.853-4.424 3.205-5.797 2.485-2.525 3.435-2.917 13.867-5.714 15.604-4.184 22.195-5.96 22.685-6.11.417-.128.463.094.463 2.247v2.389l-1.257.367c-.691.202-7.448 2.02-15.015 4.04-12.933 3.451-13.854 3.737-15.346 4.75-3.21 2.183-4.235 5.212-4.05 11.984.094 3.47.203 4.347.663 5.37.743 1.653 2.354 3.386 3.707 3.986.612.272 1.17.586 1.238.697.07.111-.526.706-1.321 1.321-1.738 1.345-3.4 3.813-3.79 5.63-.39 1.822-.365 9.558.037 10.925.59 2.012 1.907 3.489 4.178 4.687.99.523 1.568.627 3.44.617 2.034-.01 3.428-.331 14.63-3.37 6.811-1.847 12.496-3.359 12.635-3.359.138 0 .25.983.25 2.187v2.187l-13.754 3.678c-15.073 4.03-16.586 4.297-19.186 3.39zm2.646-6.534c-1.9-.925-2.521-1.56-3.502-3.584-.345-.71-.472-1.858-.547-4.93-.147-5.972.633-8.38 3.46-10.683 1.723-1.404 2.878-1.814 11.57-4.103a729.87 729.87 0 0 0 5.103-1.356c.434-.125.467.066.397 2.304l-.077 2.441-5.19 1.382c-7.477 1.99-8.704 2.671-9.883 5.492-.467 1.119-.535 3.784-.123 4.872.69 1.827 3.382 3.265 5.345 2.855.47-.098 5.929-1.536 12.13-3.195 6.2-1.659 11.35-3.016 11.443-3.016.093 0 .169 1.128.169 2.506v2.506l-1.39.398c-8.074 2.312-25.442 6.76-26.39 6.758-.72-.002-1.716-.258-2.515-.647zm-12.47-22.095c-2.856-1.675-4.395-3.17-4.895-4.755-.167-.528-.354-3.662-.425-7.118-.145-7.094.197-9.796 1.606-12.717 1.782-3.691 4.361-5.544 10.099-7.255 4.307-1.284 31.832-8.646 32.326-8.646.217 0 1.637.739 3.155 1.64l2.76 1.642-.071 7.156-.07 7.156-12.55 3.365c-7.39 1.98-13.157 3.667-14.024 4.101-1.554.778-2.81 2.42-2.263 2.96.17.168 4.358-.842 12.036-2.904 6.475-1.74 13.278-3.562 15.117-4.051l3.343-.889 2.862 1.648c2.681 1.544 3.538 2.255 2.71 2.252-.193 0-7.732 1.976-16.752 4.392-12.22 3.274-16.65 4.36-17.384 4.262-2.182-.293-3.33-1.988-3.035-4.481.215-1.816.875-2.807 2.423-3.642.836-.45 5.998-1.963 14.023-4.109 6.985-1.868 12.787-3.523 12.894-3.679.257-.373.26-12.788.004-12.925-.416-.222-34.28 9.05-35.733 9.784-2.048 1.033-4.546 3.57-5.57 5.656-1.348 2.744-1.617 4.641-1.611 11.358.005 6.638.283 8.645 1.4 10.11 1.313 1.72 1.023 1.683-2.376-.311zm30.859 1.357c0-.122 1.247-1.52 2.77-3.11 1.525-1.587 2.775-3.08 2.779-3.314.004-.264-.983-1.014-2.573-1.955-2.57-1.521-3.123-1.974-2.767-2.264.103-.084 1.14-.43 2.304-.77a195.92 195.92 0 0 0 3.25-.974c1.586-.499 2.152-.449 3.365.298.582.358 1.233.656 1.448.66.214.005 1.11-.705 1.99-1.578 1.325-1.314 1.873-1.66 3.182-2.02.87-.237 2.172-.595 2.893-.793.774-.214 1.407-.264 1.548-.124.14.141-1.026 1.517-2.854 3.367l-3.092 3.13.75.609c.412.335 1.802 1.216 3.088 1.957 2.776 1.6 2.744 1.709-.751 2.594-4.642 1.175-5.198 1.225-6.525.583-.65-.315-1.308-.573-1.46-.573-.154 0-.997.685-1.875 1.521-1.477 1.41-1.788 1.576-4.202 2.255-2.765.778-3.268.855-3.268.5zm4.205-1.623c1.448-.431 1.998-.773 3.195-1.984.795-.805 1.602-1.464 1.794-1.464.191 0 .947.304 1.68.675l1.33.674 2.298-.552c2.564-.616 4.18-1.252 3.897-1.536-.102-.103-1.278-.842-2.612-1.642-1.334-.8-2.426-1.6-2.426-1.777 0-.177 1.18-1.516 2.624-2.977 1.446-1.462 2.438-2.654 2.21-2.654-.227 0-1.17.234-2.094.52-1.347.418-1.97.811-3.137 1.98-.8.803-1.656 1.527-1.902 1.61-.246.081-1.069-.167-1.83-.552-1.59-.807-2.137-.777-5.539.297-2.544.804-2.54.82.708 2.78 1.402.848 2.213 1.505 2.213 1.794 0 .251-.545.987-1.212 1.636-1.508 1.467-3.401 3.693-3.14 3.693.107 0 .981-.234 1.943-.52zm-21.209-.29c-3.875-.935-5.756-3.907-5.745-9.073.013-6.142 1.488-9.615 4.803-11.306.743-.38 29.11-8.179 29.745-8.179.059 0 .107 1.048.107 2.33v2.328l-12.237 3.259c-6.73 1.792-12.771 3.488-13.424 3.77-2.224.956-3.336 2.559-3.613 5.204-.376 3.597 1.596 5.857 5.114 5.862.609 0 3.087-.536 5.508-1.193 2.42-.658 4.512-1.127 4.647-1.043.261.161.353 4.883.096 4.883-.083 0-2.792.704-6.02 1.564-6.619 1.764-7.574 1.933-8.98 1.594zm38.76-9.31.072-5.357 2.381-.732a823.48 823.48 0 0 0 3.175-.982c.437-.137 1.3-.329 1.918-.426l1.125-.177v5.573c0 5.078-.041 5.584-.463 5.708-2.575.76-6.8 1.752-7.456 1.752h-.824zm6.29 3.34 1.455-.495.072-4.829c.04-2.655-.02-4.827-.133-4.826-.363.004-6.632 1.785-6.928 1.968-.296.183-.43 9.175-.142 9.464.18.18 3.731-.621 5.675-1.282zm33.602-3.259v-5.013l-1.522.806c-1.366.724-1.701.794-3.287.684-2.306-.159-3.948-1.135-4.779-2.841-.483-.993-.581-1.66-.59-4.011-.004-1.551.079-2.91.186-3.018.243-.245 7.043-2.217 7.676-2.225.416-.006.463.317.463 3.14 0 2.662.067 3.172.43 3.312.937.36 1.158-.308 1.162-3.514.002-1.692.103-3.232.223-3.422.208-.328 7.592-2.42 8.57-2.429.434-.004.463.669.463 10.454v10.457l-.727.29c-.4.16-1.74.568-2.977.907-1.237.34-2.833.801-3.548 1.027-.714.225-1.399.409-1.52.409-.123 0-.223-2.256-.223-5.013zm2.827 3.546a57.88 57.88 0 0 0 3.589-.963l1.786-.554v-19.733l-2.448.657a454.67 454.67 0 0 0-3.803 1.037l-1.356.38-.117 2.98c-.138 3.53-.415 4.236-1.614 4.119-1.185-.116-1.502-.922-1.506-3.834l-.004-2.429-2.315.625c-1.274.343-2.832.76-3.463.924l-1.148.3.09 2.847c.078 2.493.168 2.965.726 3.778 1.813 2.642 5.033 3.002 7.821.875.662-.506 1.322-.92 1.466-.92.164 0 .262 1.927.262 5.16 0 2.838.052 5.16.116 5.16s.927-.184 1.918-.41zm-29.386-1.578c-1.316-.374-3.032-1.815-3.502-2.94-.938-2.245-.08-5.793 1.778-7.362 2.158-1.82 4.427-2.18 6.796-1.077 1.008.469 1.434.56 1.52.328.066-.178.15-2.93.187-6.116.057-4.833.134-5.826.465-5.998.664-.345 7.251-2.1 7.879-2.1h.588v10.432c0 11.398.044 11.069-1.54 11.42-.39.086-1.965.503-3.5.926-1.534.423-3.113.77-3.51.77-.395 0-1.362.362-2.147.806-1.725.973-3.599 1.313-5.014.91zm4.157-1.05c.558-.266 1.392-.997 1.853-1.624.902-1.228 1.499-1.479 1.499-.631 0 .822 1.19.702 5.622-.569l1.786-.512v-20.306l-2.977.807c-1.637.444-3.274.89-3.638.99l-.661.181-.07 6.794c-.06 5.669-.134 6.794-.448 6.794-.207 0-.458-.13-.556-.29-.1-.16-.725-.636-1.39-1.059-3.16-2.003-7.43.047-8.271 3.97-.36 1.679-.186 2.732.665 4.017 1.315 1.988 4.143 2.606 6.586 1.438zm-19.894-9.992c-4.027-2.32-4.616-3.048-4.754-5.865-.08-1.655-.002-2.047.67-3.326 1.31-2.495 3.877-3.95 6.368-3.608 2.112.29 6.061 2.198 8.276 4 .357.29 1.051 1.04 1.542 1.667.775.99.988 1.117 1.636.974.598-.13 1.261.138 3.34 1.356 2.878 1.685 3.212 1.995 2.452 2.276-1.31.485-7.726 2.085-7.852 1.958-.078-.078-.007-.675.156-1.327.465-1.843.367-3.347-.296-4.574-.63-1.167-2.365-2.714-3.08-2.748a7.275 7.275 0 0 1-.955-.133c-1.202-.256-3.859.839-4.845 1.996-.792.93-1.668 3.221-1.695 4.431-.035 1.606.58 2.806 1.912 3.726 1.056.73 1.318 1.126.725 1.097-.182-.009-1.802-.863-3.6-1.9zm4.412 1.088c-2.56-1.13-3.038-4.532-1.027-7.308.597-.825 1.081-1.164 2.079-1.456 2.898-.85 4.88.37 5.617 3.454.442 1.85-.977 4.343-3.017 5.301-1.497.704-2.072.706-3.652.008zm3.411-.786c3.163-1.531 3.584-5.476.743-6.95-.894-.465-1.138-.486-2.224-.196-1.494.4-2.322 1.127-3 2.636-.85 1.888-.2 3.954 1.469 4.68 1.158.503 1.682.474 3.012-.17zm9.932-5.609-3.24-1.882v-4.443c0-2.95.093-4.443.28-4.443.153 0 1.76.856 3.571 1.902l3.292 1.903v4.447c0 3.395-.078 4.442-.33 4.423-.183-.013-1.79-.871-3.573-1.907z" transform="translate(-12.816 -140.391)"/>
</svg>
