<svg xmlns="http://www.w3.org/2000/svg" viewBox="0 0 117.74 25.929">
  <path fill="#ff0000" d="M0 0v9.195a3.425 3.297 0 0 1 2.328 3.123A3.425 3.297 0 0 1 0 15.441v10.488h117.74V0z"/>
  <path fill="#fff" d="M6.993 4.133h4.305v17.875H6.993zm5.244 9.8 6.567 8.075h5.774l-8.815-9.705 7.68-8.17h-5.196l-6.01 6.393zm19.23-9.8h4.64l8.4 17.875H25.395V20.43l4.347-9.402h4.3l-3.166 7.394h7.158m23.704-8.965v12.551h-4.163V11.516c0-2.291-1.7-3.573-3.456-3.573h-3.966v14.065h-4.435V4.158h10.036c3.862 0 5.984 2.822 5.984 5.3zm2.992-5.264v3.302h16.078V4.193zm0 6.414v11.401h16.052v-3.792h-12.26V14.4h12.26v-3.793Zm17.978 3.326 6.846 8.075h5.538l-8.88-9.62 7.896-8.255h-5.326l-6.074 6.8z"/>
  <path fill="#fff" d="M104.078 3.341C98.832 3.382 94.6 7.695 94.6 13c0 5.334 4.277 9.658 9.552 9.658 5.276 0 9.401-4.324 9.401-9.658s-4.125-9.659-9.4-9.659h-.075zm.1 3.967h.02c2.792 0 4.904 2.541 4.904 5.677 0 3.135-2.112 5.464-4.904 5.464-2.793 0-5.057-2.329-5.057-5.464 0-3.127 2.252-5.666 5.038-5.677z"/>
</svg>