<svg xmlns="http://www.w3.org/2000/svg" xml:space="preserve" viewBox="-66.9471 -28.425 446.31367 113.69999">
  <path fill="#fff" d="M101.46657 5.275h21.6l-2.5 28.8h.1l16.9-28.8h22l-16.5 53.5h-14.4l11.8-36.9h-.1l-20.6 36.9h-11.5l2.2-36.9h-.1l-10.999996 36.9h-14.3zm63.5 0h15.5l-16.4 53.5h-15.5zm21.2 0h23.2c9.2 0 20.2 6.1 17.4 23.6-2.8 17.8-14.6 29.9-32.1 29.9h-24.9zm3.4 39.8h7.5c10.1 0 13.7-11.2 14.2-16.1.9-8-2.8-10-8-10h-5.7zm81.2 13.7h-14.9l3.1-27.7h-.1l-14 27.7h-14.9l2.2-53.5h15.2l-3.4 31.1h.1l15.5-31.1h13.5l-3.4 31.1h.1l15.3-31.1h15.8zm37.1-53.5h15.2l6.1 53.5h-15.2l-.6-7.6h-16.4l-4.1 7.6h-15.8zm-4.9 34.4h9.7l-1.2-16h-.1zm33.6-.5-8-33.9h15.5l3.2 19.9 13.9-19.9h18.2l-27.3 33.7-5.4 19.8h-15.5z"/>
  <path fill="red" d="M-40.833426 62.075c-17.6-6.1-29.8-17.6-25.1-31.6 6.7-20.1 46.2-35.7 88.3-34.7 5.9.1 9.8.4 15.2 1.1l21.4-25.3-8.3 27.6c25 6.1 40.7 19.5 35.5 34.7-6.8 20.1-44.4 32.8-72.2 34.3l13.9-48-55 65.1 14.2-52.6zm113-31.8c3.3-11.1-5.7-20.6-22.7-26.4l-13.8 46.7c16.7-3 33.5-10.1 36.5-20.3zm-37.2-30.5c-4.8-.7-9-1-14.4-1.2-33.9-.8-65.9 11.8-71.3 28.1-3.2 9.7 2 15.9 12.7 20.1l47.4999996-44-9.59999997 38.4L34.966574-.225" class="st0"/>
</svg>