<svg xmlns="http://www.w3.org/2000/svg" viewBox="0 78.144 187.087 37.562">
   <path fill="#ff0000" fill-rule="evenodd" d="M8.08 85.588v17.774H0v-24.7h24.872c3.174 0 6.175 2.77 6.175 5.367v19.333h-8.252V85.588Zm81.078.115H79.06v17.6h-8.021V78.836h38.952c2.193 0 4.789 2.827 4.848 5.424l-.059 19.043h-8.078V85.588h-9.637v17.774h-7.906V85.703Zm34.74 17.831c-2.367.059-5.078-3.289-5.078-5.078V83.914c0-2.308 2.77-4.963 5.25-4.963h24.814v6.348l-21.871-.058V97.36l21.871-.059v6.291zm-89.562-9.002c.289-7.617 5.771-7.098 5.771-7.098l18.235.058v-3.116H37.049v-5.425h24.699c2.308.173 5.136 2.828 5.193 5.482l-.058 18.87H40.626c-4.519.373-6.348-4.242-6.348-8.078.001-.232.001-.463.058-.693zm24.122-1.385H43.281v4.154l15.234-.057zm94.524-8.771c0-3.174 2.25-6.232 5.656-6.232h23.082c2.654.173 5.193 2.77 5.367 5.367v15.408c0 2.365-3.348 5.25-4.963 5.309l-24.121-.059c-2.598.059-5.021-2.941-5.021-5.482zm26.026.057-17.947.058v13.792h17.947z" clip-rule="evenodd"/>
   <path fill="#ff0000" d="M81.77 151.65q0-.811.593-1.413.602-.61 1.477-.61.793 0 1.403.565.647.601.647 1.494v1.513h-1.358v-2.096H83.13v4.612h1.367q.592 0 .993.392t.401.975v4.029q0 .847-.592 1.422-.62.601-1.458.601-.857 0-1.468-.574-.601-.574-.601-1.43v-1.532h1.358v2.087h1.403v-4.603h-1.33q-.638 0-1.04-.392-.391-.392-.391-1.03zm5.077-1.905h2.498v13.298h-1.358v-11.94h-1.14zm6.809-.119h1.367l-2.351 13.508h-1.367zm2.971 2.024q0-.811.593-1.413.601-.61 1.476-.61.793 0 1.404.565.647.601.647 1.494v1.513H99.39v-2.096h-1.403v4.612h1.367q.592 0 .993.392t.401.975v4.029q0 .847-.592 1.422-.62.601-1.459.601-.856 0-1.467-.574-.602-.574-.602-1.43v-1.532h1.359v2.087h1.403v-4.603h-1.33q-.639 0-1.04-.392-.392-.392-.392-1.03zm7.593-2.024q.866 0 1.458.62.593.61.593 1.477v3.956q0 .592-.401 1.002-.392.401-.994.401h-1.367v4.603h1.404v-2.087h1.358v3.445h-4.12v-5.924q0-.611.383-1.003.383-.401.993-.401h1.386v-4.612h-1.404v2.096h-1.358v-1.513q0-.738.556-1.394.565-.666 1.513-.666zm10.855 13.417h-1.358v-11.94h-1.385v-1.358h4.129v1.358h-1.386zm2.27-13.298h1.358v5.988h1.404v-5.988h1.358v5.432q0 1.294-1.377 1.942v5.924h-1.367V157.1q-1.376-.565-1.376-1.905zm5.523 0h2.744q.61 0 .993.428.383.429.383.912v4.63q0 .583-.4.975-.393.392-.976.392h-1.386v5.961h-1.358zm2.762 1.358h-1.404v4.612h1.404zm3.783 5.979v4.603h2.761v1.358h-2.725q-.629 0-1.012-.392-.382-.392-.382-1.02v-10.492q0-.61.392-1.002.4-.392 1.002-.392h2.725v1.358h-2.761v4.612h2.078v1.367z" aria-label="S1/S2 TYPE" font-family="SEGA LOGO FONT" font-size="18.667" style="-inkscape-font-specification:Industry" transform="scale(1.4099 .70927)"/>
</svg>