<svg xmlns="http://www.w3.org/2000/svg" viewBox="0 0 199.04282 36.813">
  <path fill="#fff" d="M31.318 34.432V.824h-5.586l.092 21.612L0 1.099l.091 33.7h4.854V13.004Zm3.572.549 4.304-7.326h-3.938v-5.127h6.502L53.571 1.099l18.865 33.882h-6.685l-3.846-7.326H45.147l-4.029 7.326zm12.546-12.545h12.088L53.48 11.355Zm72.803 12.545h-5.494V1.19l18.681 21.703L152.29.733v34.248h-5.862l-.09-18.406-13.004 15.66-13.095-15.569zm42.674 0 .091-34.615h5.586l-.091 34.615zm-90.66-16.574C72.253 8.242 80.495 0 90.661 0c10.164 0 18.406 8.242 18.406 18.407 0 10.164-8.242 18.406-18.406 18.406-10.166 0-18.408-8.242-18.408-18.406zm18.408 12.912c7.143 0 12.91-5.77 12.91-12.912 0-7.051-5.768-12.821-12.91-12.821-7.052 0-12.822 5.77-12.822 12.821 0 7.142 5.769 12.912 12.822 12.912z"/>
</svg>