<svg xmlns="http://www.w3.org/2000/svg" viewBox="0 0 403 114.50806">
  <path fill="none" stroke="#fff" stroke-width=".37795276" d="M.0001357 57.252886C.0001357 25.634061 25.63674-.00254272 57.25514-.00254272c31.618613 0 57.25543 25.63660372 57.25543 57.25542872 0 31.618612-25.636817 57.255004-57.25543 57.255004-31.6184 0-57.2550043-25.636392-57.2550043-57.255004"/>
  <g fill="#fff">
    <path d="M79.396198 39.695817c-1.009041-.222654-1.9147-1.14399-1.9147-1.14399l.381542-1.14399 1.151828-.76266s1.14399.09512 1.52532.38133c.38133.285997.76266 1.52532.76266 1.52532l-.857992.76266s-.190665.571783-1.048658.38133m6.482822-6.490449 1.532947-2.288403h1.907073s1.620441 2.383312 1.620441 2.765066c0 .38133-1.239322 2.200274-1.239322 2.200274l-2.486696-.09512zm0 19.082389c1.294827.826215 2.669098.810326 4.003965.794438 2.232475-.02415 4.377033-.723256 5.918242-2.510635 1.247373-1.811105 1.279574-2.93963 2.010033-4.988855.428996-1.199707.953325-1.882923.953325-1.882923s.428996 1.620652.381541 3.534929c-.03199 1.279362-.26227 2.629694-1.048869 3.909056-1.52532 2.486484-2.963146 3.439597-4.011592 3.630474-1.048869.190453-4.003965.571783-5.911038-.285998-1.493331-.675166-2.295607-2.200486-2.295607-2.200486m-8.397522-32.818319-9.159547 13.354389 6.490237 14.125098 11.44795 14.506641 8.778429 3.050428 11.074463-13.362227-1.52532-11.44795-11.455581-16.031961zM11.455861 61.066186l1.14399-30.530551 3.813512-4.583799L31.30091 37.026507l3.813511-22.617742.76266 6.585993 1.914277-3.44002.38133 3.05869 2.669522-3.44002.444885 40.143245-21.434136-16.477058s-8.397098 20.035926-8.397098 20.226591"/>
    <path d="m44.655489 15.266864 25.835107-7.2531086s-5.219348 3.0582666-4.838018 3.0582666c.381118 0 3.43197.38133 3.43197.38133l-6.101492 3.813512 6.86394-.38133L51.527267 25.5704v.763084l19.853099-1.144414-19.853099 14.125523v4.194206l14.951738-1.842883s-4.933563 2.804258-4.640151 2.613805c.286633-.198503 3.622847-.13516 3.622847-.13516l-2.097103 1.27915h3.622423L45.044869 61.06608Z"/>
  </g>
  <path fill="#fff" d="m42.748839 72.903304-6.307622-13.807535s-3.495525-3.154023-9.700188-2.931369c-1.366644.04767-12.655495.135161-13.378539 17.501564-.643601 15.531148 9.708238 22.871962 9.708238 22.871962s5.012795 3.701864 8.722924 5.950234c3.709917 2.25599 10.573857 5.52928 10.573857 5.52928l-5.338832-33.970569L25.5731 77.479264l2.29603.38133-3.82135 3.058691 3.431758.381118-2.287768 2.288192 6.109118.381118 2.28798 8.778428s-4.655403-1.461765-8.572086-5.354297c-3.209104-3.193638-5.791132-8.397522-5.93413-12.584101-.135161-4.186368 1.826994-9.469695 7.634438-9.541089 5.815494-.07139 16.031749 7.63465 16.031749 7.63465"/>
  <path fill="#fff" d="m39.698326 82.444414 21.751699-29.775306 13.743557 11.074459s-1.716197-.43747-1.906439-.38133c-.190876.04745 3.050429 4.575748 3.050429 4.575748l-4.19463-1.525532 2.28798 3.05064-14.125099-4.957078-1.143778 1.14399 9.159758 15.269301-18.701059-.76266 10.304172 19.844834-3.813723-.762869 1.79564 4.488889-3.225416-2.80447 2.573766 4.80624z"/>
  <path fill="#fff" d="m72.143026 91.222948 1.14399-1.90665 3.43197-1.525108 2.677149 3.431758h2.28798l3.050852-1.14399 2.287768 4.95729-5.71995 2.677149h-2.676937l-1.144414-2.287768h-3.813088ZM91.988075 80.9192s1.39016-.619873 1.52532-.381542c.134948.230281 1.90665.381542 1.90665.381542v1.90665l-1.52532 1.14399-1.90665-1.14399zm-8.015557-1.907074-1.525743-2.295606 1.525743-3.05064 3.820927-.381542 1.144202 2.288192-1.144202 3.058478zM66.796356 86.25782l-.381118 13.74377 6.10933 4.96513 10.75626-2.26404 17.867002-15.67415 1.14399-19.471981H81.684115Z"/>
  <g fill="#fff">
    <path d="M349.66981 91.680672h-31.697c-1.12534 0-2.2098-.04174-3.29405-.208461-1.04273-.125203-2.00199-.333664-2.87777-.583858-1.25119-.29193-2.16871-.917523-2.75257-1.417489-.50039-.459291-.7508-.959892-.7508-1.460282v-5.505134c.12521-.458867.45887-1.042726 1.00099-1.459646.54171-.417133 1.29293-.792531 2.16871-1.042726.91753-.250195 1.91852-.458867 3.0445-.583859 1.16772-.125203 2.37738-.20846 3.71182-.20846h31.44617v1.668107h-31.44617c-1.33444 0-2.50237.04173-3.54488.166938-1.00163.124991-2.00199.333451-2.91951.583223-1.25118.375822-1.50138.834689-1.75157 1.460282l-.0417 1.292285h39.66214l.0417 1.710477h-39.66213v1.79331c0 .458867.33366.917522 2.00134 1.376389.83469.209096 1.75221.375398 2.79473.501026 1.04209.166302 2.08545.208036 3.12796.208036h31.7381zm-65.47803 0h-.0835zm19.10154-10.718318h-19.97703v10.718339h-1.75221V80.962354h-19.9353v-1.751576h41.66454zm-99.63551 5.546995h-11.55239v5.171471h-1.75179v-5.171471h-14.93055c-2.25218 0-5.04584-.292564-5.04584-3.62899V79.21027h1.8344v3.503787c0 2.210443 2.12698 2.001347 3.50337 2.001347h31.40443c1.41791 0 3.54489.209096 3.54489-2.001347V79.21027h1.75157v3.670089c.00021 3.336426-2.79409 3.62899-5.04626 3.62899zm-37.78535-5.505684h-33.36468c-1.66811 0-3.16949.292564-4.25395.75122-.83405.333663-1.33444.709062-1.33444 1.042725 0 .333664.50039.708427 1.33444 1.042091 1.08446.417556 2.58584.709485 4.25395.709485h26.0245c1.25118 0 2.46064.124568 3.46163.374763.54212.125203 1.00078.291929 1.45964.459502.45866.207825.87579.416921 1.20946.625382.79231.583435 1.25118 1.29292 1.25118 2.084816v.04237c0 1.125982-.95926 2.084604-2.46064 2.710197-1.29292.500389-3.04449.834689-4.92127.834689h-32.90581v-1.793946h32.90581c1.66811 0 3.1697-.29193 4.25395-.708427.79232-.375398 1.33465-.75122 1.33465-1.042513v-.04237c0-.166303-.20867-.374763-.5006-.583859-.25019-.166938-.54212-.291294-.83405-.458867-.3754-.124568-.7508-.249559-1.20946-.374763-.87578-.20846-1.91851-.333664-3.04449-.333664h-26.0245c-1.87678 0-3.62836-.291929-4.92128-.834689-1.50138-.624957-2.46064-1.584214-2.46064-2.710197 0-1.168352.95926-2.126974 2.46064-2.752567 1.29292-.501025 3.0445-.834689 4.92128-.834689h33.36468zm91.54384 0h-33.32231c-1.66832 0-3.1697.292564-4.25395.75122-.83406.333663-1.33466.709062-1.33466 1.042725 0 .333664.5006.708427 1.33466 1.042091 1.08425.417556 2.58563.709485 4.25395.709485h26.02386c1.25161 0 2.46127.124568 3.42032.374763.5417.125203 1.00099.291929 1.45922.459502.45929.207825.87579.416921 1.21009.625382h-.0417c.83406.583435 1.29229 1.29292 1.29229 2.084816v.04237c0 1.125982-.95926 2.084604-2.46064 2.710197-1.29228.500389-3.00234.834689-4.87954.834689H217.2125v-1.793946h32.90539c1.66874 0 3.12839-.29193 4.17112-.708427.83341-.375398 1.37617-.75122 1.37617-1.042513v-.04237c0-.166303-.20846-.374763-.50039-.583859-.25019-.166938-.54212-.291294-.83405-.458867-.3754-.124568-.7508-.249559-1.16772-.374763-.876-.20846-1.91851-.333664-3.04513-.333664h-26.02386c-1.87678 0-3.62836-.291929-4.92128-.834689-1.50138-.624957-2.46064-1.584214-2.46064-2.710197 0-1.168352.91752-2.126974 2.46064-2.752567 1.29292-.501025 3.0445-.834689 4.92128-.834689h33.32231zm139.04747-1.793162c.45886 0 .91752.333663.91752.875788v11.594126h-1.70984V81.629406l-18.93452 9.550622-.25019.0841c-1.04273.416285-1.33466.333452-2.08588 0l-.24977-.125839-18.768-9.549986v10.092322h-1.79331V80.044556c0-.542124.45865-.834053.87578-.834053.25083 0 .37519.04173.5845.166726l19.51753 10.051858c.75079.333452.87642.499755 1.79394.04152l17.26557-8.799825 2.46127-1.334655c.1252-.08389.2915-.125627.3754-.125627m-86.03905-56.38606v14.88903h-1.16771c-1.37639-4.087222-3.46163-7.173453-6.2553-9.258269-2.7532-2.127397-4.42152-3.211858-7.71621-3.211858-3.12797 0-5.75533.917523-7.84057 2.669099-2.12761 1.793945-3.58683 4.254159-4.46262 7.423647-.87579 3.1697-1.29228 6.422657-1.29228 9.759294 0 4.045276.45886 7.590374 1.41748 10.635506.95926 3.085595 2.50238 4.711544 4.62935 6.130727 2.12697 1.417488 3.83682 2.126338 6.75632 2.126338 1.04251 0 2.08524-.08326 3.12775-.291293 1.0851-.250831 1.91852-.54276 3.04408-.959893v-10.76007c0-1.668107-.12457-2.752567-.33303-3.252957-.25041-.458867-.70906-.917522-1.41813-1.29292-.70948-.417133-1.58485-.625593-2.62736-.625593h-1.08446v-1.125983h20.51937v1.125983c-1.54312.125203-2.62758.334299-3.25359.667327-.6256.292565-1.08446.834053-1.41749 1.58485-.16694.416921-.25083 1.376177-.29193 2.919293l-.0835 10.426409c-2.66973 1.16793-5.12974 2.168709-8.04924 2.794302-2.91929.583859-5.96443 1.083825-9.09176 1.083825-4.00375 0-6.54786-.291294-9.17522-1.375754-2.66867-1.084249-4.96301-2.08524-7.00715-3.837451-2.00198-1.792675-3.5862-3.794022-4.75391-6.0051-1.41813-2.877559-2.16871-6.047259-2.16871-9.634515 0-6.338763 2.25217-11.677172 6.71458-16.055687 4.42089-4.379575 10.05101-6.548284 16.80733-6.548284 3.08624 0 5.8388.792319 8.71657 1.876779 2.04372.792319 3.25317 1.167717 3.62836 1.167717.58386 0 1.08446-.20846 1.58485-.625593.5006-.417132.95925-1.209451 1.37639-2.418903zm-75.65419 2.710684h-.0835v-2.33501c6.88152-.166726 12.55359 1.792886 16.8908 5.797063 4.42088 4.128321 6.63069 9.258692 6.63069 15.43073 0 5.296462-1.66705 9.925808-4.96237 13.971296-4.37915 5.297309-10.55162 7.965772-18.55912 7.965772v-3.211222c2.21044 0 4.12895-.583859 5.5886-1.584215 1.87678-1.251186 3.08623-3.295326 4.12896-6.089628 1.04251-2.752567 1.75157-6.297665 1.75157-10.760073 0-5.338408-.54212-9.300427-1.62658-11.928003-1.04252-2.669098-2.41891-4.504143-4.04549-5.629702-1.66811-1.084248-3.58662-1.627008-5.71359-1.627008m-.0835 0c-3.96202.04173-6.92305 1.91915-8.96677 5.672496-1.70984 3.044496-2.54389 7.506481-2.54389 13.26181 0 6.881524 1.20945 12.052994 3.79508 15.306162 1.83504 2.2937 4.46262 3.378161 7.71558 3.378161v3.211222h-.0417c-8.0075 0-14.22149-2.543471-18.60064-7.631473-3.46163-4.004388-5.2132-8.758726-5.2132-14.264072 0-6.17225 2.25196-11.343932 6.75632-15.430518 4.50414-4.129381 10.05101-6.089629 16.6406-5.838798h.45866zm-46.04327.709338V42.88507h.91752c2.87777 0 4.00376-.834053 5.29668-2.544106 1.29292-1.668107 2.12697-4.12938 2.46063-7.423648h1.29292v22.104217h-1.29292c-.25019-2.419115-.83405-4.379787-1.66831-5.922267-.87579-1.543115-1.87678-2.585841-3.00277-3.08623-1.12598-.54276-1.83504-.792531-4.00375-.792531v12.386657c0 2.335647.1252 3.753559.33366 4.253948.20846.542336.58386.959257 1.16772 1.292921.58386.333664 1.50138.50039 2.83604.50039h2.71083c4.21221 0 5.42166-.917523 7.96577-2.752567 2.54411-1.793311 4.29568-3.87855 5.42188-7.632108h1.25118l-1.96024 12.719685h-37.07645V64.82235h1.54312c1.29292 0 2.37738-.208673 3.1697-.625593.58386-.29193 1.04272-.792531 1.33465-1.501381.2502-.500602.3754-1.793522.3754-3.920496V30.998379c0-1.876144-.0417-3.044497-.16694-3.502728-.20846-.709062-.62559-1.292921-1.25118-1.668743-.83406-.583858-2.00177-.875364-3.46163-.875364h-1.54312v-1.167717h38.03576v12.469491h-1.25118c-.66733-3.044496-1.54312-5.213205-2.75257-6.546589-1.16772-1.33529-2.7943-2.294547-4.96301-2.92014-1.25119-.375398-3.58662-.542124-7.04825-.542124zm-49.29618-2.460638 23.39692 26.191227V31.832432c0-2.543471-.37539-4.253312-1.20945-5.129736-1.12598-1.209028-2.46063-1.79331-5.12973-1.751152v-1.167717h14.13823v1.167717c-2.00198.208672-2.33565.542124-3.00297.875364-.70885.375822-1.25119.959681-1.62638 1.793946-.37539.792319-.58385 2.209808-.58385 4.211578v35.116256h-1.16793l-32.11323-35.116256v26.816821c0 2.418903.6256 4.046123 1.87678 4.921275 1.25119.834689 2.6691 1.251822 4.29569 1.251822h1.12598v1.167081h-16.84907V64.82235c2.62737 0 4.42068-.500602 5.4634-1.418124 1.00099-.917523 1.54312-2.502372 1.54312-4.754973V28.871405l-1.04273-1.125559c-1.00078-1.126619-1.87678-1.835045-2.62736-2.210867-.79253-.333664-.0835-.5417-1.50138-.583435v-1.167717zm237.18105 1.7513h-.0835v-2.33501c6.88153-.166726 12.55296 1.792886 16.89038 5.797063 4.46241 4.128321 6.67285 9.258692 6.67285 15.43073 0 5.296462-1.66768 9.925808-4.96301 13.971296-4.42089 5.297309-10.59335 7.965772-18.60022 7.965772v-3.211222c2.20981 0 4.12896-.583859 5.58797-1.584215 1.87741-1.251186 3.08687-3.295326 4.12896-6.089628 1.04272-2.752567 1.75221-6.297665 1.75221-10.760073 0-5.338408-.54276-9.300427-1.62701-11.928003-1.04273-2.669098-2.41912-4.504143-4.04506-5.629702-1.66811-1.084248-3.58726-1.627008-5.7136-1.627008m-.0835 0c-3.96265.04173-6.92304 1.91915-8.96676 5.672496-1.71048 3.044496-2.5439 7.506481-2.5439 13.26181 0 6.881524 1.20946 12.052994 3.79466 15.306162 1.83505 2.2937 4.46241 3.378161 7.716 3.378161v3.211222h-.0422c-8.0075 0-14.2217-2.543471-18.60085-7.631473-3.46099-4.004388-5.2132-8.758726-5.2132-14.264072 0-6.17225 2.25217-11.343932 6.75632-15.430518 4.50414-4.129381 10.05101-6.089629 16.64124-5.838798h.45865z"/>
    <path d="M330.40135 26.244465V42.88507h.91816c2.87756 0 4.00375-.834053 5.29667-2.544106 1.29229-1.668107 2.12634-4.12938 2.46064-7.423648h1.29271v22.104217h-1.29271c-.25083-2.419115-.83426-4.379787-1.66832-5.922267-.87578-1.543115-1.87678-2.585841-3.00276-3.08623-1.12619-.54276-1.83568-.792531-4.00439-.792531v12.386657c0 2.335647.12563 3.753559.3343 4.253948.20846.542336.58386.959257 1.16772 1.292921.58386.333664 1.50138.50039 2.83604.50039h2.71019c4.21285 0 5.4223-.917523 7.96577-2.752567 2.54475-1.793311 4.29569-3.87855 5.42231-7.632108h1.25118l-1.96003 12.719685h-37.07651V64.82235h1.54312c1.29228 0 2.37717-.208673 3.1697-.625593.58322-.29193 1.04209-.792531 1.33444-1.501381.24977-.500602.3754-1.793522.3754-3.920496V30.998379c0-1.876144-.0417-3.044497-.16673-3.502728-.20867-.709062-.62559-1.292921-1.25118-1.668743-.83469-.583858-2.00199-.875364-3.46163-.875364h-1.54312v-1.167717h38.03576v12.469491h-1.25118c-.66797-3.044496-1.54312-5.213205-2.75257-6.546589-1.16793-1.33529-2.7943-2.294547-4.96301-2.92014-1.25182-.375398-3.58726-.542124-7.04825-.542124zm-66.35366 14.263437h.25083c2.37653 0 4.29568 1.876143 4.29568 4.128956 0 2.251966-1.91915 4.08701-4.29568 4.08701h-.25083c-2.37675 0-4.29505-1.835044-4.29505-4.08701 0-2.252813 1.9183-4.128956 4.29505-4.128956"/>
  </g>
</svg>