<?xml version="1.0" encoding="utf-8"?>
<svg viewBox="0 65.244 192.26 62.764" xmlns="http://www.w3.org/2000/svg">
  <path fill="none" stroke="#fff" stroke-miterlimit="2.5" stroke-width="1.875" d="M30.282 117.872c-5.816 0-11.286-2.333-15.399-6.568-4.113-4.234-6.379-9.864-6.379-15.853 0-12.363 9.769-22.42 21.778-22.42h130.39c5.816 0 11.287 2.331 15.4 6.566 4.113 4.234 6.379 9.864 6.379 15.854 0 5.989-2.266 11.619-6.381 15.853-4.111 4.235-9.582 6.568-15.398 6.568H30.282zm130.39-5.824c8.891 0 16.121-7.446 16.121-16.597 0-4.433-1.678-8.602-4.723-11.737-3.045-3.134-7.092-4.861-11.398-4.861H30.282c-4.306 0-8.354 1.727-11.399 4.861-3.045 3.135-4.722 7.304-4.722 11.737s1.677 8.601 4.722 11.736 7.093 4.861 11.399 4.861h130.39z"/>
  <path fill="none" stroke="#fff" stroke-miterlimit="2.5" stroke-width="1.875" d="M24.697 106.152V85.041l6.408-.003 8.553 13.689.029-13.686h6.651l-.004 21.112h-6.647c-.577-1.296-8.239-13.612-8.239-13.612v13.613l-6.751-.002z"/>
  <path fill="none" stroke="#fff" stroke-miterlimit="2.5" stroke-width="1.875" d="M65.142 92.051c.212.269.566.561.724.692.621-.424 1.119-.81 1.788-1.045 5.054-1.78 7.679 1.214 8.19 1.7 2.309 2.198 1.602 8.167 1.744 12.754H70.87s.109-8.594.014-9.759c-.085-1.016-1.498-2.253-2.324-2.286-1.389-.057-3.108.683-3.183 2.297-.153 3.284.048 9.748.048 9.748H58.85V92.029l6.292.022z"/>
  <path fill="none" stroke="#fff" stroke-miterlimit="2.5" stroke-width="1.875" d="m80.77 90.43-.003-2.011h6.579l-.006 2.005 3.144.003-.026 1.896-3.11-.004-.003 13.833H80.77l.003-13.836h-2.974l.002-1.891 2.969.005z"/>
  <path fill="none" stroke="#fff" stroke-miterlimit="2.5" stroke-width="1.875" d="M89.94 99.058c-.12-4.627 4.054-7.538 7.589-7.726 1.674-.089 3.395-.226 4.904.503.957.464 2.055.617 2.846 1.389 1.561 1.527 2.572 3.464 2.572 5.938l-11.243-.036c0 1.821-.99 5.97 2.096 6.04 1.178.026 1.846-.19 2.277-1.234.32-.775.326-1.692.258-2.585 1.133.074 5.904-.073 6.484-.05-1.287 3.689-5.176 5.291-8.924 5.291-1.557 0-8.682-.731-8.859-7.53zm6.667-2.208 4.532-.018c-.006-.8-.006-1.236-.09-1.888-.117-.875-.799-2.114-2.223-2.053-1.934.083-2.217 1.212-2.219 2.449-.001.539.002 1.094 0 1.51z"/>
  <path fill="none" stroke="#fff" stroke-miterlimit="2.5" stroke-width="1.875" d="M151.133 102.07c-1.174-1.597-1.35-4.727-.25-7.057.959-2.028 3.436-3.525 4.736-3.96 1.766-.589 4.635-.752 7.049-.157 1.787.441 4.016 1.532 5.389 4.113 1.078 2.024.889 5.354-.326 7.066-.783 1.104-2.518 3.012-4.453 3.541-1.688.462-5.15.716-6.986.127-2.007-.642-3.55-1.484-5.159-3.673zm8.39 2.432c1.855.011 2.279-1.481 2.312-2.424.078-2.15-.043-4.816-.037-7.068.004-1.161-.633-2.691-2.32-2.691-2.426-.001-2.338 1.953-2.365 2.689-.047 1.242-.047 5.465-.023 7.063.008.533.256 2.418 2.433 2.431z"/>
  <path fill="none" stroke="#fff" stroke-miterlimit="2.5" stroke-width="1.875" d="m147.945 106.149-5.916.001c-.025.002-.137-.817-.137-.817-1.656 1.328-8.303 1.983-10.869-3.586-.229-.497-.898-4.113.068-6.338 1.564-3.605 5.186-4.399 7.762-4.244 1.031.061 3.012 1.158 3.012 1.158l.016-7.721 6.064.002v21.545zm-6.177-3.547c.191-.618.096-4.663.096-6.642 0-.546-.424-1.456-.525-1.585-.5-.63-.889-.962-1.896-.917-1.291.056-2.033 1.229-2.09 1.975-.154 1.981-.262 4.018.039 6.542.072.602.34 1.171.873 1.56 1.44 1.051 3.137.251 3.503-.933z"/>
  <path fill="none" stroke="#fff" stroke-miterlimit="2.5" stroke-width="1.875" d="M49.092 106.152h6.787V91.883h-6.787v14.269z"/>
  <path fill="none" stroke="#fff" stroke-miterlimit="2.5" stroke-width="1.875" d="M49.092 89.481h6.787v-4.44h-6.787v4.44z"/>
  <path fill="none" stroke="#fff" stroke-miterlimit="2.5" stroke-width="1.875" d="M116.477 91.941c.213.27.566.561.725.692.619-.422 1.117-.81 1.789-1.046 5.055-1.779 7.678 1.214 8.189 1.7 2.309 2.199 1.602 8.168 1.744 12.755h-6.719s.109-8.594.014-9.759c-.084-1.016-1.498-2.253-2.322-2.286-1.389-.057-3.109.683-3.184 2.299-.154 3.284-.094 9.855-.094 9.855h-6.363V91.919l6.221.022z"/>
  <path fill="none" stroke="#fff" stroke-miterlimit="2.5" stroke-width="1.875" d="M164.881 89.646h-.443v-2.133h.775c.533 0 .85.158.85.646 0 .393-.223.534-.498.555l.529.933h-.525l-.479-.896h-.209v.895zm.392-1.258c.197 0 .316-.042.316-.278 0-.219-.229-.236-.398-.236h-.311v.514h.393zm-.07 2.175c-1.025 0-1.936-.728-1.936-1.981 0-1.251.91-1.981 1.936-1.981 1.016 0 1.93.73 1.93 1.981 0 1.253-.914 1.981-1.93 1.981zm0-3.501c-.766 0-1.381.608-1.381 1.519 0 .913.615 1.525 1.381 1.521v.004c.742 0 1.373-.612 1.373-1.525 0-.91-.631-1.519-1.373-1.519z"/>
</svg>