<svg xmlns="http://www.w3.org/2000/svg" viewBox="0 0 97.409 35.454">
  <path d="M53.401 188.38c0-9.438.051-10.847.395-10.847.217 0 .518.208.67.463.46.776 9.745 20.166 9.92 20.717.158.5-.007.516-5.41.516H53.4zm6.54 3.374c-.072-.182-.637-1.432-1.257-2.778l-1.125-2.447h-3.364v5.556h2.938c2.245 0 2.908-.078 2.808-.33zm-4.688-9.737c0-.152-.207-.658-.46-1.124l-.459-.847-.09.75c-.048.413-.024.919.055 1.125.166.432.954.512.954.096zm10.843 13.177c-1.068-2.22-4.076-8.381-6.683-13.693-6.638-13.52-6.012-11.953-6.012-15.064v-2.663h10.858l1.685 3.506c.926 1.928 3.497 7.197 5.712 11.708 2.216 4.511 4.789 9.782 5.719 11.714l1.69 3.511v5.016H68.039zm9.51-5.821-1.325-2.712-5.679-.071-5.678-.072 1.384 2.784 1.384 2.783h11.24zm-3.684-7.347c0-.148-.597-1.458-1.326-2.91l-1.325-2.642h-5.554c-3.054 0-5.554.062-5.554.138 0 .218 2.413 4.986 2.709 5.352.341.424 11.05.483 11.05.062zm-3.704-7.799c0-.071-1.04-2.214-2.312-4.762l-2.312-4.632h-9.4l-.007 1.786c-.007 1.613.127 2.072 1.389 4.749l1.397 2.962 5.622.014c3.093.007 5.623-.045 5.623-.117zm14.287 24.874c0-.07.472-2.302 1.049-4.96.577-2.66 1.59-7.379 2.253-10.49.663-3.11 1.27-5.758 1.348-5.886.282-.455.899-.222 1.054.398.087.346 1.139 5.228 2.337 10.848l2.179 10.218h-5.11c-2.81 0-5.11-.058-5.11-.128zm7.576-7.612c-.088-.327-.356-1.577-.597-2.778l-.437-2.182h-1.414c-1.249 0-1.43.069-1.55.595-.752 3.259-.925 4.099-.928 4.498-.004.409.292.463 2.54.463 2.51 0 2.543-.008 2.386-.596zm-2.178-9.679c-.015-.17-.045-.554-.067-.853-.06-.841-.568-.322-.568.582 0 .523.114.762.33.69.182-.06.32-.25.305-.419zm8.236 17.088c-.06-.182-.409-1.7-.777-3.374A2392.14 2392.14 0 0 0 93.228 186c-.805-3.565-2.008-8.902-2.673-11.86l-1.21-5.38.6-2.492.602-2.493h7.548l.26.993c.144.545.993 4.206 1.888 8.136.895 3.929 1.9 8.334 2.234 9.79 2.708 11.802 3.607 15.673 3.732 16.073.134.43-.218.463-4.909.463-3.809 0-5.08-.082-5.16-.331zm6.965-9.128c-.28-1.274-.573-2.524-.65-2.778-.126-.415-.56-.463-4.12-.463h-3.98l.14.595c.077.327.357 1.577.622 2.778l.481 2.183h8.017zm-1.977-7.69c.073-.117-.138-1.397-.469-2.843l-.601-2.63-3.986-.073-3.986-.073.504 2.322c.83 3.82.418 3.512 4.712 3.512 2.031 0 3.753-.096 3.826-.214zm-1.7-8.053c-.007-.182-.465-2.295-1.018-4.696l-1.005-4.366-3.043-.074-3.042-.074-.463 1.967c-.456 1.935-.453 2.012.135 4.77l.598 2.804h3.925c2.97 0 3.922-.08 3.912-.331zm10.198 24.606c-.411-1.728-5.786-25.552-6.222-27.583l-.512-2.38.606-2.382.605-2.381h7.615l2.058 8.996c1.131 4.947 2.899 12.686 3.928 17.197 1.03 4.512 1.933 8.41 2.008 8.666.126.43-.229.463-4.904.463-5.008 0-5.04-.004-5.182-.596zm7.436-7.011a33.894 33.894 0 0 1-.427-1.786 63.573 63.573 0 0 0-.549-2.315l-.263-.992h-3.976c-3.661 0-3.966.036-3.845.463.073.254.334 1.415.582 2.58.247 1.163.5 2.205.563 2.314.062.11 1.9.199 4.084.199 3.66 0 3.96-.037 3.83-.463zm-2.272-9.525c.002-.11-.263-1.42-.59-2.91l-.595-2.713h-3.908c-3.25 0-3.908.065-3.908.387 0 .5 1.026 4.902 1.212 5.204.174.28 7.783.311 7.789.032zm-1.866-8.202c-.005-.255-.455-2.368-.998-4.697l-.989-4.233h-6.068l-.5 1.852c-.499 1.849-.498 1.857.091 4.498.325 1.455.645 2.735.711 2.844.066.11 1.84.199 3.941.199 3.467 0 3.82-.043 3.812-.463zm10.328 7.606v-17.727h10.054v35.455h-10.054zm8.996 7.806v-2.778h-7.938v5.556h7.938zm-.057-9.988.075-2.845h-7.921l-.084 2.802c-.046 1.54-.03 2.853.034 2.917.064.064 1.85.083 3.969.043l3.852-.073zm.057-9.724v-4.762h-7.938v9.525h7.938zm3.44 11.906v-17.727h15.107l-1.816 2.183c-.999 1.2-3.535 4.316-5.636 6.923a639.983 639.983 0 0 1-5.218 6.409l-1.4 1.668 6.701 8.805c3.686 4.843 6.793 8.954 6.905 9.136.162.261-1.348.33-7.22.33h-7.424zm7.487 9.596c-3.083-4.11-6.257-8.155-6.455-8.229-.136-.05-.239 1.914-.239 4.565v4.652h7.435zm-5.305-13.022c.546-.708.992-1.358.992-1.444 0-.086-.535-.157-1.19-.157h-1.19v1.456c0 .8.088 1.45.198 1.444.109-.006.645-.591 1.19-1.299zm6.561-8.118c1.958-2.42 3.655-4.564 3.771-4.763.176-.301-.782-.361-5.755-.361h-5.966v9.525h4.391zm-67.323 13.595c-.488-1.055-2.807-5.893-5.153-10.751-2.346-4.858-4.266-8.877-4.266-8.93 0-.053 2.56-.097 5.689-.097h5.689v10.848c0 10.717-.007 10.848-.536 10.848-.407 0-.75-.46-1.423-1.918zm.9-4.167v-2.91H74.85l1.188 2.56c1.094 2.357 1.612 3.26 1.87 3.26.054 0 .1-1.31.1-2.91zm0-9.79v-4.762h-4.365c-2.401 0-4.366.041-4.366.091 0 .05 1.015 2.194 2.255 4.763l2.255 4.67h4.221z" style="fill:#fff;fill-opacity:1;stroke-width:.264583" transform="translate(-53.385 -163.774)"/>
</svg>