<svg viewBox="0 0 131.978 64.078" xml:space="preserve" xmlns:xlink="http://www.w3.org/1999/xlink" xmlns="http://www.w3.org/2000/svg">
  <defs>
    <linearGradient id="a">
      <stop style="stop-color:#fbc238;stop-opacity:1" offset="0"/>
      <stop style="stop-color:#e9d103;stop-opacity:.53191489" offset=".531"/>
    </linearGradient>
    <linearGradient xlink:href="#a" id="b" x1="114.16" y1="46.63" x2="114.351" y2="104.583" gradientUnits="userSpaceOnUse"/>
  </defs>
  <path style="fill:url(#b);fill-opacity:1;" d="M107.284 90.778c.847-1.875 2.564-7.602 2.407-7.76-.066-.065-.859.12-1.761.411-2.09.676-6.94.925-9.253.475-5.302-1.03-9.046-5.04-10.142-10.858-.563-2.993-.385-7.795.397-10.716 2.657-9.916 12.03-18.362 21.898-19.734 2.318-.323 4.852-.039 9.583 1.073 1.873.441 3.757.802 4.186.802.47 0 1.005.24 1.346.603.545.58.551.655.167 1.918-.558 1.833-1.435 7.069-1.435 8.564 0 .684-.143 1.387-.318 1.562-.41.41-2.393.41-2.804 0-.2-.2-.318-1.207-.318-2.73 0-5.628-2.18-8.158-7.022-8.149-8.897.018-17.555 9.54-18.66 20.522-.651 6.474 1.166 10.835 5.293 12.702 2.356 1.065 6.815.754 9.34-.652 1.05-.585 1.114-.699 1.827-3.252.86-3.079.91-3.764.332-4.588-.38-.543-.611-.599-2.263-.545-2.238.072-2.733-.264-2.469-1.674.166-.884.238-.937 1.47-1.083.711-.084 3.958-.082 7.214.007 5.41.146 5.947.203 6.23.657.229.365.237.773.033 1.532-.263.975-.343 1.04-1.397 1.116-1.04.075-1.158.165-1.674 1.271-.305.655-.995 3.005-1.533 5.221-1.138 4.693-2.501 8.925-3.76 11.678-.57 1.244-.439.174-.342.56.205 3.575-2.17 1.629-5.376 1.332zm18.219-6.014c-2.021-.996-2.424-3.364-.84-4.947.707-.708 1.005-.818 2.202-.815.76.002 2.118.173 3.016.38 2.18.501 3.307.153 5.254-1.626 3.753-3.43 6.231-8.952 8.44-18.806.724-3.227 1.728-9.732 1.735-11.241l.004-.863-1.124.152c-4.428.598-7.612 1.869-9.949 3.97-2.188 1.967-3.247 4.87-2.39 6.55.162.319.727 1.218 1.256 2 1.266 1.869 1.344 3.455.22 4.422-1.511 1.3-3.801.593-5.066-1.564-2.748-4.69-.148-12.166 5.506-15.827 3.49-2.26 7.309-3.218 14.574-3.653 5.605-.336 5.378-.467 5.393 3.11.006 1.411.316 6.647.69 11.636.374 4.989.68 9.662.68 10.385 0 .992.097 1.314.397 1.314.218 0 .397-.1.397-.224 0-.346 5.25-8.656 7.408-11.726 4.778-6.798 9.62-12.286 13.262-15.03 1.164-.877 2.215-1.595 2.335-1.595.12 0 .48.211.797.468l.578.469-1.218 3.699c-1.118 3.394-2.94 9.804-4.775 16.796-.4 1.528-1.181 4.445-1.734 6.482-1.193 4.39-2.62 10.773-2.466 11.028.242.402 3.044.805 4.757.685 1.533-.108 1.914-.048 2.38.372.503.452.531.628.292 1.84l-.265 1.338-3.466-.128c-1.906-.07-4.348-.26-5.427-.42-1.387-.206-2.466-.211-3.684-.016-1.565.25-1.77.228-2.237-.24-.51-.508-.505-.541.428-3.385 1.428-4.355 1.655-5.175 3.763-13.588 1.076-4.292 2.038-8.091 2.138-8.442.324-1.135-.314-.4-3.261 3.758-3.573 5.042-7.114 10.725-10.833 17.384-2.643 4.734-2.935 5.152-3.538 5.07-.362-.048-.743-.169-.847-.267-.104-.099-.371-3.095-.595-6.658a570.478 570.478 0 0 0-.797-10.977l-.563-6.482c-.2-2.29-.315-2.135-1.17 1.56-1.364 5.898-4.103 12.86-6.385 16.235-2.524 3.73-5.708 6.359-8.897 7.344-2.133.659-5.117.693-6.375.073zm-70.757-1.343c-.39-.43-.434-.744-.257-1.8l.215-1.28 1.53-.306c4.241-.85 5.08-2.158 7.278-11.355.59-2.474 1.682-6.99 2.425-10.035.743-3.045 1.316-5.843 1.272-6.218-.053-.458-.261-.706-.637-.76-.765-.11-1.26-1.123-1.038-2.13.191-.872.208-.878 3.183-1.231.728-.087 2.314-.348 3.525-.581 2.133-.41 2.218-.408 2.72.095.516.515.508.56-1.196 6.647-.943 3.371-1.793 6.55-1.89 7.062l-.175.933h1.858c2.646 0 4.51-.773 6.456-2.676 3.788-3.707 4.486-9.046 1.53-11.716-1.487-1.344-3.436-1.853-7.007-1.83-5.75.036-11.16 2.226-15.366 6.222-3.236 3.073-4.88 6.042-5.407 9.763-.441 3.11-.067 4.109 2.583 6.906 2.397 2.53 2.6 3.095 1.666 4.628-1.58 2.59-5.747.247-7.475-4.202-.784-2.017-.947-6.118-.354-8.85 1.48-6.807 7.207-13.267 14.299-16.126 3.552-1.433 7.019-2.037 11.642-2.03 3.154.005 4.384.117 5.994.548 4.082 1.095 6.743 3.051 8.02 5.897 1.787 3.983.186 9.293-3.851 12.77-2.514 2.165-8.3 4.372-11.595 4.424-.813.012-2.063.102-2.778.198l-1.3.175-.491 1.72c-1.227 4.296-3.118 12.004-2.979 12.143.085.084 1.247.155 2.582.157 1.725.002 2.87-.147 3.953-.516 1.515-.515 1.528-.515 2.033 0 .423.433.473.708.295 1.654-.117.624-.275 1.197-.351 1.274-.077.076-.776.308-1.555.515-1.809.481-5.04.477-9.181-.014-3.144-.372-5.533-.296-8.775.281-.727.13-1.032.052-1.4-.356z" transform="translate(-49.827 -40.766)"/>
  <path style="fill:#000;" d="M73.27 104.545c-.447-.46-.417-1.156.068-1.559.273-.227.822-.274 1.75-.151 1.142.151 1.484.089 2.205-.405 1.543-1.058 2.13-2.225 2.109-4.187-.023-2.054-.936-5.279-1.687-5.959-.503-.455-.563-.456-1.228-.02-.617.404-.745.412-1.09.066-.346-.346-.243-.505.879-1.362 1.835-1.401 2.65-1.267 3.593.593.392.773.851 2.083 1.02 2.91.485 2.365.524 2.4 1.09.98.4-1.004.504-1.79.439-3.307l-.086-1.988h.926c.874 0 .93.053 1.006.964.28 3.35-3.563 10.84-6.588 12.842-1.25.827-3.836 1.169-4.406.583zm10.252.108c-.94-.344-1.587-1.237-1.587-2.19 0-1.064.592-1.866 1.86-2.522.91-.47.934-.547.358-1.123-.919-.919.212-4.716 2.017-6.772 1.107-1.261 2.59-2.023 3.94-2.023.58 0 1.128-.119 1.218-.264.09-.146.445-.265.79-.265h.627l-.512 1.786c-.982 3.418-1.31 4.98-1.675 7.971-.419 3.428-.75 4.077-2.543 4.994-1.128.576-3.455.787-4.493.408zm3.75-1.841c.848-.813 1.348-2.313 1.226-3.683l-.08-.913-1.456.965c-2.998 1.99-3.697 3.056-2.715 4.141.621.687 2.023.45 3.025-.51zm.957-6.107c.552-.787 1.248-2.776 1.528-4.367.166-.945.14-.992-.543-.992-1.41 0-3.056 2.735-3.125 5.194-.046 1.61 1.067 1.695 2.14.165zm37.934 3.156c-.194-.132-.313-.524-.264-.872.08-.57.218-.631 1.422-.631.79 0 1.603-.177 1.998-.436 1.389-.907 3.03-5.14 3.55-9.155.176-1.357.165-1.39-.489-1.39-1.032 0-2.075.481-3.019 1.391-.943.91-1.11 1.88-.471 2.726.855 1.13.199 2.057-1.053 1.487-.795-.363-1.108-1.825-.69-3.223.319-1.062 1.716-2.485 2.905-2.959.79-.315 4.964-.767 5.425-.588.165.065.319.621.342 1.237.125 3.402.431 7.073.59 7.073.1 0 .595-.68 1.099-1.513 2.342-3.87 6.287-8.17 6.918-7.54.12.12-.06 1.046-.401 2.057-1 2.965-2.92 10.691-2.71 10.902.107.107.72.173 1.363.149.834-.033 1.17.058 1.17.315 0 .62-.47.702-2.941.508-2.263-.177-2.392-.22-2.273-.747.069-.307.556-2.097 1.082-3.977s.913-3.46.861-3.512c-.127-.127-2.48 3.496-4.056 6.247-.702 1.225-1.413 2.273-1.581 2.33-.203.067-.361-.548-.471-1.831-.44-5.113-.597-6.4-.736-6.034a70.94 70.94 0 0 0-.74 2.317c-1.104 3.595-2.921 5.612-5.23 5.805-.685.057-1.405-.004-1.6-.136zm-72.076-.51c-1.745-.076-2.05-.159-2.05-.554 0-.285.334-.586.86-.777.473-.171 1.005-.545 1.183-.831.178-.286.736-2.157 1.24-4.157.808-3.21.869-3.672.512-3.932-.608-.445.023-.832 1.735-1.062 1.153-.155 1.403-.122 1.293.169-.424 1.127-1.087 4.2-.938 4.35.345.345 1.622-.198 2.476-1.052 2.056-2.056 1.215-4.464-1.564-4.482-3.512-.023-7.062 2.966-7.062 5.946 0 .744.198 1.18.814 1.796.955.955.933 1.706-.053 1.82-.506.06-.876-.14-1.387-.747-.588-.7-.697-1.083-.697-2.466 0-3.285 2.323-5.945 6.03-6.906 1.997-.518 3.299-.52 5.02-.009 1.694.503 2.445 1.386 2.443 2.874-.002 2.231-1.705 3.74-4.764 4.222l-1.812.285-.554 2.209c-.305 1.215-.478 2.332-.384 2.483.165.268.948.203 2.157-.179.482-.152.596-.087.596.341 0 .604-.716.874-2.117.8-.51-.028-1.849-.091-2.977-.14zm9.407-.07c-1.293-.521-1.722-2.558-1.026-4.871.821-2.728 2.728-4.387 5.041-4.387 1.625 0 2.371.469 2.796 1.757.635 1.923-.226 4.796-1.909 6.367-1.286 1.2-3.477 1.707-4.902 1.134zm2.847-1.064c1.231-.66 2.106-3.826 1.588-5.75-.849-3.151-3.745.016-3.39 3.709.066.693.335 1.498.597 1.787.555.613.54.61 1.205.254zm4.753.944c-.212-.256-.26-.774-.14-1.522.376-2.35 2.466-10.27 2.966-11.237.606-1.174 1.826-2.08 3.358-2.493 1.531-.412 2.408-.062 2.408.961v.788h-1.677c-1.531 0-1.709.059-2.033.677-.367.7-2.772 10.221-2.772 10.974 0 .347.148.313.82-.19 1.527-1.14 1.533-1.143 1.827-.85.465.465.013 1.123-1.531 2.229-1.538 1.1-2.669 1.333-3.226.663zm21.54.01c-1.173-.86-.25-5.05 1.538-6.965l.555-.595h-.575c-1.008 0-.618-.476.549-.67.618-.102 1.422-.335 1.786-.515.364-.181 1.519-.406 2.567-.499l1.906-.17-.396 1.258c-.653 2.074-1.547 6.124-1.387 6.284.082.082.517-.062.967-.32.647-.372.886-.402 1.143-.144.677.676-2.195 2.713-3.825 2.713-.585 0-.71-.119-.71-.672v-.673l-1.148.673c-1.293.757-2.214.85-2.97.296zm3.326-2.179c.876-.737 1.168-1.295 1.708-3.265.18-.654.412-1.458.516-1.786.167-.522.099-.595-.562-.595-.414 0-1.03.194-1.37.432-.887.622-1.876 2.912-1.88 4.353-.003 1.795.29 1.954 1.588.861zm14.616 2.381c-.542-.219-.38-1.958.437-4.677.442-1.473.662-2.622.52-2.71-.137-.085-.699.302-1.25.86-.834.846-1.1 1.407-1.604 3.395-.333 1.31-.648 2.53-.702 2.712-.057.195-.541.33-1.18.33-.909 0-1.063-.075-.95-.462.508-1.75 1.517-6.475 1.406-6.587-.219-.218-1.429.675-1.91 1.409-.242.37-.706 1.76-1.032 3.09l-.591 2.418-1.126.083c-.981.072-1.108.02-.987-.397.375-1.294 1.494-6.262 1.494-6.632 0-.332-.14-.29-.664.203-.491.46-.743.547-.962.328-.445-.445-.109-1.015 1.125-1.908.791-.574 1.41-.805 2.157-.805.985 0 1.038.04.882.662-.207.823-.123.822 1.147-.019 1.31-.866 2.753-.824 2.882.085.106.746.154.743 1.238-.083.67-.512 1.138-.658 1.9-.596.956.08 1.015.137 1.092 1.058.047.56-.262 2.074-.727 3.561-1.018 3.255-1.026 3.577-.067 2.658.408-.391.884-.711 1.058-.711.174 0 .317-.237.317-.526 0-.84.955-3.126 1.73-4.142 1.008-1.321 2.153-1.944 3.574-1.946 1.46 0 1.84.332 1.84 1.612 0 1.262-.936 2.284-3.086 3.37-1.721.868-2.102 1.367-1.667 2.18.369.69.655.648 2.15-.311 1.176-.755 2.073-.874 2.073-.276 0 .402-2.114 2.182-3.063 2.578-1.707.713-3.551.242-3.551-.906 0-.45-.15-.397-1.365.484-1.032.747-1.772.927-2.538.618zm7.96-5.822c.924-.924 1.26-1.994.729-2.322-.497-.308-1.05.195-1.587 1.442-.925 2.15-.672 2.41.858.88zm26.222 5.621c-.41-.3-.51-.685-.498-1.918.02-1.907.74-3.595 2.22-5.202 1.378-1.494 2.316-1.922 4.664-2.126l1.874-.163-.881 3.22c-.842 3.076-1.066 4.449-.725 4.449.087 0 .46-.239.83-.53.37-.29 1.011-.529 1.426-.529.606 0 .784.142.912.728.28 1.276.353 1.389.9 1.389.612 0 1.596-.877 1.596-1.42 0-.2-.476-.962-1.06-1.694-.582-.732-1.132-1.7-1.223-2.15-.203-1.019.287-2.254 1.11-2.793.703-.46 3.426-.567 3.687-.145.09.145.69.264 1.335.264 1.162 0 1.173-.009 1.463-1.158.298-1.185.982-1.752 2.114-1.752.54 0 .53.476-.04 2.023-.268.732-.09.887 1.012.887.716 0 .884.096.814.463-.064.335-.39.486-1.176.543l-1.088.08-.696 2.588c-.382 1.423-.695 2.727-.695 2.897 0 .492.593.361 1.666-.368.603-.41 1.19-.615 1.486-.521.4.126.524-.028.675-.83.267-1.423 1.273-3.258 2.358-4.3.784-.752 1.186-.924 2.405-1.025 1.648-.137 2.258.18 2.258 1.172 0 .628.01.626 1.371-.31 1.059-.729 1.587-.926 2.315-.865.73.062.926.185.866.543-.114.68.276.566 1.136-.331.913-.953 2.367-1.118 2.583-.294.18.692-.068 1.003-1.171 1.464-1.223.511-2.52 1.606-2.998 2.531-.207.4-.634 1.755-.949 3.011l-.573 2.284h-1.025c-.565 0-1.026-.126-1.026-.28 0-.154.362-1.716.805-3.47.443-1.756.768-3.304.722-3.442-.046-.138-.372-.001-.724.304-.352.306-.803.493-1.002.417-.199-.077-.766.254-1.26.734-.495.48-1.53 1.162-2.3 1.516-1.881.864-2.143 1.265-1.449 2.216.335.457.395.454 1.438-.078.598-.306 1.163-.676 1.254-.824.22-.355 1.115-.344 1.338.018.273.441-1.188 1.827-2.659 2.523-2.34 1.106-3.698.694-3.882-1.18l-.086-.884-1.191.91c-2.503 1.914-4.05 2.3-4.498 1.123-.321-.845-.006-2.6 1.223-6.813.108-.367-.026-.463-.644-.463-.428 0-.927.178-1.108.397-.483.581-1.067.487-1.894-.305-.612-.586-.8-.646-1.14-.365-.647.538-.48 1.172.647 2.453 1.265 1.437 1.634 2.314 1.42 3.381-.416 2.08-4.286 3.186-5.933 1.696-.451-.408-.56-.4-1.638.121-.635.308-1.461.56-1.836.56-.67 0-1.15-.607-.856-1.083.246-.398-.07-.276-1.098.42-1.095.743-2.137.846-2.901.286zm3.454-2.348c.836-.836 1.985-3.717 1.985-4.977 0-.636-.96-.672-1.821-.07-.888.623-1.877 2.913-1.88 4.354-.004 1.863.388 2.021 1.716.693zm22.093-3.26c1.016-.918 1.39-1.983.818-2.335-.659-.408-1.561.74-2.016 2.565-.237.95-.073.919 1.198-.23z" transform="translate(-49.827 -40.766)"/>
</svg>
