<svg xmlns="http://www.w3.org/2000/svg" viewBox="58.445 175.334 336.086 177.546">
  <g clip-path="url(#a)" transform="matrix(0 .22123 .22123 0 62.848095 179.026825)">
    <path fill="#ffffff" d="M621.132 1139.59V660.573c-39.434 90.309-55.659 186.895-58.751 280.391v68.766c3.863 44.05 32.455 96.59 58.751 129.86"/>
    <path fill="#ffffff" fill-rule="evenodd" d="M152.879 831.289c27.585 26.775 122.836 91.129 185.421 105.04 69.261 15.389 224.081 4.635 224.081 4.635l10.858 35.4-10.858 33.366s-167.674-11.587-248.805-42.494c-41.165-15.684-102.768-43.271-160.697-111.994-19.897-19.354-11.245-22.394 0-23.953"/>
    <path fill="#ffffff" d="M29.998 880.694c-1.5468 20.863 3.8633 51.771 37.0895 59.498 10.8168 22.407 19.9355 40.751 39.2135 55.054 23.954 17.774 52.735 11.394 65.963 7.474l-24.237-18.485c-10.432 1.737-21.545-3.883-21.545-3.883s8.795-7.129 12.866-10.547c-5.913-7.999-15.893-24.167-15.662-24.399 42.305 8.692 72.44 15.648 97.939-2.897l-13.329-4.057c-9.271.579-24.919 2.898-24.919 2.898l11.59-12.748-7.534-6.377c-10.431 5.216-26.078 3.285-26.078 3.285l12.75-16.614-8.5-8.114c-11.204 1.932-23.954-3.09-23.954-3.09l15.069-12.363c-5.024-12.362-6.182-31.294-1.547-55.247 2.441-12.609 11.205-38.636 15.84-49.066l-13.135-13.522s11.977-1.545 25.112 1.159l18.714-11.647-8.231-14.026s19.266.175 28.152 8.287l9.401-1.332-6.31-11.417s16.613 0 27.045 9.272l22.793-.771c-3.476-17.386-24.999-36.062-57.178-38.249-39.794-2.706-69.543 21.248-69.543 21.248s1.545-13.907 13.908-28.202l-11.59-16.227s9.659-2.319 24.726 3.09l25.114-13.136-11.592-15.066s8.887-3.864 29.749 7.34l23.426-5.969c-21.674-21.79-58.68-30.513-91.036-19.144-28.592 10.046-48.68 23.181-67.997 50.225-15.4535-1.545-27.8172 7.727-33.2258 20.862-12.0199 29.191-2.3183 50.998 10.0453 66.452-13.9085.773-44.0445-4.635-49.45308 40.952C4.04648 870.598 20.7246 879.92 29.998 880.694"/>
    <path fill="#ffffff" d="M154.981 834.138c4.055 9.272 28.975 19.125 47.521 12.17 10.918-4.094 22.347-12.787 18.543-30.714-4.056-19.124-22.373-28.26-37.668-23.761-19.704 5.795-34.716 27.863-28.396 42.305"/>
    <path fill="#ffffff" d="M4315.2 4698.73c-238.04 1519.78-311.27 2215.56-476.07 5072-164.69 2854.57 201.41 4119.87 238.03 4302.97 36.62 183.1 134.29 256.3 163.74 115.3 105.66-505.7 275.72-3026.7 733.48-5059.15 167.35-742.97 585.94-2783.17 933.83-4156.46 402.42-1588.58 1116.96-3369.12 1226.83-3643.78 109.84-274.66 238.01-512.688 101.44-596.317-305.39-186.988-907.13-703.7305-1674.13-644.7227-130.59 10.0352-363.99 888.5117-478.1 1259.3497-292.97 952.14-531.01 1831.05-769.05 3350.81"/>
    <path fill="#ffffff" d="M421.903 1013.6c-9.013 22.18-17.748 44.51-25.973 67-4.844 13.24-9.522 26.56-13.842 39.99-4.078 12.67-7.697 25.51-11.065 38.38-5.5 21.02-10.378 42.28-14.735 63.57-1.555 7.6-3.051 15.22-4.402 22.86-.702 3.97-1.607 8.5-1.887 12.51-.573 8.22-1.458 24.47 9.176 27.02 5.685 1.36 10.304-2.37 13.52-6.58 3.232-4.24 5.819-9.56 7.911-14.44 2.138-4.99 4.143-10.08 6.167-15.11 3.654-9.1 7.281-18.21 10.908-27.31 9.969-25.03 19.917-50.06 29.927-75.08 6.495-16.23 13.011-32.45 19.584-48.65 2.229-5.5 4.517-10.97 6.847-16.43 13.002-30.43 27.419-60.12 41.033-90.264 4.876-10.795 9.869-21.935 13.765-33.121 2.226-6.395 5.571-16.529 3.154-23.176-5.417-14.9-21.923-25.131-37.411-25.807-1.101-.048-2.053.107-3.082.501-13.662 5.226-26.148 19.103-36.131 29.467-8.324 8.643-16.648 17.227-25.267 25.582-12 11.631-24.424 22.785-37.23 33.522-11.2 9.386-25.259 18.076-39.511 21.806-7.281 1.91-18.575 3.34-24.818-2.07-5.436-4.71-5.287-13.55-4.303-20.011 1.802-11.843 9.87-21.78 18.159-29.93 4.045-3.978 8.323-7.652 12.492-11.491 3.324-3.061 7.468-6.952 9.169-11.202 4.785-11.965-1.637-26.286-14.291-29.577-2.397-.623-4.911-.773-7.364-.422-5.737.819-11.063 5.209-15.325 8.894-4.709 4.072-9.209 8.369-14.199 12.11-2.968 2.224-6.191 4.324-9.616 5.773-11.774 4.982-22.974 14.233-30.899 24.155-12.616 15.794-18.68 34.711-18.959 54.841-.294 21.16 6.083 43.25 25.36 54.59 5.708 3.36 12.022 5.4 18.58 6.24 46.985 6.04 73.269-14.66 110.268-39.71 9.27-6.27 18.266-14.07 26.625-21.51 2.561-2.28 5.118-4.59 7.665-6.92m25.78-134.017c-3.118 2.795-6.303 5.155-7.03 10.18-.533 3.687.865 7.093 3.299 9.812 1.669 1.862 3.726 3.273 6.091 4.095 11.607 4.035 24.362-7.606 31.385-15.545 5.994-6.775 18.665-23.117 12.891-32.728.033-.625.292-1.668.402-2.143.48-2.074.976-4.054 1.176-6.185.707-7.536-2.545-13.37-8.545-17.791-1.122-.826-2.296-1.577-3.521-2.241-7.75-4.198-16.38-4.202-24.848-2.656-12.07 2.205-25.005 7.465-36.267 12.252-7.481 3.178-15.034 6.213-22.634 9.124 6.489-4.923 13.082-9.708 19.757-14.352 8.462-5.885 16.941-11.767 25.274-17.833 6.69-4.872 13.366-9.9 19.623-15.322 9.141-7.923 18.78-17.828 21.67-29.97 2.564-10.771-7.219-20.839-15.544-26.159-1.618-1.036-3.339-1.408-5.239-1.134-13.211 1.899-26.502 4.144-39.589 6.734-6.071 1.2-12.142 2.493-18.148 3.995-10.387 2.597-20.927 5.27-31.402 8.196 5.036-4.148 10.12-8.238 15.239-12.276 27.297-21.533 55.734-41.716 84.593-61.095 21.852-14.673 43.998-28.773 66.162-42.957 1.67-1.069 2.752-2.541 3.274-4.454 2.527-9.266 4.326-17.818 5.126-27.429.345-4.162-2.705-7.847-6.858-8.284-6.015-.633-13.192-1.147-19.151.108-4.557.96-8.274 2.948-11.204 6.616-3.257 4.078-3.386 6.898-8.364 9.663-5.449 3.028-10.972 6.942-16.096 10.501-8.642 6.004-17.173 12.19-25.653 18.42-22.704 16.68-45.134 33.805-67.303 51.191-20.596 16.152-41.087 32.588-60.979 49.6-7.893 6.749-15.736 13.617-23.295 20.74-5.212 4.91-10.766 10.261-15.241 15.855-5.369 6.712-10.507 15.822-6.42 24.473 1.854 3.926 5.168 6.662 8.987 8.571.617.308 1.247.59 1.888.846 3.334 1.332 6.696 1.868 10.193 2.521 2.17.405 4.596.888 6.543 1.97 5.044 2.801 13.285.606 18.556-.771 7.598-1.983 15.158-4.482 22.618-6.933 8.411-2.766 17.014-5.802 25.562-8.065 3.712-.983 7.421-1.975 11.128-2.975-8.676 6.613-17.303 13.279-25.813 20.038-6.919 5.494-13.618 11.369-20.014 17.463-7.512 7.156-15.108 15.017-21.314 23.341-4.596 6.165-10.481 15.239-9.069 23.305.725 4.143 2.496 7.898 5.495 10.88 12.035 11.968 38.211 4.974 52.519 1.09 5.91-1.605 11.777-3.36 17.658-5.072 4.722-1.373 9.535-2.785 14.343-3.819.427-.092.784-.2 1.19-.359 6.843-2.682 13.637-5.441 20.552-7.94 2.734-.987 10.393-3.669 16.347-5.092"/>
    <path fill="#ffffff" d="M443.898 577.308c3.547 11.407 11.77 22.318 24.49 22.924 7.762.369 14.732-2.078 19.914-7.983 3.213-3.663 5.029-7.661 6.69-11.898 34.861 1.747 65.047 5.399 97.601 20.466 15.432 8.686 31.327 6.929 40.38-9.67 3.585-6.573 5.369-13.081 3.4-20.477-1.027-3.857-2.935-7.282-4.13-11.049-1.42-4.472-1.484-8.793-.845-13.423.918-6.646-.817-14.364-3.474-20.432-4.395-10.04-11.988-17.987-21.225-23.761-15.085-9.428-33.981-13.949-51.267-17.373-18.836-3.733-37.736-6.571-56.491-10.695.464-11.966 2.261-23.362 4.872-35.227 1.791-8.142 3.829-16.228 5.664-24.362 2.109-9.346 3.924-18.7 5.222-28.196 3.456-25.281 3.152-50.575.783-75.908 2.769-2.079 5.552-4.137 8.349-6.177 20.152-14.694 40.893-28.754 61.261-43.168 11.6-8.21 23.255-16.348 34.82-24.608 8.886-6.346 17.772-12.782 26.307-19.594 12.749-10.174 24.836-21.276 33.053-35.551 7.144-12.406 11.516-25.507 12.662-39.794.839-10.475-.216-20.107-1.417-30.458-.913-7.874-8.397-14.2553-15.443-16.8643-6.719-2.4875-14.089-2.1106-20.008 2.1937-22.961 16.6996-45.302 34.1146-67.396 51.9386-19.452 15.693-38.692 31.654-58.273 47.187-4.194 3.328-8.406 6.636-12.638 9.915.668-9.825.901-19.771.412-29.589-.853-17.123-4.379-45.504-24.137-51.129-6.97-1.984-13.957-1.832-20.473 1.545-9.529 4.939-15.097 15.268-20.193 24.253-2.853 5.029-6.494 11.639-10.946 15.388-4.726 3.98-8.451 8.733-11.062 14.339-5.578 11.976-5.17 26.031-4.194 38.906 1.063 14.023 2.764 27.66 2.785 41.717-55.435 44.975-109.008 92.483-161.892 140.41-21.748 19.709-43.907 38.995-65.939 58.385-26.095 22.967-52.523 46.099-77.452 70.321-8.811 8.561-17.864 17.569-25.6891 27.045-4.4129 5.343-11.3594 14.059-10.8359 21.391.4906 6.865 2.9668 13.137 8.0179 17.92 12.7721 12.091 36.2741 9.269 52.0061 5.259 30.418-7.754 61.76-13.992 92.835-18.389 21.553-3.05 43.623-5.315 65.402-5.563 23.534-.268 47.061-.769 70.597-.968 13.386-.113 26.779-.152 40.165.016 9.223.117 18.503.303 27.732.787zm-151.526-91.624c45.903-41.357 92.897-81.597 141.335-119.945.195 8.397.752 16.759 1.53 25.214 1.166 12.689 2.663 25.323 3.575 38.04.967 13.472 1.275 26.857.934 40.32-49.884 1.646-98.591 7.176-147.374 16.371"/>
    <path fill="#ffffff" d="M2783.24 10741.2c427.25 54.9 653.07-116 1049.79-384.5 216.34-146.5 598.14-531.03 598.14-531.03s-342.56 799.33-537.11 1403.83c-170.88 531-311.41 1269.5-317.37 1354.9-18.31 262.5 67.14 238.1 158.69 24.4 55.51-129.4 402.82-1013.1 665.27-1660.1 288.96-712.3 695.8-1440.42 646.98-1574.71-38.34-105.45-164.8-201.4-305.18-207.52-207.51 79.38-360.11 366.23-964.36 872.83-404.83 339.4-877.58 359.4-811.74-73.25 42.71-280.76 366.2-451.67 402.82-543.23 41.36-103.39-43.45-208.28-134.27-195.31-85.45 12.21-213.62 195.31-372.32 262.47-147.56 62.43-445.54 280.75-451.65 720.22-4.5 323.4 152.95 502.8 372.31 531"/>
    <path fill="#ffffff" d="M3027.38 8122.79c57.23 28.6 128.37 21.14 189.2 54.93 54.94 30.53 432.46-117.69 610.35-164.8 207.52-54.94 498.45-136.31 498.45-136.31s-405.39 304.57-577.81 441.49c-207.49 164.79-496.48 450.89-476.05 567.61 42.72 244.14 564.11 21.36 808.25-31.12 152.59-59.81 498.88-205.4 509.33-116.11 12.97 110.62-156.3 134.54-92.31 205.99 111.38 124.35 427.26-280.72 379.94-351.73-42.74-64.06 67.13-152.58-48.84-238.03-102.24-75.32-245.15-55.95-570.66 82.41-325.52 138.34-639.85 237.01-639.85 237.01s209.15-195.03 537.09-423.17c374.35-260.41 594.08-415.04 634.78-585.95 20.92-87.89-122.07-179.01-122.07-179.01s-341.8 48.82-569.67 105.78c-227.87 56.98-472.01 122.07-667.31 195.32 659.18-602.22 1546.23-1155.6 1953.12-1416 24.41-89.53 40.69-162.76 48.81-260.43-309.24-32.54-195.3 73.23-341.78 154.61-236.79 131.57-1802.56 1318.36-2062.97 1643.89-91.65 114.56-73.25 177.01 0 213.62"/>
    <path fill="#ffffff" d="M1452.67 5939.76c424.66-108.23 1082.37-235.99 1600.49-241.89 385.61-4.39 1080.97-22.59 1447.19 1.85 22.37 134.27 101.72 221.75 187.18 225.82 146.44 6.97 176.98-115.97 210.56-201.43 411.98 18.33 717.15 54.94 1063.03 215.65 113.92 65.13 229.45 66.26 301.09-65.08 97.66-179.05-56.95-187.18-24.41-423.19 9.46-68.38-16.27-244.14-211.57-366.21-259.34-162.08-667.33-179.03-1114.91-284.82 0-553.44 260.41-781.25 162.76-1733.39 203.44-154.62 361.73-258.49 732.41-520.83 528.96-374.35 785.12-539.53 919.58-773.11 154.64-268.56 122.07-488.28 102.72-655.31-8.11-69.75-143.41-158.492-232.91-93.38-615.21 447.42-1033.53 830.06-1521.8 1196.28 0 0 113.92-821.93-164.81-901.28-253.27-72.1-290.92 266.52-445.53 396.72-225.56 189.95-89.53 512.7-97.67 927.74-553.38 447.58-1123.04 952.13-1643.86 1424.14-666.05 603.6-1786.897 1529.66-1774.085 1708.97 16.27 227.88 297.045 215.66 504.545 162.75zm1212.56-952.12c569.67-520.84 1155.6-1025.39 1749.67-1489.26-16.28 431.32 81.38 691.72 56.96 1269.52-625 15.88-1204.41 89.51-1806.63 219.74"/>
  </g>
</svg>