<svg xmlns="http://www.w3.org/2000/svg" version="1.2" viewBox="0 0 51.439 27.338">
  <path fill="#fff" d="M15.558 27.183V25.42h-1.395c-.741.815-2.034 1.763-4.04 1.763H.131V19.2H.98c-.831-1.862-.8-4.204.092-6.03.466-.954 1.148-1.736 1.97-2.26a4.984 4.984 0 0 1 2.725-.78H24.07c.722 0 1.416.314 1.955.886.505.537.835 1.256.938 2.04h1.171v-.338c0-1.427.982-2.587 2.19-2.587h5.364l2.877 4.43 2.877-4.433h9.729L40.102 27.172h-5.733v-.883c0-.48-.331-.871-.737-.871h-10.58c-.406 0-.737.391-.737.87v.894z" class="s0"/>
  <path fill-rule="evenodd" d="M51.439 9.971 40.245 27.207l-.079.122h-5.93v-1.04c0-.395-.27-.714-.604-.714h-10.58c-.334 0-.604.32-.604.714v1.05h-7.022v-1.764h-1.21c-.451.486-.966.88-1.532 1.17-.77.394-1.631.593-2.56.593H0v-8.296h.766c-.75-1.868-.686-4.153.192-5.951.478-.98 1.178-1.783 2.022-2.322a5.114 5.114 0 0 1 2.788-.797h18.303c.756 0 1.481.329 2.045.926.499.53.834 1.233.96 2.001h.928v-.184c0-.37.062-.73.182-1.068a2.79 2.79 0 0 1 .497-.873 2.32 2.32 0 0 1 .739-.587c.286-.143.59-.216.904-.216h5.428l2.813 4.33 2.81-4.33zm-.535.312h-9.398l-2.94 4.53-2.942-4.53h-5.298c-1.136 0-2.058 1.09-2.058 2.432v.496h-1.419c-.158-1.645-1.344-2.928-2.778-2.928H5.768c-.974 0-1.87.257-2.662.762-.801.51-1.465 1.271-1.919 2.2-.9 1.845-.9 4.228 0 6.073l.018.036H.264v7.673h9.86c1.973 0 3.244-.928 3.988-1.764h1.578v1.764h6.495v-.738c0-.567.388-1.026.868-1.026h10.58c.48 0 .868.459.868 1.026v.728h5.537z" class="s1"/>
  <path fill-rule="evenodd" d="m48.679 11.58-9.181 14.14H35.6v-.728c0-.567-.389-1.026-.868-1.026H21.956c-.48 0-.869.46-.869 1.026v.738H16.79v-1.764h-3.146a4.503 4.503 0 0 1-.192.247c-.576.692-1.622 1.517-3.325 1.517H1.363v-5.08h2.773c-.85-.373-1.545-1.052-1.998-1.98-.708-1.45-.708-3.325 0-4.775.72-1.471 2.043-2.315 3.632-2.315h18.303c.938 0 1.697.898 1.697 2.006v.922h3.597v-1.793c0-.627.43-1.135.96-1.135h4.757l3.483 5.364 3.482-5.364zm-14.32 8.54-.012-.02v.02z" class="s1"/>
  <path fill="#fff" d="M23.525 17.907h9.34v2.486h-9.34zm1.148-4.32v1.573H19.99v9.273h-2.104V15.16H5.768c-1.208.065-1.094 2.107 0 2.042h4.355c4.524 0 4.524 7.231 0 7.231H2.459v-2.486h7.664c1.274 0 1.274-2.259 0-2.259H5.768c-4.09 0-4.09-6.811 0-6.811h6.823c.332 0 .6.318.6.71v-.71h10.88c.333 0 .6.318.602.71zm21.78-.71-7.498 11.547h-.78l-7.498-11.547h3.32l4.568 7.036 4.57-7.036zM36.388 8.37h-9.26c-.598 0-1.131-.277-1.516-.732v.732h-3.35c-.853 0-1.578-.581-1.941-1.412-.447.858-1.215 1.412-2.112 1.412h-3.158V4.992h.662c-.406-.503-.662-1.21-.662-1.966 0-1.588 1.11-2.9 2.454-2.9h3.158v.808c.404-.505.959-.807 1.578-.807h3.328v.731c.406-.454.94-.731 1.516-.731h3.243V3.68l.618-2.168C31.181.63 31.886 0 32.696 0c.811 0 1.516.63 1.75 1.512z" class="s0"/>
  <g fill="#0e62c6">
    <path d="M18.295 5.472c0-.076-.043-.127-.107-.127h-.683c-1.088 0-1.963-1.034-1.963-2.32 0-1.285.874-2.319 1.963-2.319h2.667v.982h-2.646c-.619 0-1.131.605-1.131 1.336 0 .732.512 1.336 1.13 1.336h.684c.514 0 .94.504.94 1.11 0 .607-.428 1.11-.94 1.11h-2.667v-.983h2.667c.043 0 .085-.05.086-.125z"/>
    <path d="M17.419 3.026c0 .076.043.126.107.126h.683c1.088 0 1.963 1.034 1.963 2.32 0 1.285-.875 2.32-1.963 2.32h-2.667v-.984h2.646c.619 0 1.13-.605 1.13-1.336 0-.732-.511-1.336-1.13-1.336h-.683c-.514 0-.94-.504-.94-1.11 0-.607.428-1.11.94-1.11h2.667v1.008h-2.667c-.043 0-.085.051-.086.102zm12.44-1.11V2.9h-2.368c-.106 0-.192.1-.192.226v2.218c0 .125.085.227.192.227h.49v-.227h-.49v-.983h1.322v2.22h-1.728c-.363 0-.64-.328-.64-.757V2.673c0-.43.277-.757.64-.757z"/>
    <path fill-rule="evenodd" d="M32.333 6.578h-.02v-.881l-.597 2.093h-.983l1.707-5.874c.043-.1.15-.201.256-.201.128 0 .213.1.256.226l1.323 4.64h-1.942zm.043-1.106h.576l-.277-1.009z"/>
    <path d="M35.706 7.791h-3.371v-.983h2.218l-1.409-4.941c-.063-.227-.234-.379-.448-.379-.212 0-.383.152-.447.379L30.52 7.79h-3.435c-.918 0-1.664-.882-1.664-1.966V2.673c0-1.085.746-1.967 1.664-1.967h2.773v.983h-2.752c-.447 0-.832.43-.832.984v3.152c0 .529.363.983.832.983h1.923V4.136h-1.537v-.984h2.348v3.959l1.557-5.396c.148-.656.66-1.135 1.28-1.135.617 0 1.13.505 1.3 1.16zM25.1 6.808v.983h-2.859c-.918 0-1.664-.882-1.664-1.966V2.673c0-1.085.746-1.967 1.664-1.967h2.86v.983h-2.86c-.447 0-.832.43-.832.984v3.152c0 .529.363.983.832.983z"/>
    <path d="M22.627 5.624h2.475v.983h-2.86c-.363 0-.64-.328-.64-.757V4.387h2.902v.983h-2.07a.26.26 0 0 0 .193.254zm1.875-1.488h-2.903V2.673c0-.43.278-.757.64-.757h2.839v1.01h-2.454c-.106 0-.191.1-.191.226h2.07s0 .984-.002.984z"/>
  </g>
</svg>