<svg xmlns="http://www.w3.org/2000/svg" fill-rule="evenodd" stroke-linejoin="round" stroke-miterlimit="1.414" clip-rule="evenodd" viewBox="92.989 133.629 48 15.93">
  <g fill-rule="nonzero">
    <path fill="#fff" d="M116.638 148.172a4.878 4.878 0 0 0 3.409 1.385l20.942.002-4.523-13.493c-.618-1.433-2.067-2.437-3.808-2.437-1.733 0-3.204 1.037-3.799 2.464l-1.507 4.396-.006-6.633-7.314-.004c-1.322 0-2.51.516-3.385 1.37l.002-1.364h-7.488a4.9 4.9 0 0 0-3.55 1.53v-1.536l-7.058.006c-3.047-.002-5.546 2.38-5.55 5.528 0 1.458.638 2.78 1.577 3.76l-1.591-.003v6.414l7.11-.001c1.999-.003 3.978-1.208 4.667-2.652l.02-.06a4.877 4.877 0 0 0 4.375 2.713l7.477-.001v-1.384"/>
    <g fill="#0060a8">
      <path d="m94.088 148.46 5.996-.007c2.453 0 4.441-1.982 4.441-4.424a4.435 4.435 0 0 0-4.441-4.43l-1.557.01a.223.223 0 0 1-.223-.225c0-.124.1-.225.223-.225l5.985.002.002-1.878h-5.989a2.1 2.1 0 0 0-2.1 2.096c0 1.157.942 2.094 2.1 2.094l1.565.02a2.537 2.537 0 0 1 2.543 2.533 2.54 2.54 0 0 1-2.543 2.535h-6z"/>
      <path d="M94.09 146.12h6a2.097 2.097 0 0 0 2.101-2.095c0-1.156-.94-2.092-2.101-2.092l-1.565-.017a2.54 2.54 0 0 1-2.541-2.537 2.538 2.538 0 0 1 2.541-2.533l5.99-.002-.003-1.885h-5.985c-2.451 0-4.442 1.98-4.442 4.425 0 2.444 1.99 4.425 4.442 4.425l1.548.003c.118 0 .218.096.218.217 0 .12-.1.215-.218.215l-5.987.005zm15.084.453a1.883 1.883 0 0 1-1.892-1.887v-5.99c0-1.019.852-1.856 1.892-1.856h6.4v-1.88h-6.4a3.762 3.762 0 0 0-3.77 3.756v5.97a3.765 3.765 0 0 0 3.77 3.76l6.374.002-.001-1.877z"/>
      <path d="M107.74 138.716c0-.794.64-1.437 1.434-1.437h6.4v1.884h-5.514c-.441 0-.447.438-.447.438h4.6v1.876h-6.475zm1.434 7.401c-.792 0-1.436-.64-1.436-1.431v-2.763h6.475v1.88h-4.6c.005.441.447.443.447.443h5.488l-.001 1.868zm10.886.452a1.887 1.887 0 0 1-1.884-1.883v-5.97c0-1.039.841-1.877 1.88-1.877h6.198v-1.88h-6.213a3.762 3.762 0 0 0-3.77 3.757v5.97c0 2.076 1.702 3.76 3.784 3.76l6.2.002V139.6h-5.328v1.876h3.445v5.092z"/>
      <path d="M118.618 144.686a1.44 1.44 0 0 0 1.437 1.442h3.872v-4.207h-2.996v1.881h1.112l.004.442h-1.107c-.242 0-.44-.2-.44-.442l-.01-4.202s0-.437.445-.448h5.321l-.002-1.874-6.2.001c-.793 0-1.436.643-1.436 1.437v5.97m13.461-7.435a.613.613 0 0 1 1.158 0l3.01 8.89h-4.407l.005-2.091h1.472l-.662-1.97-2.16 6.366h-2.221z"/>
      <path d="M136.853 146.569h-5.005v1.877h7.617l-3.961-11.722c-.348-1.143-1.492-1.984-2.847-1.984-1.357 0-2.498.837-2.848 1.98l-3.998 11.726h1.994l3.882-11.399c.158-.377.53-.643.967-.643.434 0 .808.266.967.64z"/>
    </g>
  </g>
</svg>