<svg xmlns="http://www.w3.org/2000/svg" viewBox="0 0 51.814 11.742">
  <path fill="#fff" d="M11.513 6.863 10 2.809q-.043-.106-.18-.19-.138-.085-.307-.085-.148 0-.307.085-.159.084-.19.19l-3.049 8.7H4.561l3.27-9.229q.085-.222.222-.423.138-.212.339-.37.212-.17.487-.265t.635-.095q.36 0 .624.095.265.095.466.264.201.159.339.37.148.202.254.424l.317.635.318-.635q.116-.222.254-.423.148-.212.338-.37.201-.17.466-.265.264-.095.624-.095.35 0 .625.095.285.095.487.264.211.159.349.37.148.202.222.424l3.27 9.229H17.06l-3.048-8.7q-.032-.106-.19-.19-.16-.085-.308-.085-.169 0-.307.085-.137.084-.18.19zm0 4.646-2-5.334-1.757 5.334H6.348l2.9-8.435q.021-.064.106-.106.085-.053.159-.053t.148.053q.085.042.106.106l1.746 4.815 1.746-4.815q.021-.064.096-.106.084-.053.158-.053t.16.053q.084.042.105.106l2.9 8.435h-1.355l-1.81-5.334z"/>
  <path fill="none" d="M9.512.894c-.26 0-.497.035-.71.109a1.86 1.86 0 0 0-.557.303c-.152.12-.282.262-.387.424-.1.147-.183.302-.246.466V2.2l-3.38 9.541h3.693l1.601-4.867 1.986 5.297.22-.58 1.77-4.725 1.655 4.875h3.639l-3.38-9.535-.001-.004a1.753 1.753 0 0 0-.252-.478c-.105-.16-.238-.3-.395-.418a1.698 1.698 0 0 0-.554-.303 2.139 2.139 0 0 0-.702-.11c-.26 0-.495.035-.703.11-.2.072-.379.173-.535.305-.143.119-.27.259-.38.416v.002a4.45 4.45 0 0 0-.27.447v.002l-.112.22-.107-.214-.002-.004a2.812 2.812 0 0 0-.272-.453 1.775 1.775 0 0 0-.382-.418 1.748 1.748 0 0 0-.534-.303 2.07 2.07 0 0 0-.703-.11zm0 .464c.22 0 .402.03.547.082.153.055.283.13.395.225l.002.002.004.002c.115.09.209.194.287.314l.004.006.004.006c.09.123.166.25.23.385l.002.002.525 1.053.524-1.047.002-.004c.072-.138.151-.27.236-.394l.002-.002c.087-.125.187-.231.297-.323.112-.094.242-.17.395-.224.144-.052.325-.082.545-.082.211 0 .394.03.548.084h.004c.167.055.302.13.41.222l.004.004.006.004c.121.09.217.193.293.31l.004.007.004.006c.086.116.148.235.19.36v.001l3.162 8.92h-.914l-2.99-8.533c-.048-.156-.168-.258-.303-.33a.892.892 0 0 0-.418-.111c-.152 0-.3.04-.428.119a.644.644 0 0 0-.273.302l-.002.002-1.297 3.473-1.295-3.473-.002-.002a.644.644 0 0 0-.274-.302.821.821 0 0 0-.43-.12.884.884 0 0 0-.415.112c-.136.072-.256.174-.303.33l.002-.012-2.992 8.545h-.916l3.16-8.914.002-.004c.05-.13.114-.253.195-.37v-.003l.002-.002a1.27 1.27 0 0 1 .29-.314v-.002c.119-.096.257-.171.417-.227v.002c.154-.053.34-.084.559-.084zm-.261 1.403c-.002 0-.002.005-.004.006-.005.003-.011 0-.016.004zm.513 0 .032.017c-.006-.004-.016-.004-.022-.008-.004-.002-.006-.008-.01-.01zm4.012 0 .02.01c-.005-.003-.011-.001-.016-.004-.002-.001-.002-.005-.004-.006zm-4.264.386c-.006 0-.005-.004.014.01l.016.01.015.01 1.955 5.395 1.961-5.404.004-.002c.03-.02.041-.018.035-.018-.006 0 .007-.002.038.018l.007.006.01.004 2.785 8.101h-.863l-1.965-5.793-2.012 5.364-2.013-5.373-1.91 5.802h-.914L9.46 3.176l.008-.004.01-.006c.03-.02.04-.018.034-.018z"/>
  <path fill="#fff" d="M20.848 11.509q-.762 0-1.313-.18-.55-.18-.92-.561-.36-.392-.54-.995-.17-.614-.17-1.46v-3.99q0-.879.17-1.482.18-.614.54-.995.37-.38.92-.55.55-.17 1.313-.17h1.354q.773 0 1.323.17.561.17.92.55.36.381.53.995.17.603.17 1.482v3.99q0 .846-.17 1.46-.17.603-.53.995-.359.38-.92.56-.55.18-1.323.18zm1.502-1.408q.403 0 .678-.106.275-.116.444-.317.18-.201.254-.476.085-.276.085-.593V4.026q0-.317-.085-.592-.074-.276-.254-.477-.17-.2-.455-.307-.275-.116-.677-.116h-1.63q-.402 0-.688.116-.275.106-.455.307-.17.201-.254.477-.074.275-.074.592v4.583q0 .317.074.593.085.275.254.476.18.2.455.317.275.106.677.106h.826zm-1.513-.38q-.37 0-.614-.064-.233-.075-.37-.233-.127-.159-.18-.402-.053-.254-.053-.625v-4.16q0-.274.053-.518.053-.243.19-.423.138-.18.37-.275.244-.106.615-.106h1.354q.37 0 .603.106.244.095.381.275.138.18.19.423.054.244.054.519v4.16q0 .37-.053.624-.053.243-.19.402-.128.159-.371.233-.233.063-.603.063zm1.027-1.408q.127 0 .158-.075.043-.074.043-.2v-3.44q0-.127-.043-.201-.031-.074-.158-.074h-.678q-.127 0-.17.074-.03.074-.03.2v3.44q0 .127.03.201.043.075.17.075z"/>
  <path fill="none" d="M20.848.894c-.525 0-.985.057-1.38.18-.4.122-.745.328-1.02.61h-.002v.003c-.27.285-.466.653-.594 1.09h-.002v.001c-.12.43-.178.945-.178 1.545v3.989c0 .58.058 1.087.178 1.523v.002l.002.002c.128.43.325.795.592 1.086l.002.002.002.004a2.47 2.47 0 0 0 1.016.62c.397.129.858.19 1.384.19h1.354c.533 0 .997-.061 1.394-.19.406-.131.75-.34 1.018-.624h.002l.002-.002c.268-.291.46-.659.58-1.09h.002c.12-.435.178-.943.178-1.523V4.324c0-.601-.059-1.115-.18-1.545h.002c-.12-.438-.316-.806-.586-1.092a2.29 2.29 0 0 0-1.02-.613c-.395-.122-.86-.18-1.392-.18zm0 .464h1.354c.498 0 .916.057 1.254.16h.002c.34.103.608.264.818.487.21.222.37.518.475.898.105.374.162.85.162 1.42v3.989a5.36 5.36 0 0 1-.162 1.4 2.164 2.164 0 0 1-.477.896c-.21.223-.478.389-.82.498v.002c-.336.11-.755.168-1.252.168h-1.354c-.49 0-.903-.057-1.24-.168a1.982 1.982 0 0 1-.822-.498l-.002-.002a2.266 2.266 0 0 1-.484-.896V9.71c-.106-.383-.163-.85-.163-1.398V4.323c0-.57.058-1.046.163-1.42.11-.377.274-.673.482-.894.219-.225.488-.388.822-.49.338-.104.754-.16 1.244-.16zm-.138.944c-.29 0-.548.041-.774.133a1.396 1.396 0 0 0-.543.367l-.002.004-.002.002c-.134.16-.234.347-.299.556l-.002.006v.004a2.5 2.5 0 0 0-.082.653v4.582c0 .23.027.449.082.654v.004l.002.004c.065.21.165.397.3.557l.001.004.002.002a1.5 1.5 0 0 0 .54.377h.001l.004.002c.22.084.473.12.762.12h1.65c.289 0 .543-.036.762-.12l.002-.002h.004c.211-.09.39-.22.53-.383h.001c.142-.16.242-.35.3-.563l.001-.002c.062-.205.094-.424.094-.654V4.027a2.24 2.24 0 0 0-.094-.652v-.002a1.397 1.397 0 0 0-.3-.565h-.003a1.295 1.295 0 0 0-.545-.37 1.96 1.96 0 0 0-.761-.136zm2.18.502.011.006h-.006c-.003-.001-.003-.005-.006-.006zm-2.042.343h1.354c.225 0 .395.035.508.086l.006.002.005.002c.13.051.218.117.282.2.07.09.117.199.146.332.032.144.049.3.049.468v4.16c0 .236-.018.428-.049.575a.652.652 0 0 1-.138.299l-.002.004-.004.004a.494.494 0 0 1-.254.154 2.154 2.154 0 0 1-.537.055h-1.377c-.232 0-.415-.023-.55-.057a.559.559 0 0 1-.255-.158.728.728 0 0 1-.13-.3 2.9 2.9 0 0 1-.05-.575v-4.16c0-.169.016-.325.047-.47a.82.82 0 0 1 .149-.331.626.626 0 0 1 .273-.201h.004l.002-.002c.123-.054.297-.086.521-.086zm.338.944c-.13 0-.293.055-.37.191l-.007.01-.006.014a.721.721 0 0 0-.05.293v3.44c0 .103.01.197.05.29l.006.014.006.012c.078.136.241.191.371.191h.678a.467.467 0 0 0 .201-.04.362.362 0 0 0 .162-.169.634.634 0 0 0 .07-.299v-3.44a.632.632 0 0 0-.07-.3.362.362 0 0 0-.162-.168.456.456 0 0 0-.201-.039zm.037.465h.604c.003.014.006.013.006.043v3.44c0 .027-.003.026-.006.04h-.604c-.002-.017-.006-.016-.006-.04v-3.44c0-.026.004-.026.006-.043z"/>
  <path fill="#fff" d="M29.822 10.101q.402 0 .677-.106.276-.116.445-.317.18-.201.254-.476.085-.276.085-.593V4.026q0-.317-.085-.592-.074-.276-.254-.477-.17-.2-.455-.307-.275-.116-.677-.116h-4.213V1.126h4.075q.773 0 1.323.17.56.17.92.55.36.381.53.995.17.603.17 1.482v3.99q0 .846-.17 1.46-.17.603-.53.995-.36.38-.92.56-.55.18-1.323.18h-4.075V4.661h1.334v5.44zm-4.223-5.778V2.915h4.075q.37 0 .603.106.244.095.381.275.138.18.19.423.054.244.054.519v4.16q0 .37-.053.624-.053.243-.19.402-.128.159-.371.233-.233.063-.603.063h-2.371V4.661h1.482v3.376q0 .276.264.276h.233q.127 0 .201-.075.085-.074.085-.2v-3.44q0-.127-.085-.201-.074-.074-.201-.074z"/>
  <path fill="none" d="M25.368.894v10.847h4.307c.532 0 .995-.062 1.392-.191a2.38 2.38 0 0 0 1.02-.623h.002v-.002a2.64 2.64 0 0 0 .582-1.09c.12-.436.177-.944.177-1.523V4.323c0-.6-.057-1.114-.177-1.545-.121-.438-.314-.805-.584-1.091a2.297 2.297 0 0 0-1.022-.614h-.002c-.396-.121-.857-.18-1.388-.18zm.465.464h3.842c.498 0 .916.057 1.253.16h.002c.341.103.608.264.819.487.21.222.37.518.474.898.105.374.16.85.16 1.42v3.989c0 .548-.054 1.017-.16 1.4a2.165 2.165 0 0 1-.474.896h-.002v.002c-.211.223-.48.387-.82.497l-.003.002c-.336.11-.753.167-1.25.167h-3.841V4.894h.867v5.44h3.123c.288 0 .54-.038.76-.122l.004-.002h.003c.212-.09.391-.219.53-.383h.002a1.4 1.4 0 0 0 .299-.562l.002-.002c.062-.206.091-.425.091-.655V4.026c0-.228-.03-.447-.091-.652v-.002a1.397 1.397 0 0 0-.301-.564h-.002a1.302 1.302 0 0 0-.547-.371 1.96 1.96 0 0 0-.762-.135h-3.978zm4.529 1.446.012.006h-.006c-.003-.001-.003-.005-.006-.006zm-4.53.343h3.843c.224 0 .392.035.505.086l.006.002.006.002a.62.62 0 0 1 .281.2.82.82 0 0 1 .149.332c.031.144.047.3.047.468v4.16c0 .236-.016.43-.047.577a.652.652 0 0 1-.139.297l-.004.004-.002.004a.501.501 0 0 1-.256.154 2.168 2.168 0 0 1-.537.055h-2.138V4.894h1.017v3.144a.52.52 0 0 0 .131.368c.098.101.237.14.365.14h.235a.51.51 0 0 0 .518-.508v-3.44a.514.514 0 0 0-.163-.37.521.521 0 0 0-.355-.137h-3.461zm3.196 1.409h.266c.04 0 .032.003.035.006l.006.006.006.004c.007.006.006-.006.006.027v3.44c0 .032 0 .019-.006.025l-.006.006-.006.004c-.003.002.004.006-.035.006h-.235c-.048 0-.039-.006-.029.004.01.01-.002.01-.002-.045z"/>
  <path fill="#fff" d="M33.018 4.323q0-.667.244-1.25.243-.592.645-1.015.413-.434.942-.678.54-.254 1.111-.254h4.012v1.408H36.13q-.402 0-.72.159-.317.159-.54.413-.211.254-.328.582-.116.317-.116.635v3.99q0 .317.116.645.117.318.328.572.223.254.54.412.318.16.72.16h3.842v1.407H35.96q-.571 0-1.11-.244-.53-.254-.943-.677-.402-.434-.645-1.016-.244-.593-.244-1.26zm1.789 1.82V4.534q0-.275.085-.56.095-.297.275-.53.18-.233.455-.38.275-.149.645-.149h3.705v1.408h-3.673q-.063 0-.137.074-.064.074-.064.2v.149h3.07v1.397zm0 .35h4.36V7.9h-3.069v.137q0 .127.064.201.074.075.137.075h3.673V9.72h-3.705q-.37 0-.645-.148t-.455-.381q-.18-.233-.275-.519-.085-.296-.085-.571z"/>
  <path fill="none" d="M35.96.894c-.416 0-.82.094-1.21.277a3.291 3.291 0 0 0-1.011.726c-.29.305-.52.67-.691 1.088a3.449 3.449 0 0 0-.262 1.338v3.989c0 .472.088.926.262 1.35.171.41.402.773.689 1.083l.002.004.002.002c.294.301.63.544 1.008.725h.002l.004.002c.388.175.79.263 1.205.263h4.244V8.079h-.805V4.556h.805V.893zm0 .464h3.779v.944h-3.61c-.298 0-.577.06-.824.183-.236.119-.44.275-.609.467l-.002.002-.002.002c-.159.19-.281.41-.367.653a2.07 2.07 0 0 0-.131.714v3.989c0 .24.043.483.129.724l.002.002c.086.236.209.451.367.64l.002.003.002.002a2 2 0 0 0 .61.467c.246.123.525.183.824.183h3.609v.944h-3.78c-.346 0-.68-.073-1.011-.221a3.07 3.07 0 0 1-.87-.625l-.001-.004a3.196 3.196 0 0 1-.6-.943 3.048 3.048 0 0 1-.226-1.172V4.323c0-.416.074-.8.224-1.16h.002v-.002c.153-.371.351-.683.598-.943.256-.27.545-.477.871-.627h.002a2.34 2.34 0 0 1 1.012-.232zm.308 1.79h3.471v.943h-3.44a.423.423 0 0 0-.302.14l-.006.008-.006.006c-.085.1-.12.23-.12.354v.379h3.07v.933H35.04V4.535c0-.16.023-.324.074-.495a1.49 1.49 0 0 1 .236-.453 1.113 1.113 0 0 1 .918-.44zm-1.227 3.578h3.894v.941h-3.068v.371c0 .124.034.252.12.352l.005.008.006.006c.073.073.17.142.303.142h3.44v.942h-3.472c-.216 0-.392-.041-.537-.12a1.177 1.177 0 0 1-.38-.32 1.5 1.5 0 0 1-.235-.44v-.003a1.849 1.849 0 0 1-.076-.504z"/>
  <path fill="#fff" d="M47.38 11.509h-4.011q-.572 0-1.111-.244-.53-.254-.942-.677-.403-.434-.646-1.016-.243-.593-.243-1.26V1.126h1.407v7.187q0 .317.117.645.116.318.328.572.222.254.54.412.317.16.72.16h3.84zm-3.514-3.196h3.514V9.72h-3.704q-.37 0-.646-.148-.275-.148-.455-.381t-.275-.519q-.085-.296-.085-.571V1.126h1.45v6.911q0 .127.064.201.074.064.137.064z"/>
  <path fill="none" d="M40.194.894v7.418c0 .472.088.926.262 1.35.172.41.402.773.69 1.083l.001.004.002.002a3.55 3.55 0 0 0 1.008.725h.002l.004.002c.388.175.791.263 1.205.263h4.244V8.079h-3.513v-.01h-.196c-.002-.005-.006-.002-.006-.03V.894h-1.914zm.465.464h.943v6.954c0 .24.044.483.13.724l.001.002c.087.236.21.45.367.64l.002.003.002.002a2 2 0 0 0 .61.467c.247.123.525.183.824.183h3.61v.944h-3.78c-.347 0-.681-.073-1.012-.221a3.07 3.07 0 0 1-.869-.625l-.002-.004a3.19 3.19 0 0 1-.6-.944v-.002a3.048 3.048 0 0 1-.226-1.17zm1.789 0h.984v6.68c0 .124.034.252.12.352l.011.013.014.012c.015.013.042.012.058.023v.108h3.512v.941h-3.47a1.105 1.105 0 0 1-.918-.44 1.5 1.5 0 0 1-.235-.439v-.004a1.847 1.847 0 0 1-.076-.504zm1.432 6.704.008.008h-.022c.035 0 .038.013.014-.008z"/>
  <path fill="#fff" d="M51.581 11.509h-.91V6.228q0-.455.01-.73.011-.276.033-.572-.17.17-.318.286-.137.116-.338.296l-.805.656-.487-.624 2.043-1.588h.773z"/>
  <path fill="none" d="M50.729 3.72 48.44 5.5l.776.995.992-.81.004-.004c.095-.086.165-.146.238-.21v.018c-.007.189-.012.433-.012.738v5.514h1.375V3.719zm.16.465h.46v7.091h-.446V6.228a17.49 17.49 0 0 1 .043-1.285l.045-.622-.442.44a3.399 3.399 0 0 1-.296.267l-.004.004-.002.002c-.095.08-.21.18-.344.301l-.613.498-.198-.252zM5.58 5.826c.31-.132.562-.37.684-.685L8.195.157 4.173 0c-.44.016-.842.27-1.003.683a.998.998 0 0 0 .309 1.13l1.035.76-1.772-.604-.675 1.74c-.122.315-.094.645.053.931l-.364-.125-.69 1.782c-.128.332-.086.688.082.985l-.41-.14-.65 1.68c-.28.725.125 1.537.966 1.826.39.133.802.103 1.15-.032l-.147.379 1.714.586.655-1.692c.183-.476.044-1.057-.279-1.353l-.014-.01c.503-.043.951-.337 1.128-.794l.689-1.78-.37-.126"/>
  <g fill="#fff" stroke-width="0">
    <path d="m3.579 11.22.55-1.428c.227-.584-.12-1.238-.772-1.462-.654-.223-1.367.068-1.593.652l-.141.372c-.012.029-.048.044-.08.032-.034-.011-.052-.044-.04-.073l.552-1.425-.502-.172-.552 1.426c-.107.275.058.585.367.691.309.106.646-.033.753-.308l.15-.37c.13-.335.537-.503.91-.375.375.128.573.503.444.837l-.553 1.428z"/>
    <path d="m2.954 11.005.553-1.428c.107-.276-.057-.586-.366-.692-.31-.105-.646.033-.753.31l-.149.37c-.13.334-.537.501-.912.373-.374-.128-.572-.502-.443-.836l.552-1.426-.504-.172L.38 8.93c-.225.583.12 1.238.773 1.461.654.224 1.366-.069 1.592-.652l.144-.369c.01-.028.045-.042.078-.031.032.01.048.043.037.071l-.55 1.426zm1.511-3.549c-.096.248-.396.375-.679.278l-1.6-.547c-.272-.094-.418-.373-.322-.62l.59-1.524-.502-.172-.59 1.524c-.192.495.102 1.05.656 1.24l1.595.546c.555.19 1.16-.058 1.352-.554l.588-1.516-.501-.172z"/>
    <path d="M2.233 7.08c-.212-.073-.325-.284-.251-.473l.59-1.524.503.172-.508 1.313c-.041.105.075.147.075.147l.424-1.095.502.171-.597 1.541zm2.11.335c-.073.188-.303.283-.515.21l-.738-.252.597-1.541.502.172-.424 1.095a.122.122 0 0 0 .16-.066l.506-1.306.499.17zm1.124-2.55c-.095.247-.4.371-.677.276l-1.595-.546c-.277-.095-.424-.371-.328-.618L3.438 2.5l-.502-.172-.573 1.48c-.192.495.102 1.05.657 1.24l1.595.546c.555.19 1.161-.062 1.353-.557l.572-1.476-2.364-.808-.49 1.268.5.171.318-.82 1.36.466z"/>
    <path d="M4.831 5.036c.213.073.445-.021.518-.21l.357-.922L4.58 3.52l-.276.713.503.172.103-.265.118.04-.102.263c-.022.058-.094.086-.159.064l-1.123-.382s-.117-.04-.08-.146l.491-1.267-.5-.17-.572 1.475c-.073.189.04.4.252.473l1.595.546m-.746-3.884a.15.15 0 0 1-.057-.175.166.166 0 0 1 .164-.1l2.653.096-.406 1.05-.559-.193.136-.35-.588-.023L6.93 2.553l-.204.529z"/>
    <path d="m7.015.868-.462 1.191.502.172.702-1.813L4.26.289a.796.796 0 0 0-.793.496.72.72 0 0 0 .267.86l2.765 2.023.184-.475-2.689-1.966a.255.255 0 0 1-.082-.289.284.284 0 0 1 .26-.171z"/>
  </g>
</svg>