<?xml version="1.0" encoding="UTF-8" standalone="no"?>
<!-- Created with Inkscape (http://www.inkscape.org/) -->

<svg
   width="39.392609mm"
   height="10.86558mm"
   viewBox="0 0 39.392609 10.86558"
   version="1.1"
   id="svg5"
   inkscape:version="1.1.2 (b8e25be833, 2022-02-05)"
   sodipodi:docname="w_stern.svg"
   xmlns:inkscape="http://www.inkscape.org/namespaces/inkscape"
   xmlns:sodipodi="http://sodipodi.sourceforge.net/DTD/sodipodi-0.dtd"
   xmlns="http://www.w3.org/2000/svg"
   xmlns:svg="http://www.w3.org/2000/svg">
  <sodipodi:namedview
     id="namedview7"
     pagecolor="#505050"
     bordercolor="#ffffff"
     borderopacity="1"
     inkscape:pageshadow="0"
     inkscape:pageopacity="0"
     inkscape:pagecheckerboard="1"
     inkscape:document-units="mm"
     showgrid="false"
     inkscape:zoom="2.0938813"
     inkscape:cx="70.920927"
     inkscape:cy="49.190946"
     inkscape:window-width="1920"
     inkscape:window-height="1017"
     inkscape:window-x="-1928"
     inkscape:window-y="-8"
     inkscape:window-maximized="1"
     inkscape:current-layer="layer1" />
  <defs
     id="defs2" />
  <g
     inkscape:label="Layer 1"
     inkscape:groupmode="layer"
     id="layer1"
     transform="translate(-52.895306,-139.76716)">
    <g
       aria-label="STERN"
       id="text1508"
       style="font-size:19.7556px;font-family:'SEGA LOGO FONT';-inkscape-font-specification:'SEGA LOGO FONT';fill:#fffeff;stroke-width:0.264583;fill-opacity:1">
      <path
         d="m 59.809766,145.19995 z m 0,0.98778 z m -6.42057,1.48167 z m 0.98778,0 z m 0,-0.98778 z m 0.98778,0.98778 z m 0,-0.98778 z m 0.98778,0.98778 z m 3.45723,-0.49389 z m 0,0.98778 z m 0,0.98778 z m -6.42057,1.48167 z m 0.98778,0 z m 0.98778,0 z m 0.98778,0 z m 0.98778,0 z m 0.98778,0 z m -3.95112,-10.86558 z m 0.98778,0 z m 0.98778,0 z m 0.98778,0 z m 0.98778,0 z m 0.98778,0 z m 0.49389,0.49389 z m 0,0.98778 z m 0,0.98778 z m -3.45723,1.48167 z m 0.98778,0 z m 0,-0.98778 z m 0.98778,0.98778 z m 0,-0.98778 z m 0.98778,0 z m -5.92668,0.98778 z m 0.98778,0 z m 0.98778,0 z m 0.98778,0 z m 0.98778,0 z m 0.98778,0 z m -4.44501,1.48167 q 0,-0.49389 0.49389,-0.49389 -0.49389,0 -0.49389,-0.49389 0,0.49389 -0.49389,0.49389 0.49389,0 0.49389,0.49389 z m 0.98778,0 q 0,-0.49389 0.49389,-0.49389 -0.49389,0 -0.49389,-0.49389 0,0.49389 -0.49389,0.49389 0.49389,0 0.49389,0.49389 z m 0.98778,0 q 0,-0.49389 0.49389,-0.49389 -0.49389,0 -0.49389,-0.49389 0,0.49389 -0.49389,0.49389 0.49389,0 0.49389,0.49389 z m 0.98778,0 q 0,-0.49389 0.49389,-0.49389 -0.49389,0 -0.49389,-0.49389 0,0.49389 -0.49389,0.49389 0.49389,0 0.49389,0.49389 z m 0.98778,0 q 0,-0.49389 0.49389,-0.49389 -0.49389,0 -0.49389,-0.49389 0,0.49389 -0.49389,0.49389 0.49389,0 0.49389,0.49389 z m -2.96334,0.98778 q 0,-0.49389 0.49389,-0.49389 -0.49389,0 -0.49389,-0.49389 0,0.49389 -0.49389,0.49389 0.49389,0 0.49389,0.49389 z m 0.98778,0 q 0,-0.49389 0.49389,-0.49389 -0.49389,0 -0.49389,-0.49389 0,0.49389 -0.49389,0.49389 0.49389,0 0.49389,0.49389 z m 0.98778,0 q 0,-0.49389 0.49389,-0.49389 -0.49389,0 -0.49389,-0.49389 0,0.49389 -0.49389,0.49389 0.49389,0 0.49389,0.49389 z m 0.98778,0 q 0,-0.49389 0.49389,-0.49389 -0.49389,0 -0.49389,-0.49389 0,0.49389 -0.49389,0.49389 0.49389,0 0.49389,0.49389 z m 0.98778,0 q 0,-0.49389 0.49389,-0.49389 -0.49389,0 -0.49389,-0.49389 0,0.49389 -0.49389,0.49389 0.49389,0 0.49389,0.49389 z m -0.98778,0.98778 q 0,-0.49389 0.49389,-0.49389 -0.49389,0 -0.49389,-0.49389 0,0.49389 -0.49389,0.49389 0.49389,0 0.49389,0.49389 z m 0.98778,0 q 0,-0.49389 0.49389,-0.49389 -0.49389,0 -0.49389,-0.49389 0,0.49389 -0.49389,0.49389 0.49389,0 0.49389,0.49389 z m -0.98778,0.98778 q 0,-0.49389 0.49389,-0.49389 -0.49389,0 -0.49389,-0.49389 0,0.49389 -0.49389,0.49389 0.49389,0 0.49389,0.49389 z m 0.98778,0 q 0,-0.49389 0.49389,-0.49389 -0.49389,0 -0.49389,-0.49389 0,0.49389 -0.49389,0.49389 0.49389,0 0.49389,0.49389 z m -4.9389,0.98778 q 0,-0.49389 0.49389,-0.49389 -0.49389,0 -0.49389,-0.49389 0,0.49389 -0.49389,0.49389 0.49389,0 0.49389,0.49389 z m 0.98778,0 q 0,-0.49389 0.49389,-0.49389 -0.49389,0 -0.49389,-0.49389 0,0.49389 -0.49389,0.49389 0.49389,0 0.49389,0.49389 z m 0.98778,0 q 0,-0.49389 0.49389,-0.49389 -0.49389,0 -0.49389,-0.49389 0,0.49389 -0.49389,0.49389 0.49389,0 0.49389,0.49389 z m 0.98778,0 q 0,-0.49389 0.49389,-0.49389 -0.49389,0 -0.49389,-0.49389 0,0.49389 -0.49389,0.49389 0.49389,0 0.49389,0.49389 z m 0.98778,0 q 0,-0.49389 0.49389,-0.49389 -0.49389,0 -0.49389,-0.49389 0,0.49389 -0.49389,0.49389 0.49389,0 0.49389,0.49389 z m 0.98778,0 q 0,-0.49389 0.49389,-0.49389 -0.49389,0 -0.49389,-0.49389 0,0.49389 -0.49389,0.49389 0.49389,0 0.49389,0.49389 z m -4.9389,0.98778 q 0,-0.49389 0.49389,-0.49389 -0.49389,0 -0.49389,-0.49389 0,0.49389 -0.49389,0.49389 0.49389,0 0.49389,0.49389 z m 0.98778,0 q 0,-0.49389 0.49389,-0.49389 -0.49389,0 -0.49389,-0.49389 0,0.49389 -0.49389,0.49389 0.49389,0 0.49389,0.49389 z m 0.98778,0 q 0,-0.49389 0.49389,-0.49389 -0.49389,0 -0.49389,-0.49389 0,0.49389 -0.49389,0.49389 0.49389,0 0.49389,0.49389 z m 0.98778,0 q 0,-0.49389 0.49389,-0.49389 -0.49389,0 -0.49389,-0.49389 0,0.49389 -0.49389,0.49389 0.49389,0 0.49389,0.49389 z m 0.98778,0 q 0,-0.49389 0.49389,-0.49389 -0.49389,0 -0.49389,-0.49389 0,0.49389 -0.49389,0.49389 0.49389,0 0.49389,0.49389 z m -2.96334,-8.89002 q 0,-0.49389 0.49389,-0.49389 -0.49389,0 -0.49389,-0.49389 0,0.49389 -0.49389,0.49389 0.49389,0 0.49389,0.49389 z m 0.98778,0 q 0,-0.49389 0.49389,-0.49389 -0.49389,0 -0.49389,-0.49389 0,0.49389 -0.49389,0.49389 0.49389,0 0.49389,0.49389 z m 0.98778,0 q 0,-0.49389 0.49389,-0.49389 -0.49389,0 -0.49389,-0.49389 0,0.49389 -0.49389,0.49389 0.49389,0 0.49389,0.49389 z m 0.98778,0 q 0,-0.49389 0.49389,-0.49389 -0.49389,0 -0.49389,-0.49389 0,0.49389 -0.49389,0.49389 0.49389,0 0.49389,0.49389 z m 0.98778,0 q 0,-0.49389 0.49389,-0.49389 -0.49389,0 -0.49389,-0.49389 0,0.49389 -0.49389,0.49389 0.49389,0 0.49389,0.49389 z m -4.9389,0.98778 q 0,-0.49389 0.49389,-0.49389 -0.49389,0 -0.49389,-0.49389 0,0.49389 -0.49389,0.49389 0.49389,0 0.49389,0.49389 z m 0.98778,0 q 0,-0.49389 0.49389,-0.49389 -0.49389,0 -0.49389,-0.49389 0,0.49389 -0.49389,0.49389 0.49389,0 0.49389,0.49389 z m 0.98778,0 q 0,-0.49389 0.49389,-0.49389 -0.49389,0 -0.49389,-0.49389 0,0.49389 -0.49389,0.49389 0.49389,0 0.49389,0.49389 z m 0.98778,0 q 0,-0.49389 0.49389,-0.49389 -0.49389,0 -0.49389,-0.49389 0,0.49389 -0.49389,0.49389 0.49389,0 0.49389,0.49389 z m 0.98778,0 q 0,-0.49389 0.49389,-0.49389 -0.49389,0 -0.49389,-0.49389 0,0.49389 -0.49389,0.49389 0.49389,0 0.49389,0.49389 z m 0.98778,0 q 0,-0.49389 0.49389,-0.49389 -0.49389,0 -0.49389,-0.49389 0,0.49389 -0.49389,0.49389 0.49389,0 0.49389,0.49389 z m -4.44501,1.48167 q -0.49389,0 -0.49389,-0.49389 0,0.49389 -0.49389,0.49389 0.49389,0 0.49389,0.49389 0,-0.49389 0.49389,-0.49389 z m -0.49389,-0.49389 q 0,-0.49389 0.49389,-0.49389 -0.49389,0 -0.49389,-0.49389 0,0.49389 -0.49389,0.49389 0.49389,0 0.49389,0.49389 z m 1.48167,0.49389 q -0.49389,0 -0.49389,-0.49389 0,0.49389 -0.49389,0.49389 0.49389,0 0.49389,0.49389 0,-0.49389 0.49389,-0.49389 z m 0,-0.98778 q 0.49389,0 0.49389,0.49389 0,0.49389 -0.49389,0.49389 0.49389,0 0.49389,0.49389 0,-0.49389 0.49389,-0.49389 0.49389,0 0.49389,0.49389 0,-0.49389 0.49389,-0.49389 0.49389,0 0.49389,0.49389 0,-0.49389 0.49389,-0.49389 0.49389,0 0.49389,0.49389 0,0.49389 -0.49389,0.49389 0.49389,0 0.49389,0.49389 0,-0.49389 0.49389,-0.49389 0.49389,0 0.49389,0.49389 0,0.49389 -0.49389,0.49389 0.49389,0 0.49389,0.49389 0,0.49389 -0.49389,0.49389 0.49389,0 0.49389,0.49389 0,0.49389 -0.49389,0.49389 0.49389,0 0.49389,0.49389 0,0.49389 -0.49389,0.49389 0.49389,0 0.49389,0.49389 0,0.49389 -0.49389,0.49389 -0.49389,0 -0.49389,-0.49389 0,0.49389 -0.49389,0.49389 0.49389,0 0.49389,0.49389 0,0.49389 -0.49389,0.49389 -0.49389,0 -0.49389,-0.49389 0,0.49389 -0.49389,0.49389 -0.49389,0 -0.49389,-0.49389 0,0.49389 -0.49389,0.49389 -0.49389,0 -0.49389,-0.49389 0,0.49389 -0.49389,0.49389 -0.49389,0 -0.49389,-0.49389 0,0.49389 -0.49389,0.49389 -0.49389,0 -0.49389,-0.49389 0,0.49389 -0.49389,0.49389 -0.49389,0 -0.49389,-0.49389 0,-0.49389 0.49389,-0.49389 -0.49389,0 -0.49389,-0.49389 0,-0.49389 0.49389,-0.49389 -0.49389,0 -0.49389,-0.49389 0,-0.49389 0.49389,-0.49389 0.49389,0 0.49389,0.49389 0,-0.49389 0.49389,-0.49389 0.49389,0 0.49389,0.49389 0,-0.49389 0.49389,-0.49389 0.49389,0 0.49389,0.49389 0,-0.49389 0.49389,-0.49389 0.49389,0 0.49389,0.49389 0,-0.49389 0.49389,-0.49389 -0.49389,0 -0.49389,-0.49389 0,-0.49389 0.49389,-0.49389 -0.49389,0 -0.49389,-0.49389 0,0.49389 -0.49389,0.49389 -0.49389,0 -0.49389,-0.49389 0,0.49389 -0.49389,0.49389 -0.49389,0 -0.49389,-0.49389 0,0.49389 -0.49389,0.49389 -0.49389,0 -0.49389,-0.49389 0,-0.49389 0.49389,-0.49389 -0.49389,0 -0.49389,-0.49389 0,0.49389 -0.49389,0.49389 -0.49389,0 -0.49389,-0.49389 0,-0.49389 0.49389,-0.49389 -0.49389,0 -0.49389,-0.49389 0,-0.49389 0.49389,-0.49389 -0.49389,0 -0.49389,-0.49389 0,-0.49389 0.49389,-0.49389 -0.49389,0 -0.49389,-0.49389 0,-0.49389 0.49389,-0.49389 -0.49389,0 -0.49389,-0.49389 0,-0.49389 0.49389,-0.49389 0.49389,0 0.49389,0.49389 0,-0.49389 0.49389,-0.49389 -0.49389,0 -0.49389,-0.49389 0,-0.49389 0.49389,-0.49389 0.49389,0 0.49389,0.49389 0,-0.49389 0.49389,-0.49389 0.49389,0 0.49389,0.49389 0,-0.49389 0.49389,-0.49389 0.49389,0 0.49389,0.49389 0,-0.49389 0.49389,-0.49389 0.49389,0 0.49389,0.49389 0,-0.49389 0.49389,-0.49389 0.49389,0 0.49389,0.49389 0,-0.49389 0.49389,-0.49389 0.49389,0 0.49389,0.49389 0,0.49389 -0.49389,0.49389 0.49389,0 0.49389,0.49389 0,0.49389 -0.49389,0.49389 0.49389,0 0.49389,0.49389 0,0.49389 -0.49389,0.49389 -0.49389,0 -0.49389,-0.49389 0,0.49389 -0.49389,0.49389 -0.49389,0 -0.49389,-0.49389 0,0.49389 -0.49389,0.49389 -0.49389,0 -0.49389,-0.49389 0,0.49389 -0.49389,0.49389 -0.49389,0 -0.49389,-0.49389 0,0.49389 -0.49389,0.49389 z m -0.49389,0.49389 q 0,-0.49389 0.49389,-0.49389 -0.49389,0 -0.49389,-0.49389 0,0.49389 -0.49389,0.49389 0.49389,0 0.49389,0.49389 z"
         style="-inkscape-font-specification:'Balls on the rampage';fill:#fffeff;fill-opacity:1"
         id="path4938" />
      <path
         d="m 62.990403,144.21217 z m 2.96334,0 z m -2.96334,0.98778 z m 2.96334,0 z m -2.96334,0.98778 z m 2.96334,0 z m -2.96334,0.98778 z m 2.96334,0 z m -2.96334,0.98778 z m 2.96334,0 z m -2.96334,0.98778 z m 2.96334,0 z m -2.96334,0.98778 z m 2.96334,0 z m -2.46945,0.49389 z m 0.98778,0 z m 0.98778,0 z m -3.95112,-10.86558 z m 0.98778,0 z m 0.98778,0 z m 0.98778,0 z m 0.98778,0 z m 0.98778,0 z m 0.98778,0 z m 0.49389,0.49389 z m 0,0.98778 z m -6.42057,0.49389 z m 5.92668,0 z m -4.44501,1.48167 z m 2.96334,0 z m -2.46945,0.49389 z m 0.98778,0 z m 0.98778,0 z m -1.48167,1.48167 q 0,-0.49389 0.49389,-0.49389 -0.49389,0 -0.49389,-0.49389 0,0.49389 -0.49389,0.49389 0.49389,0 0.49389,0.49389 z m 0.98778,0 q 0,-0.49389 0.49389,-0.49389 -0.49389,0 -0.49389,-0.49389 0,0.49389 -0.49389,0.49389 0.49389,0 0.49389,0.49389 z m -0.98778,0.98778 q 0,-0.49389 0.49389,-0.49389 -0.49389,0 -0.49389,-0.49389 0,0.49389 -0.49389,0.49389 0.49389,0 0.49389,0.49389 z m 0.98778,0 q 0,-0.49389 0.49389,-0.49389 -0.49389,0 -0.49389,-0.49389 0,0.49389 -0.49389,0.49389 0.49389,0 0.49389,0.49389 z m -0.98778,0.98778 q 0,-0.49389 0.49389,-0.49389 -0.49389,0 -0.49389,-0.49389 0,0.49389 -0.49389,0.49389 0.49389,0 0.49389,0.49389 z m 0.98778,0 q 0,-0.49389 0.49389,-0.49389 -0.49389,0 -0.49389,-0.49389 0,0.49389 -0.49389,0.49389 0.49389,0 0.49389,0.49389 z m -0.98778,0.98778 q 0,-0.49389 0.49389,-0.49389 -0.49389,0 -0.49389,-0.49389 0,0.49389 -0.49389,0.49389 0.49389,0 0.49389,0.49389 z m 0.98778,0 q 0,-0.49389 0.49389,-0.49389 -0.49389,0 -0.49389,-0.49389 0,0.49389 -0.49389,0.49389 0.49389,0 0.49389,0.49389 z m -0.98778,0.98778 q 0,-0.49389 0.49389,-0.49389 -0.49389,0 -0.49389,-0.49389 0,0.49389 -0.49389,0.49389 0.49389,0 0.49389,0.49389 z m 0.98778,0 q 0,-0.49389 0.49389,-0.49389 -0.49389,0 -0.49389,-0.49389 0,0.49389 -0.49389,0.49389 0.49389,0 0.49389,0.49389 z m -0.98778,0.98778 q 0,-0.49389 0.49389,-0.49389 -0.49389,0 -0.49389,-0.49389 0,0.49389 -0.49389,0.49389 0.49389,0 0.49389,0.49389 z m 0.98778,0 q 0,-0.49389 0.49389,-0.49389 -0.49389,0 -0.49389,-0.49389 0,0.49389 -0.49389,0.49389 0.49389,0 0.49389,0.49389 z m -2.96334,-8.89002 q 0,-0.49389 0.49389,-0.49389 -0.49389,0 -0.49389,-0.49389 0,0.49389 -0.49389,0.49389 0.49389,0 0.49389,0.49389 z m 0.98778,0 q 0,-0.49389 0.49389,-0.49389 -0.49389,0 -0.49389,-0.49389 0,0.49389 -0.49389,0.49389 0.49389,0 0.49389,0.49389 z m 0.98778,0 q 0,-0.49389 0.49389,-0.49389 -0.49389,0 -0.49389,-0.49389 0,0.49389 -0.49389,0.49389 0.49389,0 0.49389,0.49389 z m 0.98778,0 q 0,-0.49389 0.49389,-0.49389 -0.49389,0 -0.49389,-0.49389 0,0.49389 -0.49389,0.49389 0.49389,0 0.49389,0.49389 z m 0.98778,0 q 0,-0.49389 0.49389,-0.49389 -0.49389,0 -0.49389,-0.49389 0,0.49389 -0.49389,0.49389 0.49389,0 0.49389,0.49389 z m 0.98778,0 q 0,-0.49389 0.49389,-0.49389 -0.49389,0 -0.49389,-0.49389 0,0.49389 -0.49389,0.49389 0.49389,0 0.49389,0.49389 z m -2.96334,0.98778 q 0,-0.49389 0.49389,-0.49389 -0.49389,0 -0.49389,-0.49389 0,0.49389 -0.49389,0.49389 0.49389,0 0.49389,0.49389 z m 0.98778,0 q 0,-0.49389 0.49389,-0.49389 -0.49389,0 -0.49389,-0.49389 0,0.49389 -0.49389,0.49389 0.49389,0 0.49389,0.49389 z m -0.49389,1.48167 q -0.49389,0 -0.49389,-0.49389 0,0.49389 -0.49389,0.49389 0.49389,0 0.49389,0.49389 0,-0.49389 0.49389,-0.49389 z m -0.49389,-0.49389 q 0,-0.49389 0.49389,-0.49389 -0.49389,0 -0.49389,-0.49389 0,0.49389 -0.49389,0.49389 0.49389,0 0.49389,0.49389 z m 1.48167,0.49389 q -0.49389,0 -0.49389,-0.49389 0,0.49389 -0.49389,0.49389 0.49389,0 0.49389,0.49389 0,-0.49389 0.49389,-0.49389 z m 0,-0.98778 q 0.49389,0 0.49389,0.49389 0,0.49389 -0.49389,0.49389 0.49389,0 0.49389,0.49389 0,0.49389 -0.49389,0.49389 0.49389,0 0.49389,0.49389 0,0.49389 -0.49389,0.49389 0.49389,0 0.49389,0.49389 0,0.49389 -0.49389,0.49389 0.49389,0 0.49389,0.49389 0,0.49389 -0.49389,0.49389 0.49389,0 0.49389,0.49389 0,0.49389 -0.49389,0.49389 0.49389,0 0.49389,0.49389 0,0.49389 -0.49389,0.49389 0.49389,0 0.49389,0.49389 0,0.49389 -0.49389,0.49389 -0.49389,0 -0.49389,-0.49389 0,0.49389 -0.49389,0.49389 -0.49389,0 -0.49389,-0.49389 0,0.49389 -0.49389,0.49389 -0.49389,0 -0.49389,-0.49389 0,-0.49389 0.49389,-0.49389 -0.49389,0 -0.49389,-0.49389 0,-0.49389 0.49389,-0.49389 -0.49389,0 -0.49389,-0.49389 0,-0.49389 0.49389,-0.49389 -0.49389,0 -0.49389,-0.49389 0,-0.49389 0.49389,-0.49389 -0.49389,0 -0.49389,-0.49389 0,-0.49389 0.49389,-0.49389 -0.49389,0 -0.49389,-0.49389 0,-0.49389 0.49389,-0.49389 -0.49389,0 -0.49389,-0.49389 0,-0.49389 0.49389,-0.49389 -0.49389,0 -0.49389,-0.49389 0,-0.49389 0.49389,-0.49389 -0.49389,0 -0.49389,-0.49389 0,-0.49389 0.49389,-0.49389 -0.49389,0 -0.49389,-0.49389 0,0.49389 -0.49389,0.49389 -0.49389,0 -0.49389,-0.49389 0,0.49389 -0.49389,0.49389 -0.49389,0 -0.49389,-0.49389 0,-0.49389 0.49389,-0.49389 -0.49389,0 -0.49389,-0.49389 0,-0.49389 0.49389,-0.49389 0.49389,0 0.49389,0.49389 0,-0.49389 0.49389,-0.49389 0.49389,0 0.49389,0.49389 0,-0.49389 0.49389,-0.49389 0.49389,0 0.49389,0.49389 0,-0.49389 0.49389,-0.49389 0.49389,0 0.49389,0.49389 0,-0.49389 0.49389,-0.49389 0.49389,0 0.49389,0.49389 0,-0.49389 0.49389,-0.49389 0.49389,0 0.49389,0.49389 0,-0.49389 0.49389,-0.49389 0.49389,0 0.49389,0.49389 0,0.49389 -0.49389,0.49389 0.49389,0 0.49389,0.49389 0,0.49389 -0.49389,0.49389 -0.49389,0 -0.49389,-0.49389 0,0.49389 -0.49389,0.49389 -0.49389,0 -0.49389,-0.49389 0,0.49389 -0.49389,0.49389 0.49389,0 0.49389,0.49389 0,0.49389 -0.49389,0.49389 z m -0.49389,0.49389 q 0,-0.49389 0.49389,-0.49389 -0.49389,0 -0.49389,-0.49389 0,0.49389 -0.49389,0.49389 0.49389,0 0.49389,0.49389 z"
         style="-inkscape-font-specification:'Balls on the rampage';fill:#fffeff;fill-opacity:1"
         id="path4940" />
      <path
         d="m 76.04884,144.21217 z m 0,0.98778 z m 0,0.98778 z m -3.45723,1.48167 z m 3.45723,0.49389 z m 0,0.98778 z m 0,0.98778 z m -6.42057,0.49389 z m 0.98778,0 z m 0.98778,0 z m 0.98778,0 z m 0.98778,0 z m 0.98778,0 z m 0.98778,0 z m -5.92668,-10.86558 z m 0.98778,0 z m 0.98778,0 z m 0.98778,0 z m 0.98778,0 z m 0.98778,0 z m 0.98778,0 z m 0.49389,0.49389 z m 0,0.98778 z m 0,0.98778 z m -2.46945,1.48167 z m 0.98778,0 z m 0.98778,0 z m -5.92668,0 z m 0.98778,0 z m 0.98778,0 z m 0.98778,0 z m 0.98778,0 z m 0.98778,0 z m 0.98778,0 z m -5.43279,1.48167 q 0,-0.49389 0.49389,-0.49389 -0.49389,0 -0.49389,-0.49389 0,0.49389 -0.49389,0.49389 0.49389,0 0.49389,0.49389 z m 0.98778,0 q 0,-0.49389 0.49389,-0.49389 -0.49389,0 -0.49389,-0.49389 0,0.49389 -0.49389,0.49389 0.49389,0 0.49389,0.49389 z m 0.98778,0 q 0,-0.49389 0.49389,-0.49389 -0.49389,0 -0.49389,-0.49389 0,0.49389 -0.49389,0.49389 0.49389,0 0.49389,0.49389 z m 0.98778,0 q 0,-0.49389 0.49389,-0.49389 -0.49389,0 -0.49389,-0.49389 0,0.49389 -0.49389,0.49389 0.49389,0 0.49389,0.49389 z m 0.98778,0 q 0,-0.49389 0.49389,-0.49389 -0.49389,0 -0.49389,-0.49389 0,0.49389 -0.49389,0.49389 0.49389,0 0.49389,0.49389 z m 0.98778,0 q 0,-0.49389 0.49389,-0.49389 -0.49389,0 -0.49389,-0.49389 0,0.49389 -0.49389,0.49389 0.49389,0 0.49389,0.49389 z m -4.9389,0.98778 q 0,-0.49389 0.49389,-0.49389 -0.49389,0 -0.49389,-0.49389 0,0.49389 -0.49389,0.49389 0.49389,0 0.49389,0.49389 z m 0.98778,0 q 0,-0.49389 0.49389,-0.49389 -0.49389,0 -0.49389,-0.49389 0,0.49389 -0.49389,0.49389 0.49389,0 0.49389,0.49389 z m 0.98778,0 q 0,-0.49389 0.49389,-0.49389 -0.49389,0 -0.49389,-0.49389 0,0.49389 -0.49389,0.49389 0.49389,0 0.49389,0.49389 z m 0.98778,0 q 0,-0.49389 0.49389,-0.49389 -0.49389,0 -0.49389,-0.49389 0,0.49389 -0.49389,0.49389 0.49389,0 0.49389,0.49389 z m 0.98778,0 q 0,-0.49389 0.49389,-0.49389 -0.49389,0 -0.49389,-0.49389 0,0.49389 -0.49389,0.49389 0.49389,0 0.49389,0.49389 z m 0.98778,0 q 0,-0.49389 0.49389,-0.49389 -0.49389,0 -0.49389,-0.49389 0,0.49389 -0.49389,0.49389 0.49389,0 0.49389,0.49389 z m -4.9389,0.98778 q 0,-0.49389 0.49389,-0.49389 -0.49389,0 -0.49389,-0.49389 0,0.49389 -0.49389,0.49389 0.49389,0 0.49389,0.49389 z m 0.98778,0 q 0,-0.49389 0.49389,-0.49389 -0.49389,0 -0.49389,-0.49389 0,0.49389 -0.49389,0.49389 0.49389,0 0.49389,0.49389 z m -0.98778,0.98778 q 0,-0.49389 0.49389,-0.49389 -0.49389,0 -0.49389,-0.49389 0,0.49389 -0.49389,0.49389 0.49389,0 0.49389,0.49389 z m 0.98778,0 q 0,-0.49389 0.49389,-0.49389 -0.49389,0 -0.49389,-0.49389 0,0.49389 -0.49389,0.49389 0.49389,0 0.49389,0.49389 z m -0.98778,0.98778 q 0,-0.49389 0.49389,-0.49389 -0.49389,0 -0.49389,-0.49389 0,0.49389 -0.49389,0.49389 0.49389,0 0.49389,0.49389 z m 0.98778,0 q 0,-0.49389 0.49389,-0.49389 -0.49389,0 -0.49389,-0.49389 0,0.49389 -0.49389,0.49389 0.49389,0 0.49389,0.49389 z m 0.98778,0 q 0,-0.49389 0.49389,-0.49389 -0.49389,0 -0.49389,-0.49389 0,0.49389 -0.49389,0.49389 0.49389,0 0.49389,0.49389 z m 0.98778,0 q 0,-0.49389 0.49389,-0.49389 -0.49389,0 -0.49389,-0.49389 0,0.49389 -0.49389,0.49389 0.49389,0 0.49389,0.49389 z m 0.98778,0 q 0,-0.49389 0.49389,-0.49389 -0.49389,0 -0.49389,-0.49389 0,0.49389 -0.49389,0.49389 0.49389,0 0.49389,0.49389 z m 0.98778,0 q 0,-0.49389 0.49389,-0.49389 -0.49389,0 -0.49389,-0.49389 0,0.49389 -0.49389,0.49389 0.49389,0 0.49389,0.49389 z m -4.9389,0.98778 q 0,-0.49389 0.49389,-0.49389 -0.49389,0 -0.49389,-0.49389 0,0.49389 -0.49389,0.49389 0.49389,0 0.49389,0.49389 z m 0.98778,0 q 0,-0.49389 0.49389,-0.49389 -0.49389,0 -0.49389,-0.49389 0,0.49389 -0.49389,0.49389 0.49389,0 0.49389,0.49389 z m 0.98778,0 q 0,-0.49389 0.49389,-0.49389 -0.49389,0 -0.49389,-0.49389 0,0.49389 -0.49389,0.49389 0.49389,0 0.49389,0.49389 z m 0.98778,0 q 0,-0.49389 0.49389,-0.49389 -0.49389,0 -0.49389,-0.49389 0,0.49389 -0.49389,0.49389 0.49389,0 0.49389,0.49389 z m 0.98778,0 q 0,-0.49389 0.49389,-0.49389 -0.49389,0 -0.49389,-0.49389 0,0.49389 -0.49389,0.49389 0.49389,0 0.49389,0.49389 z m 0.98778,0 q 0,-0.49389 0.49389,-0.49389 -0.49389,0 -0.49389,-0.49389 0,0.49389 -0.49389,0.49389 0.49389,0 0.49389,0.49389 z m -4.9389,-8.89002 q 0,-0.49389 0.49389,-0.49389 -0.49389,0 -0.49389,-0.49389 0,0.49389 -0.49389,0.49389 0.49389,0 0.49389,0.49389 z m 0.98778,0 q 0,-0.49389 0.49389,-0.49389 -0.49389,0 -0.49389,-0.49389 0,0.49389 -0.49389,0.49389 0.49389,0 0.49389,0.49389 z m 0.98778,0 q 0,-0.49389 0.49389,-0.49389 -0.49389,0 -0.49389,-0.49389 0,0.49389 -0.49389,0.49389 0.49389,0 0.49389,0.49389 z m 0.98778,0 q 0,-0.49389 0.49389,-0.49389 -0.49389,0 -0.49389,-0.49389 0,0.49389 -0.49389,0.49389 0.49389,0 0.49389,0.49389 z m 0.98778,0 q 0,-0.49389 0.49389,-0.49389 -0.49389,0 -0.49389,-0.49389 0,0.49389 -0.49389,0.49389 0.49389,0 0.49389,0.49389 z m 0.98778,0 q 0,-0.49389 0.49389,-0.49389 -0.49389,0 -0.49389,-0.49389 0,0.49389 -0.49389,0.49389 0.49389,0 0.49389,0.49389 z m -4.9389,0.98778 q 0,-0.49389 0.49389,-0.49389 -0.49389,0 -0.49389,-0.49389 0,0.49389 -0.49389,0.49389 0.49389,0 0.49389,0.49389 z m 0.98778,0 q 0,-0.49389 0.49389,-0.49389 -0.49389,0 -0.49389,-0.49389 0,0.49389 -0.49389,0.49389 0.49389,0 0.49389,0.49389 z m 0.98778,0 q 0,-0.49389 0.49389,-0.49389 -0.49389,0 -0.49389,-0.49389 0,0.49389 -0.49389,0.49389 0.49389,0 0.49389,0.49389 z m 0.98778,0 q 0,-0.49389 0.49389,-0.49389 -0.49389,0 -0.49389,-0.49389 0,0.49389 -0.49389,0.49389 0.49389,0 0.49389,0.49389 z m 0.98778,0 q 0,-0.49389 0.49389,-0.49389 -0.49389,0 -0.49389,-0.49389 0,0.49389 -0.49389,0.49389 0.49389,0 0.49389,0.49389 z m 0.98778,0 q 0,-0.49389 0.49389,-0.49389 -0.49389,0 -0.49389,-0.49389 0,0.49389 -0.49389,0.49389 0.49389,0 0.49389,0.49389 z m -4.44501,1.48167 q -0.49389,0 -0.49389,-0.49389 0,0.49389 -0.49389,0.49389 0.49389,0 0.49389,0.49389 0,-0.49389 0.49389,-0.49389 z m -0.49389,-0.49389 q 0,-0.49389 0.49389,-0.49389 -0.49389,0 -0.49389,-0.49389 0,0.49389 -0.49389,0.49389 0.49389,0 0.49389,0.49389 z m 1.48167,0.49389 q -0.49389,0 -0.49389,-0.49389 0,0.49389 -0.49389,0.49389 0.49389,0 0.49389,0.49389 0,-0.49389 0.49389,-0.49389 z m 0,-0.98778 q 0.49389,0 0.49389,0.49389 0,0.49389 -0.49389,0.49389 0.49389,0 0.49389,0.49389 0,-0.49389 0.49389,-0.49389 0.49389,0 0.49389,0.49389 0,-0.49389 0.49389,-0.49389 0.49389,0 0.49389,0.49389 0,-0.49389 0.49389,-0.49389 0.49389,0 0.49389,0.49389 0,-0.49389 0.49389,-0.49389 0.49389,0 0.49389,0.49389 0,0.49389 -0.49389,0.49389 0.49389,0 0.49389,0.49389 0,0.49389 -0.49389,0.49389 0.49389,0 0.49389,0.49389 0,0.49389 -0.49389,0.49389 -0.49389,0 -0.49389,-0.49389 0,0.49389 -0.49389,0.49389 -0.49389,0 -0.49389,-0.49389 0,0.49389 -0.49389,0.49389 -0.49389,0 -0.49389,-0.49389 0,0.49389 -0.49389,0.49389 -0.49389,0 -0.49389,-0.49389 0,0.49389 -0.49389,0.49389 0.49389,0 0.49389,0.49389 0,0.49389 -0.49389,0.49389 0.49389,0 0.49389,0.49389 0,-0.49389 0.49389,-0.49389 0.49389,0 0.49389,0.49389 0,-0.49389 0.49389,-0.49389 0.49389,0 0.49389,0.49389 0,-0.49389 0.49389,-0.49389 0.49389,0 0.49389,0.49389 0,-0.49389 0.49389,-0.49389 0.49389,0 0.49389,0.49389 0,0.49389 -0.49389,0.49389 0.49389,0 0.49389,0.49389 0,0.49389 -0.49389,0.49389 0.49389,0 0.49389,0.49389 0,0.49389 -0.49389,0.49389 -0.49389,0 -0.49389,-0.49389 0,0.49389 -0.49389,0.49389 -0.49389,0 -0.49389,-0.49389 0,0.49389 -0.49389,0.49389 -0.49389,0 -0.49389,-0.49389 0,0.49389 -0.49389,0.49389 -0.49389,0 -0.49389,-0.49389 0,0.49389 -0.49389,0.49389 -0.49389,0 -0.49389,-0.49389 0,0.49389 -0.49389,0.49389 -0.49389,0 -0.49389,-0.49389 0,0.49389 -0.49389,0.49389 -0.49389,0 -0.49389,-0.49389 0,-0.49389 0.49389,-0.49389 -0.49389,0 -0.49389,-0.49389 0,-0.49389 0.49389,-0.49389 -0.49389,0 -0.49389,-0.49389 0,-0.49389 0.49389,-0.49389 -0.49389,0 -0.49389,-0.49389 0,-0.49389 0.49389,-0.49389 -0.49389,0 -0.49389,-0.49389 0,-0.49389 0.49389,-0.49389 -0.49389,0 -0.49389,-0.49389 0,-0.49389 0.49389,-0.49389 -0.49389,0 -0.49389,-0.49389 0,-0.49389 0.49389,-0.49389 -0.49389,0 -0.49389,-0.49389 0,-0.49389 0.49389,-0.49389 -0.49389,0 -0.49389,-0.49389 0,-0.49389 0.49389,-0.49389 -0.49389,0 -0.49389,-0.49389 0,-0.49389 0.49389,-0.49389 -0.49389,0 -0.49389,-0.49389 0,-0.49389 0.49389,-0.49389 0.49389,0 0.49389,0.49389 0,-0.49389 0.49389,-0.49389 0.49389,0 0.49389,0.49389 0,-0.49389 0.49389,-0.49389 0.49389,0 0.49389,0.49389 0,-0.49389 0.49389,-0.49389 0.49389,0 0.49389,0.49389 0,-0.49389 0.49389,-0.49389 0.49389,0 0.49389,0.49389 0,-0.49389 0.49389,-0.49389 0.49389,0 0.49389,0.49389 0,-0.49389 0.49389,-0.49389 0.49389,0 0.49389,0.49389 0,0.49389 -0.49389,0.49389 0.49389,0 0.49389,0.49389 0,0.49389 -0.49389,0.49389 0.49389,0 0.49389,0.49389 0,0.49389 -0.49389,0.49389 -0.49389,0 -0.49389,-0.49389 0,0.49389 -0.49389,0.49389 -0.49389,0 -0.49389,-0.49389 0,0.49389 -0.49389,0.49389 -0.49389,0 -0.49389,-0.49389 0,0.49389 -0.49389,0.49389 -0.49389,0 -0.49389,-0.49389 0,0.49389 -0.49389,0.49389 z m -0.49389,0.49389 q 0,-0.49389 0.49389,-0.49389 -0.49389,0 -0.49389,-0.49389 0,0.49389 -0.49389,0.49389 0.49389,0 0.49389,0.49389 z"
         style="-inkscape-font-specification:'Balls on the rampage';fill:#fffeff;fill-opacity:1"
         id="path4942" />
      <path
         d="m 84.168378,144.21217 z m 0,1.97556 z m -2.96334,0.98778 z m 2.96334,0 z m -3.95112,0.98778 z m 0.98778,0 z m 2.96334,0 z m -3.95112,0.98778 z m 0.98778,0 z m 2.96334,0 z m -3.95112,0.98778 z m 0.98778,0 z m 2.96334,0 z m -6.42057,0.49389 z m 0.98778,0 z m 0.98778,0 z m 1.97556,0 z m 0.98778,0 z m 0.98778,0 z m -5.92668,-10.86558 z m 0.98778,0 z m 0.98778,0 z m 0.98778,0 z m 0.98778,0 z m 0.98778,0 z m 1.48167,1.48167 z m 0,0.98778 z m 0,0.98778 z m -6.42057,0.49389 z m 0.98778,0 z m 0.98778,0 z m 0.98778,0 z m 0.98778,0 z m 0.98778,0 z m 0.98778,0 z m -5.43279,1.48167 q 0,-0.49389 0.49389,-0.49389 -0.49389,0 -0.49389,-0.49389 0,0.49389 -0.49389,0.49389 0.49389,0 0.49389,0.49389 z m 0.98778,0 q 0,-0.49389 0.49389,-0.49389 -0.49389,0 -0.49389,-0.49389 0,0.49389 -0.49389,0.49389 0.49389,0 0.49389,0.49389 z m 0.98778,0 q 0,-0.49389 0.49389,-0.49389 -0.49389,0 -0.49389,-0.49389 0,0.49389 -0.49389,0.49389 0.49389,0 0.49389,0.49389 z m 0.98778,0 q 0,-0.49389 0.49389,-0.49389 -0.49389,0 -0.49389,-0.49389 0,0.49389 -0.49389,0.49389 0.49389,0 0.49389,0.49389 z m 0.98778,0 q 0,-0.49389 0.49389,-0.49389 -0.49389,0 -0.49389,-0.49389 0,0.49389 -0.49389,0.49389 0.49389,0 0.49389,0.49389 z m -3.95112,0.98778 q 0,-0.49389 0.49389,-0.49389 -0.49389,0 -0.49389,-0.49389 0,0.49389 -0.49389,0.49389 0.49389,0 0.49389,0.49389 z m 0.98778,0 q 0,-0.49389 0.49389,-0.49389 -0.49389,0 -0.49389,-0.49389 0,0.49389 -0.49389,0.49389 0.49389,0 0.49389,0.49389 z m 0.98778,0 q 0,-0.49389 0.49389,-0.49389 -0.49389,0 -0.49389,-0.49389 0,0.49389 -0.49389,0.49389 0.49389,0 0.49389,0.49389 z m 0.98778,0 q 0,-0.49389 0.49389,-0.49389 -0.49389,0 -0.49389,-0.49389 0,0.49389 -0.49389,0.49389 0.49389,0 0.49389,0.49389 z m 0.98778,0 q 0,-0.49389 0.49389,-0.49389 -0.49389,0 -0.49389,-0.49389 0,0.49389 -0.49389,0.49389 0.49389,0 0.49389,0.49389 z m -3.95112,0.98778 q 0,-0.49389 0.49389,-0.49389 -0.49389,0 -0.49389,-0.49389 0,0.49389 -0.49389,0.49389 0.49389,0 0.49389,0.49389 z m 0.98778,0 q 0,-0.49389 0.49389,-0.49389 -0.49389,0 -0.49389,-0.49389 0,0.49389 -0.49389,0.49389 0.49389,0 0.49389,0.49389 z m 2.96334,0 q 0,-0.49389 0.49389,-0.49389 -0.49389,0 -0.49389,-0.49389 0,0.49389 -0.49389,0.49389 0.49389,0 0.49389,0.49389 z m 0.98778,0 q 0,-0.49389 0.49389,-0.49389 -0.49389,0 -0.49389,-0.49389 0,0.49389 -0.49389,0.49389 0.49389,0 0.49389,0.49389 z m -4.9389,0.98778 q 0,-0.49389 0.49389,-0.49389 -0.49389,0 -0.49389,-0.49389 0,0.49389 -0.49389,0.49389 0.49389,0 0.49389,0.49389 z m 0.98778,0 q 0,-0.49389 0.49389,-0.49389 -0.49389,0 -0.49389,-0.49389 0,0.49389 -0.49389,0.49389 0.49389,0 0.49389,0.49389 z m 2.96334,0 q 0,-0.49389 0.49389,-0.49389 -0.49389,0 -0.49389,-0.49389 0,0.49389 -0.49389,0.49389 0.49389,0 0.49389,0.49389 z m 0.98778,0 q 0,-0.49389 0.49389,-0.49389 -0.49389,0 -0.49389,-0.49389 0,0.49389 -0.49389,0.49389 0.49389,0 0.49389,0.49389 z m -4.9389,0.98778 q 0,-0.49389 0.49389,-0.49389 -0.49389,0 -0.49389,-0.49389 0,0.49389 -0.49389,0.49389 0.49389,0 0.49389,0.49389 z m 0.98778,0 q 0,-0.49389 0.49389,-0.49389 -0.49389,0 -0.49389,-0.49389 0,0.49389 -0.49389,0.49389 0.49389,0 0.49389,0.49389 z m 2.96334,0 q 0,-0.49389 0.49389,-0.49389 -0.49389,0 -0.49389,-0.49389 0,0.49389 -0.49389,0.49389 0.49389,0 0.49389,0.49389 z m 0.98778,0 q 0,-0.49389 0.49389,-0.49389 -0.49389,0 -0.49389,-0.49389 0,0.49389 -0.49389,0.49389 0.49389,0 0.49389,0.49389 z m -4.9389,0.98778 q 0,-0.49389 0.49389,-0.49389 -0.49389,0 -0.49389,-0.49389 0,0.49389 -0.49389,0.49389 0.49389,0 0.49389,0.49389 z m 0.98778,0 q 0,-0.49389 0.49389,-0.49389 -0.49389,0 -0.49389,-0.49389 0,0.49389 -0.49389,0.49389 0.49389,0 0.49389,0.49389 z m 2.96334,0 q 0,-0.49389 0.49389,-0.49389 -0.49389,0 -0.49389,-0.49389 0,0.49389 -0.49389,0.49389 0.49389,0 0.49389,0.49389 z m 0.98778,0 q 0,-0.49389 0.49389,-0.49389 -0.49389,0 -0.49389,-0.49389 0,0.49389 -0.49389,0.49389 0.49389,0 0.49389,0.49389 z m -4.9389,-8.89002 q 0,-0.49389 0.49389,-0.49389 -0.49389,0 -0.49389,-0.49389 0,0.49389 -0.49389,0.49389 0.49389,0 0.49389,0.49389 z m 0.98778,0 q 0,-0.49389 0.49389,-0.49389 -0.49389,0 -0.49389,-0.49389 0,0.49389 -0.49389,0.49389 0.49389,0 0.49389,0.49389 z m 0.98778,0 q 0,-0.49389 0.49389,-0.49389 -0.49389,0 -0.49389,-0.49389 0,0.49389 -0.49389,0.49389 0.49389,0 0.49389,0.49389 z m 0.98778,0 q 0,-0.49389 0.49389,-0.49389 -0.49389,0 -0.49389,-0.49389 0,0.49389 -0.49389,0.49389 0.49389,0 0.49389,0.49389 z m 0.98778,0 q 0,-0.49389 0.49389,-0.49389 -0.49389,0 -0.49389,-0.49389 0,0.49389 -0.49389,0.49389 0.49389,0 0.49389,0.49389 z m -3.95112,0.98778 q 0,-0.49389 0.49389,-0.49389 -0.49389,0 -0.49389,-0.49389 0,0.49389 -0.49389,0.49389 0.49389,0 0.49389,0.49389 z m 0.98778,0 q 0,-0.49389 0.49389,-0.49389 -0.49389,0 -0.49389,-0.49389 0,0.49389 -0.49389,0.49389 0.49389,0 0.49389,0.49389 z m 0.98778,0 q 0,-0.49389 0.49389,-0.49389 -0.49389,0 -0.49389,-0.49389 0,0.49389 -0.49389,0.49389 0.49389,0 0.49389,0.49389 z m 0.98778,0 q 0,-0.49389 0.49389,-0.49389 -0.49389,0 -0.49389,-0.49389 0,0.49389 -0.49389,0.49389 0.49389,0 0.49389,0.49389 z m 0.98778,0 q 0,-0.49389 0.49389,-0.49389 -0.49389,0 -0.49389,-0.49389 0,0.49389 -0.49389,0.49389 0.49389,0 0.49389,0.49389 z m 0.98778,0 q 0,-0.49389 0.49389,-0.49389 -0.49389,0 -0.49389,-0.49389 0,0.49389 -0.49389,0.49389 0.49389,0 0.49389,0.49389 z m -4.44501,1.48167 q -0.49389,0 -0.49389,-0.49389 0,0.49389 -0.49389,0.49389 0.49389,0 0.49389,0.49389 0,-0.49389 0.49389,-0.49389 z m -0.49389,-0.49389 q 0,-0.49389 0.49389,-0.49389 -0.49389,0 -0.49389,-0.49389 0,0.49389 -0.49389,0.49389 0.49389,0 0.49389,0.49389 z m 1.48167,0.49389 q -0.49389,0 -0.49389,-0.49389 0,0.49389 -0.49389,0.49389 0.49389,0 0.49389,0.49389 0,-0.49389 0.49389,-0.49389 z m -0.49389,-0.49389 q 0,-0.49389 0.49389,-0.49389 -0.49389,0 -0.49389,-0.49389 0,0.49389 -0.49389,0.49389 0.49389,0 0.49389,0.49389 z m 1.97556,0 q 0,-0.49389 0.49389,-0.49389 -0.49389,0 -0.49389,-0.49389 0,0.49389 -0.49389,0.49389 -0.49389,0 -0.49389,-0.49389 0,0.49389 -0.49389,0.49389 0.49389,0 0.49389,0.49389 0,0.49389 -0.49389,0.49389 0.49389,0 0.49389,0.49389 0,-0.49389 0.49389,-0.49389 0.49389,0 0.49389,0.49389 0,-0.49389 0.49389,-0.49389 -0.49389,0 -0.49389,-0.49389 z m 1.48167,0.49389 q -0.49389,0 -0.49389,-0.49389 0,0.49389 -0.49389,0.49389 0.49389,0 0.49389,0.49389 0,-0.49389 0.49389,-0.49389 z m -0.49389,-0.49389 q 0,-0.49389 0.49389,-0.49389 -0.49389,0 -0.49389,-0.49389 0,0.49389 -0.49389,0.49389 0.49389,0 0.49389,0.49389 z m 1.48167,0.49389 q -0.49389,0 -0.49389,-0.49389 0,0.49389 -0.49389,0.49389 0.49389,0 0.49389,0.49389 0,-0.49389 0.49389,-0.49389 z m 0,-0.98778 q 0.49389,0 0.49389,0.49389 0,0.49389 -0.49389,0.49389 0.49389,0 0.49389,0.49389 0,0.49389 -0.49389,0.49389 -0.49389,0 -0.49389,-0.49389 0,0.49389 -0.49389,0.49389 0.49389,0 0.49389,0.49389 0,0.49389 -0.49389,0.49389 0.49389,0 0.49389,0.49389 0,-0.49389 0.49389,-0.49389 0.49389,0 0.49389,0.49389 0,0.49389 -0.49389,0.49389 0.49389,0 0.49389,0.49389 0,0.49389 -0.49389,0.49389 0.49389,0 0.49389,0.49389 0,0.49389 -0.49389,0.49389 0.49389,0 0.49389,0.49389 0,0.49389 -0.49389,0.49389 0.49389,0 0.49389,0.49389 0,0.49389 -0.49389,0.49389 -0.49389,0 -0.49389,-0.49389 0,0.49389 -0.49389,0.49389 -0.49389,0 -0.49389,-0.49389 0,0.49389 -0.49389,0.49389 -0.49389,0 -0.49389,-0.49389 0,-0.49389 0.49389,-0.49389 -0.49389,0 -0.49389,-0.49389 0,-0.49389 0.49389,-0.49389 -0.49389,0 -0.49389,-0.49389 0,-0.49389 0.49389,-0.49389 -0.49389,0 -0.49389,-0.49389 0,-0.49389 0.49389,-0.49389 -0.49389,0 -0.49389,-0.49389 0,0.49389 -0.49389,0.49389 -0.49389,0 -0.49389,-0.49389 0,0.49389 -0.49389,0.49389 0.49389,0 0.49389,0.49389 0,0.49389 -0.49389,0.49389 0.49389,0 0.49389,0.49389 0,0.49389 -0.49389,0.49389 0.49389,0 0.49389,0.49389 0,0.49389 -0.49389,0.49389 0.49389,0 0.49389,0.49389 0,0.49389 -0.49389,0.49389 -0.49389,0 -0.49389,-0.49389 0,0.49389 -0.49389,0.49389 -0.49389,0 -0.49389,-0.49389 0,0.49389 -0.49389,0.49389 -0.49389,0 -0.49389,-0.49389 0,-0.49389 0.49389,-0.49389 -0.49389,0 -0.49389,-0.49389 0,-0.49389 0.49389,-0.49389 -0.49389,0 -0.49389,-0.49389 0,-0.49389 0.49389,-0.49389 -0.49389,0 -0.49389,-0.49389 0,-0.49389 0.49389,-0.49389 -0.49389,0 -0.49389,-0.49389 0,-0.49389 0.49389,-0.49389 -0.49389,0 -0.49389,-0.49389 0,-0.49389 0.49389,-0.49389 -0.49389,0 -0.49389,-0.49389 0,-0.49389 0.49389,-0.49389 -0.49389,0 -0.49389,-0.49389 0,-0.49389 0.49389,-0.49389 -0.49389,0 -0.49389,-0.49389 0,-0.49389 0.49389,-0.49389 -0.49389,0 -0.49389,-0.49389 0,-0.49389 0.49389,-0.49389 -0.49389,0 -0.49389,-0.49389 0,-0.49389 0.49389,-0.49389 0.49389,0 0.49389,0.49389 0,-0.49389 0.49389,-0.49389 0.49389,0 0.49389,0.49389 0,-0.49389 0.49389,-0.49389 0.49389,0 0.49389,0.49389 0,-0.49389 0.49389,-0.49389 0.49389,0 0.49389,0.49389 0,-0.49389 0.49389,-0.49389 0.49389,0 0.49389,0.49389 0,-0.49389 0.49389,-0.49389 0.49389,0 0.49389,0.49389 0,0.49389 -0.49389,0.49389 0.49389,0 0.49389,0.49389 0,-0.49389 0.49389,-0.49389 0.49389,0 0.49389,0.49389 0,0.49389 -0.49389,0.49389 0.49389,0 0.49389,0.49389 0,0.49389 -0.49389,0.49389 z m -0.49389,0.49389 q 0,-0.49389 0.49389,-0.49389 -0.49389,0 -0.49389,-0.49389 0,0.49389 -0.49389,0.49389 0.49389,0 0.49389,0.49389 z"
         style="-inkscape-font-specification:'Balls on the rampage';fill:#fffeff;fill-opacity:1"
         id="path4944" />
      <path
         d="m 88.336795,144.21217 z m 0.98778,0 z m 2.96334,0 z m -3.95112,0.98778 z m 0.98778,0 z m 2.96334,0 z m -3.95112,0.98778 z m 0.98778,0 z m 2.96334,0 z m -3.95112,0.98778 z m 0.98778,0 z m 2.96334,0 z m -3.95112,0.98778 z m 0.98778,0 z m 2.96334,0 z m -3.95112,0.98778 z m 0.98778,0 z m 2.96334,0 z m -3.95112,0.98778 z m 0.98778,0 z m 2.96334,0 z m -6.42057,0.49389 z m 0.98778,0 z m 0.98778,0 z m 1.97556,0 z m 0.98778,0 z m 0.98778,0 z m -5.92668,-10.86558 z m 0.98778,0 z m 0.98778,0 z m 0.98778,0 z m 0.98778,0 z m 0.98778,0 z m 1.48167,1.48167 z m 0,0.98778 z m -2.96334,0.98778 z m 2.96334,0 z m -6.42057,0.49389 z m 0.98778,0 z m 0.98778,0 z m 1.97556,0 z m 0.98778,0 z m 0.98778,0 z m -5.43279,1.48167 q 0,-0.49389 0.49389,-0.49389 -0.49389,0 -0.49389,-0.49389 0,0.49389 -0.49389,0.49389 0.49389,0 0.49389,0.49389 z m 0.98778,0 q 0,-0.49389 0.49389,-0.49389 -0.49389,0 -0.49389,-0.49389 0,0.49389 -0.49389,0.49389 0.49389,0 0.49389,0.49389 z m 2.96334,0 q 0,-0.49389 0.49389,-0.49389 -0.49389,0 -0.49389,-0.49389 0,0.49389 -0.49389,0.49389 0.49389,0 0.49389,0.49389 z m 0.98778,0 q 0,-0.49389 0.49389,-0.49389 -0.49389,0 -0.49389,-0.49389 0,0.49389 -0.49389,0.49389 0.49389,0 0.49389,0.49389 z m -4.9389,0.98778 q 0,-0.49389 0.49389,-0.49389 -0.49389,0 -0.49389,-0.49389 0,0.49389 -0.49389,0.49389 0.49389,0 0.49389,0.49389 z m 0.98778,0 q 0,-0.49389 0.49389,-0.49389 -0.49389,0 -0.49389,-0.49389 0,0.49389 -0.49389,0.49389 0.49389,0 0.49389,0.49389 z m 2.96334,0 q 0,-0.49389 0.49389,-0.49389 -0.49389,0 -0.49389,-0.49389 0,0.49389 -0.49389,0.49389 0.49389,0 0.49389,0.49389 z m 0.98778,0 q 0,-0.49389 0.49389,-0.49389 -0.49389,0 -0.49389,-0.49389 0,0.49389 -0.49389,0.49389 0.49389,0 0.49389,0.49389 z m -4.9389,0.98778 q 0,-0.49389 0.49389,-0.49389 -0.49389,0 -0.49389,-0.49389 0,0.49389 -0.49389,0.49389 0.49389,0 0.49389,0.49389 z m 0.98778,0 q 0,-0.49389 0.49389,-0.49389 -0.49389,0 -0.49389,-0.49389 0,0.49389 -0.49389,0.49389 0.49389,0 0.49389,0.49389 z m 2.96334,0 q 0,-0.49389 0.49389,-0.49389 -0.49389,0 -0.49389,-0.49389 0,0.49389 -0.49389,0.49389 0.49389,0 0.49389,0.49389 z m 0.98778,0 q 0,-0.49389 0.49389,-0.49389 -0.49389,0 -0.49389,-0.49389 0,0.49389 -0.49389,0.49389 0.49389,0 0.49389,0.49389 z m -4.9389,0.98778 q 0,-0.49389 0.49389,-0.49389 -0.49389,0 -0.49389,-0.49389 0,0.49389 -0.49389,0.49389 0.49389,0 0.49389,0.49389 z m 0.98778,0 q 0,-0.49389 0.49389,-0.49389 -0.49389,0 -0.49389,-0.49389 0,0.49389 -0.49389,0.49389 0.49389,0 0.49389,0.49389 z m 2.96334,0 q 0,-0.49389 0.49389,-0.49389 -0.49389,0 -0.49389,-0.49389 0,0.49389 -0.49389,0.49389 0.49389,0 0.49389,0.49389 z m 0.98778,0 q 0,-0.49389 0.49389,-0.49389 -0.49389,0 -0.49389,-0.49389 0,0.49389 -0.49389,0.49389 0.49389,0 0.49389,0.49389 z m -4.9389,0.98778 q 0,-0.49389 0.49389,-0.49389 -0.49389,0 -0.49389,-0.49389 0,0.49389 -0.49389,0.49389 0.49389,0 0.49389,0.49389 z m 0.98778,0 q 0,-0.49389 0.49389,-0.49389 -0.49389,0 -0.49389,-0.49389 0,0.49389 -0.49389,0.49389 0.49389,0 0.49389,0.49389 z m 2.96334,0 q 0,-0.49389 0.49389,-0.49389 -0.49389,0 -0.49389,-0.49389 0,0.49389 -0.49389,0.49389 0.49389,0 0.49389,0.49389 z m 0.98778,0 q 0,-0.49389 0.49389,-0.49389 -0.49389,0 -0.49389,-0.49389 0,0.49389 -0.49389,0.49389 0.49389,0 0.49389,0.49389 z m -4.9389,0.98778 q 0,-0.49389 0.49389,-0.49389 -0.49389,0 -0.49389,-0.49389 0,0.49389 -0.49389,0.49389 0.49389,0 0.49389,0.49389 z m 0.98778,0 q 0,-0.49389 0.49389,-0.49389 -0.49389,0 -0.49389,-0.49389 0,0.49389 -0.49389,0.49389 0.49389,0 0.49389,0.49389 z m 2.96334,0 q 0,-0.49389 0.49389,-0.49389 -0.49389,0 -0.49389,-0.49389 0,0.49389 -0.49389,0.49389 0.49389,0 0.49389,0.49389 z m 0.98778,0 q 0,-0.49389 0.49389,-0.49389 -0.49389,0 -0.49389,-0.49389 0,0.49389 -0.49389,0.49389 0.49389,0 0.49389,0.49389 z m -4.9389,-8.89002 q 0,-0.49389 0.49389,-0.49389 -0.49389,0 -0.49389,-0.49389 0,0.49389 -0.49389,0.49389 0.49389,0 0.49389,0.49389 z m 0.98778,0 q 0,-0.49389 0.49389,-0.49389 -0.49389,0 -0.49389,-0.49389 0,0.49389 -0.49389,0.49389 0.49389,0 0.49389,0.49389 z m 0.98778,0 q 0,-0.49389 0.49389,-0.49389 -0.49389,0 -0.49389,-0.49389 0,0.49389 -0.49389,0.49389 0.49389,0 0.49389,0.49389 z m 0.98778,0 q 0,-0.49389 0.49389,-0.49389 -0.49389,0 -0.49389,-0.49389 0,0.49389 -0.49389,0.49389 0.49389,0 0.49389,0.49389 z m 0.98778,0 q 0,-0.49389 0.49389,-0.49389 -0.49389,0 -0.49389,-0.49389 0,0.49389 -0.49389,0.49389 0.49389,0 0.49389,0.49389 z m -3.95112,0.98778 q 0,-0.49389 0.49389,-0.49389 -0.49389,0 -0.49389,-0.49389 0,0.49389 -0.49389,0.49389 0.49389,0 0.49389,0.49389 z m 0.98778,0 q 0,-0.49389 0.49389,-0.49389 -0.49389,0 -0.49389,-0.49389 0,0.49389 -0.49389,0.49389 0.49389,0 0.49389,0.49389 z m 0.98778,0 q 0,-0.49389 0.49389,-0.49389 -0.49389,0 -0.49389,-0.49389 0,0.49389 -0.49389,0.49389 0.49389,0 0.49389,0.49389 z m 0.98778,0 q 0,-0.49389 0.49389,-0.49389 -0.49389,0 -0.49389,-0.49389 0,0.49389 -0.49389,0.49389 0.49389,0 0.49389,0.49389 z m 0.98778,0 q 0,-0.49389 0.49389,-0.49389 -0.49389,0 -0.49389,-0.49389 0,0.49389 -0.49389,0.49389 0.49389,0 0.49389,0.49389 z m 0.98778,0 q 0,-0.49389 0.49389,-0.49389 -0.49389,0 -0.49389,-0.49389 0,0.49389 -0.49389,0.49389 0.49389,0 0.49389,0.49389 z m -4.44501,1.48167 q -0.49389,0 -0.49389,-0.49389 0,0.49389 -0.49389,0.49389 0.49389,0 0.49389,0.49389 0,-0.49389 0.49389,-0.49389 z m -0.49389,-0.49389 q 0,-0.49389 0.49389,-0.49389 -0.49389,0 -0.49389,-0.49389 0,0.49389 -0.49389,0.49389 0.49389,0 0.49389,0.49389 z m 1.48167,0.49389 q -0.49389,0 -0.49389,-0.49389 0,0.49389 -0.49389,0.49389 0.49389,0 0.49389,0.49389 0,-0.49389 0.49389,-0.49389 z m -0.49389,-0.49389 q 0,-0.49389 0.49389,-0.49389 -0.49389,0 -0.49389,-0.49389 0,0.49389 -0.49389,0.49389 0.49389,0 0.49389,0.49389 z m 3.45723,0.49389 q -0.49389,0 -0.49389,-0.49389 0,0.49389 -0.49389,0.49389 0.49389,0 0.49389,0.49389 0,-0.49389 0.49389,-0.49389 z m -0.49389,-0.49389 q 0,-0.49389 0.49389,-0.49389 -0.49389,0 -0.49389,-0.49389 0,0.49389 -0.49389,0.49389 0.49389,0 0.49389,0.49389 z m 1.48167,0.49389 q -0.49389,0 -0.49389,-0.49389 0,0.49389 -0.49389,0.49389 0.49389,0 0.49389,0.49389 0,-0.49389 0.49389,-0.49389 z m 0,-0.98778 q 0.49389,0 0.49389,0.49389 0,0.49389 -0.49389,0.49389 0.49389,0 0.49389,0.49389 0,0.49389 -0.49389,0.49389 0.49389,0 0.49389,0.49389 0,0.49389 -0.49389,0.49389 0.49389,0 0.49389,0.49389 0,0.49389 -0.49389,0.49389 0.49389,0 0.49389,0.49389 0,0.49389 -0.49389,0.49389 0.49389,0 0.49389,0.49389 0,0.49389 -0.49389,0.49389 0.49389,0 0.49389,0.49389 0,0.49389 -0.49389,0.49389 0.49389,0 0.49389,0.49389 0,0.49389 -0.49389,0.49389 -0.49389,0 -0.49389,-0.49389 0,0.49389 -0.49389,0.49389 -0.49389,0 -0.49389,-0.49389 0,0.49389 -0.49389,0.49389 -0.49389,0 -0.49389,-0.49389 0,-0.49389 0.49389,-0.49389 -0.49389,0 -0.49389,-0.49389 0,-0.49389 0.49389,-0.49389 -0.49389,0 -0.49389,-0.49389 0,-0.49389 0.49389,-0.49389 -0.49389,0 -0.49389,-0.49389 0,-0.49389 0.49389,-0.49389 -0.49389,0 -0.49389,-0.49389 0,-0.49389 0.49389,-0.49389 -0.49389,0 -0.49389,-0.49389 0,-0.49389 0.49389,-0.49389 -0.49389,0 -0.49389,-0.49389 0,-0.49389 0.49389,-0.49389 -0.49389,0 -0.49389,-0.49389 0,-0.49389 0.49389,-0.49389 -0.49389,0 -0.49389,-0.49389 0,0.49389 -0.49389,0.49389 -0.49389,0 -0.49389,-0.49389 0,0.49389 -0.49389,0.49389 0.49389,0 0.49389,0.49389 0,0.49389 -0.49389,0.49389 0.49389,0 0.49389,0.49389 0,0.49389 -0.49389,0.49389 0.49389,0 0.49389,0.49389 0,0.49389 -0.49389,0.49389 0.49389,0 0.49389,0.49389 0,0.49389 -0.49389,0.49389 0.49389,0 0.49389,0.49389 0,0.49389 -0.49389,0.49389 0.49389,0 0.49389,0.49389 0,0.49389 -0.49389,0.49389 0.49389,0 0.49389,0.49389 0,0.49389 -0.49389,0.49389 0.49389,0 0.49389,0.49389 0,0.49389 -0.49389,0.49389 -0.49389,0 -0.49389,-0.49389 0,0.49389 -0.49389,0.49389 -0.49389,0 -0.49389,-0.49389 0,0.49389 -0.49389,0.49389 -0.49389,0 -0.49389,-0.49389 0,-0.49389 0.49389,-0.49389 -0.49389,0 -0.49389,-0.49389 0,-0.49389 0.49389,-0.49389 -0.49389,0 -0.49389,-0.49389 0,-0.49389 0.49389,-0.49389 -0.49389,0 -0.49389,-0.49389 0,-0.49389 0.49389,-0.49389 -0.49389,0 -0.49389,-0.49389 0,-0.49389 0.49389,-0.49389 -0.49389,0 -0.49389,-0.49389 0,-0.49389 0.49389,-0.49389 -0.49389,0 -0.49389,-0.49389 0,-0.49389 0.49389,-0.49389 -0.49389,0 -0.49389,-0.49389 0,-0.49389 0.49389,-0.49389 -0.49389,0 -0.49389,-0.49389 0,-0.49389 0.49389,-0.49389 -0.49389,0 -0.49389,-0.49389 0,-0.49389 0.49389,-0.49389 -0.49389,0 -0.49389,-0.49389 0,-0.49389 0.49389,-0.49389 0.49389,0 0.49389,0.49389 0,-0.49389 0.49389,-0.49389 0.49389,0 0.49389,0.49389 0,-0.49389 0.49389,-0.49389 0.49389,0 0.49389,0.49389 0,-0.49389 0.49389,-0.49389 0.49389,0 0.49389,0.49389 0,-0.49389 0.49389,-0.49389 0.49389,0 0.49389,0.49389 0,-0.49389 0.49389,-0.49389 0.49389,0 0.49389,0.49389 0,0.49389 -0.49389,0.49389 0.49389,0 0.49389,0.49389 0,-0.49389 0.49389,-0.49389 0.49389,0 0.49389,0.49389 0,0.49389 -0.49389,0.49389 0.49389,0 0.49389,0.49389 0,0.49389 -0.49389,0.49389 z m -0.49389,0.49389 q 0,-0.49389 0.49389,-0.49389 -0.49389,0 -0.49389,-0.49389 0,0.49389 -0.49389,0.49389 0.49389,0 0.49389,0.49389 z"
         style="-inkscape-font-specification:'Balls on the rampage';fill:#fffeff;fill-opacity:1"
         id="path4946" />
    </g>
  </g>
</svg>
