<svg xmlns="http://www.w3.org/2000/svg" viewBox="0 0 500.898 186.632">

   <path d="M266.742 35.263v-47.396h-18.048v-6.353h43.244v6.353H273.89v47.396Z"
      style="fill:none;fill-opacity:1;stroke:#fff;stroke-opacity:1"
      transform="matrix(1.04143 0 0 .96021 .001 18.305)" />
   <path
      d="m332.44-18.486-18.158 29.961v23.788h-7.147v-23.03l-18.157-30.719h7.942L310.78 5.23l14.079-23.716zm38.912 16.208q0 3.501-1.264 6.642-1.227 3.104-3.429 5.306-2.78 2.743-6.533 4.151-3.754 1.408-9.494 1.408h-6.064v20.034h-7.147v-53.749h13.5q4.765 0 8.122.794 3.357.795 5.92 2.563 2.996 2.058 4.692 5.234 1.697 3.14 1.697 7.617zm-7.436.18q0-2.78-.975-4.837-.938-2.057-2.888-3.357-1.696-1.119-3.97-1.588-2.238-.47-5.595-.47h-5.92V9.13h4.873q4.332 0 7.003-.686 2.671-.722 4.44-2.527 1.588-1.624 2.31-3.538.722-1.913.722-4.476zm14.258 37.361v-53.749h33.607v6.353h-26.46V2.595h24.655v6.353h-24.654V28.91h26.459v6.353Z"
      style="fill:none;fill-opacity:1;stroke:#fff;stroke-opacity:1"
      transform="matrix(1.04143 0 0 .96021 .001 18.305)" />
   <path
      d="M479.932 35.263h-8.194l-13.103-21.514-13.32 21.514h-7.725l17.074-26.892-16.568-26.857h8.158l12.85 21.117 13.031-21.117h7.761L463.075 8.01Z"
      style="fill:#fff;fill-opacity:1;stroke:#fff;stroke-opacity:1"
      transform="matrix(1.04143 0 0 .96021 .001 18.305)" />

   <path fill="none" stroke="#fff" d="M4.04 70.84v22.184h39.714v84.224h25.61V93.024h39.852V70.84H4.04" />
   <path fill="none" stroke="#fff" stroke-width="1.002"
      d="M247.26 70.84v22.184h39.851v84.224h25.61V93.024h39.715V70.84H247.259" />
   <path fill="none" d="M247.26 70.84v22.184h39.851v84.224h25.61V93.024h39.715V70.84H247.259Z" />
   <path fill="none" stroke="#fff" d="M214.255 177.249h24.924V70.839h-24.924z" />
   <path fill="none"
      d="M239.18 70.84h-24.925v106.409h24.924V70.839Zm-24.925 0zm202.82-3.286c-35.606 0-64.64 26.156-64.64 57.79 0 31.773 29.034 57.246 64.64 57.246 35.744 0 64.777-25.473 64.777-57.245 0-31.635-29.033-57.792-64.777-57.792zm0 94.22c-20.816 0-37.66-16.16-37.66-36.43 0-20.815 16.844-36.975 37.66-36.975 20.953 0 37.798 16.16 37.798 36.976 0 20.269-16.845 36.428-37.798 36.428" />
   <path fill="none" stroke="#fff" stroke-width="1.002"
      d="M417.075 67.554c-35.606 0-64.64 26.156-64.64 57.79 0 31.773 29.034 57.246 64.64 57.246 35.744 0 64.777-25.473 64.777-57.245 0-31.635-29.033-57.792-64.777-57.792zm0 94.22c-20.816 0-37.66-16.16-37.66-36.43 0-20.815 16.844-36.975 37.66-36.975 20.953 0 37.798 16.16 37.798 36.976 0 20.269-16.845 36.428-37.798 36.428z" />
   <path fill="#fff" d="M165.775 92.34c-15.475 20.954-24.924 47.933-24.24 83.539v1.37h70.666" />
   <g clip-path="url(#a)" transform="matrix(2.28247 0 0 -2.28247 -448.3 582.478)">
      <path fill="none" stroke="#fff" stroke-width="3.541"
         d="M269.04 214.74c-6.78-9.18-10.92-21-10.62-36.6v-.6h30.96z" />
   </g>
   <path fill="#fff" d="m160.982 84.26-14.79-27.526-66.694 120.515h35.743c2.74-33.005 20.817-68.611 45.741-92.988" />
   <path fill="none" stroke="#fff" stroke-width="8.082"
      d="m160.982 84.26-14.79-27.526-66.694 120.515h35.743c2.74-33.005 20.817-68.611 45.741-92.988z" />
   <path fill="#fff"
      d="M225.759 22.36c-10.82 0-18.9 8.765-18.9 19.584 0 10.682 8.08 19.446 18.9 19.446 10.818 0 19.583-8.764 19.583-19.446 0-10.82-8.765-19.584-19.583-19.584" />
   <path fill="none" stroke="#fff" stroke-width="8.082"
      d="M225.759 22.36c-10.82 0-18.9 8.765-18.9 19.584 0 10.682 8.08 19.446 18.9 19.446 10.818 0 19.583-8.764 19.583-19.446 0-10.82-8.765-19.584-19.583-19.584z" />
   <path fill="#fff" stroke="#fff" stroke-width="8.082"
      d="M196.04 60.706c-12.05 4.793-24.239 13.558-35.058 23.555l4.793 8.08c8.765-12.052 19.584-21.501 31.635-28.896l-1.37-2.74z" />
   <path fill="none"
      d="M4.04 70.84v22.184h39.714v84.224h25.61V93.024h39.852V70.84H4.04m243.22 0v22.184h39.851v84.224h25.61V93.024h39.715V70.84H247.259m-33.004 106.409h24.924V70.839h-24.924Zm202.82-109.695c-35.606 0-64.64 26.156-64.64 57.79 0 31.773 29.034 57.246 64.64 57.246 35.744 0 64.777-25.473 64.777-57.245 0-31.635-29.033-57.792-64.777-57.792zm0 94.22c-20.816 0-37.66-16.16-37.66-36.43 0-20.815 16.844-36.975 37.66-36.975 20.953 0 37.798 16.16 37.798 36.976 0 20.269-16.845 36.428-37.798 36.428m64.777-106.41c-8.765 0-16.16 7.397-16.16 16.16 0 8.766 7.395 16.16 16.16 16.16 9.45 0 16.16-7.394 16.16-16.16 0-8.763-6.71-16.16-16.16-16.16zm0 29.583c-7.396 0-13.558-6.026-13.558-13.421 0-7.396 6.162-13.421 13.558-13.421 7.395 0 14.105 6.025 14.105 13.42 0 7.396-6.71 13.422-14.105 13.422" />
   <path fill="#fff"
      d="M165.775 92.34c-15.475 20.954-24.924 47.933-24.24 83.539v1.37h70.666M160.982 84.26l-14.79-27.527-66.694 120.515h35.743c2.74-33.005 20.817-68.611 45.741-92.988m64.777-61.901c-10.82 0-18.9 8.765-18.9 19.584 0 10.682 8.08 19.446 18.9 19.446 10.818 0 19.583-8.764 19.583-19.446 0-10.82-8.765-19.584-19.583-19.584" />
   <path fill="none"
      d="M196.04 60.706c-12.05 4.793-24.239 13.558-35.058 23.555l4.793 8.08c8.765-12.052 19.584-21.501 31.635-28.896" />
</svg>