<svg xmlns="http://www.w3.org/2000/svg" viewBox="0 0 484 125">
  <g fill="#66aeff" stroke="#66aeff" stroke-width=".09375">
    <path d="M56.17 31.7c5-8.75 9.48-17.78 14.45-26.55 2.31 4.41 4.67 8.8 7.08 13.15-7.78 3.41-15.12 7.81-21.53 13.4Z"/>
    <path d="M58.13 38.14c5.7-7.05 13.89-11.53 22.08-15.09 2.11 3.87 4.19 7.77 6.23 11.67 2.84.05 5.69.07 8.54.1.9 2.25 1.82 4.49 2.75 6.72-7.46-1.64-15.16-2.21-22.77-1.35-2.15.33-4.67.19-6.32 1.85-1.17 2.04.92 4.17 3.02 3.7 8.2-.73 16.67-1.38 24.69 1 8.61 2.6 15.94 8.15 22.46 14.18-3.65 3.1-7.22 6.27-10.91 9.32.78 2.39 1.62 4.76 2.52 7.11-1.94 1.41-3.88 2.81-5.81 4.24-.75-8.49-3.24-17.04-8.13-24.07-1.72-1.91-3.81.22-5.35 1.2 4.03 7.45 7.86 15.53 7.47 24.22-.44 8.08-3.87 15.7-8.15 22.45-4.28-2.2-8.62-4.28-12.99-6.29-2.23 1.5-4.46 3.01-6.67 4.54-2.29-1.3-4.57-2.62-6.85-3.94 8.55-2.94 16.57-7.64 23.02-14.01 1.91-1.89-.69-4.72-2.97-4.09-2.7 1.68-4.92 4-7.52 5.82-6.02 4.33-12.96 7.64-20.4 8.45-6.99.92-14.06.26-20.99-.81.72-4.14 1.57-8.25 2.49-12.35-2.43-1.6-4.86-3.2-7.3-4.79.8-2.5 1.58-5 2.34-7.51 5.91 6.66 13.47 11.85 21.69 15.22 1.93.94 4.09-.65 4.18-2.68-.81-1.66-2.71-2.24-4.21-3.1-8.37-4.04-16.5-9.86-20.65-18.44-2.64-5.15-3.98-10.83-5.04-16.48 4.51-.51 9.02-1.06 13.53-1.7.96-2.77 1.74-5.63 3.15-8.22 2.82-.48 5.7-.38 8.55-.49-5.11 6.86-8.56 15.03-9.54 23.53-.38 2.88 4.86 3.74 5.41.8 1.62-7.3 3.68-14.77 8.45-20.71Zm45.91 5.79c10.07 1.26 20.15 2.4 30.21 3.73-3.82 3.16-7.56 6.44-11.3 9.71-5.63-5.36-11.96-9.95-18.91-13.44Z"/>
    <path d="M6.67 47.64c5.42-.71 10.85-1.35 16.28-1.99 1.23 8.45 4.1 16.68 8.82 23.83-8.15-7.53-16.7-14.6-25.1-21.84Zm97.55 37.88c2.41 9.73 4.02 19.63 6.2 29.41-4.91-2.37-9.82-4.75-14.75-7.07 4.11-6.88 7.45-14.35 8.55-22.34Zm-70.3 14.72c9.31 1.33 18.84 1.87 28.11-.07-10.44 4.65-20.63 9.82-30.96 14.72.87-4.9 1.93-9.76 2.85-14.65Z"/>
  </g>
  <path fill="#FFF" stroke="#FFF" stroke-width=".09375" d="M392.66 35.23c10.99.06 21.97.01 32.96.03 0 1.37 0 2.73.01 4.09-11 .02-22 0-33 .01.01-1.37.01-2.75.03-4.13ZM141.5 43.48c13.71-.03 27.42.03 41.13-.02v41.16c-2.73-.02-5.45-.03-8.18-.02.06-10.97.01-21.95.03-32.92-10.99.02-21.98.02-32.98.01.02-2.74.02-5.47 0-8.21Zm49.27.07c13.84-.14 27.68-.09 41.51-.03-.02 2.71-.02 5.41 0 8.12-11 .12-22 .02-32.99.05 0 2.74 0 5.48.02 8.22 10.99.07 22.01-.33 32.99.23-.04 2.68-.04 5.35-.04 8.03-11 .02-22 .04-32.99-.01.01 2.42.06 4.85.22 7.27 1.48.41 2.96.98 4.53.95 9.42.05 18.84-.08 28.26.05-.02 2.71-.02 5.41 0 8.12-11.38.07-22.77.08-34.15.01-3.01.09-6.66-1.46-6.85-4.88-1.06-7.5-.25-15.13-.47-22.68-.03-4.48-.02-8.97-.04-13.45Zm54.43 2.73c2.76-2.15 6.36-2.82 9.79-2.81 8.85 0 17.7.02 26.55 0-.02 2.75-.01 5.49-.01 8.24-7.53 0-15.05-.06-22.58.01-3.23.13-7.18.46-9.02 3.55-2.06 4.36-1.2 9.31-1.28 13.96.68 3.2 2.74 6.37 6.29 6.67 8.81 1.02 17.74.24 26.6.47-.02 2.75-.02 5.49 0 8.24-8.86-.03-17.71 0-26.57-.01-3.68-.01-7.65-.58-10.51-3.09-1.99-1.58-2.79-4.07-3.83-6.28-.38-6.08-.23-12.17-.22-18.25-.06-4.02 1.51-8.23 4.79-10.7Zm94.06-2.81c10.53.06 21.07-.09 31.6.06 5.36.16 9.73 5.19 9.53 10.48.03 10.18-.04 20.37.02 30.56-2.74.03-5.48.03-8.21.03-.05-8.55.14-17.12-.08-25.67.02-3.16-1.59-6.74-5.15-6.98-6.48-.6-13.02-.08-19.52-.27.01 10.97-.03 21.93.02 32.9-2.74.02-5.47.02-8.2.03.01-13.71.02-27.43-.01-41.14Zm106.14.21c10.46-.49 20.95-.05 31.43-.22 0 2.75 0 5.5-.01 8.26-9.04.22-18.16-.59-27.16.46 5.61 5.17 12.28 9.03 18.35 13.63 3.14 2.4 7.37 4.17 8.65 8.24.24 2.58.6 5.49-.66 7.86-1.47 2.33-4.49 2.64-6.99 2.68-9.72 0-19.45.05-29.17-.04.01-2.71.01-5.41 0-8.12 7.71-.12 15.43-.02 23.14-.04 1.51.01 2.97-.28 4.38-.88-7.76-5.92-15.87-11.39-23.79-17.1-2.43-1.69-3.32-4.61-3.91-7.36.5-3.24 1.79-7.25 5.74-7.37ZM290.29 84.62c0-13.72.01-27.44 0-41.16 2.72.01 5.45.02 8.17.02-.03 5.48-.04 10.97.01 16.45 8.26-.16 16.53.07 24.79-.14-.04-5.45-.05-10.9 0-16.35 2.72.03 5.45.04 8.17.06-.04 13.69-.04 27.38 0 41.07-2.74.02-5.47.03-8.2.04.01-5.44-.02-10.89.03-16.33-8.27-.23-16.54.01-24.8-.14-.03 5.48-.03 10.96 0 16.45-2.72 0-5.45.01-8.17.03Zm109.06-40c8.21-1.88 17.34-1.75 24.97 2.14 5.96 3 9.58 9.61 9.45 16.21.44 6.04-1.54 12.55-6.42 16.4-5.68 4.51-13.28 5.45-20.3 5.18-6.43-.29-13.34-1.94-17.86-6.83-4.87-5.22-5.56-13.07-4.04-19.76 1.57-6.81 7.55-11.81 14.2-13.34m2.09 8.13c-6.09 1.53-10.3 8.24-8.41 14.35 1.28 5.37 6.72 8.46 11.89 8.99 5.9.66 12.73.42 17.36-3.8 5.16-4.76 4.29-14.26-1.78-17.89-5.67-3.36-12.85-3.29-19.06-1.65Z"/>
</svg>