<svg xmlns="http://www.w3.org/2000/svg" viewBox="-150.014 -50.023 96.681 19.483">
  <g transform="translate(-135.066 -44.57) scale(.10022)">
    <path fill="#ffffff" d="M543.647 6.547c19.5-1.7 40.2.7 57.1 11.2 15.5-9.6 34.4-11.5 52.3-11.2 17.4.6 35.4 4.5 49.8 14.7 13.8 9.4 23.1 25.9 22.2 42.8-.1 42.1.2 84.2-.1 126.3-19.2-.2-38.3.2-57.4-.2-.1-42.4.2-84.7-.2-127.1.2-10.2-12.6-12.1-20.4-11.9-7.1.2-18.9 2.4-17.9 11.9 0 42.2.1 84.5-.1 126.7-19.6-.2-39.2.4-58.8.2-.2-42.3-.3-84.6.2-126.9.4-3.3-1.5-6.5-4.6-7.8-7.8-3.7-17.3-3.9-25.4-.9-3.3 1.2-7.1 3.7-6.8 7.7-.4 42.8-.2 85.5-.2 128.3-18.9-.7-37.9 0-56.8-.4.7-45-.2-90 .5-135 .4-12 7.1-23.2 16.4-30.5 14.3-11.2 32.4-16.3 50.2-17.9zm-529.5 3h151.6v45.4c-16.2.3-32.4-.1-48.6.2-.2 44.8.1 89.6-.2 134.4-18.8 0-37.7-.1-56.5 0-.4-40.5 0-81-.2-121.5-.1-4.5.5-9-.5-13.4-15.2.3-30.4.1-45.6.1-.1-15.1-.2-30.2 0-45.2zm341.2 25.8c31-21.5 70.1-27.2 107-26.2 0 14.6-.1 29.2 0 43.8-24.6.1-51.6 2.5-71 19.4-8.9 7.9-15 19.6-13.7 31.7 1.3 13.7 11.1 25 22.5 31.9 17.4 10.6 38.4 12.7 58.4 12.4v43.8c-34.4 1-70.4-4.7-99.6-24-22.1-14.6-39.1-39-39.6-66.1-1.3-26.8 14.5-51.8 36-66.7zm-166.7-8.7c12.2-11.1 28.8-17.6 45.4-16.9 25.9.2 51.7-.3 77.6.4-.1 14.5-.1 29.1 0 43.6-23.9.1-47.8 0-71.7.1-2.8-.2-5.2 1.3-7.4 2.8-.5 7.3-.2 14.6-.3 21.9h78.7c.2 14.7.2 29.4 0 44h-78.9c-.2 5.5-.4 11.1-.2 16.6 0 5 5.9 7.5 10.2 7.4h68.9c.2 14.6.2 29.2 0 43.8-26-.2-52 .3-77.9-.3-15.7-1-31.4-6.4-43.4-16.6-8.2-7.1-14.5-17.3-14.3-28.4-.1-30.3 0-60.7 0-91-.1-10.6 5.8-20.3 13.3-27.4z" clip-path="url(#a)" transform="translate(-163.185 -56.025)"/>
    <ellipse cx="695.122" cy="42.792" fill="none" stroke="#ffffff" stroke-linecap="round" stroke-linejoin="round" stroke-width="53.054" paint-order="fill markers stroke" rx="93.878" ry="70.675"/>
  </g>
</svg>