<svg xmlns="http://www.w3.org/2000/svg" viewBox="0 0 64.421 17.602">
  <g transform="translate(-56.559 -135.366)">
    <ellipse cx="88.769" cy="144.167" paint-order="stroke fill markers" rx="32.211" ry="8.801"/>
    <g fill="#ff5a20" stroke-width=".265">
      <path d="M68.167 146.823c0 .741-1.016.339-1.016.678 0 .095.042.127.158.127.54 0 1.143-.022 1.916-.022.772 0 1.376.022 1.915.022.117 0 .16-.032.16-.127 0-.339-1.017.063-1.017-.678v-6.138c.921.138 1.789.751 2.223 1.757.137.317.17.487.275.487.074 0 .106-.043.106-.117 0-.074-.043-.285-.064-.412l-.423-2.032c-.021-.096-.032-.17-.106-.17-.085 0-.148.233-.571.233h-4.996c-.423 0-.487-.233-.571-.233-.074 0-.085.074-.106.17l-.423 2.032c-.022.127-.064.338-.064.412 0 .074.032.117.106.117.106 0 .137-.17.275-.487.434-1.006 1.302-1.62 2.223-1.757zm5.937 0c0 .741-.89.339-.89.678 0 .095.043.127.16.127.412 0 1.016-.022 1.788-.022 1.514 0 2.974.011 4.424.022l.444-2.138c.096-.466.106-.508.106-.603 0-.053-.042-.096-.106-.096-.095 0-.127.043-.2.297-.265.878-1.07 2.286-2.826 2.286-.614 0-.784-.19-.784-.678v-2.751c.879 0 1.546.582 1.662 1.481.021.17.021.328.138.328.063 0 .105-.02.105-.137v-3.472c0-.116-.042-.137-.105-.137-.117 0-.117.159-.138.328-.095.74-.783 1.355-1.662 1.355v-3.027c.995.021 1.736.148 2.52.868.708.656.814 1.407 1.015 1.407a.117.117 0 0 0 .117-.116c0-.053-.096-.318-.148-.498l-.583-1.915c-1.301.01-2.614.021-3.979.021-.772 0-1.376-.021-1.788-.021-.117 0-.16.031-.16.127 0 .338.89-.064.89.677zm9.525-3.238v-2.37c0-.742.677-.34.677-.678 0-.095-.042-.127-.159-.127-.328 0-.931.021-1.577.021-.772 0-1.375-.021-1.788-.021-.117 0-.159.032-.159.127 0 .339.89-.064.89.677v5.61c0 .74-.89.338-.89.677 0 .095.042.127.159.127.413 0 1.016-.022 1.788-.022.646 0 1.25.022 1.577.022.117 0 .16-.032.16-.127 0-.339-.678.063-.678-.678v-2.984h2.159v2.984c0 .741-.678.339-.678.678 0 .095.043.127.16.127.327 0 .93-.022 1.576-.022.773 0 1.376.022 1.789.022.116 0 .158-.032.158-.127 0-.339-.889.063-.889-.678v-5.609c0-.74.89-.338.89-.677 0-.095-.043-.127-.16-.127-.412 0-1.015.021-1.788.021-.645 0-1.249-.021-1.577-.021-.116 0-.159.032-.159.127 0 .339.678-.064.678.677v2.37zm8.466-2.371c0-.74.89-.338.89-.677 0-.095-.043-.127-.16-.127-.412 0-1.015.021-1.788.021-.772 0-1.376-.021-1.788-.021-.117 0-.16.032-.16.127 0 .339.89-.064.89.677v5.61c0 .74-.89.338-.89.677 0 .095.043.127.16.127.412 0 1.016-.022 1.788-.022.773 0 1.376.022 1.789.022.116 0 .158-.032.158-.127 0-.339-.889.063-.889-.678v-2.571l.297-.276 2.042 3.63c1.609 0 2.18.022 2.55.022.107 0 .138-.053.138-.127 0-.254-.486-.022-.783-.55l-2.519-4.488 1.059-1.016c1.048-1.005 1.598-.72 1.598-.931 0-.085-.106-.106-.222-.106-.297 0-.72.021-1.186.021-.444 0-.9-.021-1.28-.021-.159 0-.233.021-.233.106 0 .2.677.02.677.677 0 .318-.254.773-.688 1.228l-1.45 1.534z" style="-inkscape-font-specification:'ITC Caslon 224 Black, '"/>
      <path d="m100.551 145.088.487 1.301c.117.307.19.561.19.657 0 .54-.719.19-.719.476 0 .063.042.106.138.106.444 0 .973-.022 1.788-.022.985 0 1.366.022 1.662.022.148 0 .201-.032.201-.106 0-.265-.561.106-.963-.879l-2.53-6.265c-.042-.095-.052-.159-.116-.159-.106 0-.159.413-.847.879-.815.55-.942.444-.942.571 0 .095.487.095.487.413 0 .053-.031.127-.074.233l-1.365 3.355c-.18.455-.53 1.28-1.207 1.63-.264.137-.529.095-.529.222 0 .085.043.106.127.106.244 0 .55-.022 1.355-.022.423 0 .836.022 1.249.022.095 0 .17-.01.17-.096 0-.232-.953-.063-.953-1.185 0-.444.18-.836.338-1.26zm-.074-.254h-1.894l.974-2.413z" style="-inkscape-font-specification:'ITC Caslon 224 Black, '"/>
      <path d="M110.33 147.808a.236.236 0 0 0 .18.095c.064 0 .106-.032.106-.095v-5.641c0-1.725 1.228-1.26 1.228-1.62 0-.095-.074-.137-.201-.137-.424 0-.815.021-1.196.021s-.773-.021-1.196-.021c-.127 0-.201.042-.201.137 0 .36 1.228-.105 1.228 1.62v2.497l-3.556-4.233c-1.662 0-2.477-.021-2.731-.021-.19 0-.233.074-.233.137 0 .265.614-.01 1.291 1.038v4.286c0 1.725-1.227 1.26-1.227 1.619 0 .095.074.138.2.138.424 0 .816-.022 1.197-.022.38 0 .772.022 1.196.022.127 0 .2-.043.2-.138 0-.36-1.227.106-1.227-1.62v-3.915z" style="-inkscape-font-specification:'ITC Caslon 224 Black, '"/>
    </g>
  </g>
</svg>