<svg xmlns="http://www.w3.org/2000/svg" width="400pt" height="50pt" viewBox="0 0 400 50"><path d="M0 0h70.06c3.58.62 6.95 2.28 9.34 5.06C81.11 2.65 83.47.73 86.39 0h65.46l.28.43.38-.06-.2-.37h37.44c0 5.62-.01 11.25.01 16.87C200.34 11.23 210.91 5.55 221.54 0h44.21v14H300V0h20.99c-1.48 3.36 3.13 1.51 4.12 0h67.8c3.58.72 6.37 3.51 7.09 7.1v35.66c-.77 4.02-4.34 6.98-8.38 7.24h-64.93c-3-.23-5.52-1.93-7.32-4.26-1.83 2.16-4.2 3.81-7.03 4.26h-89.8c-10.89-5.61-21.89-11.01-32.78-16.62-.02 5.54-.01 11.08-.01 16.62h-40.03c.03-.65.08-1.96.1-2.61-2.34 1.32-4.83 2.43-7.55 2.61H77.75c.02-4.94-.06-9.89.06-14.83-2.37 1.42-4.96 2.74-7.81 2.58H23V50H0V0m3.51 3.24C3.49 17.66 3.5 32.08 3.5 46.5h16V34.26c16.82-.02 33.65-.01 50.48 0 3.65.37 7.28-2.58 7.43-6.28.21-5.64.07-11.28.08-16.92.33-5.08-5.21-7.71-9.56-7.76-21.47-.13-42.94 0-64.42-.06m78.3 5.82c-.66 4.95-.2 9.99-.28 14.97-.18 2.98 2.65 5.25 5.47 5.17 14.67.11 29.35.04 44.02.03 1.31.26 3.16-.5 4.13.64.11 1.46.17 2.91.19 4.37-1.4.34-2.83.56-4.27.53-16.61-.05-33.21-.01-49.82-.02 0 3.93-.02 7.85.03 11.77 18.57-.05 37.13-.02 55.69-.01 2.69-.04 5.44.23 8.05-.56 2.54-.76 4.28-3.3 4.2-5.93.04-4.97.13-9.94-.05-14.9.09-2.8-2.43-4.91-5.11-4.84-15.56-.14-31.12.13-46.68-.14-.08-1.48-.15-2.97-.19-4.45 3.23-.68 6.53-.41 9.81-.44 13.83-.01 27.66.02 41.49-.01.01-3.99 0-7.99.02-11.98-19.85.01-39.7-.07-59.54.04-3.43-.16-6.71 2.27-7.16 5.76m73.24-5.82c-2.13 4.15-4.23 8.32-6.25 12.52 5.32-.02 10.65-.01 15.97-.01 1.96-4.17 3.9-8.34 5.92-12.48-5.22-.04-10.43 0-15.64-.03m17.2.01c.01 14.42-.02 28.84.02 43.26 4.66-.02 9.32-.01 13.98-.01 0-6.25.01-12.5-.01-18.75 12.31 6.21 24.6 12.46 36.93 18.62 7.26.36 14.55-.05 21.83.19l1.35-1.53c-2.63-.5-4.91-1.97-7.28-3.12-11.02-5.8-22.28-11.14-33.23-17.06 13.49-7.22 27.14-14.18 40.53-21.59-7.96.13-15.96-.3-23.89.2-12.14 6.25-24.13 12.8-36.21 19.17-.03-6.44-.05-12.88.01-19.33-4.67-.1-9.35-.04-14.03-.05m75 0c.08 6.07-.16 12.14.11 18.2.08 2.67 1.53 5.99 4.63 6 17.18.12 34.36 0 51.55.06-.37 2.14 1.16 6.9-2.48 6.47-17.94.06-35.88-.01-53.82.02-.41 4.08 1.07 8.66-1.09 12.32 20.62.41 41.25.05 61.87.2 2.42-.08 5.21.37 7.18-1.41 1.9-1.8 2.36-4.56 2.31-7.07-.02-11.59-.02-23.18 0-34.78-4.67-.02-9.33.01-13.99-.03-.04 4.67-.01 9.35-.02 14.02-12.16.01-24.32-.02-36.48.02-1.49-.26-3.49.54-4.6-.72-.42-4.42-.05-8.87-.17-13.3h-15m79.95.07c-3.07-.07-5.64 2.61-5.43 5.67-.03 10.73-.06 21.46.02 32.18-.09 2.83 2.32 5.34 5.16 5.3 21.33.06 42.67.03 64 .01 2.99.26 5.87-2.44 5.55-5.47-.04-11.02.07-22.04-.05-33.05-.06-3.21-3.5-4.93-6.36-4.71-20.96.04-41.93-.09-62.89.07M213.22 24.85c10.19 5.14 20.33 10.37 30.52 15.51.01-3.22 0-6.43.01-9.64 2.18.01 4.37.02 6.55.23-3.05-1.23-5.6-3.84-6.12-7.16-.86-4.97-.27-10.05-.42-15.06-10.21 5.32-20.35 10.77-30.54 16.12m-59.97-4.84c0 8.82.01 17.65-.01 26.48 5.01.01 10.01.01 15.01.01V20c-5 0-10 0-15 .01z" fill="#fff" stroke="#fff" stroke-width=".094"/><g stroke-width=".094"><path d="M19.44 15.08c14.77-.18 29.55-.04 44.32-.07.01 2.77 0 5.53-.1 8.3-14.71-.14-29.43-.03-44.14-.05-.02-2.73-.02-5.46-.08-8.18m3.58 3.41c-.01.32-.02.95-.03 1.26h37.23l.11-1.22c-12.44-.07-24.87 0-37.31-.04zM337 15.25c14.77.05 29.53-.09 44.3.07-.1 6.31-.03 12.62-.05 18.93H337c0-6.33-.01-12.67 0-19m3.5 3.5V31c12.42 0 24.84.01 37.25 0 0-4.09-.01-8.17 0-12.25H340.5z" fill="#fff" stroke="#fff"/><path d="M151.85 0h.46l.2.37-.38.06-.28-.43zM3.51 3.24c21.48.06 42.95-.07 64.42.06 4.35.05 9.89 2.68 9.56 7.76-.01 5.64.13 11.28-.08 16.92-.15 3.7-3.78 6.65-7.43 6.28-16.83-.01-33.66-.02-50.48 0V46.5h-16c0-14.42-.01-28.84.01-43.26m15.93 11.84c.06 2.72.06 5.45.08 8.18 14.71.02 29.43-.09 44.14.05.1-2.77.11-5.53.1-8.3-14.77.03-29.55-.11-44.32.07zM155.05 3.24c5.21.03 10.42-.01 15.64.03-2.02 4.14-3.96 8.31-5.92 12.48-5.32 0-10.65-.01-15.97.01 2.02-4.2 4.12-8.37 6.25-12.52z" fill="#fd1318" stroke="#fd1318"/><path d="M81.81 9.06c.45-3.49 3.73-5.92 7.16-5.76 19.84-.11 39.69-.03 59.54-.04-.02 3.99-.01 7.99-.02 11.98-13.83.03-27.66 0-41.49.01-3.28.03-6.58-.24-9.81.44.04 1.48.11 2.97.19 4.45 15.56.27 31.12 0 46.68.14 2.68-.07 5.2 2.04 5.11 4.84.18 4.96.09 9.93.05 14.9.08 2.63-1.66 5.17-4.2 5.93-2.61.79-5.36.52-8.05.56-18.56-.01-37.12-.04-55.69.01-.05-3.92-.03-7.84-.03-11.77 16.61.01 33.21-.03 49.82.02 1.44.03 2.87-.19 4.27-.53-.02-1.46-.08-2.91-.19-4.37-.97-1.14-2.82-.38-4.13-.64-14.67.01-29.35.08-44.02-.03-2.82.08-5.65-2.19-5.47-5.17.08-4.98-.38-10.02.28-14.97zM172.25 3.25c4.68.01 9.36-.05 14.03.05-.06 6.45-.04 12.89-.01 19.33 12.08-6.37 24.07-12.92 36.21-19.17 7.93-.5 15.93-.07 23.89-.2-13.39 7.41-27.04 14.37-40.53 21.59 10.95 5.92 22.21 11.26 33.23 17.06 2.37 1.15 4.65 2.62 7.28 3.12L245 46.56c-7.28-.24-14.57.17-21.83-.19-12.33-6.16-24.62-12.41-36.93-18.62.02 6.25.01 12.5.01 18.75-4.66 0-9.32-.01-13.98.01-.04-14.42-.01-28.84-.02-43.26z" stroke="#000"/><path d="M247.25 3.25h15c.12 4.43-.25 8.88.17 13.3 1.11 1.26 3.11.46 4.6.72 12.16-.04 24.32-.01 36.48-.02.01-4.67-.02-9.35.02-14.02 4.66.04 9.32.01 13.99.03-.02 11.6-.02 23.19 0 34.78.05 2.51-.41 5.27-2.31 7.07-1.97 1.78-4.76 1.33-7.18 1.41-20.62-.15-41.25.21-61.87-.2 2.16-3.66.68-8.24 1.09-12.32 17.94-.03 35.88.04 53.82-.02 3.64.43 2.11-4.33 2.48-6.47-17.19-.06-34.37.06-51.55-.06-3.1-.01-4.55-3.33-4.63-6-.27-6.06-.03-12.13-.11-18.2zM327.2 3.32c20.96-.16 41.93-.03 62.89-.07 2.86-.22 6.3 1.5 6.36 4.71.12 11.01.01 22.03.05 33.05.32 3.03-2.56 5.73-5.55 5.47-21.33.02-42.67.05-64-.01-2.84.04-5.25-2.47-5.16-5.3-.08-10.72-.05-21.45-.02-32.18-.21-3.06 2.36-5.74 5.43-5.67m9.8 11.93c-.01 6.33 0 12.67 0 19h44.25c.02-6.31-.05-12.62.05-18.93-14.77-.16-29.53-.02-44.3-.07zM153.25 20.01c5-.01 10-.01 15-.01v26.5c-5 0-10 0-15.01-.01.02-8.83.01-17.66.01-26.48z" stroke="#000"/></g></svg>