<svg xmlns="http://www.w3.org/2000/svg" version="1.2" viewBox="0 0 51.025 25.514">
  <path fill="none" stroke="#fff" stroke-width=".388" d="M15.45 25.32v-1.744h-1.38c-.733.806-2.011 1.744-3.995 1.744H.195v-7.896h.838c-.822-1.841-.791-4.157.091-5.962.461-.944 1.136-1.718 1.948-2.236a4.93 4.93 0 0 1 2.695-.772h18.1c.714 0 1.4.312 1.933.877.5.53.826 1.241.928 2.018h1.158v-.335c0-1.41.971-2.558 2.167-2.558h5.304l2.844 4.38 2.845-4.384h9.621L39.721 25.31h-5.67v-.874c0-.474-.327-.861-.728-.861H22.86c-.401 0-.729.387-.729.861v.883z" class="s0"/>
  <path fill="#fff" d="M23.328 16.146h9.237v2.458h-9.237zm1.136-4.273v1.557H19.83v9.17h-2.08v-9.17H5.769c-1.196.064-1.083 2.084 0 2.02h4.306c4.473 0 4.473 7.15 0 7.15h-7.58v-2.458h7.58c1.26 0 1.26-2.234 0-2.234H5.769c-4.046 0-4.046-6.736 0-6.736h6.747c.328 0 .593.315.593.701v-.701h10.76c.328 0 .593.315.595.701zm21.538-.701-7.415 11.419h-.771L30.4 11.172h3.282L38.2 18.13l4.519-6.958z" class="s0"/>
  <g fill="#fff">
    <path d="M18.156 4.838c0-.075-.042-.125-.106-.125h-.675c-1.076 0-1.942-1.023-1.942-2.294 0-1.271.866-2.294 1.942-2.294h2.638v.971h-2.617c-.612 0-1.119.598-1.119 1.321 0 .724.507 1.322 1.119 1.322h.676c.507 0 .928.498.928 1.097 0 .6-.422 1.098-.928 1.098h-2.639v-.972h2.639c.042 0 .083-.05.084-.124z" class="s2"/>
    <path d="M17.29 2.419c0 .075.042.125.106.125h.676c1.075 0 1.94 1.023 1.94 2.294 0 1.271-.865 2.294-1.94 2.294h-2.639v-.973h2.617c.613 0 1.119-.598 1.119-1.321s-.506-1.321-1.119-1.321h-.675c-.508 0-.93-.498-.93-1.098 0-.6.423-1.098.93-1.098h2.638v.998h-2.638c-.043 0-.084.05-.085.1zm12.303-1.098v.974H27.25c-.105 0-.19.099-.19.224v2.194c0 .123.084.224.19.224h.485v-.224h-.485V3.74h1.308v2.196h-1.71c-.359 0-.633-.325-.633-.749V2.07c0-.424.274-.749.634-.749z" class="s2"/>
    <path fill-rule="evenodd" d="M32.039 5.932h-.02V5.06l-.591 2.07h-.971l1.688-5.809c.042-.098.147-.198.253-.198.126 0 .21.098.253.224l1.308 4.587h-1.92zm.042-1.094h.57l-.274-.997z" class="s2"/>
    <path d="M35.374 7.132H32.04v-.973h2.194L32.84 1.273c-.062-.224-.231-.374-.442-.374-.21 0-.38.15-.443.374l-1.709 5.859h-3.397c-.908 0-1.646-.872-1.646-1.945V2.07c0-1.073.738-1.945 1.646-1.945h2.742v.973H26.87c-.443 0-.823.424-.823.972v3.117c0 .523.359.972.823.972h1.901V3.517h-1.52v-.973h2.322V6.46l1.54-5.336C31.26.474 31.766 0 32.378 0c.61 0 1.118.5 1.287 1.148zm-10.488-.973v.973H22.06c-.908 0-1.646-.872-1.646-1.945V2.07c0-1.073.738-1.945 1.646-1.945h2.827v.973H22.06c-.443 0-.823.424-.823.972v3.117c0 .523.359.972.823.972z" class="s2"/>
    <path d="M22.44 4.988h2.448v.973H22.06c-.36 0-.633-.324-.633-.749V3.766h2.87v.972h-2.048c0 .124.084.224.191.25zm1.854-1.471h-2.87V2.07c0-.424.274-.749.633-.749h2.807v1h-2.426c-.105 0-.19.098-.19.223h2.047l-.001.973z" class="s2"/>
  </g>
</svg>