<svg xmlns="http://www.w3.org/2000/svg" version="1.2" viewBox="0 0 3839 1727">
  <path fill="none" d="M1161.1 1716.9v-111.4H1057c-55.3 51.5-151.8 111.4-301.5 111.4H9.8v-504.3h63.3C11.1 1095 13.4 947.1 80 831.8c34.8-60.3 85.7-109.7 147-142.8 60.6-32.7 129-49.3 203.4-49.3h1366c53.9 0 105.7 19.9 145.9 56 37.7 33.9 62.3 79.3 70 128.9h87.4v-21.4c0-90.1 73.3-163.4 163.5-163.4h400.3l214.7 279.8 214.7-280H3819l-826.1 1076.6H2565v-55.8c0-30.3-24.7-55-55-55h-789.6c-30.3 0-55 24.7-55 55v56.4z" class="s0"/>
  <path fill="#fff" fill-rule="evenodd" d="m3839 629.8-835.4 1088.6-5.9 7.7h-442.6v-65.7c0-24.9-20.2-45.1-45.1-45.1h-789.6c-24.9 0-45.1 20.2-45.1 45.1v66.3h-524v-111.4h-90.4c-33.6 30.7-72 55.6-114.3 73.9-57.5 24.9-121.7 37.5-191 37.5H0v-524h57.2c-56-118-51.2-262.3 14.3-375.9 35.7-61.9 87.9-112.6 150.9-146.6 62.1-33.4 132.1-50.4 208.1-50.4h1366c56.4 0 110.5 20.8 152.6 58.5 37.2 33.5 62.2 77.9 71.6 126.4h69.3v-11.6c0-23.4 4.6-46.1 13.6-67.5 8.7-20.7 21.2-39.2 37.1-55.1 15.9-15.9 34.5-28.4 55.1-37.1 21.4-9 44.1-13.6 67.5-13.6h405.1l209.9 273.5 209.8-273.5zm-39.9 19.7h-701.4l-219.5 286.1-219.5-286.1h-395.4c-84.8 0-153.6 68.8-153.6 153.6v31.3h-105.9c-11.8-103.9-100.3-184.9-207.3-184.9h-1366c-72.7 0-139.6 16.2-198.7 48.1-59.8 32.2-109.3 80.3-143.2 139-67.2 116.5-67.2 267 0 383.5.4.8.9 1.6 1.3 2.3H19.7V1707h735.9c147.2 0 242.1-58.6 297.6-111.4H1171V1707h484.7v-46.6c0-35.8 29-64.8 64.8-64.8h789.6c35.8 0 64.8 29 64.8 64.8v46h413.2z" class="s1"/>
  <path fill="none" d="m3633 731.4-685.2 893.1h-290.9v-46c0-35.8-29-64.8-64.8-64.8h-953.5c-35.8 0-64.8 29-64.8 64.8v46.6H1253v-111.4h-234.8c-4.5 5.3-9.3 10.5-14.3 15.6-43 43.7-121.1 95.8-248.2 95.8h-654v-320.8h207c-63.4-23.6-115.3-66.5-149.1-125.1-52.9-91.6-52.9-210 0-301.6 53.7-92.9 152.4-146.2 271-146.2h1366c70 0 126.7 56.7 126.7 126.7v58.2h268.4V803.1c0-39.6 32.1-71.7 71.7-71.7h355l259.9 338.8 259.9-338.8zm-1068.7 539.4-.9-1.3v1.3z" class="s1"/>
  <path fill="#fff" d="M1755.7 1131h697.1v157h-697.1zm85.7-272.9v99.4h-349.6v585.7h-157V957.5H430.5c-90.2 4.1-81.7 133.1 0 129h325c337.6 0 337.6 456.7 0 456.7h-572v-157h572c95.1 0 95.1-142.7 0-142.7h-325c-305.3 0-305.3-430.2 0-430.2h509.2c24.8 0 44.8 20.1 44.8 44.8v-44.8h812c24.8 0 44.8 20.1 44.9 44.8zm1625.5-44.8-559.6 729.3h-58.2l-559.6-729.3h247.7l341 444.4 341-444.4z" class="s0"/>
  <g fill="#fff">
    <path d="M1365.4 345.6c0-4.8-3.2-8-8-8h-51c-81.2 0-146.5-65.3-146.5-146.5s65.3-146.5 146.5-146.5h199.1v62H1308c-46.2 0-84.4 38.2-84.4 84.4s38.2 84.4 84.4 84.4h51c38.3 0 70.1 31.8 70.1 70.1s-31.9 70.1-70.1 70.1h-199.1v-62.1H1359c3.2 0 6.3-3.2 6.4-7.9z" class="s2"/>
    <path d="M1300 191.1c0 4.8 3.2 8 8 8h51c81.2 0 146.5 65.3 146.5 146.5s-65.3 146.5-146.5 146.5h-199.1V430h197.5c46.2 0 84.4-38.2 84.4-84.4s-38.2-84.4-84.4-84.4h-51c-38.3 0-70.1-31.8-70.1-70.1s31.9-70.1 70.1-70.1h199.1v63.7h-199.1c-3.2 0-6.3 3.2-6.4 6.4zm928.5-70.1v62.2h-176.8c-7.9 0-14.3 6.3-14.3 14.3v140.1c0 7.9 6.3 14.3 14.3 14.3h36.6v-14.3h-36.6v-62.1h98.7v140.2h-129c-27.1 0-47.8-20.7-47.8-47.8V168.8c0-27.1 20.7-47.8 47.8-47.8z" class="s2"/>
    <path fill-rule="evenodd" d="M2413.1 415.5h-1.5v-55.7L2367 492h-73.3l127.4-371c3.2-6.3 11.1-12.7 19.1-12.7 9.5 0 15.9 6.3 19.1 14.3l98.7 293h-144.9zm3.2-69.9h43l-20.7-63.7z" class="s2"/>
    <path d="M2664.8 492.1h-251.6V430h165.6l-105.2-312.1c-4.7-14.3-17.5-23.9-33.4-23.9-15.9 0-28.6 9.6-33.4 23.9l-129 374.2h-256.4c-68.5 0-124.2-55.7-124.2-124.2V168.8c0-68.5 55.7-124.2 124.2-124.2h207v62.1H2023c-33.4 0-62.1 27.1-62.1 62.1v199.1c0 33.4 27.1 62.1 62.1 62.1h143.5V261.2h-114.7v-62.1H2227v250l116.2-340.8c11.1-41.4 49.3-71.7 95.5-71.7 46.1 0 84.4 31.9 97.1 73.3zM1873.3 430v62.1h-213.4c-68.5 0-124.2-55.7-124.2-124.2V168.8c0-68.5 55.7-124.2 124.2-124.2h213.4v62.1h-213.4c-33.4 0-62.1 27.1-62.1 62.1v199.1c0 33.4 27.1 62.1 62.1 62.1z" class="s2"/>
    <path d="M1688.7 355.2h184.7v62.1H1660c-27.1 0-47.8-20.7-47.8-47.8v-92.4h216.6v62.1h-154.5c0 7.9 6.3 14.3 14.4 16zm139.9-94H1612v-92.4c0-27.1 20.7-47.8 47.8-47.8h211.8v63.8h-183.1c-7.9 0-14.3 6.3-14.3 14.3h154.5s0 62.1-.1 62.1z" class="s2"/>
  </g>
</svg>