<svg xmlns="http://www.w3.org/2000/svg" version="1.2" viewBox="0 0 40.142 20.055">
  <path fill="none" stroke="#fff" stroke-width=".388" d="M12.16 19.861v-1.368h-1.082c-.575.632-1.578 1.368-3.134 1.368H.194v-6.193h.657c-.644-1.445-.62-3.261.072-4.677.361-.74.89-1.348 1.528-1.754a3.867 3.867 0 0 1 2.114-.606h14.197c.56 0 1.099.245 1.517.688.392.416.648.974.728 1.583h.908V8.64c0-1.106.762-2.006 1.7-2.006h4.16l2.231 3.436 2.232-3.44h7.547l-8.587 13.224h-4.447v-.685c0-.372-.257-.676-.571-.676h-8.207c-.315 0-.572.304-.572.676v.692z" class="s0"/>
  <path fill="#fff" d="M18.34 12.665h7.245v1.928H18.34zm.89-3.352v1.222h-3.634v7.193h-1.632v-7.193H4.566c-.938.05-.85 1.634 0 1.584h3.378c3.509 0 3.509 5.609 0 5.609H1.998V15.8h5.946c.988 0 .988-1.753 0-1.753H4.566c-3.173 0-3.173-5.284 0-5.284H9.86c.257 0 .465.247.465.55v-.55h8.44c.257 0 .465.247.467.55zm16.895-.55-5.816 8.958h-.605l-5.817-8.958h2.574l3.544 5.458 3.545-5.458z" class="s0" style="stroke-width:.784407"/>
  <g fill="#fff">
    <path d="M14.283 3.795c0-.059-.033-.098-.083-.098h-.53c-.844 0-1.523-.803-1.523-1.8S12.827.098 13.67.098h2.07V.86h-2.053c-.48 0-.878.469-.878 1.036 0 .568.398 1.037.878 1.037h.53c.398 0 .728.39.728.86 0 .471-.331.862-.728.862h-2.07v-.763h2.07c.033 0 .065-.039.066-.097z" class="s2"/>
    <path d="M13.603 1.897c0 .06.033.099.084.099h.53c.843 0 1.522.802 1.522 1.799 0 .997-.679 1.8-1.522 1.8h-2.07V4.83H14.2c.48 0 .877-.469.877-1.036 0-.567-.397-1.036-.877-1.036h-.53c-.398 0-.73-.39-.73-.862 0-.47.332-.86.73-.86h2.07v.782h-2.07c-.034 0-.066.04-.067.078zm9.651-.86V1.8h-1.838c-.082 0-.149.078-.149.176v1.72c0 .097.066.177.15.177h.38v-.176h-.38v-.763h1.025v1.722h-1.341c-.282 0-.497-.255-.497-.587V1.624c0-.333.215-.588.498-.588z" class="s2"/>
    <path fill-rule="evenodd" d="M25.173 4.653h-.016V3.97l-.464 1.624h-.761l1.324-4.557c.033-.077.115-.155.198-.155.1 0 .165.077.199.176l1.026 3.598h-1.506zm.033-.858h.447l-.215-.782Z" class="s2"/>
    <path d="M27.789 5.594h-2.616v-.763h1.721L25.801 1c-.049-.176-.181-.294-.347-.294-.164 0-.298.118-.347.294l-1.34 4.595h-2.665c-.713 0-1.292-.684-1.292-1.525V1.624c0-.842.58-1.526 1.292-1.526h2.15v.763h-2.134c-.347 0-.646.333-.646.763v2.445c0 .41.282.762.646.762h1.491V2.76h-1.192v-.763h1.821v3.071L24.446.882c.116-.51.513-.882.993-.882.478 0 .877.392 1.01.9zm-8.227-.763v.763h-2.217c-.712 0-1.291-.684-1.291-1.525V1.624c0-.842.579-1.526 1.291-1.526h2.218v.763h-2.218c-.347 0-.646.333-.646.763v2.445c0 .41.282.762.646.762z" class="s2"/>
    <path d="M17.643 3.913h1.92v.763h-2.218c-.282 0-.496-.254-.496-.588V2.954h2.25v.763h-1.606a.2.2 0 0 0 .15.196zm1.454-1.154h-2.25V1.624c0-.333.214-.588.496-.588h2.202v.785h-1.903c-.083 0-.15.076-.15.175h1.606z" class="s2"/>
  </g>
</svg>