<svg xmlns="http://www.w3.org/2000/svg" viewBox="0 0 1806.4 454.968">
  <path fill="#fff" stroke="#fff" stroke-width=".094" d="M249.657.047h22.78c16.52 1.35 33.11 3.02 49.19 7.24-4.34 15.61-10.15 30.77-15.3 46.12-9.02 26.32-29.34 49.61-55.87 59.07-12.76 4.59-26.49 4.74-39.68 7.34-8.6 1.79-17.55 2.6-25.6 6.37-13.65 5.96-25.3 16.11-33.44 28.56-7.48 11.17-13.95 23.22-17.72 36.17-1.6 9.77-1.1 20.18-5.89 29.19-4.32 9.25-14.13 14.4-23.78 16.24-16.23 3.13-32.88 2.06-49.28 1.23-18.37-1.48-36.69-3.52-55.02-5.42v-1.68c4.78-14.29 8.66-28.92 14.63-42.79 4.11-9.28 8.25-18.61 13.85-27.11 9.08-14.47 22.68-26.06 38.52-32.51 18.65-7.69 39.21-7.91 58.4-13.64 16.06-3.75 31.06-12.63 41.42-25.54 7.98-10.13 13.53-21.96 17.94-34 3.44-9.27 4-19.31 7.5-28.55 3.11-8.21 9.88-14.6 17.78-18.2 12.38-5.72 26.18-6.82 39.57-8.09z"/>
  <path fill="#fff" stroke="#fff" stroke-width=".108" d="M759.733 36.487c20.416-2.346 41.395-.965 61.119 5.728 14.955 4.85 28.538 15.293 37.297 29.913 10.662 17.296 13.009 39.356 11.019 59.888-1.709 23.098-10.035 44.546-17.205 65.983-7.429 20.96-14.923 42.128-25.985 61.06-9.397 16.306-22.082 30.267-36.983 40.076-16.026 10.382-34.075 16.6-52.393 19.079-21.044 2.662-42.617 1.673-63.163-4.397-15.118-4.459-29.251-14.377-38.14-29.083-6.608-11.09-11.29-23.83-12.49-37.206-1.871-22.071 1.168-44.497 7.386-65.445 6.64-21.094 14.176-41.859 23.27-61.768 13.075-29.474 33.459-55.98 60.363-69.855 14.469-7.512 30.138-11.763 45.905-13.973m-.022 52.546c-12.944 2.455-25.304 10.407-32.636 22.89-4.347 7.573-7.732 15.794-11.203 23.904-8.986 21.143-16.199 43.215-21.93 65.75-2.347 9.772-5.234 19.654-4.629 29.914-.043 7.304 2.585 14.45 7.083 19.677 7.397 9.1 18.676 12.936 29.392 12.581 12.068.208 24.05-5.447 32.474-15.195 11.073-13.179 17.994-29.913 23.444-46.818 8.63-24.355 15.367-49.517 21.109-74.935 2.757-13.107-3.407-27.642-13.972-33.737-8.878-5.264-19.4-5.68-29.132-4.03z"/>
  <path fill="#fff" stroke="#fff" stroke-width=".108" d="M468.604 43.192c16.86-.806 33.761-.036 50.641-.293 4.78-.049 9.57-.159 14.35.281-.973 5.155-2.714 10.065-4.336 14.987-8.165 26.176-16.513 52.278-24.72 78.442-1.73 5.582-3.753 11.054-4.975 16.807 3.439-2.687 6.478-5.936 9.538-9.149 30.095-30.756 60.157-61.536 90.252-92.28 2.92-2.883 5.493-6.29 8.856-8.55 2.704-.892 5.58-.574 8.38-.636 22.785.355 45.58-.342 68.355.342-8.76 10.603-18.46 20.179-27.662 30.292-28.894 31.343-58.156 62.258-86.878 93.795.627 6.902 2.747 13.46 4.099 20.203 9.278 41.774 18.772 83.486 27.813 125.32-25.056.086-50.122.074-75.178.013-2.13-6.156-3.157-12.69-4.671-19.042-9.603-41.554-18.849-83.218-28.56-124.735-.627 1.185-1.286 2.346-1.794 3.591-15.702 45.756-31.5 91.487-47.224 137.242-.454 3.164-3.363 3.115-5.602 3.066-19.821-.232-39.643.025-59.465-.122.736-3.652 1.774-7.206 3.028-10.675 28.646-86.271 57.021-172.677 85.753-258.899zm458.547.135c5.3-.868 10.663-.403 15.994-.44 21.627-.012 43.266-.012 64.893-.012 5.256 0 10.565-.391 15.788.598-.27 19.91 1.255 39.77 1.18 59.68.129 9.784.745 19.556.724 29.352-.13 13.85 1.146 27.665 1.07 41.529-.097 17.503 1.503 34.958 1.373 52.473a99.994 99.994 0 0 0 .498 10.187c2.898-5.838 4.271-12.397 6.434-18.578 18.232-56.797 36.518-113.57 54.674-170.392a92.103 92.103 0 0 1 1.677-4.556c12.187-.733 24.406-.073 36.615-.293 7.926.146 15.875-.379 23.79.305-6.79 22.511-14.685 44.607-21.887 66.96-17.215 52.205-34.496 104.373-51.733 156.565-5.234 15.305-9.894 30.866-15.453 46.012-30.797.208-61.595.012-92.392.098-1.136-9.222-.25-18.554-.93-27.825-.974-14.572-.476-29.205-1.363-43.776-.984-16.282-.714-32.613-1.47-48.907.205-17.516-1.612-34.958-1.493-52.474-.162-9.014-.497-18.028-.876-27.03-3.039 7.035-4.834 14.62-7.278 21.925-14.241 44.998-28.386 90.02-42.627 135.019-4.672 14.29-8.803 28.814-13.766 42.982-20.33.196-40.66.013-60.99.086 29.338-89.764 58.146-179.76 87.548-269.488zm299.996 10.492c2.336-3.506 3.806-8.123 7.083-10.627 9.635-.88 19.346-.024 29.013-.317 18.07.207 36.15-.391 54.199.28.67 17.54-.627 35.117-.779 52.67.065 32.173-1.027 64.321-1.2 96.494-.303 16.697-.8 33.394-.725 50.104.13 13.851-.757 27.678-.854 41.53-.368 9.55.097 19.103-.39 28.642-20.946.489-41.913.195-62.86.147.67-17.736 1.73-35.471 1.46-53.231-10.673-.965-21.411-.098-32.106-.391-15.377.281-30.808-.598-46.153.599-10.814 17.576-21.379 35.385-32.236 52.925-21.465.354-42.941.098-64.407.122 3.147-8.037 8.36-14.743 12.36-22.243 45.818-78.93 91.777-157.762 137.595-236.704m15.496 82.265c-12.057 22.926-24.612 45.535-36.529 68.56 16.361.5 32.798.427 49.149-.33.573-23.159 1.676-46.305 1.968-69.476.14-8.697 1.297-17.37.703-26.078-5.937 8.452-10.133 18.26-15.291 27.324zm171.171-92.708c10.327-1.149 20.73-.135 31.1-.477 19.465.012 38.93 0 58.395.012 5.742.025 11.506-.317 17.248.342-3.212 30.585-7.321 61.073-10.825 91.633-3.103 26.872-6.813 53.67-9.484 80.604 9.733-16.758 18.578-34.176 27.997-51.179 21.26-39.465 42.682-78.844 63.931-118.322.984-2.26 2.91-3.407 5.158-3.09 29.208-.012 58.427.012 87.646 0 5.504 0 11.02-.22 16.523.281-2.14 9.405-5.86 18.212-8.661 27.373-17.8 53.56-35.589 107.145-53.431 160.694-9.224 27.104-17.81 54.488-27.294 81.47-20.741.196-41.503.073-62.244.049 2.249-9.723 6.196-18.823 9.073-28.313 16.685-49.909 33.457-99.793 50.143-149.7 1.644-4.875 3.385-9.724 4.542-14.793-5.245 7.024-8.922 15.317-13.636 22.78-29.187 50.91-58.481 101.735-87.668 152.645-3.514 5.765-6.445 11.994-10.446 17.357-21.4.146-42.811.158-64.201-.013 4.412-60.461 8.51-120.96 12.566-181.458.475-5.326.886-10.676.843-16.038-7.224 19.812-13.3 40.15-20.146 60.144-14.75 44.803-29.651 89.557-44.336 134.384-.4 2.468-2.358 3.36-4.38 3.09-19.086-.134-38.173.037-57.248-.085 2.13-9.1 5.731-17.65 8.413-26.542 26.797-80.958 53.485-161.964 80.422-242.848zm329.885.024c7.05-1.148 14.198-.244 21.303-.489 13.766.196 27.564-.427 41.33.294-2.282 9.295-5.915 18.065-8.77 27.128a300791.027 300791.027 0 0 1-75.718 225.968c-1.914 5.496-3.363 11.213-5.84 16.428-20.405.16-40.821.074-61.227.037 2.011-9.136 5.667-17.674 8.37-26.554 26.84-80.946 53.734-161.867 80.552-242.812z"/>
  <path fill="#fff" stroke="#fff" stroke-width=".094" d="M319.177 113.067c27.88-2.8 56.31-.63 83.48 6.18-4.46 15.86-10.31 31.29-15.6 46.89-5.87 17.23-16.79 32.57-30.81 44.14-8.1 6.91-17.68 12-27.84 15.12-10.44 3.35-21.5 3.65-32.22 5.59-7.86 1.44-15.81 2.52-23.51 4.71-14.55 4.69-27.49 14.12-36.61 26.37a144.357 144.357 0 0 0-20.22 37.83c-2.22 6.44-1.59 13.38-2.89 19.99-1.31 8.14-4.68 16.48-11.47 21.54-8.03 6.09-18.34 7.51-28.07 8.62h-30.75c-20.49-1.85-41.02-3.43-61.42-6.2 3.35-14.35 8.21-28.34 13.5-42.09 8.24-20.5 19.41-41.17 38.3-53.68 17.94-12.72 40.41-14.91 61.41-18.74 11.9-2.85 24.22-5.49 34.62-12.25 9.41-5.61 17.54-13.35 23.41-22.62 6.29-10.01 11.37-20.85 14.76-32.19 3.35-11.23 3.46-24.18 11.74-33.31 10.1-11.23 25.9-14.13 40.19-15.9z"/>
  <path fill="#fff" d="M233.685 595.827h14.04l-.36 2.16q-1 6.12-5.44 9.8-4.36 3.64-10.6 3.64-6.52 0-10.04-4.36-3.56-4.4-2.48-10.64 1-6.08 5.72-10.12 4.64-4 10.88-4 4.12 0 7.12 1.76t4.56 5.04l-5.04 2.64q-2.12-4.08-7.16-4.08-4.08 0-7 2.56-2.92 2.52-3.6 6.6-.72 4.08 1.32 6.64 2.08 2.56 6.24 2.56 6.88 0 9.2-5.32h-8.2z" transform="matrix(2.89291 0 0 2.71782 685.437 -1206.782)"/>
  <path fill="#fff" d="M268.925 611.427q-4.2 0-6.92-1.84-2.72-1.84-3.48-5.08l5-2.56q1.04 4.16 5.84 4.16 2.16 0 3.44-.76 1.28-.8 1.52-2.16.32-1.44-.8-2.28-1.08-.84-4.16-1.88-3.92-1.32-5.92-3.32-2-2.04-1.32-5.72.68-3.8 3.56-5.72 2.92-1.96 6.64-1.96 3.44 0 5.88 1.64 2.44 1.6 3.52 4.6l-4.84 2.56q-1.52-3.48-5-3.48-1.68 0-2.8.72-1.08.72-1.36 1.96-.32 1.4.76 2.28 1.08.88 4 1.92 2.16.8 2.4.92 1.92.8 3.24 1.96 2.56 2.28 1.84 6.28-.68 3.72-3.64 5.76-2.92 2-7.4 2zm35.36-28.56-.92 5.28h-11.6l-1.08 6h10.64l-.96 5.16h-10.56l-1.12 6.28h11.8l-.92 5.28h-17.32l4.92-28zm22.96 9.68q-.52 2.8-2.32 4.88-1.76 2.08-4.4 3l4.24 10.44h-5.6l-3.88-9.72h-4.6l-1.72 9.72h-5.52l4.92-28h10.92q3.8 0 6.2 2.92 2.44 2.88 1.76 6.76zm-8.88-4.52h-5.4l-1.44 8.28h5.68q1.68 0 2.96-1.16 1.28-1.2 1.6-3 .32-1.76-.64-2.92-.96-1.2-2.76-1.2zm9.64 22.84 4.92-28h5.52l-4.92 28zm32.76-28-.92 5.28h-11.6l-1.08 6h10.64l-.96 5.16h-10.56l-1.12 6.28h11.8l-.92 5.28h-17.32l4.92-28zm9.08 28.56q-4.2 0-6.92-1.84-2.72-1.84-3.48-5.08l5-2.56q1.04 4.16 5.84 4.16 2.16 0 3.44-.76 1.28-.8 1.52-2.16.32-1.44-.8-2.28-1.08-.84-4.16-1.88-3.92-1.32-5.92-3.32-2-2.04-1.32-5.72.68-3.8 3.56-5.72 2.92-1.96 6.64-1.96 3.44 0 5.88 1.64 2.44 1.6 3.52 4.6l-4.84 2.56q-1.52-3.48-5-3.48-1.68 0-2.8.72-1.08.72-1.36 1.96-.32 1.4.76 2.28 1.08.88 4 1.92 2.16.8 2.4.92 1.92.8 3.24 1.96 2.56 2.28 1.84 6.28-.68 3.72-3.64 5.76-2.92 2-7.4 2z" transform="matrix(2.89291 0 0 2.71782 685.437 -1206.782)"/>
</svg>