<svg xmlns="http://www.w3.org/2000/svg" viewBox="0 0 141.911 37.79">
  <path stroke="#fff" d="M18.775 37.028 33.054 7.333l-4.549.126L39.498.636l6.445 6.57H41.52L27.241 37.28z"/>
  <path stroke="#fff" d="m5.887 13.146 8.971-.127 7.834 15.29h.127l-4.044 8.719h-1.054Z"/>
    <path d="M75.568 122.447q.961 0 1.21.113.31.14.31.676 0 .506-.373.663-.306.129-1.239.129-1.01 0-1.299-.221-.22-.169-.22-.736h.41q0 .39.173.486.172.1.94.1.752 0 .978-.072.22-.072.22-.35 0-.281-.164-.349-.17-.069-.946-.069-.948 0-1.274-.228-.25-.174-.25-.624 0-.487.302-.63.298-.142 1.222-.142.921 0 1.21.222.23.176.23.69h-.402q0-.353-.182-.445-.18-.093-.856-.093-.578 0-.711.017-.402.048-.402.381 0 .281.217.382.217.1.896.1zm5.03-1.21h.55l-1.628 1.65v1.1h-.413v-1.1l-1.625-1.65h.551l1.283 1.307zm2.517 1.21q.961 0 1.21.113.31.14.31.676 0 .506-.373.663-.307.129-1.24.129-1.008 0-1.298-.221-.22-.169-.22-.736h.41q0 .39.172.486.173.1.94.1.753 0 .979-.072.22-.072.22-.35 0-.281-.165-.349-.168-.069-.945-.069-.948 0-1.274-.228-.25-.174-.25-.624 0-.487.302-.63.297-.142 1.222-.142.92 0 1.21.222.23.176.23.69h-.402q0-.353-.182-.445-.18-.093-.856-.093-.578 0-.712.017-.401.048-.401.381 0 .281.217.382.217.1.896.1zm2.091-1.21h2.875v.37h-1.23v2.38h-.411v-2.38h-1.234zm3.354 0h2.633v.37H88.97v.8h2.146v.37H88.97v.84h2.223v.37h-2.634zm4.198 0 1.423 2.26 1.424-2.26h.73v2.75h-.405v-2.38h-.08l-1.54 2.38h-.257l-1.54-2.38h-.077v2.38h-.41v-2.75z" transform="matrix(1.01731 0 0 .98298 -75.237 -110.814)"/>
  <path d="m48.098 19.549-3.377 6.265h-.16l-3.375-6.265h-1.132L44 26.789h1.281l3.938-7.24zm3.165 7.239h-1.08v-7.24h1.08zm7.968-7.239q1.346 0 1.832.498.719.742.719 3.121 0 2.372-.719 3.111-.486.51-1.832.51h-6.074v-7.24zm-4.994 6.265h4.984q.868 0 1.176-.54.307-.54.307-2.106 0-1.576-.297-2.116-.307-.53-1.186-.53h-4.984zm9.684-6.265h6.932v.974h-5.852v2.105h5.65v.975h-5.65v2.211h5.852v.974h-6.932zm13.369 7.345q-2.256 0-3.155-.297-.9-.284-1.142-1.1-.17-.561-.17-2.318 0-1.788.16-2.318.242-.824 1.152-1.121.91-.297 3.155-.297 2.253 0 3.152.286.889.298 1.144 1.122.168.56.168 2.328 0 1.777-.157 2.307-.243.827-1.145 1.111-.899.297-3.162.297zm0-.974q2.496 0 2.94-.37.447-.371.447-2.371 0-2.01-.434-2.38-.445-.372-2.953-.372-2.51 0-2.943.372-.445.37-.445 2.38 0 1.99.445 2.361.444.38 2.943.38zm9.958-3.186q2.53 0 3.185.298.817.369.817 1.777 0 1.333-.984 1.747-.807.338-3.261.338-2.656 0-3.419-.581-.581-.444-.581-1.938h1.08q0 1.026.455 1.282.455.263 2.475.263 1.98 0 2.574-.191.58-.189.58-.92 0-.741-.433-.92-.445-.18-2.488-.18-2.496 0-3.354-.603-.656-.457-.656-1.64 0-1.282.793-1.662.783-.372 3.217-.372 2.423 0 3.185.584.605.465.605 1.82h-1.06q0-.931-.477-1.174-.476-.245-2.253-.245-1.522 0-1.874.044-1.056.126-1.056 1.005 0 .739.57 1.005.572.263 2.36.263zm13.239-3.185h1.45l-4.287 4.34v2.9h-1.088v-2.9l-4.276-4.34h1.45l3.377 3.441zm6.625 3.185q2.53 0 3.186.298.816.369.816 1.777 0 1.333-.984 1.747-.806.338-3.26.338-2.657 0-3.42-.581-.58-.444-.58-1.938h1.08q0 1.026.454 1.282.455.263 2.475.263 1.98 0 2.574-.191.581-.189.581-.92 0-.741-.434-.92-.444-.18-2.488-.18-2.496 0-3.354-.603-.656-.457-.656-1.64 0-1.282.793-1.662.783-.372 3.217-.372 2.424 0 3.186.584.604.465.604 1.82h-1.059q0-.931-.478-1.174-.475-.245-2.253-.245-1.522 0-1.873.044-1.057.126-1.057 1.005 0 .739.571 1.005.571.263 2.359.263zm5.503-3.185h7.568v.974h-3.24v6.265h-1.08v-6.265h-3.248zm8.827 0h6.932v.974h-5.852v2.105h5.65v.975h-5.65v2.211h5.852v.974h-6.932zm11.051 0 3.746 5.947 3.747-5.947h1.925v7.24h-1.067v-6.266h-.212l-4.054 6.265h-.677l-4.054-6.265h-.202v6.265h-1.08v-7.24z"/>
</svg>