<svg xmlns="http://www.w3.org/2000/svg" viewBox="0 0 100 26.629">
  <path stroke="#fff" d="M13.23 26.092 23.292 5.167l-3.206.09 7.747-4.81 4.541 4.63h-3.116L19.196 26.27Z" style="stroke-width:.704668"/>
  <path stroke="#fff" d="m4.148 9.264 6.322-.09 5.52 10.774h.09l-2.85 6.144h-.743z" style="stroke-width:.704668"/>
  <path d="M1.155 6.729q.689 0 .867.078.223.097.223.468 0 .35-.268.46-.22.089-.888.089-.724 0-.931-.153Q0 7.554 0 7.16h.294q0 .27.124.337.123.069.674.069.539 0 .7-.05.159-.05.159-.242 0-.195-.118-.242-.122-.048-.678-.048-.68 0-.913-.158-.18-.12-.18-.432 0-.337.217-.436.213-.099.876-.099.66 0 .867.154.165.122.165.478H1.9q0-.245-.13-.308-.13-.065-.614-.065-.414 0-.51.012-.288.033-.288.264 0 .195.156.265.155.069.642.069zM4.76 5.89h.394L3.988 7.034v.762h-.296v-.762L2.527 5.89h.395l.92.905Zm1.804.838q.689 0 .867.078.223.097.223.468 0 .35-.268.46-.22.089-.889.089-.722 0-.93-.153-.158-.117-.158-.51h.294q0 .27.123.337.124.069.674.069.54 0 .702-.05.158-.05.158-.242 0-.195-.119-.242-.12-.048-.677-.048-.68 0-.913-.158-.18-.12-.18-.432 0-.337.217-.436.213-.099.876-.099.66 0 .867.154.165.122.165.478H7.31q0-.245-.13-.308-.13-.065-.614-.065-.414 0-.51.012-.288.033-.288.264 0 .195.156.265.155.069.642.069zm1.499-.838h2.061v.256h-.882v1.649H8.95V6.147h-.885Zm2.404 0h1.888v.256h-1.594V6.7H12.3v.256h-1.539v.582h1.594v.257h-1.888zm3.01 0 1.02 1.565 1.02-1.565h.524v1.905h-.29V6.147h-.058L14.59 7.796h-.184l-1.104-1.649h-.055v1.649h-.294V5.89z" style="stroke-width:.704666"/>
  <path d="m33.893 13.776-2.38 4.414h-.112l-2.379-4.414h-.797l2.78 5.101h.903l2.775-5.101zm2.23 5.1h-.76v-5.101h.76zm5.615-5.1q.949 0 1.291.35.507.523.507 2.2 0 1.671-.507 2.192-.342.36-1.29.36h-4.281v-5.102Zm-3.52 4.414h3.513q.612 0 .829-.38.216-.38.216-1.484 0-1.11-.21-1.491-.216-.374-.835-.374h-3.512zm6.825-4.414h4.885v.686h-4.124v1.483h3.981v.687h-3.981v1.558h4.124v.687h-4.885zm9.42 5.175q-1.59 0-2.223-.209-.634-.2-.804-.775-.12-.395-.12-1.634 0-1.26.113-1.633.17-.58.811-.79.642-.21 2.224-.21 1.587 0 2.22.202.627.21.807.791.118.395.118 1.64 0 1.253-.11 1.626-.172.583-.807.783-.634.21-2.228.21zm0-.686q1.76 0 2.072-.26.315-.262.315-1.672 0-1.416-.305-1.677-.314-.262-2.081-.262-1.77 0-2.074.262-.314.261-.314 1.677 0 1.403.314 1.664.313.268 2.074.268zm7.018-2.245q1.783 0 2.244.21.576.26.576 1.252 0 .94-.694 1.231-.568.238-2.298.238-1.871 0-2.409-.41-.41-.312-.41-1.365h.762q0 .723.32.904.321.185 1.745.185 1.395 0 1.813-.135.41-.133.41-.648 0-.522-.306-.648-.314-.127-1.753-.127-1.76 0-2.364-.425-.462-.322-.462-1.156 0-.903.559-1.17.552-.263 2.267-.263 1.707 0 2.244.412.426.327.426 1.282h-.747q0-.656-.336-.827-.335-.173-1.587-.173-1.073 0-1.32.031-.745.089-.745.708 0 .521.402.709.403.185 1.663.185zm9.329-2.244h1.022l-3.021 3.058v2.043h-.767v-2.043l-3.013-3.058h1.022l2.38 2.424zm4.668 2.244q1.783 0 2.245.21.575.26.575 1.252 0 .94-.693 1.231-.568.238-2.297.238-1.873 0-2.41-.41-.409-.312-.409-1.365h.761q0 .723.32.904.32.185 1.744.185 1.395 0 1.814-.135.41-.133.41-.648 0-.522-.307-.648-.312-.127-1.753-.127-1.759 0-2.363-.425-.462-.322-.462-1.156 0-.903.558-1.17.552-.263 2.267-.263 1.708 0 2.245.412.426.327.426 1.282h-.746q0-.656-.337-.827-.335-.173-1.588-.173-1.072 0-1.32.031-.744.089-.744.708 0 .521.402.709.402.185 1.662.185zm3.878-2.244h5.333v.686h-2.283v4.415h-.761v-4.415h-2.289zm6.22 0h4.885v.686h-4.124v1.483h3.982v.687h-3.982v1.558h4.124v.687h-4.885zm7.787 0 2.64 4.19 2.64-4.19H100v5.101h-.752v-4.415h-.15l-2.856 4.415h-.477l-2.857-4.415h-.142v4.415h-.761v-5.102z" style="stroke-width:.704668"/>
</svg>