<svg xmlns="http://www.w3.org/2000/svg" viewBox="92.989 133.629 360 158.43">
  <g>
    <path fill="#fff" d="M270.359 242.702c6.61 6.419 15.622 10.387 25.563 10.387l157.067.018-33.922-101.198c-4.633-10.751-15.502-18.28-28.557-18.28-13 0-24.034 7.775-28.494 18.481l-11.308 32.965-.044-49.743-54.851-.028c-9.914 0-18.827 3.869-25.39 10.269l.018-10.224h-56.16c-10.461 0-19.975 4.46-26.629 11.47v-11.515l-52.932.046c-22.85-.02-41.594 17.843-41.622 41.459 0 10.933 4.779 20.848 11.825 28.195l-11.934-.02v48.105l53.33-.01c14.985-.018 29.834-9.059 34.995-19.891l.155-.445c5.962 12.043 18.406 20.346 32.809 20.346l56.08-.01V242.7"/>
    <g fill="#0060a8">
      <path d="m101.228 244.858 44.973-.045c18.4 0 33.31-14.866 33.31-33.183 0-18.353-14.91-33.22-33.31-33.22l-11.68.064c-.92 0-1.667-.755-1.667-1.683 0-.93.747-1.685 1.667-1.685l44.89.01.019-14.083h-44.92c-8.684 0-15.75 7.054-15.75 15.722 0 8.676 7.065 15.703 15.75 15.703l11.735.155c10.542 0 19.073 8.502 19.073 18.991 0 10.497-8.53 19.018-19.073 19.018h-45z"/>
      <path d="M101.246 227.315h45c8.712 0 15.759-7.027 15.759-15.712 0-8.676-7.047-15.695-15.759-15.695l-11.735-.127c-10.524 0-19.063-8.512-19.063-19.028 0-10.486 8.54-19 19.063-19l44.919-.01-.018-14.136H134.52c-18.38 0-33.31 14.848-33.31 33.183s14.93 33.192 33.31 33.192l11.616.018c.883 0 1.63.72 1.63 1.63 0 .893-.747 1.611-1.63 1.611l-44.909.036zm113.133 3.396c-7.803 0-14.194-6.218-14.194-14.157v-44.926c0-7.638 6.391-13.92 14.194-13.92l48.003.008v-14.109H214.38c-15.622 0-28.276 12.608-28.276 28.176v44.772c0 15.569 12.654 28.195 28.276 28.195l47.803.02-.01-14.075z"/>
      <path d="M203.627 171.783c0-5.953 4.789-10.778 10.752-10.778h48.003v14.128h-41.358c-3.313 0-3.359 3.287-3.359 3.287h34.504v14.065h-48.56zm10.752 55.506c-5.945 0-10.77-4.798-10.77-10.734v-20.72h48.559v14.094h-34.504c.046 3.313 3.359 3.33 3.359 3.33h41.158l-.01 14.01zm81.643 3.386c-7.775 0-14.129-6.336-14.129-14.121v-44.772c0-7.793 6.308-14.075 14.092-14.075h46.494v-14.1h-46.602c-15.615 0-28.269 12.608-28.269 28.176v44.772c0 15.569 12.763 28.195 28.377 28.195l46.494.02v-66.35h-39.957v14.065h25.836v38.19z"/>
      <path d="M285.206 216.554c0 5.965 4.825 10.817 10.779 10.817h29.04v-31.554h-22.468v14.112h8.339l.026 3.313h-8.301c-1.812 0-3.296-1.501-3.296-3.313l-.074-31.518s-.01-3.278 3.332-3.36h39.911l-.018-14.056-46.494.01c-5.953 0-10.778 4.825-10.778 10.778v44.771m100.963-55.76a4.6 4.6 0 0 1 4.342-3.085 4.584 4.584 0 0 1 4.342 3.086l22.57 66.675h-33.048l.036-15.685h11.044l-4.972-14.776-16.195 47.748h-16.66z"/>
      <path d="M421.971 230.675h-37.543v14.082h57.135l-29.715-87.914c-2.604-8.575-11.187-14.884-21.349-14.884-10.177 0-18.734 6.281-21.358 14.85l-29.986 87.95h14.958l29.114-85.493a7.841 7.841 0 0 1 7.247-4.825c3.259 0 6.062 1.994 7.255 4.807z"/>
    </g>
  </g>
  <path fill="#fff" d="M114.892 278.256h2.008l.436 3.04q.029.218.262.421.232.19.392.306.379.247.815.494.436.233.93.422.495.19 1.048.306.567.116 1.193.116 1.193 0 2.138-.247.96-.248 1.615-.713.654-.48 1.003-1.15.35-.668.35-1.497 0-1.28-.786-2.124-.771-.844-2.095-1.396-.654-.262-1.294-.495-.64-.233-1.266-.45-.625-.233-1.236-.452-.61-.218-1.193-.465-1.803-.756-2.85-2.11-1.033-1.352-1.033-3.257 0-1.266.567-2.328.567-1.076 1.542-1.847.989-.785 2.312-1.222 1.339-.436 2.866-.436.93 0 1.789.087.873.088 1.658.233.8.13 1.542.305l1.425.306v5.527h-1.992l-.437-2.894q-.029-.204-.261-.408-.233-.203-.408-.32-.232-.16-.538-.32-.29-.16-.669-.29-.378-.131-.844-.204-.465-.088-1.032-.088-1.091 0-1.95.233-.843.233-1.425.64-.582.393-.887.931-.306.538-.306 1.15 0 .552.146 1.076.145.523.494 1.003.35.466.946.873t1.498.742q.596.218 1.178.436.582.204 1.164.422.596.218 1.207.465.626.233 1.31.524.741.32 1.454.77.727.452 1.294 1.106.568.64.917 1.513.349.873.349 2.036 0 1.208-.48 2.342-.466 1.12-1.484 1.993-1.004.873-2.604 1.396-1.585.524-3.81.524-.786 0-1.644-.13-.858-.117-1.746-.306-.887-.19-1.789-.422-.901-.247-1.789-.48zm20.582-6.473q0-.291-.174-.437-.16-.145-.364-.232l-1.833-.786v-1.236l5.411-.727v9.992q0 1.033.116 1.848.131.8.48 1.352.364.553 1.033.844.67.276 1.76.276.495 0 1.018-.058.539-.073 1.048-.233.509-.174.96-.45.465-.291.814-.728v-9.425q0-.291-.174-.422-.16-.145-.393-.247l-1.818-.786v-1.236l5.425-.727v13.28q0 .29.16.436.175.13.393.233l1.818.785v1.237l-5.09.727v-2.647h-.219q-.684.887-1.367 1.41-.67.524-1.338.8-.67.277-1.324.364-.64.087-1.266.087-1.047 0-1.978-.305-.93-.306-1.614-.946-.684-.654-1.091-1.672-.393-1.018-.393-2.444zm18.24 19.098 1.92-.684q.247-.087.393-.218.16-.13.16-.422v-17.774q0-.291-.175-.437-.174-.145-.378-.232l-1.833-.786v-1.236l5.12-.727v2.661h.248q.64-.96 1.396-1.512.756-.568 1.484-.844.727-.29 1.367-.364.64-.072 1.062-.072 1.498 0 2.69.596 1.193.582 2.022 1.63.83 1.032 1.266 2.457.45 1.426.45 3.084 0 1.847-.523 3.476-.523 1.63-1.513 2.837-.989 1.207-2.414 1.92-1.426.698-3.215.698-.698 0-1.309-.13-.596-.132-1.105-.35-.495-.218-.902-.495-.393-.29-.698-.596v6.169q0 .29.174.421.175.146.393.218l2.327.713v1.178h-8.407zm5.513-8.727q.349.203.829.349.48.13.974.218.51.087.975.13.465.03.77.03 1.252 0 2.168-.45.931-.466 1.527-1.266.611-.8.902-1.862.306-1.077.306-2.284 0-1.367-.291-2.545-.277-1.193-.887-2.066-.597-.872-1.513-1.367-.917-.51-2.182-.51-.378 0-.858.088t-.975.291q-.48.19-.945.524-.466.334-.8.814zm29.702-1.411v1.862q-.582.45-1.339.901-.756.437-1.643.8-.887.35-1.877.568-.989.232-2.007.232-1.643 0-3.083-.538-1.426-.538-2.488-1.585-1.047-1.062-1.658-2.604-.61-1.556-.61-3.563 0-1.833.581-3.404.582-1.571 1.615-2.72 1.047-1.15 2.487-1.804 1.44-.654 3.156-.654 1.63 0 2.91.509 1.28.509 2.167 1.382.887.872 1.352 2.05.48 1.164.48 2.473 0 .146-.014.378 0 .219-.015.466-.014.247-.043.48-.03.233-.073.393h-11.433q0 3.2 1.513 4.8 1.513 1.585 4.218 1.585.844 0 1.63-.204.785-.203 1.468-.509.684-.305 1.251-.654.567-.35.96-.64zm-3.215-6.066q0-1.105-.204-1.963-.203-.873-.669-1.47-.45-.596-1.178-.901-.727-.32-1.774-.32-.902 0-1.673.305-.756.306-1.338.902-.582.596-.946 1.47-.363.857-.45 1.977zm6.706 8.903 1.832-.64q.233-.073.393-.219.16-.16.16-.45V272q0-.378-.218-.567-.218-.19-.378-.262l-1.935-.844v-1.236l5.338-.727v3.447h.19q.756-1.062 1.396-1.746.654-.698 1.236-1.105.596-.407 1.15-.567.552-.16 1.105-.16.334 0 .712.043.393.03.771.131.393.102.757.291.363.19.669.495v3.68h-2.08l-.422-1.077q-.073-.189-.233-.349-.16-.16-.378-.276-.218-.116-.465-.175-.248-.072-.495-.072-.655 0-1.193.247-.523.247-.974.625-.437.379-.815.815-.363.436-.698.829v8.83q0 .29.145.45.16.145.408.218l2.37.64v1.193h-8.348zm26.138-5.324h2.007l.436 3.04q.03.218.262.421.233.19.393.306.378.247.814.494.437.233.931.422.495.19 1.048.306.567.116 1.192.116 1.193 0 2.139-.247.96-.248 1.614-.713.655-.48 1.004-1.15.349-.668.349-1.497 0-1.28-.786-2.124-.77-.844-2.094-1.396-.655-.262-1.295-.495-.64-.233-1.265-.45-.626-.233-1.237-.452-.61-.218-1.192-.465-1.804-.756-2.851-2.11-1.033-1.352-1.033-3.257 0-1.266.567-2.328.568-1.076 1.542-1.847.99-.785 2.313-1.222 1.338-.436 2.865-.436.931 0 1.79.087.872.088 1.658.233.8.13 1.541.305l1.426.306v5.527h-1.993l-.436-2.894q-.03-.204-.262-.408-.233-.203-.407-.32-.233-.16-.538-.32-.291-.16-.67-.29-.378-.131-.843-.204-.466-.088-1.033-.088-1.09 0-1.949.233-.844.233-1.425.64-.582.393-.888.931-.305.538-.305 1.15 0 .552.145 1.076.146.523.495 1.003.349.466.945.873.597.407 1.498.742.597.218 1.179.436.581.204 1.163.422.597.218 1.208.465.625.233 1.309.524.741.32 1.454.77.727.452 1.295 1.106.567.64.916 1.513.35.873.35 2.036 0 1.208-.48 2.342-.466 1.12-1.484 1.993-1.004.873-2.604 1.396-1.586.524-3.811.524-.785 0-1.644-.13-.858-.117-1.745-.306-.887-.19-1.79-.422-.901-.247-1.788-.48zm32.727 2.385v1.847q-.567.451-1.236.917-.67.465-1.455.843-.785.378-1.687.611-.902.247-1.935.247-1.745 0-3.142-.596-1.396-.61-2.385-1.687-.975-1.091-1.498-2.604-.524-1.513-.524-3.345 0-1.295.35-2.43.348-1.148.96-2.094.61-.96 1.44-1.716.828-.771 1.774-1.295.96-.523 1.993-.8 1.032-.276 2.065-.276.858 0 1.585.145.728.131 1.31.335.596.189 1.032.393.437.203.728.334v3.142h-.742q-.597-.335-1.164-.713-.567-.378-1.207-.698-.626-.32-1.367-.524-.728-.218-1.659-.218-.261 0-.596.073-.335.058-.684.189-.334.116-.64.305-.305.175-.509.408-.262.276-.509.64-.247.349-.45.916-.19.553-.306 1.382-.117.829-.117 2.036 0 1.498.335 2.677.335 1.178.975 1.992.654.815 1.614 1.251.96.422 2.226.422.785 0 1.483-.218.713-.218 1.324-.524.625-.32 1.149-.683l.945-.684zm13.396 1.702q-.64.887-1.396 1.425-.742.538-1.498.83-.757.29-1.484.378-.713.101-1.294.101-1.135 0-2.022-.378-.873-.393-1.484-1.018-.596-.64-.916-1.455-.32-.829-.32-1.716 0-1.033.363-1.833.364-.814.96-1.425.611-.611 1.397-1.033.8-.436 1.658-.698.873-.276 1.745-.393.888-.13 1.659-.13.16 0 .523.028.364.03.757.073.407.044.756.087.349.044.509.059v-2.008q0-.858-.247-1.44-.233-.581-.655-.93-.422-.364-1.003-.51-.582-.16-1.266-.16-.742 0-1.513.277-.77.262-1.483.64-.698.363-1.31.77-.596.408-1.003.67h-.654v-3.011q.698-.233 1.381-.466.684-.232 1.44-.421.771-.19 1.63-.306.872-.116 1.949-.116 1.105 0 2.152.218 1.048.204 1.848.77.814.568 1.294 1.572.495 1.003.495 2.589v8.218q0 .291.13.538.131.233.335.408.204.174.466.276.261.087.509.087.174 0 .349-.043.174-.044.363-.117.19-.072.364-.16.189-.102.364-.189h.261v1.382q-.218.16-.581.378-.364.218-.8.422-.422.204-.859.349-.421.145-.77.145-.713 0-1.251-.174-.539-.175-.902-.51-.35-.348-.538-.857-.175-.51-.175-1.193zm-.087-5.571q-1.585 0-2.895.116-1.309.117-2.24.466-.93.334-1.454.974-.51.626-.51 1.673 0 .83.277 1.382.277.553.698.873.422.32.946.45.523.131 1.018.131t1.076-.101q.597-.102 1.164-.306.582-.218 1.076-.538.51-.32.844-.771zm7.709 6.808 2.371-.64q.247-.073.407-.219.16-.16.16-.45v-17.325q0-.29-.189-.436-.189-.16-.378-.233l-2.516-.93v-1.237h6.123v20.16q0 .291.175.451.189.16.393.218l2.341.64v1.193h-8.887zm26.298-2.837v1.862q-.582.45-1.338.901-.756.437-1.643.8-.888.35-1.877.568-.989.232-2.007.232-1.644 0-3.084-.538-1.425-.538-2.487-1.585-1.047-1.062-1.658-2.604-.611-1.556-.611-3.563 0-1.833.582-3.404.581-1.571 1.614-2.72 1.047-1.15 2.487-1.804 1.44-.654 3.157-.654 1.629 0 2.909.509 1.28.509 2.167 1.382.887.872 1.353 2.05.48 1.164.48 2.473 0 .146-.015.378 0 .219-.014.466-.015.247-.044.48-.029.233-.072.393h-11.433q0 3.2 1.513 4.8 1.512 1.585 4.218 1.585.843 0 1.629-.204.785-.203 1.469-.509.684-.305 1.25-.654.568-.35.96-.64zm-3.214-6.066q0-1.105-.204-1.963-.203-.873-.669-1.47-.45-.596-1.178-.901-.727-.32-1.775-.32-.901 0-1.672.305-.757.306-1.339.902-.581.596-.945 1.47-.364.857-.451 1.977zm6.705 8.903 1.833-.64q.233-.073.393-.219.16-.16.16-.45V272q0-.378-.218-.567-.219-.19-.379-.262l-1.934-.844v-1.236l5.338-.727v3.447h.19q.755-1.062 1.395-1.746.655-.698 1.237-1.105.596-.407 1.149-.567.553-.16 1.105-.16.335 0 .713.043.393.03.771.131.393.102.756.291.364.19.67.495v3.68h-2.08l-.422-1.077q-.073-.189-.233-.349-.16-.16-.378-.276-.218-.116-.466-.175-.247-.072-.494-.072-.655 0-1.193.247-.524.247-.975.625-.436.379-.814.815-.364.436-.698.829v8.83q0 .29.145.45.16.145.407.218l2.371.64v1.193h-8.349zm26.138-5.324h2.008l.436 3.04q.03.218.262.421.233.19.393.306.378.247.814.494.437.233.931.422.495.19 1.047.306.568.116 1.193.116 1.193 0 2.138-.247.96-.248 1.615-.713.654-.48 1.003-1.15.35-.668.35-1.497 0-1.28-.786-2.124-.77-.844-2.094-1.396-.655-.262-1.295-.495-.64-.233-1.265-.45-.626-.233-1.237-.452-.61-.218-1.193-.465-1.803-.756-2.85-2.11-1.033-1.352-1.033-3.257 0-1.266.567-2.328.567-1.076 1.542-1.847.989-.785 2.313-1.222 1.338-.436 2.865-.436.931 0 1.79.087.872.088 1.657.233.8.13 1.542.305l1.426.306v5.527h-1.993l-.436-2.894q-.03-.204-.262-.408-.233-.203-.408-.32-.232-.16-.538-.32-.29-.16-.669-.29-.378-.131-.843-.204-.466-.088-1.033-.088-1.091 0-1.95.233-.843.233-1.425.64-.582.393-.887.931-.305.538-.305 1.15 0 .552.145 1.076.145.523.495 1.003.349.466.945.873t1.498.742q.597.218 1.178.436.582.204 1.164.422.596.218 1.207.465.626.233 1.31.524.741.32 1.454.77.727.452 1.294 1.106.568.64.917 1.513.349.873.349 2.036 0 1.208-.48 2.342-.466 1.12-1.484 1.993-1.003.873-2.603 1.396-1.586.524-3.811.524-.786 0-1.644-.13-.858-.117-1.745-.306-.888-.19-1.79-.422-.901-.247-1.789-.48zm33.47 2.487v1.862q-.582.45-1.339.901-.756.437-1.643.8-.888.35-1.877.568-.989.232-2.007.232-1.644 0-3.084-.538-1.425-.538-2.487-1.585-1.047-1.062-1.658-2.604-.61-1.556-.61-3.563 0-1.833.58-3.404.583-1.571 1.615-2.72 1.048-1.15 2.488-1.804 1.44-.654 3.156-.654 1.63 0 2.91.509 1.28.509 2.166 1.382.888.872 1.353 2.05.48 1.164.48 2.473 0 .146-.014.378 0 .219-.015.466-.014.247-.043.48-.03.233-.073.393h-11.433q0 3.2 1.513 4.8 1.513 1.585 4.218 1.585.844 0 1.63-.204.785-.203 1.468-.509.684-.305 1.251-.654.567-.35.96-.64zm-3.215-6.066q0-1.105-.204-1.963-.203-.873-.669-1.47-.45-.596-1.178-.901-.727-.32-1.774-.32-.902 0-1.673.305-.757.306-1.338.902-.582.596-.946 1.47-.363.857-.45 1.977zm6.705 8.903 1.833-.64q.233-.073.393-.219.16-.16.16-.45V272q0-.378-.218-.567-.218-.19-.378-.262l-1.935-.844v-1.236l5.338-.727v3.447h.19q.756-1.062 1.396-1.746.654-.698 1.236-1.105.596-.407 1.15-.567.552-.16 1.105-.16.334 0 .712.043.393.03.771.131.393.102.757.291.363.19.669.495v3.68h-2.08l-.422-1.077q-.073-.189-.233-.349-.16-.16-.378-.276-.218-.116-.466-.175-.247-.072-.494-.072-.655 0-1.193.247-.523.247-.974.625-.437.379-.815.815-.364.436-.698.829v8.83q0 .29.145.45.16.145.408.218l2.37.64v1.193h-8.349zm19.971-17.804q-.436 0-.843-.131-.393-.131-.698-.364-.306-.247-.495-.596-.175-.364-.175-.83 0-.494.175-.858.19-.378.495-.625.305-.262.698-.378.407-.131.843-.131.524 0 .946.116.422.102.713.335.305.232.465.582.175.334.175.8 0 .494-.175.887-.175.378-.48.654-.305.262-.727.408-.422.13-.917.13zm-4.189 17.803 2.371-.64q.247-.072.407-.218.175-.16.175-.45v-10.314q0-.29-.175-.436-.16-.16-.392-.233l-2.357-.785v-1.237l5.964-.727v13.731q0 .291.175.451.174.16.378.218l2.37.64v1.193h-8.916zm26.298-2.836v1.862q-.581.45-1.338.901-.756.437-1.643.8-.888.35-1.877.568-.989.232-2.007.232-1.644 0-3.084-.538-1.425-.538-2.487-1.585-1.047-1.062-1.658-2.604-.611-1.556-.611-3.563 0-1.833.582-3.404t1.614-2.72q1.048-1.15 2.488-1.804 1.44-.654 3.156-.654 1.63 0 2.91.509 1.28.509 2.166 1.382.888.872 1.353 2.05.48 1.164.48 2.473 0 .146-.014.378 0 .219-.015.466-.015.247-.044.48-.029.233-.072.393h-11.433q0 3.2 1.513 4.8 1.512 1.585 4.218 1.585.843 0 1.629-.204.785-.203 1.469-.509.684-.305 1.25-.654.568-.35.96-.64zm-3.214-6.066q0-1.105-.204-1.963-.203-.873-.669-1.47-.45-.596-1.178-.901-.727-.32-1.775-.32-.901 0-1.672.305-.757.306-1.338.902-.582.596-.946 1.47-.364.857-.45 1.977zm7.229 5.731h2.022l.436 1.31q.088.276.218.465.146.174.335.29.305.175.654.306.35.131.728.233.378.087.785.145.407.044.815.044.61 0 1.265-.13.655-.146 1.193-.437.538-.306.873-.757.349-.45.349-1.076 0-.524-.16-.887-.16-.378-.466-.655-.305-.29-.77-.494-.452-.204-1.062-.379-.859-.247-1.702-.494-.844-.247-1.702-.495-.902-.261-1.571-.683-.67-.422-1.12-.975-.45-.567-.67-1.222-.217-.669-.217-1.41 0-1.048.567-1.935.567-.902 1.513-1.556.945-.655 2.182-1.019 1.236-.363 2.574-.363.698 0 1.31.058.625.044 1.192.145.567.088 1.105.219.539.13 1.106.29v3.724h-2.007l-.437-1.425q-.072-.219-.247-.379-.175-.174-.335-.261-.509-.248-1.105-.335-.596-.102-1.251-.102-.713 0-1.31.146-.595.13-1.032.392-.436.262-.683.655-.233.393-.233.902 0 .523.16.93.16.393.523.728.364.32.931.582.582.262 1.397.509.349.102.698.218l.698.204q.35.102.698.218l.698.204q.96.29 1.659.654.698.364 1.149.858.45.48.654 1.106.218.625.218 1.44 0 1.178-.61 2.152-.597.96-1.586 1.644-.974.684-2.24 1.062-1.25.364-2.545.364-.83 0-1.6-.102-.771-.088-1.484-.248-.698-.145-1.338-.334-.64-.19-1.222-.378z"/>
</svg>