<svg xmlns="http://www.w3.org/2000/svg" viewBox="92.989 133.629 36 15.843">
  <path fill="#fff" d="M110.726 144.536a3.658 3.658 0 0 0 2.556 1.039l15.707.002-3.392-10.12c-.463-1.075-1.55-1.828-2.856-1.828-1.3 0-2.403.778-2.85 1.848l-1.13 3.297-.004-4.975-5.486-.003c-.991 0-1.882.387-2.539 1.027l.002-1.022h-5.616a3.675 3.675 0 0 0-2.663 1.147v-1.152l-5.293.005c-2.285-.002-4.16 1.784-4.162 4.146 0 1.093.478 2.085 1.182 2.82l-1.193-.002v4.81l5.333-.001c1.498-.002 2.983-.906 3.5-1.99l.015-.044a3.658 3.658 0 0 0 3.28 2.035l5.609-.001v-1.038"/>
  <g fill="#0060a8">
    <path d="m93.813 144.752 4.497-.005a3.325 3.325 0 0 0 3.331-3.318 3.326 3.326 0 0 0-3.33-3.322l-1.169.007a.168.168 0 0 1-.167-.169c0-.093.075-.168.167-.168h4.49l.001-1.408h-4.492c-.868 0-1.575.706-1.575 1.573s.707 1.57 1.575 1.57l1.174.015c1.054 0 1.907.85 1.907 1.9 0 1.05-.853 1.901-1.907 1.901h-4.5z"/>
    <path d="M93.815 142.998h4.5a1.572 1.572 0 1 0 0-3.14l-1.174-.014a1.904 1.904 0 0 1-1.906-1.903c0-1.048.854-1.9 1.906-1.9h4.492l-.002-1.414h-4.489a3.325 3.325 0 0 0-3.33 3.318 3.326 3.326 0 0 0 3.33 3.32l1.162.001c.088 0 .163.072.163.163 0 .09-.075.161-.163.161l-4.491.004zm11.313.34c-.78 0-1.42-.623-1.42-1.416v-4.493c0-.764.64-1.392 1.42-1.392h4.8v-1.41h-4.8a2.822 2.822 0 0 0-2.827 2.817v4.478a2.823 2.823 0 0 0 2.827 2.82l4.78.001v-1.407z"/>
    <path d="M104.053 137.444c0-.595.479-1.077 1.075-1.077h4.8v1.412h-4.135c-.332 0-.336.33-.336.33h3.45v1.406h-4.856zm1.075 5.551c-.595 0-1.077-.48-1.077-1.073v-2.072h4.856v1.409h-3.45c.004.331.335.333.335.333h4.116v1.401zm8.164.339a1.415 1.415 0 0 1-1.413-1.412v-4.478c0-.779.631-1.407 1.41-1.407h4.649v-1.41h-4.66a2.822 2.822 0 0 0-2.827 2.817v4.478c0 1.557 1.276 2.82 2.838 2.82l4.649.001v-6.635h-3.996v1.407h2.584v3.819z"/>
    <path d="M112.21 141.921a1.08 1.08 0 0 0 1.079 1.082h2.904v-3.155h-2.247v1.411h.834l.002.331h-.83a.332.332 0 0 1-.33-.331l-.007-3.152s0-.328.333-.336h3.992l-.002-1.405h-4.65c-.595 0-1.077.483-1.077 1.078v4.478m10.096-5.576a.46.46 0 0 1 .434-.309.458.458 0 0 1 .434.309l2.257 6.667h-3.305l.004-1.568h1.104l-.497-1.478-1.62 4.775h-1.665z"/>
    <path d="M125.887 143.334h-3.754v1.408h5.713l-2.971-8.792c-.26-.857-1.119-1.488-2.135-1.488-1.018 0-1.873.628-2.136 1.485l-2.998 8.795h1.495l2.912-8.55a.784.784 0 0 1 .724-.482c.326 0 .607.2.726.48z"/>
  </g>
  <path fill="#fff" d="M95.18 148.092h.2l.044.304q.003.022.026.042.023.019.04.03.037.025.08.05.044.023.094.042.05.019.104.03.057.012.12.012.119 0 .213-.025.097-.024.162-.07.065-.049.1-.116t.035-.15q0-.128-.078-.212-.077-.084-.21-.14-.065-.026-.13-.049l-.126-.045-.123-.045q-.061-.022-.12-.047-.18-.075-.285-.21-.103-.136-.103-.326 0-.127.057-.233.056-.108.154-.185.099-.078.231-.122.134-.044.287-.044.093 0 .179.01.087.008.165.023.08.013.155.03l.142.03v.553h-.2l-.043-.289q-.003-.02-.026-.04-.023-.021-.04-.033-.024-.016-.055-.032-.028-.016-.066-.029-.038-.013-.085-.02-.046-.01-.103-.01-.11 0-.195.024-.084.023-.142.064-.059.04-.09.093-.03.054-.03.115 0 .055.015.108.014.052.05.1.034.047.094.087.06.041.15.075l.117.043q.059.02.117.042.06.022.12.047.063.023.132.052.074.032.145.077.073.046.13.11.056.065.091.152.035.088.035.204 0 .12-.048.234-.047.112-.149.2-.1.087-.26.139-.158.052-.38.052-.08 0-.165-.013-.086-.011-.175-.03-.089-.02-.179-.043l-.179-.048zm2.057-.648q0-.029-.017-.043-.016-.015-.036-.024L97 147.3v-.124l.541-.072v.999q0 .103.012.185.013.08.048.135.037.055.103.084.067.028.176.028.05 0 .102-.006.054-.007.105-.024.05-.017.096-.045.046-.029.081-.072v-.943q0-.029-.017-.042-.016-.015-.04-.025l-.181-.078v-.124l.542-.073v1.328q0 .03.016.044.018.013.04.023l.182.079v.123l-.51.073v-.264h-.021q-.069.088-.137.14-.067.053-.134.08-.067.028-.132.037-.064.009-.127.009-.105 0-.198-.03-.093-.031-.161-.095-.068-.066-.11-.167-.038-.102-.038-.245zm1.825 1.91.191-.068q.025-.01.04-.022.016-.013.016-.042v-1.778q0-.029-.018-.043-.017-.015-.038-.024l-.183-.078v-.124l.512-.072v.266h.025q.064-.096.14-.152.075-.056.148-.084.073-.029.137-.036.064-.007.106-.007.15 0 .269.06.12.057.202.162.083.103.127.246.045.143.045.308 0 .185-.053.348-.052.163-.15.284-.1.12-.242.192-.143.07-.322.07-.07 0-.13-.013-.06-.014-.111-.036-.05-.021-.09-.049-.04-.029-.07-.06v.617q0 .03.017.042.018.015.04.022l.232.072v.117h-.84zm.55-.873q.036.02.084.035.048.013.097.022.051.01.098.013.046.003.077.003.125 0 .216-.045.093-.046.153-.126.061-.08.09-.187.03-.107.03-.228 0-.137-.028-.255-.028-.119-.089-.206-.06-.087-.151-.137-.092-.05-.218-.05-.038 0-.086.008-.048.01-.098.03-.048.018-.094.052-.047.033-.08.081zm2.971-.14v.186q-.058.045-.134.09-.075.043-.164.08-.089.035-.188.057-.099.023-.2.023-.165 0-.309-.054-.142-.054-.249-.159-.104-.106-.166-.26-.06-.156-.06-.356 0-.184.058-.34.058-.158.161-.273.105-.115.249-.18.144-.065.315-.065.163 0 .291.05.128.051.217.139.089.087.135.205.048.116.048.247v.038l-.002.046q0 .025-.004.048-.003.024-.007.04h-1.143q0 .32.151.48.152.158.422.158.084 0 .163-.02t.147-.051q.068-.03.125-.066.057-.035.096-.064zm-.322-.607q0-.11-.02-.197-.02-.087-.067-.147-.045-.06-.118-.09-.072-.032-.177-.032-.09 0-.167.03-.076.031-.134.091-.058.06-.095.147-.036.086-.045.198zm.671.89.183-.064q.024-.007.04-.022.016-.016.016-.045v-1.027q0-.038-.022-.057-.022-.019-.038-.026l-.194-.084v-.124l.534-.072v.344h.02q.075-.106.139-.174.065-.07.123-.11.06-.042.115-.058.056-.016.111-.016.033 0 .071.004.04.003.077.014.04.01.076.029.036.019.067.05v.367h-.208l-.042-.108q-.007-.018-.024-.034-.016-.016-.037-.028-.022-.012-.047-.018-.025-.007-.05-.007-.065 0-.119.025-.052.025-.097.063-.044.038-.082.081l-.07.083v.883q0 .029.015.045.016.015.04.022l.238.064v.12h-.835zm2.614-.532h.2l.044.304q.003.022.026.042l.04.03q.037.025.081.05.044.023.093.042.05.019.105.03.057.012.12.012.119 0 .213-.025.096-.024.161-.07.066-.049.1-.116.036-.067.036-.15 0-.128-.079-.212-.077-.084-.21-.14-.065-.026-.129-.049l-.126-.045-.124-.045q-.06-.022-.12-.047-.18-.075-.284-.21-.104-.136-.104-.326 0-.127.057-.233.057-.108.154-.185.1-.078.232-.122.134-.044.286-.044.093 0 .18.01.086.008.165.023.08.013.154.03l.143.03v.553h-.2l-.043-.289q-.003-.02-.026-.04-.024-.021-.041-.033-.023-.016-.054-.032-.029-.016-.067-.029-.038-.013-.084-.02-.047-.01-.103-.01-.11 0-.195.024-.085.023-.143.064-.058.04-.089.093-.03.054-.03.115 0 .055.014.108.015.052.05.1.035.047.094.087.06.041.15.075l.118.043.116.042q.06.022.121.047.063.023.131.052.074.032.145.077.073.045.13.11.057.065.091.152.035.087.035.204 0 .12-.048.234-.046.112-.148.2-.1.087-.26.139-.159.052-.381.052-.079 0-.165-.013-.086-.011-.174-.03-.089-.02-.18-.043l-.178-.048zm3.273.238v.185q-.057.045-.124.092-.067.046-.145.084-.079.038-.17.061-.09.025-.193.025-.174 0-.314-.06t-.238-.169q-.098-.109-.15-.26-.053-.151-.053-.335 0-.129.035-.242.035-.115.096-.21.061-.096.144-.171.083-.078.178-.13.096-.052.2-.08.102-.028.206-.028.085 0 .158.015.073.013.131.033.06.02.103.04l.073.033v.314h-.074q-.06-.033-.117-.071-.056-.038-.12-.07-.063-.032-.137-.052-.073-.022-.166-.022-.026 0-.06.007-.033.006-.068.019-.033.011-.064.03-.03.018-.05.041-.027.028-.052.064-.024.035-.045.092-.019.055-.03.138-.012.083-.012.204 0 .15.034.267.033.118.097.2.066.081.162.125.095.042.222.042.079 0 .148-.022.072-.022.133-.052.062-.032.115-.069l.094-.068zm1.34.17q-.065.09-.14.143-.075.054-.15.083-.076.029-.149.038-.07.01-.129.01-.114 0-.202-.038-.088-.04-.149-.102-.06-.064-.091-.145-.032-.083-.032-.172 0-.103.036-.183.036-.082.096-.143.061-.06.14-.103.08-.044.166-.07.087-.027.174-.04.089-.012.166-.012l.052.003.076.007.076.009.05.006v-.2q0-.087-.024-.145-.024-.058-.066-.093-.042-.036-.1-.05-.058-.017-.127-.017-.074 0-.15.028-.078.026-.15.064-.069.036-.13.077l-.1.067h-.066v-.301l.138-.047q.069-.023.144-.042.077-.019.163-.03.087-.012.195-.012.11 0 .215.022.105.02.185.077.081.056.13.157.049.1.049.259v.822q0 .029.013.053.013.024.033.041.02.018.047.028.026.009.051.009.017 0 .035-.004.017-.004.036-.012.02-.007.037-.016l.036-.019h.026v.138q-.022.016-.058.038-.036.022-.08.042-.042.02-.086.035-.042.015-.077.015-.071 0-.125-.018-.054-.017-.09-.05-.035-.035-.054-.086-.018-.051-.018-.12zm-.01-.557q-.158 0-.29.012-.13.012-.223.046t-.146.098q-.05.062-.05.167 0 .083.027.138.028.056.07.088.042.032.094.045.053.013.102.013.05 0 .108-.01.06-.01.116-.03.058-.023.108-.055.05-.032.084-.077zm.771.681.237-.064q.025-.007.04-.022.017-.016.017-.045v-1.732q0-.03-.019-.044-.019-.016-.038-.023l-.251-.093v-.124h.612v2.016q0 .03.017.045.02.016.04.022l.234.064v.12h-.889zm2.63-.284v.187q-.058.045-.134.09-.075.043-.164.08-.089.035-.188.057-.099.023-.2.023-.165 0-.309-.054-.143-.054-.249-.159-.104-.106-.166-.26-.06-.156-.06-.356 0-.184.058-.34.058-.158.161-.273.105-.115.249-.18.144-.065.315-.065.163 0 .291.05.128.051.217.139.089.087.135.205.048.116.048.247v.038l-.002.046q0 .025-.004.048-.003.024-.007.04h-1.143q0 .32.151.48.151.158.422.158.084 0 .163-.02.078-.02.147-.051.068-.03.125-.066.057-.035.096-.064zm-.322-.606q0-.11-.02-.197-.02-.087-.067-.147-.045-.06-.118-.09-.072-.032-.177-.032-.09 0-.167.03-.076.031-.134.091-.058.06-.095.147-.036.086-.045.198zm.671.89.183-.064q.024-.007.04-.022.016-.016.016-.045v-1.027q0-.038-.022-.057-.022-.019-.038-.026l-.193-.084v-.124l.533-.072v.344h.02q.075-.106.139-.174.065-.07.124-.11.06-.042.114-.058.056-.016.11-.016.034 0 .072.004.04.003.077.014.04.01.076.029.036.019.067.05v.367h-.208l-.042-.108q-.007-.018-.024-.034-.016-.016-.037-.028-.022-.012-.047-.018-.025-.007-.05-.007-.065 0-.119.025-.052.025-.097.063-.044.038-.082.081l-.07.083v.883q0 .029.015.045.016.015.04.022l.238.064v.12h-.835zm2.614-.532h.2l.044.304q.003.022.026.042l.04.03q.038.025.081.05.044.023.093.042.05.019.105.03.057.012.12.012.119 0 .213-.025.096-.024.162-.07.065-.049.1-.116t.035-.15q0-.128-.079-.212-.077-.084-.21-.14-.065-.026-.129-.049l-.126-.045-.124-.045q-.06-.022-.12-.047-.18-.075-.284-.21-.103-.136-.103-.326 0-.127.056-.233.057-.108.154-.185.1-.078.232-.122.134-.044.286-.044.093 0 .18.01.086.008.165.023.08.013.154.03l.143.03v.553h-.2l-.043-.289q-.003-.02-.026-.04-.024-.021-.041-.033-.023-.016-.054-.032-.029-.016-.067-.029-.038-.013-.084-.02-.047-.01-.103-.01-.11 0-.195.024-.085.023-.143.064-.058.04-.089.093-.03.054-.03.115 0 .055.014.108.015.052.05.1.035.047.094.087.06.041.15.075l.118.043.116.042q.06.022.121.047.063.023.131.052.074.032.145.077.073.045.13.11.057.065.092.152.034.087.034.204 0 .12-.048.234-.046.112-.148.2-.1.087-.26.139-.159.052-.381.052-.079 0-.165-.013-.086-.011-.174-.03-.09-.02-.18-.043l-.178-.048zm3.347.248v.187q-.058.045-.134.09-.076.043-.164.08-.09.035-.188.057-.099.023-.2.023-.165 0-.31-.054-.142-.054-.248-.159-.105-.106-.166-.26-.06-.156-.06-.356 0-.184.057-.34.059-.158.162-.273.105-.115.249-.18.144-.065.315-.065.163 0 .291.05.128.051.217.139.089.087.135.205.048.116.048.247v.038l-.002.046q0 .025-.004.048-.003.024-.007.04h-1.143q0 .32.151.48.151.158.422.158.084 0 .163-.02.078-.02.147-.051.068-.03.125-.066.056-.035.096-.064zm-.322-.606q0-.11-.02-.196-.02-.088-.067-.147-.045-.06-.118-.09-.073-.033-.177-.033-.09 0-.168.03-.075.032-.133.091-.059.06-.095.147-.036.086-.045.198zm.67.89.184-.064q.023-.007.04-.022.015-.016.015-.045v-1.027q0-.038-.021-.057-.022-.019-.038-.026l-.194-.084v-.124l.534-.072v.344h.02q.075-.106.139-.174.065-.07.123-.11.06-.042.115-.058.055-.016.11-.016.034 0 .072.004.04.003.077.014.04.01.076.029.036.019.067.05v.367h-.208l-.042-.108q-.007-.018-.024-.034-.016-.016-.038-.028-.021-.012-.046-.018-.025-.007-.05-.007-.065 0-.119.025-.052.025-.097.063-.044.038-.082.081l-.07.083v.883q0 .029.015.045.016.015.04.022l.238.064v.12h-.835zm1.998-1.78q-.044 0-.084-.013-.04-.013-.07-.037-.03-.024-.05-.06-.017-.036-.017-.082 0-.05.017-.086.02-.038.05-.063.03-.026.07-.037.04-.014.084-.014.052 0 .094.012.043.01.072.034.03.023.046.058.018.033.018.08 0 .05-.018.088-.017.038-.048.066-.03.026-.072.04-.043.014-.092.014zm-.419 1.78.237-.064q.025-.007.04-.022.018-.016.018-.045v-1.031q0-.03-.017-.044-.016-.016-.04-.023l-.235-.079v-.123l.596-.073v1.373q0 .03.018.045.017.016.038.022l.237.064v.12h-.892zm2.63-.284v.187q-.058.045-.134.09-.076.043-.164.08-.09.035-.188.057-.099.023-.2.023-.165 0-.31-.054-.142-.054-.248-.159-.104-.106-.166-.26-.06-.156-.06-.356 0-.184.058-.34.058-.158.16-.273.106-.115.25-.18.144-.065.315-.065.163 0 .291.05.128.051.217.139.089.087.135.205.048.116.048.247v.038q0 .022-.003.046 0 .025-.004.048-.003.024-.007.04h-1.143q0 .32.151.48.151.158.422.158.084 0 .163-.02.078-.02.147-.051.068-.03.125-.066.057-.035.096-.064zm-.322-.606q0-.11-.02-.196-.02-.088-.067-.147-.045-.06-.118-.09-.072-.033-.177-.033-.09 0-.167.03-.076.032-.134.091-.058.06-.095.147-.036.086-.045.198zm.723.573h.203l.043.13q.01.029.022.047.015.018.033.03.03.017.066.03.035.013.073.023.037.01.078.015.04.004.082.004.06 0 .126-.013.066-.015.12-.044.053-.03.087-.076.035-.045.035-.107 0-.053-.016-.089-.016-.038-.047-.065-.03-.03-.077-.05-.045-.02-.106-.038-.086-.024-.17-.05l-.17-.049q-.09-.026-.158-.068-.067-.042-.112-.097-.045-.057-.067-.123-.021-.066-.021-.14 0-.105.056-.194.057-.09.152-.156.094-.065.218-.102.123-.036.257-.036.07 0 .131.006.063.004.12.015.056.009.11.022t.11.029v.372h-.2l-.044-.143q-.007-.021-.025-.037-.017-.018-.033-.027-.051-.024-.11-.033-.06-.01-.126-.01-.071 0-.13.014-.06.013-.104.04-.043.026-.068.065-.023.04-.023.09 0 .053.016.093t.052.073q.036.032.093.058.058.026.14.051l.07.022.07.02.069.022.07.02q.096.03.166.066.07.036.115.086.045.048.065.11.022.063.022.144 0 .118-.061.216-.06.096-.159.164-.097.068-.224.106-.125.037-.254.037-.083 0-.16-.01t-.149-.025q-.07-.015-.133-.034l-.123-.038z"/>
</svg>