<svg xmlns="http://www.w3.org/2000/svg" viewBox="92.989 133.629 36.353 15.177">
  <g fill="#fff">
    <path d="m92.99 144.62 4.804-.005a3.551 3.551 0 0 0 3.558-3.544 3.552 3.552 0 0 0-3.558-3.549l-1.247.007a.18.18 0 0 1-.178-.18c0-.099.08-.18.178-.18l4.795.001.002-1.504h-4.798c-.928 0-1.682.754-1.682 1.68a1.68 1.68 0 0 0 1.682 1.677l1.253.016c1.126 0 2.037.908 2.037 2.029a2.034 2.034 0 0 1-2.037 2.031h-4.806z"/>
    <path d="M92.993 142.746h4.806a1.679 1.679 0 1 0 0-3.355l-1.253-.013a2.034 2.034 0 0 1-2.036-2.033c0-1.12.912-2.029 2.036-2.029l4.798-.001-.002-1.51h-4.795a3.552 3.552 0 0 0-3.558 3.544 3.552 3.552 0 0 0 3.558 3.546l1.24.001c.095 0 .175.077.175.175 0 .095-.08.172-.174.172l-4.797.003zm12.084.363a1.508 1.508 0 0 1-1.517-1.513v-4.798c0-.816.683-1.487 1.517-1.487l5.127.001v-1.507h-5.127a3.014 3.014 0 0 0-3.02 3.01v4.782a3.016 3.016 0 0 0 3.02 3.011l5.105.002v-1.503z"/>
    <path d="M103.928 136.814c0-.635.512-1.15 1.149-1.15h5.127v1.508h-4.418c-.354 0-.358.351-.358.351h3.685v1.503h-5.187zm1.149 5.93c-.635 0-1.15-.513-1.15-1.147v-2.214h5.186v1.506h-3.686c.005.354.36.356.36.356h4.395v1.496zm8.72.36c-.83 0-1.51-.676-1.51-1.508v-4.782c0-.832.674-1.503 1.506-1.503h4.966v-1.506h-4.978a3.014 3.014 0 0 0-3.02 3.01v4.782c0 1.663 1.364 3.011 3.032 3.011l4.966.002v-7.087h-4.268v1.503h2.76v4.079z"/>
    <path d="M112.642 141.596c0 .638.515 1.156 1.15 1.156h3.103v-3.37h-2.4v1.507h.89l.003.354h-.886a.355.355 0 0 1-.352-.354l-.008-3.367s-.001-.35.356-.358h4.262l-.001-1.502-4.966.001c-.636 0-1.152.516-1.152 1.151v4.782m10.784-5.955a.491.491 0 0 1 .464-.33.49.49 0 0 1 .464.33l2.41 7.121h-3.53l.004-1.675h1.18l-.531-1.578-1.73 5.1h-1.78z"/>
    <path d="M127.25 143.105h-4.01v1.504h6.102l-3.174-9.39c-.278-.916-1.195-1.59-2.28-1.59-1.087 0-2.001.67-2.281 1.586l-3.203 9.394H120l3.11-9.131a.837.837 0 0 1 .774-.516c.348 0 .648.213.775.514z"/>
  </g>
  <path fill="#fff" d="M94.45 147.332h.215l.046.325q.003.023.028.045l.042.033q.04.026.087.053.047.024.1.045.053.02.112.032.06.013.127.013.128 0 .228-.027.103-.026.173-.076.07-.051.107-.123.037-.071.037-.16 0-.136-.084-.226-.082-.09-.223-.15-.07-.028-.138-.052l-.136-.049-.132-.048q-.065-.023-.127-.05-.193-.08-.305-.225-.11-.144-.11-.348 0-.135.06-.248.061-.115.165-.198.106-.084.247-.13.143-.047.306-.047.1 0 .192.01.093.008.177.024.085.014.164.033l.153.032v.59h-.213l-.047-.308q-.003-.022-.028-.044t-.043-.034q-.025-.017-.058-.034-.03-.018-.071-.031-.04-.014-.09-.022-.05-.01-.11-.01-.117 0-.21.026-.09.025-.151.068-.063.042-.095.1-.033.057-.033.122 0 .06.016.115.015.056.053.107.037.05.1.094.064.043.16.079l.127.046.124.046q.064.023.129.05.067.024.14.055.079.034.155.083.078.048.138.118.06.068.098.161.037.094.037.218 0 .129-.05.25-.05.12-.16.213-.107.093-.278.149-.169.056-.406.056-.084 0-.176-.014-.092-.013-.187-.033-.094-.02-.19-.045l-.192-.051zm2.199-.691q0-.031-.019-.047-.017-.015-.039-.025l-.196-.083v-.132l.578-.078v1.067q0 .11.013.197.014.086.051.145.039.059.11.09.072.03.188.03.053 0 .11-.007.057-.008.111-.024.054-.019.103-.049.05-.03.087-.077v-1.007q0-.031-.019-.045-.017-.016-.042-.027l-.194-.083v-.132l.58-.078v1.418q0 .031.016.047.02.014.042.025l.195.084v.132l-.544.077v-.282h-.024q-.073.094-.146.15-.071.056-.142.086-.072.03-.142.039-.068.009-.135.009-.112 0-.211-.033-.1-.033-.173-.101-.073-.07-.116-.179-.042-.108-.042-.26zm1.948 2.04.205-.073q.026-.01.042-.024.017-.013.017-.045v-1.898q0-.031-.019-.047-.018-.015-.04-.025l-.196-.083v-.133l.547-.077v.284h.027q.068-.103.149-.162.08-.06.158-.09t.146-.038q.069-.009.114-.009.16 0 .287.064.127.062.216.174.089.11.135.263.048.152.048.33 0 .196-.056.37-.056.175-.161.303-.106.13-.258.205-.152.075-.343.075-.075 0-.14-.014-.064-.014-.118-.037-.053-.024-.097-.053-.042-.031-.074-.064v.659q0 .031.018.045.02.016.042.023l.249.076v.126h-.898zm.589-.932q.037.021.088.037.052.014.104.023.055.01.104.014.05.003.083.003.133 0 .231-.048.1-.05.163-.135.066-.086.097-.199.032-.115.032-.244 0-.146-.03-.272-.03-.127-.096-.22-.063-.094-.161-.146-.098-.055-.233-.055-.04 0-.092.009-.051.009-.104.031-.051.02-.1.056-.05.036-.086.087zm3.172-.151v.199q-.062.048-.143.096-.08.047-.175.086-.095.037-.2.06-.106.025-.215.025-.176 0-.33-.057-.152-.058-.265-.17-.112-.113-.177-.278-.065-.166-.065-.38 0-.196.062-.364.062-.168.172-.29.112-.123.266-.193.154-.07.337-.07.174 0 .31.054.137.055.232.148t.145.219q.05.124.05.264v.04l-.002.05q-.001.027-.005.052-.003.024-.008.042h-1.221q0 .341.161.512.162.17.45.17.09 0 .175-.022.084-.022.157-.055.073-.032.133-.07.06-.037.103-.068zm-.343-.648q0-.118-.022-.21-.022-.093-.071-.157-.049-.063-.126-.096-.078-.034-.19-.034-.096 0-.178.033-.081.032-.143.096-.063.064-.101.157-.04.091-.048.211zm.716.951.196-.068q.025-.008.042-.024.017-.017.017-.048v-1.097q0-.04-.023-.06-.024-.02-.04-.029l-.207-.09v-.132l.57-.077v.368h.02q.08-.114.15-.187.069-.074.131-.118.064-.043.123-.06t.118-.017q.036 0 .076.005.042.003.082.014.042.01.081.03.039.021.072.054v.393h-.223l-.045-.115q-.008-.02-.025-.038-.017-.017-.04-.03-.023-.012-.05-.018-.026-.008-.053-.008-.07 0-.127.027-.056.026-.104.066-.047.04-.087.087l-.075.089v.943q0 .031.016.048.017.016.043.023l.254.069v.127h-.892zm2.792-.569h.214l.047.325q.003.023.028.045l.042.033q.04.026.087.053.046.024.1.045.052.02.111.032.06.013.127.013.128 0 .229-.027.102-.026.172-.076.07-.051.108-.123.037-.071.037-.16 0-.136-.084-.226-.082-.09-.224-.15-.07-.028-.138-.052l-.135-.049-.132-.048q-.066-.023-.128-.05-.192-.08-.304-.225-.11-.144-.11-.348 0-.135.06-.248.06-.115.165-.198.105-.084.247-.13.143-.047.306-.047.1 0 .191.01.093.008.177.024.085.014.165.033l.152.032v.59h-.213l-.046-.308q-.003-.022-.028-.044t-.044-.034q-.025-.017-.057-.034-.032-.018-.072-.031-.04-.014-.09-.022-.05-.01-.11-.01-.117 0-.209.026-.09.025-.152.068-.062.042-.095.1-.032.057-.032.122 0 .06.015.115.016.056.053.107.037.05.101.094.064.043.16.079l.126.046.124.046q.064.023.13.05.066.024.139.055.08.034.155.083.078.048.139.118.06.068.097.161.038.094.038.218 0 .129-.051.25-.05.12-.159.213-.107.093-.278.149-.17.056-.407.056-.084 0-.176-.014-.091-.013-.186-.033-.095-.02-.191-.045l-.191-.051zm3.495.255v.197q-.06.049-.132.098-.071.05-.155.09-.084.04-.18.066-.096.026-.207.026-.186 0-.335-.064-.15-.065-.255-.18-.104-.116-.16-.278-.056-.162-.056-.357 0-.139.037-.26.037-.122.103-.224.065-.102.154-.183.088-.082.19-.138.102-.056.212-.086.11-.029.22-.029.092 0 .17.015.078.014.14.036.063.02.11.042l.078.036v.336h-.08q-.063-.036-.124-.077-.06-.04-.129-.074-.067-.034-.146-.056-.078-.024-.177-.024-.028 0-.064.008-.035.006-.073.02-.035.013-.068.033-.033.019-.055.044-.028.03-.054.068-.026.038-.048.098-.02.06-.033.148-.012.088-.012.217 0 .16.036.286.035.126.104.213.07.087.172.133.103.046.238.046.084 0 .158-.024.076-.023.142-.056.066-.034.122-.073l.101-.073zm1.431.182q-.068.095-.149.152-.08.058-.16.089-.08.03-.158.04-.076.011-.139.011-.12 0-.216-.04-.093-.042-.158-.11-.064-.068-.098-.155-.034-.088-.034-.183 0-.11.039-.196.039-.087.102-.152.066-.065.15-.11.085-.047.177-.075.093-.03.186-.042.095-.014.177-.014l.056.003.08.008.082.01.054.005v-.214q0-.092-.026-.154-.025-.062-.07-.1-.045-.038-.108-.054-.062-.017-.135-.017-.079 0-.161.03-.083.028-.159.068-.074.039-.14.082-.063.044-.107.072h-.07v-.322l.148-.05q.073-.024.154-.044.082-.02.174-.033.093-.013.208-.013.118 0 .23.024.112.022.197.082.087.06.138.168.053.107.053.276v.878q0 .031.014.058.014.025.036.043.022.019.05.03.028.009.054.009.019 0 .037-.005.019-.005.04-.013l.038-.017.039-.02h.028v.148q-.023.017-.062.04-.04.023-.086.045-.045.022-.091.037-.045.016-.083.016-.076 0-.133-.019-.058-.018-.096-.054-.038-.037-.058-.092-.019-.054-.019-.127zm-.009-.595q-.169 0-.309.012-.14.013-.24.05-.098.036-.154.104-.055.067-.055.179 0 .088.03.147.03.06.074.094.045.034.101.048.056.014.109.014t.115-.011q.064-.011.124-.033.062-.023.115-.057.055-.035.09-.083zm.824.727.253-.068q.026-.008.043-.024.018-.017.018-.048v-1.85q0-.031-.02-.047-.02-.017-.041-.025l-.269-.1v-.131h.654v2.153q0 .031.019.048.02.017.042.024l.25.068v.127h-.95zm2.809-.303v.199q-.063.048-.143.096-.081.047-.176.086-.095.037-.2.06-.106.025-.215.025-.175 0-.33-.057-.151-.058-.265-.17-.112-.113-.177-.278-.065-.166-.065-.38 0-.196.062-.364.062-.168.172-.29.112-.123.266-.193.154-.07.337-.07.174 0 .311.054.137.055.231.148.095.093.145.219.051.124.051.264l-.002.04v.05l-.006.052q-.003.024-.008.042h-1.22q0 .341.16.512.162.17.451.17.09 0 .174-.022.084-.022.157-.055.073-.032.134-.07.06-.037.102-.068zm-.344-.648q0-.118-.022-.21-.021-.093-.071-.157-.048-.063-.126-.096-.077-.034-.19-.034-.096 0-.178.033-.08.032-.143.096-.062.064-.101.157-.039.091-.048.211zm.716.951.196-.068q.025-.008.042-.024.017-.017.017-.048v-1.097q0-.04-.023-.06-.023-.02-.04-.029l-.207-.09v-.132l.57-.077v.368h.02q.081-.114.15-.187.07-.074.132-.118.063-.043.122-.06.06-.017.118-.017.036 0 .076.005.042.003.083.014.042.01.08.03.04.021.072.054v.393h-.222l-.045-.115q-.008-.02-.025-.038-.017-.017-.04-.03-.024-.012-.05-.018-.027-.008-.053-.008-.07 0-.127.027-.056.026-.105.066-.046.04-.086.087l-.075.089v.943q0 .031.015.048.018.016.044.023l.253.069v.127h-.892zm2.792-.569h.215l.046.325q.003.023.028.045l.042.033q.04.026.087.053.047.024.1.045.053.02.111.032.061.013.128.013.127 0 .228-.027.103-.026.173-.076.07-.051.107-.123.037-.071.037-.16 0-.136-.084-.226-.082-.09-.223-.15-.07-.028-.139-.052l-.135-.049-.132-.048q-.065-.023-.127-.05-.193-.08-.305-.225-.11-.144-.11-.348 0-.135.06-.248.061-.115.165-.198.106-.084.247-.13.143-.047.306-.047.1 0 .191.01.094.008.177.024.086.014.165.033l.152.032v.59h-.212l-.047-.308q-.003-.022-.028-.044t-.044-.034q-.024-.017-.057-.034-.031-.018-.072-.031-.04-.014-.09-.022-.05-.01-.11-.01-.116 0-.208.026-.09.025-.152.068-.063.042-.095.1-.033.057-.033.122 0 .06.016.115.015.056.053.107.037.05.1.094.064.043.16.079l.126.046q.063.022.125.046.064.023.129.05.067.024.14.055.079.034.155.083.078.048.138.118.06.068.098.161.037.094.037.218 0 .129-.05.25-.05.12-.16.213-.107.093-.277.149-.17.056-.408.056-.084 0-.175-.014-.092-.013-.186-.033-.095-.02-.192-.045l-.19-.051zm3.575.266v.199q-.062.048-.143.096-.08.047-.175.086-.095.037-.2.06-.106.025-.215.025-.176 0-.33-.057-.152-.058-.265-.17-.112-.113-.177-.278-.066-.166-.066-.38 0-.196.062-.364.063-.168.173-.29.112-.123.266-.193.153-.07.337-.07.174 0 .31.054.137.055.232.148t.144.219q.052.124.052.264l-.001.04-.002.05q-.001.027-.005.052-.003.024-.008.042h-1.221q0 .341.161.512.162.17.45.17.09 0 .175-.022.084-.022.157-.055.073-.032.133-.07.06-.037.103-.068zm-.343-.648q0-.118-.022-.21-.022-.093-.072-.157-.048-.063-.125-.096-.078-.034-.19-.034-.096 0-.179.033-.08.032-.142.096-.063.064-.101.157-.04.091-.049.211zm.716.951.196-.068q.025-.008.042-.024.017-.017.017-.048v-1.097q0-.04-.023-.06-.024-.02-.04-.029l-.208-.09v-.132l.57-.077v.368h.02q.082-.114.15-.187.07-.074.132-.118.064-.043.123-.06t.118-.017q.036 0 .076.005.042.003.082.014.042.01.081.03.039.021.072.054v.393h-.223l-.045-.115q-.008-.02-.025-.038-.017-.017-.04-.03-.023-.012-.05-.018-.026-.008-.053-.008-.07 0-.127.027-.056.026-.104.066-.047.04-.087.087l-.075.089v.943q0 .031.016.048.017.016.043.023l.253.069v.127h-.891zm2.133-1.902q-.047 0-.09-.014-.042-.014-.074-.039-.033-.026-.053-.063-.02-.04-.02-.089 0-.053.02-.092.02-.04.053-.066.032-.028.074-.04.044-.015.09-.015.056 0 .101.013.045.01.076.035.033.025.05.063.019.035.019.085 0 .053-.019.095-.019.04-.051.07-.033.028-.078.043-.045.014-.098.014zm-.447 1.902.253-.068q.026-.008.043-.024.019-.017.019-.048v-1.102q0-.03-.019-.046-.017-.017-.042-.025l-.251-.084v-.132l.637-.078v1.467q0 .031.018.048.019.017.04.023l.254.069v.127h-.952zm2.808-.303v.199q-.062.048-.142.096-.081.047-.176.086-.095.037-.2.06-.106.025-.215.025-.175 0-.33-.057-.151-.058-.265-.17-.112-.113-.177-.278-.065-.166-.065-.38 0-.196.062-.364.062-.168.172-.29.112-.123.266-.193.154-.07.337-.07.174 0 .311.054.137.055.231.148.095.093.145.219.051.124.051.264v.04q0 .024-.003.05l-.005.052q-.003.024-.008.042h-1.221q0 .341.162.512.161.17.45.17.09 0 .174-.022.084-.022.157-.055.073-.032.134-.07.06-.037.102-.068zm-.343-.648q0-.118-.022-.21-.021-.093-.071-.157-.048-.063-.126-.096-.078-.034-.19-.034-.096 0-.178.033-.081.032-.143.096-.062.064-.101.157-.039.091-.048.211zm.772.612h.216l.047.14q.009.03.023.05.016.018.036.03.033.02.07.034.037.014.078.024.04.01.084.016.043.005.087.005.065 0 .135-.014.07-.016.127-.047.058-.032.093-.08.038-.049.038-.115 0-.056-.017-.095-.017-.04-.05-.07-.033-.031-.082-.053t-.114-.04l-.182-.053-.181-.053q-.097-.028-.168-.073-.072-.045-.12-.104-.048-.06-.071-.13-.024-.072-.024-.151 0-.112.061-.207.06-.096.162-.166.1-.07.233-.11.132-.038.275-.038.074 0 .14.006.066.005.127.016.06.009.118.023l.118.031v.398h-.214l-.047-.152q-.008-.024-.027-.04-.018-.02-.035-.029-.055-.026-.118-.036-.064-.01-.134-.01-.076 0-.14.015-.063.014-.11.042-.047.028-.073.07-.025.042-.025.096 0 .056.017.1.017.042.056.077.039.035.1.063.062.028.149.054.037.01.074.023l.075.022.074.023.075.022q.102.031.177.07.075.039.123.092.048.051.07.118.023.067.023.154 0 .125-.065.23-.064.102-.17.175-.104.073-.239.114-.133.038-.272.038-.088 0-.17-.01-.083-.01-.159-.027-.075-.015-.143-.036l-.13-.04z"/>
</svg>