<svg xmlns="http://www.w3.org/2000/svg" xmlns:xlink="http://www.w3.org/1999/xlink" xml:space="preserve" viewBox=".25 0 253.14752 109.20615">
  <defs>
    <path id="b" fill="#999" d="M-97.531229 462.27982v17.33254h.44938c1.42382 0 65.29578 1.19519 65.29578 28.3863v234.20521c0 15.72617-29.12165 28.3863-65.29578 28.3863h-.44938v17.33003h195.89486v-17.33003h-.44937c-36.17413 0-65.29578-12.66013-65.29578-28.3863V507.99866c0-27.19111 63.87198-28.3863 65.29578-28.3863h.44937v-17.33254h-195.89486z" overflow="visible" style="isolation:auto;mix-blend-mode:normal;solid-color:#000;solid-opacity:1"/>
  </defs>
  <defs>
    <linearGradient id="a">
      <stop offset="0" stop-color="#009ee0"/>
      <stop offset=".51050597" stop-color="#0078bd"/>
      <stop offset="1" stop-color="#003f86"/>
    </linearGradient>
    <linearGradient xlink:href="#a" id="c" x1="254.86465" x2="254.86465" y1="462.59793" y2="790.39484" gradientTransform="translate(-253.11758 -3.555022)" gradientUnits="userSpaceOnUse"/>
    <linearGradient xlink:href="#a" id="d" x1="254.86465" x2="254.86465" y1="462.59793" y2="790.39484" gradientTransform="translate(-253.11758 -3.555022)" gradientUnits="userSpaceOnUse"/>
    <linearGradient xlink:href="#a" id="e" x1="254.86465" x2="254.86465" y1="462.59793" y2="790.39484" gradientTransform="translate(-253.11758 -3.555022)" gradientUnits="userSpaceOnUse"/>
  </defs>
  <g fill-rule="evenodd" color="#000">
    <use xlink:href="#b" overflow="visible" style="isolation:auto;mix-blend-mode:normal;solid-color:#000;solid-opacity:1" transform="translate(94.05138581 -153.30976019) scale(.33318)"/>
    <path fill="url(#c)" d="M-97.531229 460.14682v17.33254h.44938c1.42382 0 65.29578 1.19519 65.29578 28.3863v234.20521c0 15.72617-29.12165 28.3863-65.29578 28.3863h-.44938v17.33003h195.89486v-17.33003h-.44937c-36.17413 0-65.29578-12.66013-65.29578-28.3863V505.86566c0-27.19111 63.87198-28.3863 65.29578-28.3863h.44937v-17.33254h-195.89486z" overflow="visible" style="isolation:auto;mix-blend-mode:normal;solid-color:#000;solid-opacity:1" transform="translate(94.05138581 -153.30976019) scale(.33318)"/>
    <use xlink:href="#b" overflow="visible" style="isolation:auto;mix-blend-mode:normal;solid-color:#000;solid-opacity:1" transform="translate(159.31880259 -153.30976019) scale(.33318)"/>
    <path fill="url(#d)" d="M-97.531229 460.14682v17.33254h.44938c1.42382 0 65.29578 1.19519 65.29578 28.3863v234.20521c0 15.72617-29.12165 28.3863-65.29578 28.3863h-.44938v17.33003h195.89486v-17.33003h-.44937c-36.17413 0-65.29578-12.66013-65.29578-28.3863V505.86566c0-27.19111 63.87198-28.3863 65.29578-28.3863h.44937v-17.33254h-195.89486z" overflow="visible" style="isolation:auto;mix-blend-mode:normal;solid-color:#000;solid-opacity:1" transform="translate(159.31880259 -153.30976019) scale(.33318)"/>
    <g transform="translate(94.05138581 -153.30976019) scale(.33318)">
      <use xlink:href="#b" overflow="visible" style="isolation:auto;mix-blend-mode:normal;solid-color:#000;solid-opacity:1"/>
      <path fill="url(#e)" d="M-97.531229 460.14682v17.33254h.44938c1.42382 0 65.29578 1.19519 65.29578 28.3863v234.20521c0 15.72617-29.12165 28.3863-65.29578 28.3863h-.44938v17.33003h195.89486v-17.33003h-.44937c-36.17413 0-65.29578-12.66013-65.29578-28.3863V505.86566c0-27.19111 63.87198-28.3863 65.29578-28.3863h.44937v-17.33254h-195.89486z" overflow="visible" style="isolation:auto;mix-blend-mode:normal;solid-color:#000;solid-opacity:1"/>
    </g>
  </g>
  <g transform="translate(333.26015926 77.16681787) scale(.33318)">
    <rect width="643.28125" height="61.67963" x="-941.24268" y="-23.599487" fill="#0c4da1" fill-rule="evenodd" color="#000" overflow="visible" rx="28.617928" ry="28.617928" style="isolation:auto;mix-blend-mode:normal;solid-color:#000;solid-opacity:1"/>
    <path fill="#fff" d="M298.40912 705.64587q0 1.84067-.64424 3.60772-.64424 1.74864-1.84067 2.94508-1.6382 1.61979-3.66295 2.44809-2.00633.82831-5.00663.82831h-4.39921v8.92727h-7.06819V696.9947h11.63306q2.61376 0 4.39921.46016 1.80386.44177 3.18437 1.3437 1.65661 1.08599 2.52172 2.77942.88353 1.69342.88353 4.06789zm-7.30748.16566q0-1.15963-.62583-1.98793-.62583-.84671-1.45413-1.17803-1.10441-.44177-2.15359-.47858-1.04919-.0552-2.79783-.0552h-1.21484v8.20941h2.02474q1.80386 0 2.96349-.22088 1.17803-.22088 1.96952-.88353.68105-.58901.97555-1.39891.31292-.8283.31292-2.00633zm39.09557 18.59081h-19.76884V696.9947h7.06819v22.10649h12.70065v5.30115zm37.55241 0h-7.30748l-2.34027-5.54043h-13.90292l-2.47358 5.54043h-7.12341l12.50594-27.40764h8.13578zm-11.75952-10.56547-4.90634-9.8292-4.86191 9.8292zm46.36347-16.84217-10.54968 16.80535v10.60229h-7.06819v-10.27097l-10.80422-17.13667h8.02534l6.46022 10.60228 6.16888-10.60228zm50.22337 18.2963c0 2.69965-1.14735 4.89619-3.44206 6.58961-2.28243 1.68115-5.38704 2.52173-9.31381 2.52173-2.27017 0-4.25196-.19634-5.94538-.58902-1.68115-.40495-3.25799-.9142-4.73053-1.52776l2.27038-5.29517c.88841.50772 2.4065 1.06705 3.3989 1.41135 1.81613.62583 3.55863.93874 5.22751.93874.42949 0 .99397-.0368 1.69342-.11044.69946-.0736 1.27007-.19634 1.71183-.36813.53993-.22089.98169-.49699 1.32528-.82831.35587-.33132.5338-.82217.5338-1.47254 0-.60129-.25769-1.11667-.77308-1.54616-.50312-.44177-1.24553-.77922-2.22722-1.01237-1.03078-.24543-2.12291-.47244-3.2764-.68105-1.14122-.22089-2.21495-.49699-3.22118-.82831-2.30698-.74854-3.96972-1.76091-4.98823-3.03711-1.00623-1.28847-1.50935-2.88372-1.50935-4.78575 0-2.55241 1.14122-4.63237 3.42365-6.23989 2.29471-1.61979 5.23979-2.42969 8.83524-2.42969 1.80386 0 3.58318.17793 5.33796.5338 1.76705.34359 3.29481.77921 4.58328 1.30687l-2.97936 4.89983c-.57247-.28959-1.18687-.55463-1.84321-.79512-1.59525-.60129-3.22732-.90193-4.89619-.90193-.58902 0-1.17804.043-1.76705.12885-.57675.0736-1.13509.22088-1.67502.44176-.47857.18407-.88966.4663-1.23325.84671-.34359.36813-.51539.79149-.51539 1.27006 0 .724.2761 1.28234.82831 1.67502.5522.38041 1.59525.73013 3.12914 1.04918 1.00624.20861 1.96953.41109 2.88986.60742.93261.19634 1.93271.46631 3.0003.8099 2.09837.68719 3.64453 1.62593 4.6385 2.81623 1.00623 1.17803 1.50935 2.71193 1.50935 4.60169zm99.94286-12.99516h-8.55913v22.1065h-7.06819v-22.1065h-8.55914v-5.30114h24.18646v5.30114zm30.04946 22.1065H561.4883V696.9947h21.08096v5.30114h-14.04958v4.73054h13.12924v5.30114h-13.12924v6.77368h14.04958zm47.14053 0h-7.40845l-.62845-13.21-7.65102 13.20424h-4.87779l-7.65102-13.20424-.62845 13.21h-7.04031l1.00552-27.40764h6.88967l10.05676 18.94033 10.03835-18.94033h6.88967zm-140.6308-27.40764-10.54968 16.80535v10.60229h-7.06819v-10.27097L460.6569 696.9947h8.02534l6.46022 10.60228 6.16888-10.60228zm30.11313 18.2963c0 2.69965-1.14735 4.89619-3.44206 6.58961-2.28243 1.68115-5.38704 2.52173-9.31381 2.52173-2.27017 0-4.25196-.19634-5.94538-.58902-1.68115-.40495-3.25799-.9142-4.73053-1.52776l2.27038-5.29517c.88841.50772 2.4065 1.06705 3.3989 1.41135 1.81613.62583 3.55863.93874 5.22751.93874.42949 0 .99397-.0368 1.69342-.11044.69946-.0736 1.27007-.19634 1.71183-.36813.53993-.22089.98169-.49699 1.32528-.82831.35587-.33132.5338-.82217.5338-1.47254 0-.60129-.25769-1.11667-.77308-1.54616-.50312-.44177-1.24553-.77922-2.22722-1.01237-1.03078-.24543-2.12291-.47244-3.2764-.68105-1.14122-.22089-2.21495-.49699-3.22118-.82831-2.30698-.74854-3.96972-1.76091-4.98823-3.03711-1.00623-1.28847-1.50935-2.88372-1.50935-4.78575 0-2.55241 1.14122-4.63237 3.42365-6.23989 2.29471-1.61979 5.23979-2.42969 8.83524-2.42969 1.80386 0 3.58318.17793 5.33796.5338 1.76705.34359 3.29481.77921 4.58328 1.30687l-2.97936 4.89983c-.57247-.28959-1.18687-.55463-1.84321-.79512-1.59525-.60129-3.22732-.90193-4.89619-.90193-.58902 0-1.17804.043-1.76705.12885-.57675.0736-1.13509.22088-1.67502.44176-.47857.18407-.88966.4663-1.23325.84671-.34359.36813-.51539.79149-.51539 1.27006 0 .724.2761 1.28234.82831 1.67502.5522.38041 1.59525.73013 3.12914 1.04918 1.00624.20861 1.96953.41109 2.88986.60742.93261.19634 1.93271.46631 3.0003.8099 2.09837.68719 3.64453 1.62593 4.6385 2.81623 1.00623 1.17803 1.50935 2.71193 1.50935 4.60169z" transform="translate(-1072.3506 -702.96121)"/>
  </g>
  <g fill-rule="evenodd" clip-rule="evenodd">
    <path fill="#0c4da1" d="M45.00438717 30.69913595 33.03581801 43.34086339l-7.90490117-5.41939343s2.60083986-2.48197942.22830868-4.28962111c-1.85000833-1.40986984-7.0399203 1.58050579-6.81513994 7.45181547.26361532 6.77277331 4.44849264 10.6093054 9.0711629 10.6093054 4.29314944 0 5.42056953-3.46111299 5.42056953-3.46111299h9.61840073v7.98022222L56.1762265 20.53821848h15.46734432l12.41929931 32.06327819s.9026464 1.68996069 1.80528615 2.14186695c0 0 .05182215-21.0326654.05182215-21.62344264 0-.58842503-.07763994-1.23922721-.44602904-1.66171739-.60607667-.69786992-1.63817518-.987373-1.63817518-.987373v-9.93261211h21.67405204c11.2424526 0 14.12573554 3.04803835 17.38560703 8.9193447 4.50027482-6.05960062 10.69639754-10.049127 19.53100898-10.049127 9.08881788 0 15.52030594 3.3504953 19.1932554 8.91817525 5.12989035-6.13257278 13.38666843-8.9746652 20.94204825-8.9746652 9.28534493 0 17.03961402 4.50027148 21.0526726 11.45899017V20.53821848h20.8832061l2.20070911 5.58532828 1.63935796-5.58532828h21.56224825v9.70665899s-1.24392499.34128525-1.58756579.90146696c-.33422858.55312172-.27538308 2.31839679-.27538308 2.31839679l3.00802728 19.18735818c.1259171.62373832.34834524 1.27571329.88616753 1.75351063.62373165.55782617 1.46635311.4530857 1.46635311.4530857v11.06004221h-21.67404537v-8.35445855h-12.41695708v8.37681797h-20.37715544v-5.4452845s-7.4471077 6.55034517-17.04550123 6.55034517c-12.28395999 0-20.4913181-9.0299757-20.4913181-9.0299757v7.90137617h-14.4470136c-12.85944113 0-23.89829335-7.0363853-26.98164833-19.86876256-1.46164535 1.39809873-7.90725007 5.999579-15.63681084 7.73308577-.6013689.13533932-.90146696.36010968-.90146696 1.01209464 0 1.18861448 2.53964547 1.6122841 2.53964547 1.6122841v9.51012527H26.71852594C12.04084812 65.91905112.24998457 55.87196315.24998457 43.11608304c0-12.7570529 9.19237757-23.59584641 24.43141154-23.59584641 14.56469793 0 20.32302771 11.17889932 20.32302771 11.17889932z"/>
    <path fill="#ffca08" d="m39.30137122 30.89685243-6.37617422 6.6856845s-.33893303.17064263-.6202.17064263c-.28362252 0-.6802216-.28362252-.6802216-.28362252l-.78848706-.6743344s-.22713258-.0553005-.22713258-.28362251c0-.22241814.6213761-.79083929.6213761-1.86294887 0-1.07329236-.22478034-5.53237333-7.11053022-5.53237333-6.88574988 0-9.93379156 6.43500974-9.93379156 11.74143326 0 5.3064202 3.2716426 15.01425196 13.99980843 15.01425196 6.23848602 0 7.5600876-3.50230683 7.5600876-3.50230683h2.1442225v9.1464806H26.15124758c-13.99745955 0-21.78820771-10.95293952-21.78820771-18.85431236 0-12.11567958 10.53516346-18.83902294 20.09471869-18.83902294 9.25710495.00099953 14.84361266 7.07405081 14.84361266 7.07405081zm19.75813822-6.06784339h9.65134515l11.74144326 30.7063733c.3365808.84380424.90146696 1.63935796 1.46517034 2.31251957.56254393.6778594 1.91826937 1.13212454 1.91826937 1.13212454v2.64909038H69.6723465V58.9200115s.90028419.1165049 1.35337988-.67551383c.45073348-.79084928.45073348-1.41104261.11415268-2.20070912-.33893303-.79202206-2.71499254-7.05521639-2.71499254-7.05521639H56.8564481s-2.36899952 6.32085706-2.59731153 6.88457377c-.22595313.56371337-.22595313 1.46870533 0 2.03123594.37541577.9391358 1.69466513 1.07682735 1.69466513 1.07682735v2.64909038H44.60661198v-2.64909038s1.0320985-.35541523 1.80646558-1.13213453c.84615313-.84615645 1.12742343-1.75114841 1.12742343-1.75114841l11.51900845-31.26891724zm-.2847953 18.4000539h7.45298826l-3.8377082-10.7234614-3.61528006 10.7234614zm29.57659433-18.4000539h18.06348309c6.66096619 0 13.31958682 2.36782008 13.31958682 10.04441257 0 7.6766025-4.85450727 10.38806337-9.0299757 12.30750219-4.8215562 2.21483577-11.17536433 3.95186753-11.17536433 3.95186753v5.86777136s.05648995.39659575.62020332 1.06975736c.56605894.67786605 1.18626226.848512 1.18626226.848512v2.70910533H88.23950802V58.978857s.78966984-.1718254 1.35691488-.73553877c.56253393-.56488616.67785939-1.24275554.67785939-1.24275554V30.47201004s.05182215-1.12977898-.39659576-1.57933301c-.45073348-.45544792-1.52519528-1.07328903-1.52519528-1.07328903v-2.99037896h-.00099953zm11.28953033 5.5300211v15.69093857s10.61047817-4.40141157 10.61047817-10.61047817c0-7.67659582-10.61047817-5.0804604-10.61047817-5.0804604zm59.21204416.60254501-6.37852978 6.6856845s-.33893636.16946985-.62137944.16946985c-.28008752 0-.67551383-.28244308-.67551383-.28244308l-.79201873-.67904882s-.22477035-.0529183-.22477035-.2777353c0-.22712592.61902388-.79554374.61902388-1.86294888 0-1.0744618-.22242813-5.5335561-7.11053689-5.5335561-6.88809876 0-9.93496434 6.43267084-9.93496434 11.74026381 0 5.3028852 3.27399148 15.01425196 14.00098455 15.01425196 6.23848601 0 7.56126037-3.50112738 7.56126037-3.50112738h2.14658139v9.14412838H145.6992243c-13.9962801 0-21.78820804-10.94941453-21.78820804-18.85196681 0-12.11449015 10.53399435-18.84019572 20.09472236-18.84019572 9.25828106 0 14.84714433 7.0752236 14.84714433 7.0752236zm22.86149041 31.72670738c-12.19451896 0-20.9585238-8.9040486-20.9585238-19.73931045 0-10.84231852 8.9911374-19.23915036 20.9585238-19.23915036 11.9626886 0 20.95382268 8.39683184 20.95382268 19.23915036 0 10.8340824-8.76518095 19.73931045-20.95382268 19.73931045zm-10.84113908-19.5721995c0 10.83761408 5.53237332 13.5467294 10.84113908 13.5467294 5.30171575 0 10.94942119-3.3869747 10.94942119-13.5467294 0-10.15856524-6.32203983-13.5467194-10.9494212-13.5467194-4.62972691 0-10.84113907 2.70675311-10.84113907 13.5467194zm37.25319349-18.26353513h13.43610172l4.85450727 14.99071643 5.19108474-15.01425529h14.05277338v2.19952968s-.93442803.39542297-1.34984822.90382918c-.50840287.6213761-.50840287 1.07210958-.39660575 1.97828098.11298323.90028752 3.72473496 25.39878034 3.83888764 26.30259952.11415267.90382251.22478035 1.41104594.45073348 2.03242205.2236009.61549888 1.29924549 1.1262473 1.29924549 1.1262473v2.27720628h-13.49259167v-2.44549667s1.18508948-.1682904 1.582868-.73552878c.39542298-.56488616.56253061-.90381919.45073349-1.80528615-.11298323-.90264973-3.32812921-21.44927502-3.32812921-21.44927502l-5.87130968 18.17527355h-7.11170634l-5.81599584-17.04902623-2.93388901 20.0958918s-.11415268 1.20626946.33893303 1.86413164c.62019666.90381919 1.75233119.90381919 1.75233119.90381919v2.42548947h-11.6884783V59.0365164s.93089304-.14357876 1.60757965-.93559749c.6766866-.78731429.79083928-1.80646892.79083928-1.80646892l4.26373003-26.500306s.25537588-.98973522-.02818667-1.43928925c-.2977425-.4754518-1.89237495-.8744031-1.89237495-.8744031v-2.62790373h-.00099953z"/>
  </g>
</svg>