<svg xmlns="http://www.w3.org/2000/svg" viewBox="0 0 500 168.313">
  <defs>
    <clipPath id="a" clipPathUnits="userSpaceOnUse">
      <path d="M250.8 172.44h46.02v49.62H250.8v-49.62z"/>
    </clipPath>
  </defs>
  <path fill="#fff" d="M4.04 52.536V74.72h39.714v84.224h25.61V74.72h39.852V52.536H4.04"/>
  <path fill="none" stroke="#fff" stroke-width="8.082" d="M4.04 52.536V74.72h39.714v84.224h25.61V74.72h39.852V52.536H4.04z"/>
  <path fill="#fff" d="M247.26 52.536V74.72h39.851v84.224h25.61V74.72h39.715V52.536H247.259"/>
  <path fill="none" stroke="#fff" stroke-width="8.082" d="M247.26 52.536V74.72h39.851v84.224h25.61V74.72h39.715V52.536H247.259z"/>
  <path fill="#fff" d="M214.255 158.945h24.924V52.535h-24.924v106.41z"/>
  <path fill="none" stroke="#fff" stroke-width="8.082" d="M239.18 52.536h-24.925v106.409h24.924V52.535zm-24.925 0z"/>
  <path fill="#fff" d="M417.075 49.25c-35.606 0-64.64 26.156-64.64 57.791 0 31.772 29.034 57.245 64.64 57.245 35.744 0 64.777-25.473 64.777-57.245 0-31.635-29.033-57.792-64.777-57.792zm0 94.22c-20.816 0-37.66-16.16-37.66-36.429 0-20.816 16.844-36.976 37.66-36.976 20.953 0 37.798 16.16 37.798 36.976 0 20.269-16.845 36.428-37.798 36.428"/>
  <path fill="none" stroke="#fff" stroke-width="8.082" d="M417.075 49.25c-35.606 0-64.64 26.156-64.64 57.791 0 31.772 29.034 57.245 64.64 57.245 35.744 0 64.777-25.473 64.777-57.245 0-31.635-29.033-57.792-64.777-57.792zm0 94.22c-20.816 0-37.66-16.16-37.66-36.429 0-20.816 16.844-36.976 37.66-36.976 20.953 0 37.798 16.16 37.798 36.976 0 20.269-16.845 36.428-37.798 36.428z"/>
  <path fill="#fff" d="M165.775 74.037c-15.475 20.953-24.924 47.932-24.24 83.538v1.37h70.666"/>
  <g clip-path="url(#a)" transform="matrix(2.28247 0 0 -2.28247 -448.3 564.174)">
    <path fill="none" stroke="#fff" stroke-width="3.541" d="M269.04 214.74c-6.78-9.18-10.92-21-10.62-36.6v-.6h30.96l-20.34 37.2z"/>
  </g>
  <path fill="#fff" d="m160.982 65.957-14.79-27.527-66.694 120.515h35.743c2.74-33.005 20.817-68.611 45.741-92.988"/>
  <path fill="none" stroke="#fff" stroke-width="8.082" d="m160.982 65.957-14.79-27.527-66.694 120.515h35.743c2.74-33.005 20.817-68.611 45.741-92.988z"/>
  <path fill="#fff" d="M225.759 4.056c-10.82 0-18.9 8.765-18.9 19.584 0 10.682 8.08 19.446 18.9 19.446 10.818 0 19.583-8.764 19.583-19.446 0-10.82-8.765-19.584-19.583-19.584"/>
  <path fill="none" stroke="#fff" stroke-width="8.082" d="M225.759 4.056c-10.82 0-18.9 8.765-18.9 19.584 0 10.682 8.08 19.446 18.9 19.446 10.818 0 19.583-8.764 19.583-19.446 0-10.82-8.765-19.584-19.583-19.584z"/>
  <path fill="#fff" stroke="#fff" stroke-width="8.082" d="M196.04 42.402c-12.05 4.793-24.239 13.558-35.058 23.555l4.793 8.08c8.765-12.052 19.584-21.501 31.635-28.896l-1.37-2.74z"/>
  <path fill="#333" d="M4.04 52.536V74.72h39.714v84.224h25.61V74.72h39.852V52.536H4.04m243.22 0V74.72h39.851v84.224h25.61V74.72h39.715V52.536H247.259m-33.004 106.409h24.924V52.535h-24.924ZM417.075 49.25c-35.606 0-64.64 26.156-64.64 57.791 0 31.772 29.034 57.245 64.64 57.245 35.744 0 64.777-25.473 64.777-57.245 0-31.635-29.033-57.792-64.777-57.792zm0 94.22c-20.816 0-37.66-16.16-37.66-36.429 0-20.816 16.844-36.976 37.66-36.976 20.953 0 37.798 16.16 37.798 36.976 0 20.269-16.845 36.428-37.798 36.428"/>
  <path fill="#0860a8" d="M165.775 74.037c-15.475 20.953-24.924 47.932-24.24 83.538v1.37h70.666m-51.219-92.988-14.79-27.527-66.694 120.515h35.743c2.74-33.005 20.817-68.611 45.741-92.988m64.777-61.901c-10.82 0-18.9 8.765-18.9 19.584 0 10.682 8.08 19.446 18.9 19.446 10.818 0 19.583-8.764 19.583-19.446 0-10.82-8.765-19.584-19.583-19.584"/>
  <path fill="#0860a8" d="M196.04 42.402c-12.05 4.793-24.239 13.558-35.058 23.555l4.793 8.08c8.765-12.052 19.584-21.501 31.635-28.896"/>
</svg>