<svg xmlns="http://www.w3.org/2000/svg" viewBox="0 0 131.812 27.964">
  <path d="m380.922 117.7-74.889 13.393-5.138-63.658-55.367 51.077-52.545-68.196-9.325 82.598-88.691-22.79 40.194 89.9-55.737 29.708 69.432 37.062-33.732 72.668 92.931-46.308 13.994 59.493 47.1-58.29 76.746 37.78-26.924-81.588 16.963-69.634z" style="fill:#ffffff;" transform="translate(.001 .003) scale(.0652)"/>
  <path fill="#ffffff" d="M14.713 16.44h7.583l2.458 7.693-6.781-3.456-4.042 5.02-1.298-4.704-7.113 3.27 2.347-6.324-5.281-3 4.433-2.347L4.15 5.486l6.781 1.565.848-6.39 4.433 5.151 4.5-3.847.26 4.237h6.716V.335H12.3C8.81.139-.07 4.435.341 14.924c.123 3.108 2.753 11.76 12.937 12.491l14.41-.088V11.55s-12.94.03-12.941.032l-.034 4.857z"/>
  <path fill="#ffffff" d="M415.904 17.084v87.232h26.37c35.98 2.19 43.516-22.887 44.956-33.68 1.67-12.5-6.577-43.587-44.957-39.505V17.084h-26.369zm33.073 33.988c8.838 0 13.764 7.093 13.964 15.987-.04 12.724-8.966 19.615-20.699 15.771V52.271c2.447-.82 4.695-1.199 6.735-1.199z"  transform="scale(.2646)"/>
  <path fill="#ffffff" d="M375.459 33.053c-20.575 1.313-34.836 13.87-35.729 35.271-.705 20.705 17.279 36.19 35.24 35.944h35.483l-.015-18.237-35.467-.246c-5.218.12-9.906-1.58-11.389-10.35h47.625c4.305-23.142-13.71-42.382-35.748-42.382zm.316 17.865c5.534.136 11.045 3.926 13.24 10.965h-26.613c2.285-7.583 7.84-11.101 13.373-10.965z" transform="scale(.2646)"/>
  <path fill="#ffffff" d="M81.934 8.876h6.585v18.712h-6.585zm0-4.108h6.585v2.869h-6.585zm-8.867-.13h6.91v22.95h-6.91zm-11.41.129v17.801c.103 1.253.256 4.686 3.912 5.02h6.585v-5.216c-2.853.63-3.517-.979-3.651-3.13v-5.606h3.456l.056-4.825h-3.512V4.767Zm-11.603.004v17.8m0-17.8v17.8m0-17.8v17.8c.103 1.254.256 4.687 3.912 5.02h6.585v-5.215c-2.853.629-3.517-.98-3.651-3.13V13.64h3.455l.057-4.825H56.9V4.771Z"/>
  <path fill="#ffffff" d="M142.967 29.49a38.072 37.086 0 0 0-32.653 36.719 38.072 37.086 0 1 0 76.143 0 38.072 37.086 0 0 0-43.49-36.719zm3.472 20.492a13.676 16.387 0 0 1 15.624 16.225 13.676 16.387 0 1 1-27.352 0 13.676 16.387 0 0 1 11.728-16.225z" transform="scale(.2646)"/>
</svg>