<svg xmlns="http://www.w3.org/2000/svg" fill-rule="evenodd" stroke-linejoin="round" stroke-miterlimit="1.41421" clip-rule="evenodd" viewBox="92.989 133.629 376.777 135.498">
  <g fill-rule="nonzero">
    <path fill="#fff" d="M277.3696 249.3338c6.6096 6.4188 15.6228 10.3872 25.5636 10.3872L460 259.739l-33.9216-101.1984c-4.6332-10.7508-15.5028-18.2796-28.5576-18.2796-12.9996 0-24.0336 7.7748-28.494 18.4812l-11.3076 32.9652-.0444-49.7436-54.8508-.0276c-9.9144 0-18.8268 3.8688-25.3908 10.2684l.0192-10.224h-56.1612c-10.4604 0-19.974 4.4604-26.628 11.4708v-11.5152l-52.932.0456c-22.8504-.0192-41.5944 17.8428-41.622 41.4588 0 10.9332 4.7784 20.8488 11.8248 28.1952L100 211.6166v48.1044l53.3304-.0096c14.9844-.018 29.8332-9.0588 34.9944-19.8912l.1548-.4452c5.9628 12.0432 18.4068 20.346 32.8092 20.346l56.0796-.0096v-10.3776"/>
    <g fill="#0060a8">
      <path d="m108.2392 251.4902 44.9724-.0456c18.3996 0 33.3108-14.8656 33.3108-33.1824 0-18.3528-14.9112-33.2196-33.3108-33.2196l-11.6796.0636c-.9204 0-1.6668-.7548-1.6668-1.6836s.7464-1.6848 1.6668-1.6848l44.8908.0096.018-14.0832h-44.9184c-8.6844 0-15.75 7.0548-15.75 15.7224 0 8.676 7.0644 15.7032 15.75 15.7032l11.7348.1548c10.542 0 19.0728 8.502 19.0728 18.9912 0 10.4964-8.5296 19.0176-19.0728 19.0176h-45z"/>
      <path d="M108.2572 233.9474h45c8.712 0 15.7584-7.0272 15.7584-15.7128 0-8.676-7.0464-15.6948-15.7584-15.6948l-11.7348-.1272c-10.524 0-19.0632-8.5116-19.0632-19.0272 0-10.4868 8.5392-18.9996 19.0632-18.9996l44.9184-.0096-.018-14.1372H141.532c-18.3804 0-33.3108 14.8488-33.3108 33.1836s14.9304 33.192 33.3108 33.192l11.616.018c.8832 0 1.6296.72 1.6296 1.6296 0 .8928-.7464 1.6116-1.6296 1.6116l-44.9088.036zm113.1324 3.396c-7.8024 0-14.1936-6.2184-14.1936-14.1576v-44.9256c0-7.638 6.3912-13.92 14.1936-13.92l48.0036.0084V150.239h-48.0036c-15.6216 0-28.2756 12.6084-28.2756 28.176v44.772c0 15.5688 12.654 28.1952 28.2756 28.1952l47.8032.0192-.0096-14.0748z"/>
      <path d="M210.6376 178.415c0-5.9532 4.7892-10.7784 10.752-10.7784h48.0036v14.1288h-41.358c-3.3132 0-3.3588 3.2868-3.3588 3.2868H259.18v14.0652h-48.5592zm10.752 55.506c-5.9448 0-10.77-4.7976-10.77-10.734v-20.7204h48.5592v14.094h-34.5036c.0456 3.3132 3.3588 3.33 3.3588 3.33h41.1576l-.0096 14.0112zm81.6432 3.3864c-7.7748 0-14.1288-6.336-14.1288-14.1216v-44.772c0-7.7928 6.3084-14.0748 14.0916-14.0748h46.494v-14.1h-46.602c-15.6144 0-28.2684 12.6084-28.2684 28.176v44.772c0 15.5688 12.7632 28.1952 28.3764 28.1952l46.494.0192v-66.3492h-39.9564v14.0652h25.836v38.19z"/>
      <path d="M292.2172 223.1858c0 5.9652 4.8252 10.8168 10.7784 10.8168h29.0412v-31.554H309.568v14.112h8.3388l.0264 3.3132h-8.3016c-1.812 0-3.2952-1.5012-3.2952-3.3132l-.0744-31.518s-.0096-3.2772 3.3324-3.3588h39.9108l-.018-14.0568-46.494.0096c-5.9532 0-10.7784 4.8252-10.7784 10.7784v44.7708m100.9632-55.7592c.6264-1.7928 2.3292-3.0852 4.3416-3.0852 2.0136 0 3.7332 1.2924 4.3428 3.0852l22.5696 66.6756h-33.048l.036-15.6852h11.0436l-4.9716-14.7756-16.1952 47.748h-16.6596z"/>
      <path d="M428.9824 237.3074h-37.5432v14.082h57.1344l-29.7144-87.9144c-2.604-8.5752-11.1876-14.8836-21.3492-14.8836-10.1772 0-18.7344 6.2808-21.3576 14.8488l-29.9868 87.9504h14.958l29.1144-85.4928c1.182-2.8308 3.9696-4.8252 7.2468-4.8252 3.2592 0 6.0624 1.9944 7.2552 4.8072z"/>
    </g>
  </g>
</svg>