<svg xmlns="http://www.w3.org/2000/svg" fill-rule="evenodd" stroke-linejoin="round" stroke-miterlimit="1.414" clip-rule="evenodd" viewBox="92.989 133.629 48.352 14.618">
  <g fill="#fff" fill-rule="nonzero">
    <path d="m92.992 148.247 6.389-.006c2.613 0 4.732-2.112 4.732-4.714a4.725 4.725 0 0 0-4.732-4.72l-1.66.01a.238.238 0 0 1-.237-.24.24.24 0 0 1 .237-.24l6.378.002.002-2H97.72a2.238 2.238 0 0 0-2.238 2.233 2.235 2.235 0 0 0 2.238 2.231l1.667.022a2.703 2.703 0 0 1 2.71 2.698 2.705 2.705 0 0 1-2.71 2.702h-6.393z"/>
    <path d="M92.994 145.755h6.393a2.234 2.234 0 0 0 2.239-2.232 2.233 2.233 0 0 0-2.239-2.23l-1.667-.018a2.705 2.705 0 0 1-2.708-2.703c0-1.49 1.213-2.7 2.708-2.7h6.381l-.002-2.009H97.72c-2.61 0-4.732 2.11-4.732 4.714 0 2.605 2.121 4.716 4.732 4.716l1.65.002c.126 0 .232.102.232.232a.232.232 0 0 1-.231.229l-6.38.005zm16.072.483a2.006 2.006 0 0 1-2.016-2.012v-6.382c0-1.085.908-1.978 2.016-1.978l6.82.001v-2.004h-6.82a4.009 4.009 0 0 0-4.017 4.003v6.36a4.011 4.011 0 0 0 4.017 4.006l6.791.003-.001-2z"/>
    <path d="M107.539 137.866c0-.846.68-1.531 1.527-1.531h6.82v2.007h-5.876c-.47 0-.477.467-.477.467h4.902v1.998h-6.899zm1.527 7.885c-.844 0-1.53-.681-1.53-1.525v-2.943h6.899v2.002h-4.902c.006.47.477.473.477.473h5.847l-.001 1.99zm11.599.481a2.01 2.01 0 0 1-2.007-2.006v-6.36a2 2 0 0 1 2.002-2h6.605v-2.003h-6.62a4.009 4.009 0 0 0-4.017 4.003v6.36c0 2.212 1.813 4.006 4.032 4.006l6.605.003v-9.426h-5.677v1.998h3.67v5.425z"/>
    <path d="M119.128 144.226c0 .848.686 1.537 1.532 1.537h4.125v-4.483h-3.192v2.005h1.185l.004.47h-1.18a.472.472 0 0 1-.468-.47l-.01-4.478s-.002-.465.473-.477h5.67l-.003-1.997-6.605.002a1.53 1.53 0 0 0-1.531 1.53v6.361m14.343-7.921a.654.654 0 0 1 1.234 0l3.206 9.472h-4.695l.006-2.228h1.568l-.706-2.1-2.3 6.784h-2.367z"/>
    <path d="M138.558 146.232h-5.334v2h8.117l-4.221-12.489c-.37-1.218-1.59-2.114-3.033-2.114-1.446 0-2.662.892-3.034 2.11l-4.26 12.494h2.124l4.137-12.145a1.114 1.114 0 0 1 1.03-.686c.462 0 .86.283 1.03.683z"/>
  </g>
</svg>