<svg xmlns="http://www.w3.org/2000/svg" fill-rule="evenodd" stroke-linejoin="round" stroke-miterlimit="1.41421" clip-rule="evenodd" viewBox="92.989 133.629 376.777 135.498">
  <g fill="#fff" fill-rule="nonzero">
    <path d="m108.2392 251.4902 44.9724-.0456c18.3996 0 33.3108-14.8656 33.3108-33.1824 0-18.3528-14.9112-33.2196-33.3108-33.2196l-11.6796.0636c-.9204 0-1.6668-.7548-1.6668-1.6836s.7464-1.6848 1.6668-1.6848l44.8908.01.018-14.0832h-44.9184c-8.6844 0-15.75 7.0548-15.75 15.7224 0 8.676 7.0644 15.7032 15.75 15.7032l11.7348.1548c10.542 0 19.0728 8.502 19.0728 18.9912 0 10.4964-8.5296 19.0176-19.0728 19.0176h-45z"/>
    <path d="M108.2572 233.9474h45c8.712 0 15.7584-7.0272 15.7584-15.7128 0-8.676-7.0464-15.6948-15.7584-15.6948l-11.7348-.1272c-10.524 0-19.0632-8.5116-19.0632-19.0272 0-10.4868 8.5392-18.9996 19.0632-18.9996l44.9184-.01-.018-14.1372H141.532c-18.3804 0-33.3108 14.8488-33.3108 33.1836 0 18.3348 14.9304 33.192 33.3108 33.192l11.616.018c.8832 0 1.6296.72 1.6296 1.6296 0 .8928-.7464 1.6116-1.6296 1.6116l-44.9088.036zm113.1324 3.396c-7.8024 0-14.1936-6.2184-14.1936-14.1576v-44.9256c0-7.638 6.3912-13.92 14.1936-13.92l48.0036.008V150.239h-48.0036c-15.6216 0-28.2756 12.6084-28.2756 28.176v44.772c0 15.5688 12.654 28.1952 28.2756 28.1952l47.8032.0192-.01-14.0748z"/>
    <path d="M210.6376 178.415c0-5.9532 4.7892-10.7784 10.752-10.7784h48.0036v14.1288h-41.358c-3.3132 0-3.3588 3.2868-3.3588 3.2868H259.18v14.0652h-48.5592zm10.752 55.506c-5.9448 0-10.77-4.7976-10.77-10.734v-20.7204h48.5592v14.094h-34.5036c.0456 3.3132 3.3588 3.33 3.3588 3.33h41.1576l-.01 14.0112zm81.6432 3.3864c-7.7748 0-14.1288-6.336-14.1288-14.1216v-44.772c0-7.7928 6.3084-14.0748 14.0916-14.0748h46.494v-14.1h-46.602c-15.6144 0-28.2684 12.6084-28.2684 28.176v44.772c0 15.5688 12.7632 28.1952 28.3764 28.1952l46.494.0192v-66.3492h-39.9564v14.0652h25.836v38.19z"/>
    <path d="M292.2172 223.1858c0 5.9652 4.8252 10.8168 10.7784 10.8168h29.0412v-31.554H309.568v14.112h8.3388l.0264 3.3132h-8.3016c-1.812 0-3.2952-1.5012-3.2952-3.3132l-.0744-31.518s-.01-3.2772 3.3324-3.3588h39.9108l-.018-14.0568-46.494.01c-5.9532 0-10.7784 4.8252-10.7784 10.7784v44.7708m100.9632-55.7596c.6264-1.7928 2.3292-3.0852 4.3416-3.0852 2.0136 0 3.7332 1.2924 4.3428 3.0852l22.5696 66.6756h-33.048l.036-15.6852h11.0436l-4.9716-14.7756-16.1952 47.748h-16.6596z"/>
    <path d="M428.9824 237.3074h-37.5432v14.082h57.1344l-29.7144-87.9144c-2.604-8.5752-11.1876-14.8836-21.3492-14.8836-10.1772 0-18.7344 6.2808-21.3576 14.8488l-29.9868 87.9504h14.958l29.1144-85.4928c1.182-2.8308 3.9696-4.8252 7.2468-4.8252 3.2592 0 6.0624 1.9944 7.2552 4.8072z"/>
  </g>
</svg>