<svg xmlns="http://www.w3.org/2000/svg" xml:space="preserve" viewBox=".25 0 253.14752 109.20615">
  <path fill="none" stroke="#fff" stroke-width=".33318" d="M89.555931.00195749V5.7768132h.149725c.474388 0 21.755244.3982134 21.755244 9.4577478v78.032491c0 5.239646-9.70275 9.457748-21.755244 9.457748h-.149725v5.77402h65.268249v-5.77402h-.14972c-12.0525 0-21.75525-4.218102-21.75525-9.457748V15.234561c0-9.0595344 21.28087-9.4577478 21.75525-9.4577478h.14972V.00195749Z" color="#000" overflow="visible" style="isolation:auto;mix-blend-mode:normal;solid-color:#000;solid-opacity:1"/>
  <rect width="214.32845" height="20.550419" x="19.656925" y="69.30394" fill="none" stroke="#fff" stroke-width=".33318" color="#000" overflow="visible" rx="9.5349207" ry="9.5349207" style="isolation:auto;mix-blend-mode:normal;solid-color:#000;solid-opacity:1"/>
  <path fill="#fff" stroke="#fff" stroke-width=".33318" d="M75.398337 78.061291q0 .613274-.214648 1.20202-.214648.582612-.613275.981242-.545815.539682-1.220421.815654-.668469.275977-1.668109.275977h-1.465729v2.974388h-2.35498v-9.131678h3.875903q.870853 0 1.465729.153316.60101.147189 1.060968.447694.55195.36183.840187.926047.294375.564214.294375 1.35534zm-2.434707.05519q0-.386366-.208514-.662339-.208514-.282107-.484487-.392496-.367967-.147189-.717533-.159453-.349569-.01839-.932181-.01839h-.40476v2.735211h.674603q.60101 0 .987375-.07359.392496-.07359.656205-.294375.226912-.196246.325034-.466089.104258-.275973.104258-.668469zm13.025862 6.194086H79.40291v-9.131678h2.35498v7.36544h4.231602zm12.511712 0h-2.434706l-.779731-1.845961h-4.632175l-.824147 1.845961h-2.373378l4.166729-9.131678h2.710679zm-3.918036-3.520204-1.634695-3.274893-1.619891 3.274893zm15.447382-5.611474-3.51494 5.599207v3.532471h-2.35498V80.88849l-3.59975-5.709596h2.67388l2.15242 3.532468 2.05534-3.532468zm16.73342 6.095961c0 .89947-.38227 1.631313-1.14682 2.195527-.76046.560125-1.79486.84019-3.10318.84019-.75638 0-1.41667-.06542-1.98088-.19625-.56013-.134921-1.0855-.304593-1.57612-.509019l.75645-1.764245c.296.169162.80179.35552 1.13244.470234.6051.208514 1.18567.312769 1.7417.312769.1431 0 .33117-.01226.56422-.0368.23304-.02452.42316-.06542.57034-.122654.1799-.0736.32708-.165587.44156-.275976.11857-.110389.17785-.273931.17785-.490621 0-.200338-.0859-.372052-.25757-.51515-.16763-.147189-.41499-.25962-.74207-.337301-.34343-.08177-.70731-.157408-1.09163-.226912-.38023-.0736-.73798-.165587-1.07323-.275977-.76864-.249398-1.32263-.5867-1.66198-1.011904-.33526-.429292-.50288-.960798-.50288-1.594516 0-.850412.38023-1.543413 1.14069-2.079007.76455-.539681 1.74579-.809524 2.94372-.809524.60101 0 1.19385.05928 1.7785.177852.58875.114477 1.09777.259617 1.52706.435423l-.99266 1.632525c-.19074-.09649-.39544-.184792-.61412-.264918-.53151-.200338-1.07528-.300505-1.63132-.300505-.19625 0-.3925.01433-.58874.04293-.19216.02452-.37819.07359-.55808.147186-.15945.06133-.29642.155362-.4109.282107-.11448.122653-.17172.263708-.17172.423158 0 .241222.092.42725.27598.558083.18398.126745.53151.243265 1.04257.349566.33526.0695.6562.136967.96284.20238.31073.06542.64394.155365.99964.269843.69914.228958 1.21428.541727 1.54546.938311.33525.392496.50288.903561.50288 1.533191zm33.29896-4.329727h-2.85173v7.365444h-2.35498v-7.365444h-2.85173v-1.766234h8.05844zm10.01188 7.365444h-7.02375v-9.131678h7.02375v1.766234h-4.68104v1.576121h4.3744v1.766234h-4.3744v2.256855h4.68104zm15.70628 0h-2.46834l-.20939-4.401308-2.54917 4.399389h-1.62518l-2.54917-4.399389-.20938 4.401308h-2.34569l.33502-9.131678h2.2955l3.35071 6.310539 3.34457-6.310539h2.2955zm-46.85537-9.131678-3.51494 5.599207v3.532471h-2.35498V80.88849l-3.59975-5.709596h2.67388l2.15242 3.532468 2.05535-3.532468zm10.0331 6.095961c0 .89947-.38228 1.631313-1.14683 2.195527-.76046.560125-1.79485.84019-3.10317.84019-.75638 0-1.41667-.06542-1.98089-.19625-.56012-.134921-1.08549-.304593-1.57611-.509019l.75644-1.764245c.296.169162.8018.35552 1.13245.470234.60509.208514 1.18566.312769 1.7417.312769.1431 0 .33117-.01226.56421-.0368.23305-.02452.42316-.06542.57035-.122654.17989-.0736.32708-.165587.44156-.275976.11857-.110389.17785-.273931.17785-.490621 0-.200338-.0859-.372052-.25758-.51515-.16763-.147189-.41498-.25962-.74206-.337301-.34344-.08177-.70731-.157408-1.09163-.226912-.38023-.0736-.73798-.165587-1.07324-.275977-.76864-.249398-1.32263-.5867-1.66197-1.011904-.33526-.429292-.50289-.960798-.50289-1.594516 0-.850412.38023-1.543413 1.14069-2.079007.76455-.539681 1.7458-.809524 2.94373-.809524.60101 0 1.19384.05928 1.7785.177852.58874.114477 1.09776.259617 1.52706.435423l-.99267 1.632525c-.19073-.09649-.39544-.184792-.61412-.264918-.5315-.200338-1.07528-.300505-1.63131-.300505-.19625 0-.3925.01433-.58875.04293-.19216.02452-.37819.07359-.55808.147186-.15945.06133-.29642.155362-.41089.282107-.11448.122653-.17172.263708-.17172.423158 0 .241222.092.42725.27598.558083.18398.126745.5315.243265 1.04256.349566.33526.0695.65621.136967.96285.20238.31072.06542.64394.155365.99964.269843.69913.228958 1.21428.541727 1.54545.938311.33526.392496.50289.903561.50289 1.533191z"/>
  <path fill="none" stroke="#fff" d="M45.004387 30.699136 33.035818 43.340863l-7.904901-5.419393s2.60084-2.481979.228309-4.289621c-1.850009-1.40987-7.039921 1.580506-6.81514 7.451815.263615 6.772774 4.448492 10.609306 9.071162 10.609306 4.29315 0 5.42057-3.461113 5.42057-3.461113h9.618401v7.980222l13.522007-35.673861h15.467345L84.06287 52.601497s.902647 1.68996 1.805286 2.141867c0 0 .05182-21.032666.05182-21.623443 0-.588425-.07764-1.239227-.446029-1.661717-.606076-.69787-1.638175-.987373-1.638175-.987373v-9.932613h21.674058c11.24245 0 14.12573 3.048039 17.3856 8.919345 4.50028-6.0596 10.6964-10.049127 19.53101-10.049127 9.08882 0 15.52031 3.350495 19.19326 8.918175 5.12989-6.132572 13.38667-8.974665 20.94205-8.974665 9.28534 0 17.03961 4.500272 21.05267 11.45899V20.538218h20.8832l2.20071 5.585329 1.63936-5.585329h21.56225v9.706659s-1.24393.341286-1.58757.901467c-.33422.553122-.27538 2.318397-.27538 2.318397l3.00803 19.187358c.12592.623739.34834 1.275714.88617 1.753511.62373.557826 1.46635.453086 1.46635.453086v11.060042h-21.67405v-8.354459h-12.41695v8.376818h-20.37716v-5.445284s-7.44711 6.550345-17.0455 6.550345c-12.28396 0-20.49132-9.029976-20.49132-9.029976v7.901376h-14.44701c-12.85944 0-23.8983-7.036385-26.98165-19.868762-1.46165 1.398099-7.90725 5.999579-15.63681 7.733086-.60137.135339-.90147.360109-.90147 1.012094 0 1.188615 2.53965 1.612284 2.53965 1.612284v9.510126H26.718526C12.040848 65.919051.24998457 55.871963.24998457 43.116083c0-12.757053 9.19237753-23.595846 24.43141143-23.595846 14.564698 0 20.323028 11.178899 20.323028 11.178899z" clip-rule="evenodd"/>
  <path fill="#fff" fill-rule="evenodd" d="m39.301371 30.896852-6.376174 6.685685s-.338933.170643-.6202.170643c-.283623 0-.680222-.283623-.680222-.283623l-.788487-.674334s-.227132-.0553-.227132-.283623c0-.222418.621376-.790839.621376-1.862949 0-1.073292-.22478-5.532373-7.11053-5.532373s-9.933792 6.43501-9.933792 11.741433c0 5.30642 3.271643 15.014252 13.999809 15.014252 6.238486 0 7.560087-3.502307 7.560087-3.502307h2.144223v9.146481H26.151248c-13.99746 0-21.7882081-10.95294-21.7882081-18.854312 0-12.11568 10.5351631-18.839023 20.0947191-18.839023 9.257105.000999 14.843612 7.07405 14.843612 7.07405zm19.758138-6.067843h9.651346l11.741443 30.706373c.336581.843805.901467 1.639358 1.46517 2.31252.562544.677859 1.91827 1.132124 1.91827 1.132124v2.649091H69.672347v-2.709106s.900284.116505 1.353379-.675513c.450734-.79085.450734-1.411043.114153-2.200709-.338933-.792023-2.714992-7.055217-2.714992-7.055217H56.856448s-2.368999 6.320857-2.597311 6.884574c-.225954.563713-.225954 1.468705 0 2.031236.375415.939136 1.694665 1.076827 1.694665 1.076827V61.6303h-11.34719v-2.649091s1.032098-.355415 1.806466-1.132134c.846153-.846157 1.127423-1.751149 1.127423-1.751149zm-.284795 18.400054h7.452988l-3.837708-10.723461Zm29.576594-18.400054h18.063482c6.66097 0 13.31959 2.36782 13.31959 10.044413 0 7.676602-4.85451 10.388063-9.02998 12.307502-4.82155 2.214836-11.175362 3.951867-11.175362 3.951867v5.867772s.05649.396595.620202 1.069757c.56606.677866 1.18626.848512 1.18626.848512v2.709105H88.239508v-2.64908s.78967-.171825 1.356915-.735539c.562534-.564886.677859-1.242755.677859-1.242755V30.47201s.05182-1.129779-.396595-1.579333c-.450734-.455448-1.525196-1.073289-1.525196-1.073289v-2.990379h-.000999zm11.289531 5.530021v15.690939s10.610481-4.401412 10.610481-10.610478c0-7.676596-10.610481-5.080461-10.610481-5.080461zm59.212041.602545-6.37853 6.685685s-.33893.169469-.62138.169469c-.28008 0-.67551-.282443-.67551-.282443l-.79202-.679048s-.22477-.05292-.22477-.277736c0-.227126.61902-.795543.61902-1.862949 0-1.074461-.22242-5.533556-7.11053-5.533556-6.8881 0-9.93497 6.432671-9.93497 11.740264 0 5.302885 3.27399 15.014252 14.00099 15.014252 6.23848 0 7.56126-3.501127 7.56126-3.501127h2.14658v9.144128h-11.7438c-13.99628 0-21.7882-10.949414-21.7882-18.851967 0-12.11449 10.53399-18.840195 20.09472-18.840195 9.25828 0 14.84714 7.075223 14.84714 7.075223zm22.86149 31.726708c-12.19452 0-20.95852-8.904049-20.95852-19.739311 0-10.842318 8.99114-19.23915 20.95852-19.23915 11.96269 0 20.95383 8.396832 20.95383 19.23915 0 10.834082-8.76518 19.739311-20.95383 19.739311zm-10.84114-19.5722c0 10.837614 5.53238 13.546729 10.84114 13.546729 5.30172 0 10.94942-3.386974 10.94942-13.546729 0-10.158565-6.32204-13.546719-10.94942-13.546719-4.62972 0-10.84114 2.706753-10.84114 13.546719zm37.2532-18.263535h13.4361l4.85451 14.990716 5.19108-15.014255h14.05277v2.19953s-.93442.395423-1.34984.903829c-.50841.621376-.50841 1.072109-.39661 1.978281.11298.900287 3.72474 25.39878 3.83889 26.302599.11415.903823.22478 1.411046.45073 2.032422.2236.615499 1.29925 1.126248 1.29925 1.126248v2.277206h-13.49259v-2.445497s1.18509-.16829 1.58286-.735528c.39543-.564887.56253-.90382.45074-1.805287-.11299-.902649-3.32813-21.449275-3.32813-21.449275l-5.87131 18.175274h-7.11171l-5.81599-17.049026-2.93389 20.095892s-.11416 1.206269.33893 1.864131c.6202.903819 1.75233.903819 1.75233.903819v2.42549h-11.68848v-2.592601s.9309-.143578 1.60758-.935597c.67669-.787314.79084-1.806469.79084-1.806469l4.26373-26.500306s.25538-.989735-.0282-1.439289c-.29775-.475452-1.89238-.874403-1.89238-.874403v-2.627904h-.001z" clip-rule="evenodd"/>
</svg>